<svg width="74" height="74" viewBox="0 0 74 74" fill="none" xmlns="http://www.w3.org/2000/svg">
<path fill-rule="evenodd" clip-rule="evenodd" d="M73.3867 37.3134C73.3867 34.9772 73.1695 32.6978 72.7207 30.3449L72.5459 29.44H72.5225C70.5168 20.5939 65.255 12.6003 57.9785 7.397C57.4774 7.0375 56.7836 7.15437 56.4239 7.6541C56.0664 8.15384 56.18 8.84947 56.68 9.20674C63.7449 14.2598 68.7907 22.1198 70.5291 30.7712L70.5748 30.9971C70.969 33.1285 71.1594 35.1964 71.1594 37.3134C71.1594 37.9278 71.6572 38.4264 72.273 38.4264C72.8889 38.4264 73.3867 37.9278 73.3867 37.3134ZM9.01225 16.5626C14.1494 9.68311 21.633 4.99403 30.0877 3.35903C32.2292 2.93943 34.4375 2.72796 36.6492 2.72796C41.9211 2.72796 47.0048 3.90885 51.7633 6.23614C52.3179 6.5066 52.985 6.27955 53.2534 5.72638C53.5229 5.17434 53.2946 4.50765 52.7422 4.23719C47.6774 1.75853 42.2641 0.501953 36.6492 0.501953C34.2938 0.501953 31.9419 0.727893 29.6623 1.17421C20.6641 2.91494 12.6972 7.90675 7.2271 15.2314C6.85849 15.7245 6.96095 16.4212 7.45317 16.7885C7.65362 16.9377 7.88637 17.01 8.11801 17.01C8.45878 17.01 8.79398 16.8553 9.01225 16.5626ZM2.25364 46.6069C2.85166 46.4634 3.22027 45.8623 3.07772 45.2647C3.05545 45.1723 3.03318 45.0944 3.01202 45.022H3.01425L2.78038 43.6942C1.29258 36.1714 2.463 28.2424 6.02773 21.3663C6.31059 20.8209 6.15468 20.1487 5.609 19.866C5.06221 19.5833 4.50539 19.797 4.22253 20.3423C0.445104 27.6269 -1.22645 36.0256 1.00081 44.0047V44.0103C1.00081 44.8529 0.938442 45.1623 1.05871 45.5118C1.08433 45.5874 0.883874 45.6687 0.911715 45.7856C1.03421 46.2942 1.4908 46.6392 1.99416 46.6392C2.07991 46.637 2.16677 46.6259 2.25364 46.6069ZM28.6021 72.4097C37.5044 60.5518 40.2339 49.9771 37.735 37.0496C37.618 36.4464 37.0311 36.0512 36.4298 36.1681C35.8262 36.285 35.432 36.8682 35.5478 37.4725C37.951 49.8825 35.4208 59.6168 26.8214 71.073C26.4517 71.5649 26.5519 72.2628 27.0441 72.63C27.2446 72.7803 27.4796 72.8526 27.7112 72.8526C28.0497 72.856 28.3838 72.7024 28.6021 72.4097ZM33.4764 73.2845C42.1761 60.9936 44.7575 49.9037 42.1071 36.2059C41.8242 34.7435 40.9879 33.4791 39.754 32.6455C38.5234 31.814 37.0412 31.5124 35.5834 31.7962C34.1235 32.0789 32.8606 32.9126 32.0276 34.1458C31.1957 35.3779 30.8928 36.8615 31.1757 38.3206C32.1679 43.4505 32.1713 48.085 31.1868 52.4892C31.0532 53.0891 31.4307 53.6834 32.031 53.817C32.6345 53.9516 33.227 53.5732 33.3606 52.9733C34.413 48.2664 34.4141 43.3325 33.3629 37.8955C33.1936 37.0184 33.3751 36.128 33.874 35.3879C34.3729 34.6477 35.1302 34.148 36.0077 33.9777C36.8841 33.8085 37.7706 33.9888 38.5078 34.4864C39.2495 34.9861 39.7506 35.7452 39.9232 36.6244C42.4467 49.6688 39.9756 60.249 31.6601 71.9956C31.3049 72.4976 31.424 73.191 31.9263 73.5483C32.1223 73.6863 32.3461 73.7531 32.5688 73.7531C32.9152 73.7531 33.2593 73.5906 33.4764 73.2845ZM24.1131 70.9472C27.4551 66.6621 29.8716 62.6876 31.4998 58.7932C31.737 58.2256 31.4686 57.5734 30.9006 57.3363C30.3304 57.097 29.6801 57.3652 29.444 57.934C27.8938 61.6425 25.5752 65.4512 22.3569 69.5771C21.9782 70.0623 22.0651 70.7602 22.5506 71.1375C22.7544 71.2967 22.995 71.3735 23.2344 71.3735C23.5663 71.3757 23.8937 71.2288 24.1131 70.9472ZM19.9926 68.9749C27.9796 59.0102 30.6979 50.9387 29.3727 41.1176C29.2903 40.5066 28.7257 40.087 28.1199 40.1638C27.5107 40.2461 27.0831 40.806 27.1655 41.4159C28.4172 50.6861 25.9182 58.0241 18.2554 67.5848C17.8701 68.0656 17.948 68.7668 18.428 69.1486C18.6329 69.3133 18.879 69.3934 19.124 69.3934C19.4492 69.3923 19.7732 69.2521 19.9926 68.9749ZM46.419 46.135C47.0349 46.135 47.5249 45.652 47.516 45.0398C47.4681 41.9067 47.1217 38.6701 46.4781 35.3578C45.5671 30.6521 41.4344 27.2374 36.6469 27.2374C36.0066 27.2374 35.3629 27.2997 34.7348 27.421C32.1056 27.9308 29.8327 29.4333 28.3337 31.6515C27.6143 32.7178 27.1121 33.8954 26.8414 35.1519C26.7123 35.753 27.0942 36.3451 27.6956 36.4742C28.2992 36.5999 28.8894 36.2204 29.0186 35.6205C29.2291 34.6422 29.6211 33.7239 30.1801 32.8948C31.345 31.1696 33.1134 29.9987 35.1591 29.6025C35.648 29.5079 36.1492 29.4556 36.6469 29.4556C40.3687 29.4556 43.5837 32.1045 44.292 35.7641C44.9078 38.9495 45.243 42.0704 45.2887 45.0732C45.2976 45.682 45.7932 46.1362 46.4023 46.1362C46.4068 46.135 46.4135 46.135 46.419 46.135ZM38.7239 73.4537C43.5615 66.0088 46.3377 58.7053 47.2097 51.1257C47.2788 50.5147 46.8422 49.9627 46.2308 49.8936C45.6172 49.8246 45.0671 50.262 44.998 50.872C44.1651 58.1009 41.5013 65.0906 36.8552 72.2405C36.52 72.7569 36.667 73.4459 37.1826 73.7809C37.3708 73.9022 37.5813 73.9601 37.7884 73.9601C38.1526 73.9601 38.5123 73.782 38.7239 73.4537ZM44.3867 72.7836C51.495 60.6085 53.5507 48.4467 50.8535 34.5097C50.0617 30.4239 47.5371 26.869 43.9301 24.7587C43.4 24.4471 42.7173 24.6252 42.4077 25.1561C42.097 25.687 42.2752 26.3681 42.8053 26.6786C45.86 28.4661 47.9959 31.4746 48.6675 34.9327C51.2544 48.3087 49.2855 59.9797 42.4645 71.6617C42.1561 72.1937 42.3354 72.8749 42.8643 73.1832C43.0403 73.2878 43.2341 73.3357 43.4256 73.3357C43.8065 73.3357 44.1795 73.1409 44.3867 72.7836ZM16.2408 66.5364C24.24 56.6818 26.5096 49.3783 24.6164 39.5906C23.9939 36.3762 24.6598 33.1129 26.4929 30.4016C28.3259 27.6893 31.1033 25.8539 34.3161 25.2306C35.4142 25.0158 36.5534 24.9624 37.657 25.0503C38.2639 25.0993 38.8074 24.643 38.8564 24.0308C38.9065 23.4187 38.4499 22.8811 37.8363 22.8321C36.5322 22.7264 35.187 22.7932 33.8907 23.0447C30.0944 23.7793 26.8114 25.9496 24.6465 29.154C22.4816 32.3572 21.6943 36.2137 22.4292 40.0113C24.1788 49.0567 22.0328 55.8649 14.5113 65.1306C14.1238 65.6092 14.1962 66.3104 14.6739 66.6955C14.88 66.8625 15.1283 66.9459 15.3744 66.9459C15.6996 66.9482 16.0203 66.8079 16.2408 66.5364ZM50.4526 70.9906C52.1186 67.6583 53.4605 64.2224 54.4416 60.7777C54.6087 60.1867 54.2668 59.5712 53.6754 59.4031C53.083 59.2328 52.4672 59.5779 52.3001 60.1689C51.358 63.4812 50.0684 66.7857 48.4625 69.9945C48.1875 70.5443 48.4091 71.2132 48.9592 71.4881C49.1207 71.566 49.29 71.6039 49.457 71.6039C49.8646 71.6061 50.2566 71.3824 50.4526 70.9906ZM55.7691 54.8743C56.8671 48.1685 56.69 41.2289 55.2256 33.6638C53.5051 24.7765 45.693 18.3256 36.6514 18.3256C35.4409 18.3256 34.2281 18.4424 33.0477 18.6728C28.082 19.6322 23.789 22.4704 20.9581 26.6631C18.1262 30.8535 17.0972 35.8965 18.0583 40.8639C18.5438 43.3726 18.6741 45.4784 18.4692 47.4929C18.4068 48.105 18.8523 48.6504 19.4637 48.7139C20.0851 48.7639 20.6218 48.331 20.6842 47.7188C20.9136 45.4817 20.7733 43.1689 20.2454 40.4398C19.3957 36.0568 20.3044 31.607 22.8034 27.9085C25.3013 24.21 29.0888 21.7058 33.472 20.8588C34.5132 20.6551 35.5834 20.5527 36.6503 20.5527C44.6294 20.5527 51.5217 26.2446 53.0396 34.0879C54.4528 41.3903 54.6254 48.0728 53.5708 54.5159C53.4717 55.1225 53.8815 55.6946 54.4906 55.7926C54.5519 55.8037 54.6098 55.8081 54.671 55.8081C55.2067 55.8059 55.68 55.4197 55.7691 54.8743ZM12.8409 63.6537C15.7898 60.0019 17.84 56.7609 19.1062 53.7491C19.3445 53.1814 19.0783 52.5292 18.5104 52.291C17.9413 52.054 17.291 52.3189 17.0527 52.8843C15.8689 55.7013 13.9234 58.7665 11.107 62.2557C10.7206 62.7343 10.7963 63.4355 11.274 63.8206C11.4801 63.9854 11.7273 64.0666 11.9723 64.0666C12.2986 64.0666 12.6215 63.9253 12.8409 63.6537ZM9.79624 60.328C17.0616 51.1591 16.8722 46.4667 15.8711 41.2857C14.7964 35.7363 15.9468 30.0989 19.1106 25.4132C20.2465 23.7325 21.6107 22.2255 23.1676 20.9356C23.6409 20.5427 23.7066 19.8415 23.3135 19.3684C22.9204 18.8954 22.2188 18.8309 21.7455 19.2226C20.026 20.6473 18.5182 22.3112 17.2642 24.1677C13.7674 29.3454 12.4968 35.5749 13.6839 41.7064C14.606 46.4734 14.7419 50.5002 8.05007 58.9446C7.6681 59.4276 7.74939 60.1266 8.23271 60.5083C8.43762 60.6708 8.68039 60.7487 8.92316 60.7487C9.25168 60.7499 9.57686 60.6052 9.79624 60.328ZM56.8515 67.6794C61.2036 56.7052 62.0755 45.6275 59.5977 32.8157C58.9629 29.529 57.6555 26.4772 55.7145 23.7437C55.3581 23.2428 54.6643 23.1248 54.161 23.481C53.6598 23.8372 53.5407 24.5317 53.8982 25.0336C55.6544 27.5056 56.837 30.267 57.4105 33.2398C59.8048 45.6153 58.9696 56.2979 54.7813 66.8614C54.5552 67.4323 54.8347 68.0801 55.4071 68.306C55.5419 68.3595 55.6789 68.3839 55.8158 68.3839C56.2591 68.3839 56.6789 68.1179 56.8515 67.6794ZM51.6431 20.7731C52.0351 20.2989 51.9671 19.5966 51.4905 19.206C47.3122 15.7645 42.0425 13.8691 36.6492 13.8691C35.1525 13.8691 33.6546 14.0127 32.1991 14.2976C30.4173 14.6426 28.6711 15.1958 27.0107 15.9437C26.4506 16.1964 26.2 16.8553 26.4528 17.4151C26.7045 17.975 27.3626 18.2254 27.925 17.9727C29.4284 17.296 31.0098 16.7952 32.6245 16.4824C33.9408 16.2253 35.295 16.0951 36.6492 16.0951C41.5258 16.0951 46.2943 17.8102 50.074 20.9233C50.2811 21.0947 50.5306 21.1782 50.7811 21.1782C51.103 21.1782 51.4203 21.0402 51.6431 20.7731ZM63.6046 36.5131C64.2126 36.4196 64.6302 35.8509 64.5356 35.2432C64.3696 34.1602 64.1848 33.0706 63.9709 31.9699C61.4408 18.8999 49.9515 9.41376 36.6492 9.41376C34.8685 9.41376 33.0856 9.58516 31.3539 9.92352C24.0529 11.337 17.7386 15.5097 13.5748 21.6735C11.3542 24.9602 9.88645 28.5941 9.21159 32.4729C9.10579 33.0784 9.51227 33.6549 10.1181 33.7607C10.7306 33.8664 11.3008 33.4602 11.4066 32.8547C12.0268 29.2864 13.3777 25.9441 15.4201 22.9189C19.251 17.2482 25.0596 13.4094 31.7782 12.1083C33.3729 11.7978 35.011 11.6398 36.6492 11.6398C48.8868 11.6398 59.4574 20.3679 61.7849 32.3928C61.992 33.4668 62.1724 34.5287 62.3339 35.5849C62.4174 36.1347 62.8929 36.5276 63.4331 36.5276C63.4899 36.5265 63.5467 36.522 63.6046 36.5131ZM63.3919 62.2279C65.1859 55.4787 65.7839 48.6003 65.2249 41.2C65.1781 40.5867 64.6436 40.1304 64.0322 40.1738C63.4175 40.2194 62.9575 40.7537 63.0043 41.3658C63.5455 48.5146 62.9687 55.1515 61.2403 61.6547C61.0822 62.248 61.4374 62.859 62.031 63.0171C62.1268 63.0415 62.2248 63.0538 62.3183 63.0538C62.8105 63.0549 63.2604 62.7254 63.3919 62.2279ZM7.12576 56.5082C12.8231 48.9865 12.1794 45.6564 11.4979 42.1282C11.2685 40.9484 11.1215 39.733 11.0591 38.511C11.029 37.8955 10.5156 37.4236 9.8909 37.4558C9.27729 37.487 8.804 38.0101 8.83518 38.6234C8.902 39.9479 9.06236 41.2701 9.3107 42.5512C9.94547 45.8368 10.4477 48.4323 5.34952 55.1626C4.97869 55.6523 5.07446 56.3513 5.56557 56.7208C5.76714 56.8733 6.00322 56.9467 6.23709 56.9467C6.5734 56.9501 6.90638 56.7976 7.12576 56.5082ZM4.8651 52.0495C7.98994 47.4495 7.58903 45.376 7.12576 42.9763C5.59898 35.0907 7.2349 27.0816 11.7306 20.4236C16.2275 13.7656 23.0473 9.25905 30.934 7.73313C34.0511 7.1232 37.3151 7.01413 40.548 7.43929C41.1616 7.51164 41.7184 7.08981 41.7964 6.481C41.8765 5.87108 41.4489 5.31235 40.8375 5.23221C37.3697 4.77588 33.8573 4.89275 30.5097 5.5483C22.0406 7.18776 14.7151 12.0282 9.88533 19.1792C5.05664 26.3292 3.29933 34.9316 4.93971 43.4004C5.35509 45.5485 5.62905 46.9653 3.02427 50.7996C2.67793 51.3083 2.81157 52.0017 3.32049 52.3467C3.51204 52.4769 3.7292 52.5392 3.94524 52.5392C4.29937 52.5381 4.64905 52.3678 4.8651 52.0495ZM68.4533 54.4135C68.4177 54.4135 68.3798 54.4113 68.3386 54.4091C67.7272 54.3445 67.2829 53.7992 67.343 53.187C68.0401 46.3521 67.6493 39.2745 66.1559 31.5447C64.0934 20.8999 56.4083 12.1551 46.0994 8.72147C45.517 8.5267 45.2007 7.89674 45.3956 7.31353C45.5905 6.73143 46.2164 6.41422 46.8044 6.61011C57.8727 10.2964 66.128 19.6901 68.3419 31.1229C69.8799 39.0697 70.2785 46.361 69.5602 53.4141C69.5046 53.9873 69.019 54.4135 68.4533 54.4135Z" fill="#B569B4"/>
</svg>
