<svg width="390" height="258" viewBox="0 0 390 258" fill="none" xmlns="http://www.w3.org/2000/svg">
<ellipse cx="195" cy="213.806" rx="195" ry="44.1944" fill="#F2F1F9"/>
<path d="M325.709 199.354C351.836 205.119 379.523 187.522 379.846 177.099C380.17 166.676 354.779 188.315 351.101 177.706C347.423 167.097 378.728 162.84 379.17 151.625C379.611 140.409 351.493 166.892 349.316 159.728C347.148 152.564 374.266 135.604 370.235 127.363C366.204 119.123 349.816 148.131 345.148 144.216C340.479 140.311 359.398 113.28 348.002 111.206C336.605 109.131 338.587 133.989 334.615 139.039C330.643 144.089 330.878 115.13 324.091 117.352C317.304 119.573 328.926 147.465 324.336 151.223C319.746 154.981 312.911 130.211 305.202 135.927C297.493 141.642 317.363 157.448 315.47 164.827C313.578 172.196 300.681 150.166 293.767 155.999C286.852 161.822 303.819 194.529 325.709 199.354Z" fill="#52D5BA"/>
<path d="M345.207 119.25C345.207 119.25 333.369 166.647 318.894 210.031" stroke="#4CA5A2" stroke-width="1.6286" stroke-miterlimit="10" stroke-linecap="round"/>
<path d="M368.735 156.742C368.735 156.742 336.311 172.724 325.68 187.267C325.68 187.267 326.072 161.342 309.518 143.608" stroke="#4CA5A2" stroke-width="1.6286" stroke-miterlimit="10" stroke-linecap="round"/>
<path d="M361.085 136.083C361.085 136.083 336.9 159.111 329.319 176.326C329.319 176.326 331.29 145.204 326.249 128.753" stroke="#4CA5A2" stroke-width="1.6286" stroke-miterlimit="10" stroke-linecap="round"/>
<path d="M373.344 180.172C373.344 180.172 329.495 187.424 323.983 194.666C323.983 194.666 311.842 167.508 296.768 160.256" stroke="#4CA5A2" stroke-width="1.6286" stroke-miterlimit="10" stroke-linecap="round"/>
<path d="M327.887 187.112C334.635 171.786 355.554 139.128 373.55 143.659C394.303 148.885 347.306 181.22 347.306 181.22C347.306 181.22 379.611 162.782 388.34 177.276C397.078 191.77 349.552 193.727 349.552 193.727C349.552 193.727 374.659 192.024 370.893 201.38C367.136 210.737 326.828 202.359 322.699 211.294C318.58 220.22 323.258 197.613 327.887 187.112Z" fill="#52D5BA"/>
<path d="M323.326 207.388C329.652 191.024 339.185 175.62 351.699 163.26C356.299 158.719 361.31 154.598 366.704 151.026" stroke="#4CA5A2" stroke-width="1.6286" stroke-miterlimit="10" stroke-linecap="round"/>
<path d="M323.552 207.721C337.125 190.986 357.76 180.231 378.993 179.702" stroke="#4CA5A2" stroke-width="1.6286" stroke-miterlimit="10" stroke-linecap="round"/>
<path d="M323.768 207.897C334.879 201.173 348.139 198.737 361.006 199.588" stroke="#4CA5A2" stroke-width="1.6286" stroke-miterlimit="10" stroke-linecap="round"/>
<path d="M318.07 206.078C320.394 199.266 328.416 194.314 334.644 191.76C349.895 185.506 374.59 180.261 386.153 196.056C389.83 201.087 390.978 207.879 389.134 213.829C385.77 224.702 373.609 229.644 363.252 231.141C349.404 233.138 329.838 230.241 320.639 218.468C319.05 216.432 317.824 214.054 317.501 211.5C317.265 209.581 317.501 207.771 318.07 206.078Z" fill="#52D5BA"/>
<path d="M320.148 210.118C320.148 210.118 362.654 198.678 385.937 206.507" stroke="#4CA5A2" stroke-width="1.6286" stroke-miterlimit="10" stroke-linecap="round"/>
<path d="M376.473 217.939C376.473 217.939 365.479 204.688 359.251 204.101C359.251 204.101 368.107 195.43 374.845 193.482" stroke="#4CA5A2" stroke-width="1.6286" stroke-miterlimit="10" stroke-linecap="round"/>
<path d="M358.986 188.51C358.986 188.51 346.491 197.298 346.207 205.069C346.207 205.069 357.358 216.059 361.546 224.769" stroke="#4CA5A2" stroke-width="1.6286" stroke-miterlimit="10" stroke-linecap="round"/>
<path d="M337.135 193.257C337.135 193.257 332.309 202.75 333.055 207.477C333.055 207.477 340.057 217.058 343.814 225.651" stroke="#4CA5A2" stroke-width="1.6286" stroke-miterlimit="10" stroke-linecap="round"/>
<path d="M110.641 177.996C84.5806 183.77 56.9646 166.145 56.6417 155.706C56.3189 145.266 81.6459 166.939 85.3143 156.313C88.9828 145.688 57.7569 141.424 57.3167 130.19C56.8765 118.956 84.923 145.482 87.0947 138.306C89.2567 131.131 62.208 114.143 66.2286 105.89C70.2492 97.6361 86.5958 126.69 91.2523 122.769C95.9088 118.858 77.0383 91.784 88.4056 89.7059C99.7729 87.6278 97.7968 112.526 101.759 117.584C105.721 122.642 105.486 93.6367 112.255 95.8618C119.025 98.087 107.433 126.024 112.011 129.788C116.589 133.552 123.407 108.742 131.097 114.467C138.786 120.191 118.966 136.022 120.854 143.413C122.742 150.795 135.606 128.729 142.503 134.572C149.4 140.404 132.476 173.164 110.641 177.996Z" fill="#52D5BA"/>
<path d="M91.1943 97.7637C91.1943 97.7637 103.002 145.237 117.441 188.691" stroke="#4CA5A2" stroke-width="1.6286" stroke-miterlimit="10" stroke-linecap="round"/>
<path d="M67.7256 135.317C67.7256 135.317 100.067 151.324 110.671 165.891C110.671 165.891 110.28 139.924 126.792 122.162" stroke="#4CA5A2" stroke-width="1.6286" stroke-miterlimit="10" stroke-linecap="round"/>
<path d="M75.3555 114.623C75.3555 114.623 99.4792 137.688 107.041 154.931C107.041 154.931 105.075 123.759 110.103 107.281" stroke="#4CA5A2" stroke-width="1.6286" stroke-miterlimit="10" stroke-linecap="round"/>
<path d="M63.1279 158.783C63.1279 158.783 106.866 166.046 112.363 173.3C112.363 173.3 124.474 146.099 139.51 138.835" stroke="#4CA5A2" stroke-width="1.6286" stroke-miterlimit="10" stroke-linecap="round"/>
<path d="M108.47 165.734C101.74 150.383 80.8734 117.673 62.9225 122.211C42.2227 127.436 89.1005 159.823 89.1005 159.823C89.1005 159.823 56.8769 141.355 48.1704 155.873C39.4542 170.39 86.8603 172.351 86.8603 172.351C86.8603 172.351 61.8171 170.645 65.5736 180.016C69.3203 189.387 109.526 180.987 113.645 189.946C117.754 198.896 113.087 176.252 108.47 165.734Z" fill="#52D5BA"/>
<path d="M113.018 186.044C106.708 169.654 97.1998 154.225 84.7173 141.845C80.1293 137.297 75.1304 133.17 69.75 129.592" stroke="#4CA5A2" stroke-width="1.6286" stroke-miterlimit="10" stroke-linecap="round"/>
<path d="M112.794 186.377C99.2548 169.615 78.6723 158.842 57.4932 158.312" stroke="#4CA5A2" stroke-width="1.6286" stroke-miterlimit="10" stroke-linecap="round"/>
<path d="M112.579 186.553C101.495 179.819 88.2692 177.378 75.4346 178.231" stroke="#4CA5A2" stroke-width="1.6286" stroke-miterlimit="10" stroke-linecap="round"/>
<path d="M118.262 184.731C115.944 177.908 107.941 172.948 101.73 170.39C86.5177 164.126 61.8853 158.872 50.3517 174.693C46.6833 179.732 45.5387 186.534 47.3778 192.494C50.7333 203.385 62.8636 208.335 73.1939 209.835C87.0069 211.835 106.523 208.933 115.699 197.141C117.284 195.102 118.507 192.72 118.829 190.161C119.064 188.24 118.829 186.427 118.262 184.731Z" fill="#52D5BA"/>
<path d="M116.188 188.779C116.188 188.779 73.7901 177.32 50.5664 185.162" stroke="#4CA5A2" stroke-width="1.6286" stroke-miterlimit="10" stroke-linecap="round"/>
<path d="M60.0068 196.612C60.0068 196.612 70.973 183.339 77.1849 182.751C77.1849 182.751 68.3513 174.066 61.6307 172.115" stroke="#4CA5A2" stroke-width="1.6286" stroke-miterlimit="10" stroke-linecap="round"/>
<path d="M77.4497 167.125C77.4497 167.125 89.9127 175.928 90.1964 183.711C90.1964 183.711 79.0736 194.719 74.8965 203.443" stroke="#4CA5A2" stroke-width="1.6286" stroke-miterlimit="10" stroke-linecap="round"/>
<path d="M99.2449 171.889C99.2449 171.889 104.058 181.397 103.314 186.132C103.314 186.132 96.3297 195.728 92.583 204.335" stroke="#4CA5A2" stroke-width="1.6286" stroke-miterlimit="10" stroke-linecap="round"/>
<path d="M318.953 198.588C318.364 198.588 317.861 198.099 317.861 197.507V187.987C317.861 183.001 313.839 178.956 308.881 178.956C303.923 178.956 299.902 183.019 299.902 187.987V197.507C299.902 198.099 299.416 198.588 298.81 198.588H292.777C292.188 198.588 291.702 198.099 291.702 197.507V187.987C291.702 178.451 299.416 170.692 308.899 170.692C318.381 170.692 326.095 178.451 326.095 187.987V197.507C326.095 198.099 325.61 198.588 325.003 198.588H318.953Z" fill="#FFAF2A"/>
<path d="M308.899 171.773C317.775 171.773 325.004 179.043 325.004 187.97V197.489H318.971V187.97C318.971 182.391 314.464 177.84 308.899 177.84C303.352 177.84 298.827 182.373 298.827 187.97V197.489H292.795V187.97C292.795 179.043 300.006 171.773 308.899 171.773ZM308.899 169.611C298.827 169.611 290.628 177.858 290.628 187.987V197.507C290.628 198.71 291.599 199.686 292.795 199.686H298.827C300.024 199.686 300.994 198.71 300.994 197.507V187.987C300.994 183.611 304.531 180.037 308.899 180.037C313.25 180.037 316.804 183.611 316.804 187.987V197.507C316.804 198.71 317.775 199.686 318.971 199.686H325.004C326.2 199.686 327.171 198.71 327.171 197.507V187.987C327.171 177.84 318.971 169.611 308.899 169.611Z" fill="white"/>
<path d="M288.755 238.303C287.299 238.303 286.12 237.118 286.12 235.653V199.058C286.12 197.594 287.299 196.408 288.755 196.408H329.042C330.498 196.408 331.677 197.594 331.677 199.058V235.636C331.677 237.1 330.498 238.286 329.042 238.286H288.755V238.303Z" fill="#FFAF2A"/>
<path d="M329.043 197.506C329.892 197.506 330.585 198.204 330.585 199.076V235.653C330.585 236.508 329.892 237.222 329.043 237.222H288.756C287.889 237.222 287.213 236.525 287.213 235.653V199.058C287.213 198.204 287.906 197.489 288.756 197.489H329.043V197.506ZM329.043 195.327H288.756C286.71 195.327 285.046 197.001 285.046 199.058V235.636C285.046 237.693 286.71 239.367 288.756 239.367H329.043C331.088 239.367 332.752 237.693 332.752 235.636V199.058C332.752 197.001 331.088 195.327 329.043 195.327Z" fill="white"/>
<path d="M329.042 197.507H321.172V226.344C321.172 227.198 320.479 227.895 319.612 227.895H287.195V235.636C287.195 236.49 287.889 237.205 288.738 237.205H329.025C329.875 237.205 330.568 236.508 330.568 235.636V199.059C330.585 198.204 329.892 197.507 329.042 197.507Z" fill="#FFAF2A"/>
<path d="M329.042 197.507H326.095V230.702C326.095 231.574 325.402 232.254 324.535 232.254H287.195V235.654C287.195 236.508 287.889 237.223 288.738 237.223H329.025C329.875 237.223 330.568 236.525 330.568 235.654V199.059C330.585 198.204 329.892 197.507 329.042 197.507Z" fill="#FFAF2A"/>
<path d="M315.399 215.343C315.399 211.734 312.487 208.805 308.881 208.805C305.293 208.805 302.363 211.734 302.363 215.343C302.363 218.132 304.097 220.521 306.558 221.462V224.531C306.558 225.821 307.599 226.867 308.881 226.867C310.164 226.867 311.204 225.821 311.204 224.531V221.462C313.666 220.521 315.399 218.132 315.399 215.343Z" fill="#FFAF2A" stroke="white" stroke-width="1.2486" stroke-miterlimit="10" stroke-linecap="round" stroke-linejoin="round"/>
<path d="M186.421 205.474L120.453 205.17C112.518 205.135 106.117 198.664 106.147 190.718L106.848 25.0837C106.884 17.1312 113.344 10.7144 121.285 10.7501L187.253 11.0537C195.188 11.0894 201.589 17.5598 201.559 25.5064L200.858 191.14C200.828 199.093 194.362 205.51 186.421 205.474Z" fill="url(#paint0_linear_241_4985)"/>
<path d="M187.158 16.7745L174.368 16.7149C172.65 16.709 171.253 18.1554 171.247 19.9531L171.235 22.2746C171.229 24.0722 169.833 25.5187 168.115 25.5127L143.182 25.3996C141.464 25.3937 140.085 23.9294 140.091 22.1317L140.103 19.8102C140.109 18.0126 138.724 16.5542 137.012 16.5423L132.513 16.5185L121.321 16.4649C115.764 16.4411 111.235 20.9353 111.211 26.5008L110.527 188.171C110.504 193.736 114.985 198.266 120.542 198.29L186.38 198.593C191.937 198.617 196.466 194.123 196.49 188.557L197.173 26.8878C197.203 21.3281 192.716 16.7983 187.158 16.7745Z" fill="white"/>
<ellipse cx="153.853" cy="108.694" rx="17.8899" ry="17.9167" fill="#3629B7"/>
<path d="M144.413 110.467C144.575 110.725 145.561 111.786 146.847 113.261C148.384 115.023 150.117 117.009 150.32 117.234C150.692 117.647 150.966 117.362 151.524 116.28C152.295 114.783 153.886 111.5 156.121 108.505C158.356 105.509 161.709 102.203 162.507 101.583C163.305 100.963 163.678 100.55 163.146 100.344C162.613 100.137 158.457 102.99 156.032 105.539C153.429 108.277 150.608 112.747 149.908 112.852C149.348 112.936 146.638 110.964 145.87 110.5C144.978 109.962 143.989 109.798 144.413 110.467Z" fill="white"/>
<path d="M255.904 217.185L249.928 212.471L258.657 201.196L267.467 207.994L266.972 208.727C264.739 211.975 255.376 225.073 253.135 226.661C250.634 228.444 255.904 217.185 255.904 217.185Z" fill="#FF4267"/>
<path d="M252.379 226.499C252.274 226.417 255.481 222.151 259.541 216.974C263.602 211.796 266.98 207.669 267.085 207.75C267.191 207.832 263.983 212.097 259.923 217.275C255.863 222.453 252.485 226.588 252.379 226.499Z" fill="#263238"/>
<path d="M256.968 218.34C256.943 218.479 256.562 218.527 256.099 218.519C255.636 218.511 255.254 218.454 255.23 218.324C255.214 218.194 255.595 218.031 256.099 218.031C256.602 218.039 256.984 218.21 256.968 218.34Z" fill="#263238"/>
<path d="M256.798 219.366C256.757 219.497 256.327 219.488 255.823 219.415C255.32 219.342 254.897 219.244 254.897 219.106C254.897 218.976 255.344 218.854 255.888 218.927C256.432 219.009 256.838 219.244 256.798 219.366Z" fill="#263238"/>
<path d="M264.389 211.104C264.324 211.12 264.186 210.868 264.024 210.428C263.87 209.989 263.683 209.346 263.707 208.588C263.732 207.831 264.032 207.172 264.365 206.798C264.698 206.423 265.015 206.333 265.039 206.382C265.08 206.447 264.86 206.627 264.641 207.001C264.422 207.367 264.219 207.945 264.194 208.605C264.17 209.272 264.292 209.883 264.357 210.339C264.43 210.787 264.454 211.088 264.389 211.104Z" fill="#263238"/>
<path d="M255.815 217.493C255.766 217.363 256.01 217.152 256.326 216.949C256.643 216.745 256.944 216.615 257.041 216.713C257.13 216.81 256.952 217.128 256.586 217.355C256.229 217.591 255.864 217.615 255.815 217.493Z" fill="#263238"/>
<path d="M255.376 216.859C255.278 216.77 255.433 216.403 255.725 216.045C256.017 215.687 256.334 215.459 256.448 215.532C256.561 215.606 256.407 215.972 256.099 216.346C255.798 216.729 255.473 216.957 255.376 216.859Z" fill="#263238"/>
<path d="M228.258 142.463C228.258 142.463 214.885 178.081 216.688 184.735C218.49 191.39 254.553 217.813 254.553 217.813L264.346 203.686C264.346 203.686 236.217 181.371 236.132 180.138C236.041 178.905 247.301 149.313 247.301 149.313L228.258 142.463Z" fill="#263238"/>
<path d="M253.933 206.952C253.927 206.958 253.884 206.934 253.805 206.885C253.707 206.824 253.592 206.744 253.452 206.653C253.123 206.427 252.678 206.122 252.112 205.731C250.955 204.919 249.292 203.735 247.264 202.233C243.209 199.229 237.697 194.943 231.851 189.925C230.39 188.673 228.971 187.434 227.613 186.225C226.937 185.62 226.273 185.022 225.622 184.442C224.976 183.856 224.312 183.264 223.904 182.488C223.472 181.707 223.49 180.791 223.655 180.016C223.813 179.228 224.008 178.49 224.197 177.769C224.58 176.334 224.964 175.004 225.317 173.789C226.011 171.383 226.584 169.429 226.986 168.044C227.168 167.384 227.314 166.859 227.424 166.475C227.467 166.31 227.509 166.175 227.54 166.065C227.57 165.974 227.582 165.925 227.589 165.931C227.595 165.931 227.589 165.98 227.57 166.078C227.546 166.188 227.522 166.328 227.485 166.493C227.406 166.859 227.278 167.39 227.107 168.074C226.76 169.448 226.218 171.42 225.542 173.85C225.207 175.065 224.836 176.402 224.464 177.836C224.282 178.557 224.087 179.302 223.941 180.071C223.795 180.834 223.782 181.646 224.178 182.354C224.556 183.062 225.195 183.636 225.841 184.216C226.492 184.796 227.156 185.388 227.838 185.993C229.196 187.196 230.615 188.435 232.077 189.68C237.917 194.693 243.397 199.003 247.417 202.056C249.42 203.551 251.046 204.772 252.197 205.639C252.745 206.048 253.178 206.372 253.5 206.61C253.634 206.714 253.744 206.799 253.835 206.867C253.902 206.915 253.939 206.946 253.933 206.952Z" fill="#455A64"/>
<path d="M250.668 211.256C250.595 211.201 252.452 208.631 254.815 205.517C257.178 202.403 259.151 199.919 259.224 199.974C259.297 200.028 257.44 202.599 255.071 205.712C252.714 208.826 250.741 211.305 250.668 211.256Z" fill="#455A64"/>
<path d="M251.874 74.7256C253.067 77.1188 253.695 79.1946 256.063 80.4278C257.129 80.9834 258.432 81.3009 259.078 82.3205C259.778 83.4316 259.449 85.0373 260.332 86.008C261.617 87.4183 264.254 86.2766 265.697 87.516C266.988 88.6271 266.574 91.0081 267.963 91.985C268.748 92.5344 269.814 92.4123 270.703 92.7603C272.165 93.3281 272.859 95.0193 273.048 96.5761C273.2 97.8216 273.133 99.1342 272.585 100.27C272.043 101.405 270.971 102.333 269.723 102.462C268.066 102.639 266.185 101.491 264.845 102.48C264.37 102.834 264.09 103.383 263.724 103.847C262.89 104.91 261.52 105.526 260.174 105.441C258.828 105.355 257.543 104.574 256.849 103.414C255.923 101.869 255.984 99.7325 254.626 98.5481C253.92 97.9253 252.958 97.7056 252.075 97.3759C251.192 97.0462 250.284 96.4967 250.016 95.5932C249.761 94.714 249.249 94.1523 248.744 93.3953C248.068 92.3818 247.16 93.6212 246.265 93.1205C245.37 92.6199 245.711 91.6431 245.632 90.6113" fill="#263238"/>
<path d="M236.12 109.33L224.562 105.453C224.562 105.453 219.452 120.203 217.887 120.35C209.216 121.143 199.935 118.262 196.683 117.12C196.354 116.748 195.977 116.302 195.556 115.753C195.197 115.282 194.923 114.751 194.74 114.19C194.521 113.506 194.259 112.59 194.278 112.041C194.296 111.363 193.486 111.015 193.108 111.503C192.731 111.992 192.639 113.854 193.492 115.856C194.351 117.859 191.318 116.265 190.203 115.704C189.089 115.142 185.557 113.567 185.119 113.775C184.467 114.08 184.674 114.831 185.801 115.368C186.939 115.911 190.191 117.743 189.869 118.317C189.552 118.885 183.913 115.948 183.913 115.948C183.913 115.948 182.811 115.124 182.415 115.777C181.702 116.955 187.92 119.629 188.517 119.874C188.931 120.038 188.602 120.679 188.163 120.478C187.713 120.27 182.61 117.419 181.873 118.61C181.306 119.526 186.97 120.863 187.701 122.041C188.431 123.219 183.511 120.588 183.005 121.485C182.817 121.821 182.719 122.096 185.77 123.195C187.25 123.732 190.033 124.385 192.554 124.935L192.542 124.965C192.542 124.965 222.96 138.604 229.519 125.454C236.473 111.516 236.12 109.33 236.12 109.33Z" fill="#E5BAAB"/>
<path d="M247.55 97.1191L252.598 97.2107L256.605 108.731L253.341 121.931C252.385 125.789 256.715 133.5 256.605 137.755L228.288 142.353L227.691 123.39L227.679 122.755L217.881 117.852L221.114 109.91C226.09 98.2242 234.78 97.516 234.78 97.516L247.55 97.1191Z" fill="#FF4267"/>
<path d="M227.85 122.615C227.838 122.633 227.613 122.541 227.241 122.291C226.882 122.035 226.37 121.619 225.932 120.936C225.487 120.27 225.177 119.293 225.262 118.225C225.305 117.169 225.64 115.99 226.364 114.989C226.912 114.208 227.619 113.597 228.374 113.188L228.289 113.304C228.52 111.564 228.733 110.068 228.898 109.006C229.062 107.944 229.172 107.327 229.208 107.327C229.245 107.333 229.196 107.962 229.087 109.031C228.977 110.099 228.806 111.601 228.593 113.341L228.587 113.414L228.508 113.457C227.832 113.835 227.144 114.427 226.632 115.166C225.95 116.119 225.621 117.224 225.567 118.231C225.469 119.244 225.731 120.148 226.127 120.801C226.517 121.467 226.992 121.894 227.314 122.175C227.655 122.468 227.862 122.596 227.85 122.615Z" fill="#455A64"/>
<path d="M228.915 109.83C228.836 109.867 228.556 109.464 228.294 108.926C228.032 108.389 227.88 107.919 227.965 107.876C228.044 107.84 228.324 108.243 228.586 108.78C228.848 109.317 229 109.787 228.915 109.83Z" fill="#455A64"/>
<path d="M247.21 97.2843L248.081 77.3325L240.176 71.3311L232.99 74.8537C232.99 74.8537 232.753 83.8956 232.99 87.8151C233.228 91.7346 237.174 92.1559 237.174 92.1559C237.174 92.1559 237.083 94.4514 236.991 96.8691C236.882 99.7935 239.232 102.211 242.149 102.187C244.871 102.156 247.094 100.007 247.21 97.2843Z" fill="#E5BAAB"/>
<path d="M233.775 81.4396C233.775 81.714 234.001 81.9397 234.275 81.9397C234.549 81.9397 234.774 81.714 234.774 81.4396C234.774 81.1651 234.549 80.9395 234.275 80.9395C234.001 80.9395 233.775 81.1651 233.775 81.4396Z" fill="#263238"/>
<path d="M233.294 80.897C233.361 80.9641 233.726 80.647 234.268 80.6165C234.804 80.5799 235.212 80.8483 235.267 80.7751C235.298 80.7446 235.231 80.6226 235.048 80.5006C234.871 80.3786 234.579 80.2689 234.244 80.2872C233.909 80.3055 233.629 80.4518 233.471 80.5921C233.312 80.7385 233.258 80.8665 233.294 80.897Z" fill="#263238"/>
<path d="M239.579 81.4396C239.579 81.714 239.804 81.9397 240.078 81.9397C240.352 81.9397 240.578 81.714 240.578 81.4396C240.578 81.1651 240.352 80.9395 240.078 80.9395C239.804 80.9395 239.579 81.1651 239.579 81.4396Z" fill="#263238"/>
<path d="M239.268 80.897C239.335 80.9641 239.701 80.647 240.243 80.6165C240.779 80.5799 241.187 80.8483 241.241 80.7751C241.272 80.7446 241.205 80.6226 241.022 80.5006C240.846 80.3786 240.553 80.2689 240.218 80.2872C239.883 80.3055 239.603 80.4518 239.445 80.5921C239.287 80.7385 239.238 80.8665 239.268 80.897Z" fill="#263238"/>
<path d="M239.104 85.9717C238.435 86.3075 237.247 86.7837 236.498 86.8691C236.498 86.8691 237.162 87.8216 238.282 87.3759C239.445 86.918 239.104 85.9717 239.104 85.9717Z" fill="white"/>
<path d="M237.174 92.1565C237.174 92.1565 239.811 92.187 242.356 90.4043C242.356 90.4043 241.181 93.286 237.259 93.1211L237.174 92.1565Z" fill="#D78776"/>
<path d="M259.462 88.6032C259.115 88.6215 258.598 88.5665 258.043 88.2796C257.483 88.0049 256.935 87.4859 256.497 86.7777C256.052 86.0756 255.711 85.2026 255.34 84.2929C254.609 82.4675 254.061 80.7763 253.683 79.5431C253.622 79.3477 253.574 79.1706 253.519 78.9997C253.488 78.7921 253.452 78.6029 253.415 78.4624C251.284 70.2876 244.11 68.7613 242.691 68.7613C241.169 68.7613 238.508 67.9249 234.628 71.9604C233.977 72.6381 233.508 73.3219 233.155 73.9934C232.156 75.2511 231.626 76.6431 231.425 77.6871C231.188 78.8837 231.291 79.6346 231.334 79.6346C231.407 79.6346 231.419 78.8959 231.724 77.7603C231.876 77.1926 232.113 76.521 232.473 75.8311C231.906 78.3648 232.868 80.3489 232.868 80.3489L234.257 79.9643L239.238 78.2671C238.788 76.7225 239.451 74.7993 239.829 73.9019L239.866 73.8652C241.004 79.7323 246.449 80.2757 246.449 80.2757L247.368 93.1149C253.988 91.6985 253.841 82.8154 253.799 81.0083C254.097 82.0279 254.487 83.194 254.98 84.415C255.352 85.3247 255.705 86.2099 256.192 86.9426C256.667 87.6813 257.294 88.2308 257.909 88.4933C258.524 88.768 259.091 88.7863 259.456 88.7253C259.822 88.652 259.998 88.536 259.992 88.5177C259.998 88.5116 259.809 88.5788 259.462 88.6032Z" fill="#263238"/>
<path d="M237.32 85.4582C237.32 85.4277 236.985 85.391 236.437 85.3483C236.297 85.3422 236.163 85.3239 236.138 85.2201C236.102 85.1163 236.157 84.9575 236.218 84.7866C236.333 84.4325 236.455 84.0601 236.589 83.6693C236.845 82.8696 237.064 82.1492 237.216 81.618C237.369 81.0868 237.442 80.7572 237.417 80.7511C237.387 80.745 237.259 81.0563 237.07 81.5753C236.881 82.0881 236.638 82.8085 236.382 83.6022C236.26 83.9929 236.138 84.3714 236.029 84.7255C235.98 84.8904 235.901 85.0797 235.974 85.2872C236.017 85.391 236.114 85.4643 236.205 85.4826C236.291 85.507 236.37 85.5009 236.437 85.5009C236.985 85.5009 237.32 85.4887 237.32 85.4582Z" fill="#263238"/>
<path d="M248.494 85.2938C248.47 84.6406 248.47 83.969 248.701 83.3585C248.938 82.748 249.456 82.2107 250.108 82.1436C250.857 82.0642 251.575 82.6869 251.697 83.4318C251.813 84.1766 251.386 84.9458 250.729 85.3183C250.077 85.6846 249.243 85.6785 248.555 85.3793" fill="#E5BAAB"/>
<path d="M249.633 84.7255C249.657 84.6828 249.846 84.7805 250.12 84.695C250.4 84.6279 250.68 84.3104 250.705 83.8586C250.723 83.6388 250.674 83.4373 250.565 83.3336C250.455 83.2298 250.278 83.1992 250.138 83.2054C249.846 83.2298 249.639 83.3091 249.621 83.2603C249.609 83.2298 249.755 83.0771 250.102 82.9795C250.278 82.9428 250.528 82.9306 250.76 83.1077C250.991 83.2969 251.046 83.6083 251.028 83.883C251.009 84.1639 250.906 84.4264 250.735 84.6157C250.571 84.8049 250.345 84.9026 250.157 84.9209C249.779 84.9575 249.603 84.75 249.633 84.7255Z" fill="#D78776"/>
<path d="M243.641 240.641V234.927L254.316 234.859L254.401 243.217L253.738 243.266C250.79 243.449 238.751 243.987 236.778 243.401C234.586 242.747 243.641 240.641 243.641 240.641Z" fill="#FF4267"/>
<path d="M236.534 242.881C236.534 242.778 240.529 242.698 245.456 242.698C250.382 242.698 254.377 242.778 254.377 242.881C254.377 242.979 250.382 243.064 245.456 243.064C240.529 243.064 236.534 242.979 236.534 242.881Z" fill="#263238"/>
<path d="M243.458 241.806C243.367 241.855 243.16 241.647 242.947 241.373C242.734 241.098 242.593 240.842 242.66 240.769C242.727 240.696 243.008 240.848 243.233 241.147C243.464 241.452 243.543 241.757 243.458 241.806Z" fill="#263238"/>
<path d="M242.776 242.185C242.679 242.222 242.49 241.966 242.295 241.636C242.1 241.306 241.966 241.013 242.046 240.946C242.125 240.885 242.399 241.093 242.606 241.447C242.819 241.807 242.868 242.149 242.776 242.185Z" fill="#263238"/>
<path d="M251.155 242.839C251.113 242.808 251.198 242.607 251.387 242.308C251.575 242.009 251.868 241.606 252.325 241.27C252.781 240.934 253.311 240.8 253.683 240.83C254.06 240.855 254.255 241.001 254.237 241.038C254.218 241.093 254.011 241.044 253.689 241.087C253.372 241.123 252.94 241.27 252.538 241.563C252.136 241.856 251.825 242.21 251.594 242.46C251.356 242.723 251.198 242.87 251.155 242.839Z" fill="#263238"/>
<path d="M243.422 240.733C243.471 240.647 243.714 240.69 243.982 240.782C244.25 240.879 244.463 240.995 244.451 241.093C244.439 241.19 244.165 241.233 243.86 241.123C243.556 241.025 243.373 240.818 243.422 240.733Z" fill="#263238"/>
<path d="M243.592 240.183C243.604 240.085 243.891 240.006 244.232 240.006C244.579 240.012 244.859 240.097 244.865 240.195C244.871 240.292 244.585 240.372 244.226 240.372C243.866 240.366 243.58 240.28 243.592 240.183Z" fill="#263238"/>
<path d="M234.104 141.486L228.252 142.463L231.62 146.614C232.588 166.169 232.35 185.108 233.246 194.552C233.379 195.987 239.42 240.976 238.824 239.92L256.606 240.665L251.295 195.487L253.811 155.357C256.539 150.619 257.336 145.003 256.039 139.685L255.601 137.878" fill="#455A64"/>
<path d="M246.363 70.8672C245.48 70.5253 244.761 69.75 244.536 68.8281C244.311 67.9062 244.621 66.8622 245.34 66.2456C246.065 65.629 247.179 65.5069 247.989 65.9953C248.653 66.3921 249.055 67.1186 249.304 67.8512C249.475 68.3397 249.591 68.8708 249.463 69.3714C249.274 70.1224 248.568 70.6535 247.825 70.855C247.082 71.0565 246.29 70.9893 245.523 70.9161" fill="#263238"/>
<path d="M262.056 81.747C262.019 81.7409 262.196 81.4601 262.092 80.9472C262.038 80.6969 261.91 80.3978 261.666 80.1291C261.429 79.8605 261.063 79.6468 260.619 79.5247C260.174 79.4026 259.663 79.3782 259.114 79.4148C258.566 79.4515 257.97 79.5491 257.324 79.5614C256.685 79.5736 255.966 79.4881 255.345 79.0912C254.693 78.6944 254.377 77.9374 254.164 77.2536C253.743 75.8738 253.025 74.6894 252.215 73.7492C251.399 72.809 250.504 72.1191 249.694 71.6368C248.062 70.6783 246.856 70.5257 246.88 70.4524C246.88 70.4402 246.953 70.4463 247.093 70.4707C247.233 70.4951 247.44 70.5195 247.696 70.5928C248.22 70.7149 248.957 70.9774 249.803 71.4353C250.644 71.8993 251.588 72.5892 252.434 73.5477C253.281 74.5001 254.036 75.7395 254.468 77.1498C254.687 77.8336 254.967 78.4807 255.515 78.8226C256.051 79.1706 256.715 79.2683 257.318 79.2622C257.933 79.2561 258.53 79.1706 259.096 79.1462C259.663 79.1157 260.205 79.1523 260.68 79.3049C261.155 79.4454 261.55 79.7018 261.8 80.0131C262.056 80.3184 262.172 80.6542 262.214 80.9289C262.251 81.2037 262.208 81.4234 262.159 81.5578C262.117 81.6921 262.062 81.7531 262.056 81.747Z" fill="#263238"/>
<path d="M250.808 85.2572C250.826 85.2267 251.1 85.4587 251.1 85.9898C251.094 86.2401 250.991 86.5698 250.729 86.8079C250.479 87.046 250.083 87.1987 249.675 87.1376C249.267 87.0704 248.945 86.7957 248.78 86.4904C248.61 86.1791 248.616 85.8372 248.695 85.5991C248.859 85.0985 249.194 84.9642 249.2 85.0008C249.237 85.0374 248.993 85.2328 248.92 85.654C248.884 85.8616 248.902 86.118 249.048 86.3439C249.182 86.5698 249.438 86.7713 249.736 86.8201C250.035 86.869 250.333 86.7591 250.54 86.5881C250.747 86.4172 250.845 86.1791 250.881 85.9715C250.93 85.5441 250.759 85.2816 250.808 85.2572Z" fill="#E0E0E0"/>
<path d="M249.23 71.6359C249.151 71.7031 248.372 70.7141 247.032 70.012C245.698 69.2915 244.444 69.2 244.456 69.1023C244.444 69.0229 245.778 68.968 247.184 69.725C248.597 70.4637 249.304 71.6054 249.23 71.6359Z" fill="#E8505B"/>
<path d="M251.503 84.5121C251.503 84.4694 251.673 84.4572 251.783 84.6585C251.832 84.75 251.856 84.8963 251.789 85.0427C251.716 85.1952 251.546 85.2928 251.375 85.2989C251.205 85.305 251.034 85.2257 250.949 85.0976C250.857 84.9756 250.845 84.8415 250.857 84.7439C250.888 84.5365 251.004 84.4633 251.034 84.4938C251.077 84.5182 251.052 84.6158 251.089 84.7378C251.125 84.8658 251.211 84.9817 251.369 84.9695C251.521 84.9634 251.582 84.8598 251.57 84.7317C251.564 84.6158 251.491 84.5548 251.503 84.5121Z" fill="#E0E0E0"/>
<path d="M252.997 109.594C229.581 114.817 217.601 104.002 215.985 102.405C215.985 102.405 215.951 102.244 215.889 102.309C215.826 102.245 215.795 102.406 215.795 102.406C214.202 104.023 202.374 114.99 178.887 110.064C178.887 110.064 175.583 152.26 189.373 169.379C204.103 187.662 216.464 193.14 216.526 193.092C216.588 193.139 228.979 187.61 243.344 169.037C256.783 151.659 252.997 109.594 252.997 109.594Z" fill="white"/>
<path d="M249.596 113.955C228.347 118.608 217.477 108.98 216.011 107.558C216.011 107.558 215.98 107.416 215.924 107.473C215.867 107.416 215.839 107.559 215.839 107.559C214.392 109 203.658 118.764 182.346 114.382C182.346 114.382 179.343 151.949 191.855 167.187C205.218 183.463 216.431 189.343 216.487 189.3C216.543 189.342 227.792 183.414 240.829 166.876C253.026 151.404 249.596 113.955 249.596 113.955Z" fill="url(#paint1_linear_241_4985)"/>
<g opacity="0.02">
<path opacity="0.02" d="M215.851 111.257C215.851 111.257 215.881 111.107 215.941 111.166C216 111.106 216.032 111.255 216.032 111.255C217.537 112.715 228.512 122.43 249.918 118.214C249.788 114.391 249.569 111.998 249.569 111.998C228.322 116.65 217.454 107.029 215.988 105.608C215.988 105.608 215.957 105.465 215.901 105.522C215.844 105.466 215.815 105.609 215.815 105.609C214.369 107.049 203.635 116.808 182.326 112.43C182.326 112.43 182.134 114.825 182.049 118.648C203.522 122.595 214.366 112.736 215.851 111.257Z" fill="black"/>
</g>
<path d="M243.355 124.431C227.304 128.011 217.173 120.221 216.065 119.126C216.065 119.126 216.042 119.015 215.999 119.06C215.956 119.016 215.935 119.126 215.935 119.126C214.843 120.235 204.926 128.129 188.825 124.75C188.825 124.75 188.373 153.306 197.828 165.044C207.927 177.582 216.401 181.339 216.444 181.306C216.486 181.338 224.98 177.548 234.825 164.814C244.037 152.901 243.355 124.431 243.355 124.431Z" fill="#5655B9"/>
<path d="M247.338 96.668C247.356 96.668 247.411 96.9 247.405 97.3274C247.405 97.7547 247.326 98.3836 247.052 99.104C246.771 99.8183 246.278 100.63 245.48 101.29C244.695 101.955 243.599 102.401 242.417 102.48C241.236 102.547 240.091 102.236 239.232 101.668C238.368 101.106 237.777 100.362 237.411 99.6901C237.052 99.0063 236.9 98.3958 236.845 97.9684C236.79 97.541 236.821 97.3029 236.833 97.3029C236.906 97.2846 236.863 98.2737 237.612 99.5741C237.99 100.209 238.569 100.899 239.391 101.412C240.207 101.931 241.278 102.212 242.393 102.15C243.507 102.077 244.536 101.668 245.285 101.058C246.041 100.447 246.534 99.6901 246.832 99.0185C247.423 97.6387 247.265 96.6619 247.338 96.668Z" fill="#455A64"/>
<path d="M246.059 236.58C246.053 236.58 246.041 236.525 246.022 236.416C246.004 236.287 245.98 236.129 245.949 235.927C245.888 235.475 245.809 234.846 245.706 234.053C245.499 232.423 245.218 230.066 244.896 227.142C244.25 221.305 243.452 213.228 242.734 204.296C242.021 195.358 241.522 187.263 241.23 181.395C241.083 178.465 240.98 176.09 240.925 174.448C240.901 173.648 240.883 173.013 240.87 172.555C240.87 172.354 240.864 172.195 240.864 172.061C240.864 171.951 240.87 171.896 240.87 171.89C240.876 171.89 240.883 171.945 240.895 172.054C240.907 172.183 240.919 172.348 240.931 172.543C240.962 173.001 240.998 173.63 241.047 174.429C241.144 176.096 241.284 178.459 241.455 181.371C241.802 187.232 242.338 195.328 243.057 204.259C243.775 213.191 244.536 221.262 245.121 227.105C245.419 230.005 245.657 232.362 245.827 234.022C245.907 234.822 245.967 235.451 246.01 235.903C246.028 236.104 246.041 236.263 246.053 236.391C246.065 236.525 246.065 236.58 246.059 236.58Z" fill="#263238"/>
<path d="M259.462 117.37L249.018 110.483C249.018 110.483 243.908 125.234 242.343 125.38C233.672 126.174 224.391 123.292 221.139 122.15C220.81 121.778 220.433 121.332 220.012 120.783C219.653 120.313 219.379 119.782 219.196 119.22C218.977 118.536 218.715 117.62 218.734 117.071C218.752 116.393 217.942 116.045 217.564 116.534C217.187 117.022 217.095 118.884 217.948 120.887C218.807 122.889 215.774 121.296 214.66 120.734C213.545 120.172 210.013 118.597 209.575 118.805C208.923 119.11 209.13 119.861 210.257 120.398C211.395 120.942 214.647 122.773 214.325 123.347C214.008 123.915 208.369 120.978 208.369 120.978C208.369 120.978 207.267 120.154 206.871 120.807C206.158 121.986 212.376 124.66 212.973 124.904C213.387 125.069 213.058 125.71 212.619 125.508C212.169 125.301 207.066 122.45 206.329 123.64C205.762 124.556 211.426 125.893 212.157 127.071C212.887 128.25 207.967 125.618 207.461 126.516C207.273 126.851 207.175 127.126 210.226 128.225C211.706 128.762 214.489 129.416 217.01 129.965L216.998 129.996C216.998 129.996 248.092 143.952 253.975 130.484C260.229 116.161 259.462 117.37 259.462 117.37Z" fill="#E5BAAB"/>
<path d="M252.599 97.2051C252.599 97.2051 262.105 98.3284 261.094 109.66C260.071 121.217 255.302 129.752 255.302 129.752L242.843 123.195C245.638 117.517 247.782 111.644 249.127 105.526L252.599 97.2051Z" fill="#FF4267"/>
<path d="M248.403 108.854C248.428 108.86 248.385 109.073 248.3 109.446C248.215 109.824 248.068 110.362 247.874 111.027C247.49 112.352 246.893 114.171 246.126 116.137C245.352 118.103 244.555 119.837 243.934 121.07C243.623 121.687 243.361 122.181 243.166 122.517C242.977 122.853 242.862 123.036 242.837 123.024C242.795 122.999 243.154 122.23 243.72 120.972C244.287 119.715 245.048 117.975 245.815 116.021C246.583 114.067 247.21 112.273 247.648 110.966C248.093 109.653 248.361 108.841 248.403 108.854Z" fill="#455A64"/>
<path d="M248.403 108.854C248.428 108.86 248.385 109.073 248.3 109.446C248.215 109.824 248.068 110.362 247.874 111.027C247.49 112.352 246.893 114.171 246.126 116.137C245.352 118.103 244.555 119.837 243.934 121.07C243.623 121.687 243.361 122.181 243.166 122.517C242.977 122.853 242.862 123.036 242.837 123.024C242.795 122.999 243.154 122.23 243.72 120.972C244.287 119.715 245.048 117.975 245.815 116.021C246.583 114.067 247.21 112.273 247.648 110.966C248.093 109.653 248.361 108.841 248.403 108.854Z" fill="#455A64"/>
<g clip-path="url(#clip0_241_4985)">
<path d="M109.725 227.803C109.725 226.474 110.055 225.214 110.72 224.072C112.31 221.343 115.638 219.777 119.851 219.777C127.258 219.777 135.779 224.444 139.249 230.401C141.117 233.608 141.319 236.794 139.818 239.371C138.228 242.101 134.9 243.666 130.688 243.666C123.281 243.666 114.76 239 111.29 233.043C110.249 231.256 109.725 229.475 109.725 227.803ZM135.477 235.628C135.477 234.673 134.992 233.664 134.631 233.043C132.111 228.717 125.342 225.062 119.85 225.062C117.627 225.062 115.94 225.68 115.337 226.714C114.651 227.893 115.4 229.53 115.907 230.4C118.427 234.727 125.195 238.381 130.687 238.381C132.91 238.381 134.597 237.764 135.2 236.729C135.398 236.391 135.477 236.014 135.477 235.628Z" fill="#FFAF2A"/>
<path d="M129.501 239.327C133.662 239.327 135.2 236.729 135.2 236.729C134.597 237.764 132.91 238.381 130.687 238.381C125.195 238.381 118.427 234.727 115.906 230.4C115.4 229.53 114.651 227.893 115.337 226.715C115.337 226.715 113.964 228.907 115.631 231.936C118.045 236.322 124.009 239.327 129.501 239.327Z" fill="#FFAF2A"/>
<path d="M181.509 235.159C183.031 235.159 184.266 233.936 184.266 232.427C184.266 230.917 183.031 229.694 181.509 229.694C181.507 229.694 181.504 229.695 181.502 229.695L181.502 229.694L137.664 229.694C137.257 229.694 136.849 229.961 136.539 230.495C135.917 231.562 135.917 233.292 136.539 234.359C136.849 234.892 137.257 235.159 137.664 235.159L181.501 235.159L181.501 235.159C181.504 235.159 181.506 235.159 181.509 235.159Z" fill="#FFAF2A"/>
<path d="M171.713 232.977C172.729 232.977 173.963 232.271 174.47 231.399C174.729 230.956 174.747 230.557 174.571 230.271L174.573 230.27L170.654 223.528L170.557 223.364C170.545 223.341 170.533 223.318 170.517 223.298C170.439 223.182 170.349 223.073 170.251 222.976C169.844 222.568 169.275 222.315 168.652 222.315C167.798 222.315 167.053 222.786 166.669 223.477C166.497 223.795 166.399 224.156 166.399 224.545C166.399 224.929 166.496 225.295 166.669 225.609C166.693 225.652 166.72 225.695 166.744 225.737L170.686 232.522L170.688 232.521C170.855 232.802 171.209 232.977 171.713 232.977Z" fill="#FFAF2A"/>
<path d="M160.736 232.976C161.751 232.976 162.985 232.27 163.493 231.399C163.751 230.956 163.769 230.556 163.594 230.27L163.596 230.269L159.018 222.367L158.92 222.204C158.908 222.18 158.896 222.157 158.881 222.138C158.802 222.021 158.712 221.912 158.614 221.815C158.207 221.408 157.639 221.155 157.015 221.155C156.161 221.155 155.416 221.625 155.032 222.317C154.86 222.635 154.762 222.996 154.762 223.385C154.762 223.769 154.859 224.134 155.032 224.449C155.056 224.492 155.083 224.535 155.107 224.577L159.708 232.522L159.71 232.52C159.878 232.802 160.232 232.976 160.736 232.976Z" fill="#FFAF2A"/>
</g>
<path d="M286.325 75.1397L296.886 75.1406C296.642 74.8095 296.412 74.4739 296.213 74.1295L294.888 71.831C292.531 67.7419 294.442 64.4259 299.157 64.4266C301.065 64.4264 303.14 64.977 305.092 65.8952C302.707 60.418 305.631 56.1731 312.154 56.1732C319.208 56.173 327.786 61.1323 331.314 67.2509L333.296 70.6893C334.21 72.274 334.687 73.7774 334.781 75.1406L343.553 75.1399C346.169 75.1405 349.349 76.9786 350.657 79.247C351.965 81.5155 350.905 83.3542 348.289 83.3542L291.061 83.355C288.445 83.3544 285.265 81.5164 283.957 79.2479C282.649 76.9794 283.709 75.1407 286.325 75.1397Z" fill="#F2F1F9"/>
<path d="M211.27 19.3282L217.811 19.3288C217.66 19.1237 217.517 18.9159 217.394 18.7025L216.574 17.2788C215.114 14.746 216.298 12.692 219.218 12.6924C220.4 12.6923 221.685 13.0334 222.894 13.6021C221.417 10.2095 223.228 7.58011 227.269 7.58017C231.638 7.58005 236.951 10.6519 239.136 14.4418L240.364 16.5716C240.93 17.5532 241.225 18.4844 241.284 19.3288L246.717 19.3284C248.338 19.3287 250.308 20.4673 251.118 21.8724C251.928 23.2775 251.271 24.4164 249.651 24.4164L214.203 24.4169C212.583 24.4165 210.613 23.278 209.803 21.8729C208.993 20.4678 209.649 19.3288 211.27 19.3282Z" fill="#F2F1F9"/>
<path d="M42.7302 79.4288L50.7004 79.4297C50.5166 79.1801 50.3427 78.9262 50.193 78.6666L49.193 76.9319C47.4135 73.8452 48.8564 71.3434 52.4151 71.3435C53.8557 71.3436 55.4216 71.7594 56.8935 72.4517C55.093 68.318 57.3007 65.1147 62.224 65.1146C67.5481 65.1146 74.0221 68.8577 76.6841 73.4754L78.1797 76.0697C78.869 77.2655 79.2288 78.4008 79.3001 79.4299L85.92 79.4295C87.8932 79.4292 90.2938 80.8175 91.2808 82.5295C92.2677 84.2414 91.4676 85.6295 89.4944 85.6298L46.304 85.6281C44.3308 85.6284 41.9302 84.2401 40.9432 82.5281C39.9563 80.8162 40.757 79.4291 42.7302 79.4288Z" fill="#F2F1F9"/>
<defs>
<linearGradient id="paint0_linear_241_4985" x1="153.853" y1="10.75" x2="153.853" y2="205.474" gradientUnits="userSpaceOnUse">
<stop stop-color="#B569B4"/>
<stop offset="1" stop-color="#02E4F0"/>
</linearGradient>
<linearGradient id="paint1_linear_241_4985" x1="214.506" y1="107.581" x2="221.587" y2="188.856" gradientUnits="userSpaceOnUse">
<stop stop-color="#B569B4"/>
<stop offset="1" stop-color="#02E4F0"/>
</linearGradient>
<clipPath id="clip0_241_4985">
<rect width="23.8889" height="74.5413" fill="white" transform="translate(184.266 219.777) rotate(90)"/>
</clipPath>
</defs>
</svg>
