<svg width="335" height="252" viewBox="0 0 335 252" fill="none" xmlns="http://www.w3.org/2000/svg">
<g clip-path="url(#clip0_1077_10666)">
<path d="M174.629 224.203C236.445 224.203 286.557 174.014 286.557 112.102C286.557 50.1896 236.445 0 174.629 0C112.814 0 62.7021 50.1896 62.7021 112.102C62.7021 174.014 112.814 224.203 174.629 224.203Z" fill="#C1CDDF"/>
<path d="M264.432 232.143L0 143.384L93.3702 99.8027L334.213 163.031L264.432 232.143Z" fill="#93A5BF"/>
<path d="M180.217 203.874L212.235 214.621C209.527 211.6 208.151 207.76 205.746 204.251C200.114 196.037 195.301 197.18 195.301 186.084C195.301 185.715 195.301 185.331 195.318 184.936L180.217 203.874Z" fill="#441490"/>
<path d="M327.876 168.721L216.617 138.86L163.377 175.061L283.31 212.781L327.876 168.721Z" fill="#441490"/>
<path d="M264.905 241.075L0 150.214V143.384L264.905 232.3V241.075Z" fill="#19143E"/>
<path d="M241.088 150.242L144.799 123.424V57.4368C144.799 57.1 144.874 56.7675 145.019 56.4637C145.165 56.16 145.376 55.8927 145.638 55.6817C145.9 55.4706 146.206 55.3211 146.534 55.2442C146.861 55.1672 147.202 55.1648 147.53 55.237L238.193 75.1776C239.015 75.3575 239.751 75.8135 240.278 76.47C240.806 77.1266 241.093 77.9441 241.093 78.7868L241.088 150.242Z" fill="#441490"/>
<path d="M237.89 146.171L147.142 121.112V57.5605L237.89 77.7058V146.171Z" fill="white"/>
<path d="M193.954 184.776L100.125 154.97C99.9682 154.92 99.8294 154.825 99.7256 154.697C99.6218 154.569 99.5575 154.414 99.5406 154.25C99.5237 154.086 99.5549 153.921 99.6304 153.774C99.7059 153.628 99.8225 153.506 99.9657 153.425L145.513 127.581L238.691 153.859L196.944 184.291C196.519 184.601 196.026 184.806 195.507 184.891C194.987 184.975 194.455 184.936 193.954 184.776Z" fill="#19143E"/>
<path d="M97.2754 150.483C97.2754 152.187 98.2428 154.371 100.128 154.971C102.013 155.57 107.496 151.299 107.496 151.299L97.2754 150.483Z" fill="#19143E"/>
<path d="M238.687 153.859C240.519 152.468 241.045 150.23 241.045 150.23L233.866 153.563L238.687 153.859Z" fill="#19143E"/>
<path d="M194.618 181.872L97.9056 151.4C97.7381 151.347 97.5897 151.246 97.4787 151.109C97.3677 150.973 97.299 150.807 97.2811 150.632C97.2631 150.456 97.2967 150.28 97.3777 150.124C97.4587 149.967 97.5836 149.838 97.7369 149.752L144.799 123.424L241.045 150.231L198.217 181.287C197.704 181.659 197.112 181.906 196.487 182.008C195.862 182.109 195.222 182.063 194.618 181.872Z" fill="#B363FF"/>
<path d="M204.836 161.296L135.05 140.651C134.868 140.597 134.706 140.492 134.584 140.347C134.462 140.202 134.384 140.025 134.362 139.837C134.34 139.648 134.373 139.458 134.458 139.288C134.544 139.119 134.677 138.978 134.841 138.884L149.34 130.528C149.697 130.323 150.091 130.191 150.499 130.14C150.907 130.09 151.321 130.121 151.717 130.233L220.921 149.804C221.078 149.848 221.22 149.936 221.329 150.058C221.438 150.179 221.51 150.33 221.538 150.491C221.565 150.652 221.546 150.818 221.482 150.969C221.419 151.119 221.314 151.249 221.18 151.342L207.576 160.848C207.183 161.124 206.732 161.308 206.257 161.385C205.783 161.463 205.297 161.432 204.836 161.296Z" fill="#441490"/>
<path d="M163.829 168.362L133.114 158.78C132.981 158.74 132.862 158.662 132.772 158.556C132.683 158.45 132.626 158.32 132.609 158.182C132.592 158.044 132.616 157.904 132.677 157.779C132.738 157.654 132.835 157.55 132.954 157.48L148.343 148.159C148.58 148.016 148.844 147.923 149.119 147.888C149.393 147.853 149.672 147.876 149.938 147.955L180.399 157.039C180.538 157.081 180.663 157.161 180.758 157.271C180.854 157.381 180.916 157.516 180.937 157.66C180.958 157.805 180.938 157.952 180.878 158.085C180.819 158.218 180.722 158.331 180.601 158.411L165.987 168.057C165.672 168.265 165.316 168.4 164.942 168.452C164.569 168.505 164.189 168.474 163.829 168.362Z" fill="#441490"/>
<path d="M281.497 141.701L219.581 125.826V37.2627L281.497 48.3686V141.701Z" fill="#FA9D8A"/>
<path d="M281.497 78.6675V48.3685L264.542 45.3379C272.024 55.4143 277.756 66.6821 281.497 78.6675Z" fill="#FACC79"/>
<path d="M219.581 125.826L237.891 130.521V77.7054L219.581 73.6416V125.826Z" fill="#FACC79"/>
<path d="M246.118 107L266.241 109C266.538 109 266.822 109.118 267.032 109.328C267.241 109.538 267.359 109.822 267.359 110.119V128.024C267.359 128.321 267.241 128.605 267.032 128.815C266.822 129.025 266.538 129.143 266.241 129.143C255.594 128.85 246.118 126.143 246.118 126.143C246.118 126.143 245.537 126.025 245.327 125.815C245.118 125.605 245 125.321 245 125.024L245 108.119C245 107.822 245.118 107.538 245.327 107.328C245.537 107.118 245.821 107 246.118 107ZM257.179 113.714H252.708V115.952H262.769L256.179 110.357L257.179 113.714ZM251.59 118.19L257.179 123.786V120.429H261.651V118.19H251.59Z" fill="#6F14E1"/>
<path d="M256.107 68.788V61.6387L260.079 68.788V61.6387" stroke="url(#paint0_linear_1077_10666)" stroke-linecap="round" stroke-linejoin="round"/>
<path d="M254.916 64.4189H261.271M254.916 66.0077H261.271" stroke="url(#paint1_linear_1077_10666)" stroke-linecap="round" stroke-linejoin="round"/>
<path d="M248.171 79.0586V79.411V79.7635" fill="url(#paint2_linear_1077_10666)"/>
<path d="M248.171 79.0586V79.411V79.7635" stroke="#6F14E1" stroke-linecap="round"/>
<path d="M248.171 71.3047V71.6571V72.0095" fill="url(#paint3_linear_1077_10666)"/>
<path d="M248.171 71.3047V71.6571V72.0095" stroke="#6F14E1" stroke-linecap="round"/>
<path d="M250.286 73.7709C250.286 72.7977 249.339 72.0088 248.171 72.0088C247.003 72.0088 246.057 72.7977 246.057 73.7709C246.057 74.7441 247.003 75.5331 248.171 75.5331C249.339 75.5331 250.286 76.322 250.286 77.2952C250.286 78.2684 249.339 79.0574 248.171 79.0574C247.003 79.0574 246.057 78.2684 246.057 77.2952" stroke="#6F14E1" stroke-linecap="round"/>
<path d="M267 75.7725C267 80.8738 262.874 84.9997 257.772 84.9997L259.157 82.6929" stroke="url(#paint4_linear_1077_10666)" stroke-width="3.75" stroke-linecap="round" stroke-linejoin="round"/>
<path d="M238 65.2273C238 60.1259 242.126 56 247.227 56L245.843 58.3068" stroke="url(#paint5_linear_1077_10666)" stroke-width="3.75" stroke-linecap="round" stroke-linejoin="round"/>
<path d="M256.257 74.9292C256.257 79.4242 252.618 83.0622 248.123 83.0622C243.628 83.0622 239.99 79.4242 239.99 74.9292C239.99 70.4342 243.628 66.7959 248.123 66.7959C248.334 66.7959 248.532 66.8091 248.756 66.8223C252.75 67.1255 255.94 70.3154 256.243 74.3095C256.243 74.5072 256.257 74.7051 256.257 74.9292Z" stroke="url(#paint6_linear_1077_10666)" stroke-width="3.75" stroke-miterlimit="10" stroke-linecap="round" stroke-linejoin="round"/>
<path d="M265.023 66.1498C265.023 70.6448 261.385 74.283 256.89 74.283H256.244C255.941 70.2889 252.751 67.0988 248.757 66.7957V66.1498C248.757 61.6548 252.395 58.0166 256.89 58.0166C261.385 58.0166 265.023 61.6548 265.023 66.1498Z" stroke="url(#paint7_linear_1077_10666)" stroke-width="3.75" stroke-miterlimit="10" stroke-linecap="round" stroke-linejoin="round"/>
<path d="M143.013 106.2L94.1445 93.6732V14.7607L143.013 23.5263V106.2Z" fill="#FA9D8A"/>
<path d="M113.441 18.2222L94.1475 14.7607V34.2013C99.9654 28.1729 106.437 22.8133 113.441 18.2222Z" fill="#FACC79"/>
<path d="M109.807 57.5241L108.906 57.4692C108.041 57.4192 106.617 57.3264 105.942 56.4669C105.726 56.1723 105.564 55.8408 105.466 55.4885C104.375 52.0055 105.557 47.837 107.734 45.9062C104.558 47.28 101.635 51.6937 101.635 57.8882C101.635 60.2427 102.158 62.5472 103.425 64.3375L108.801 63.7542L109.807 57.5241Z" fill="#441490"/>
<path d="M121.787 51.8855L103.361 51.6924C101.542 51.6733 100.08 50.1803 100.099 48.3609L100.225 36.2969C100.244 34.4775 101.737 33.0155 103.557 33.0346L121.983 33.2277C123.802 33.2468 125.264 34.7398 125.245 36.5593L125.119 48.6192C125.099 50.4426 123.61 51.9047 121.787 51.8855Z" fill="#6F14E1"/>
<path d="M100.216 37.1611L125.24 37.4235L125.2 41.1998L100.176 40.9375L100.216 37.1611Z" fill="#183351"/>
<path d="M109.542 46.2783L102.637 46.2059C102.162 46.2009 101.777 45.8078 101.782 45.3323C101.787 44.8568 102.18 44.4719 102.656 44.4768L109.56 44.5492C110.035 44.5542 110.42 44.9473 110.415 45.4228C110.41 45.8983 110.017 46.2832 109.542 46.2783ZM114.755 49.0604L102.609 48.933C102.133 48.928 101.748 48.5349 101.753 48.0594C101.758 47.584 102.151 47.199 102.627 47.204L114.773 47.3313C115.249 47.3363 115.634 47.7294 115.629 48.2049C115.624 48.6804 115.231 49.0653 114.755 49.0604Z" fill="#FBFAEE"/>
<path d="M131.889 58.1385L113.463 57.9453C111.643 57.9262 110.181 56.4332 110.2 54.6138L110.327 42.5499C110.346 40.7305 111.839 39.2684 113.658 39.2875L132.084 39.4807C133.904 39.4998 135.366 40.9928 135.347 42.8122L135.22 54.8722C135.201 56.6955 133.712 58.1576 131.889 58.1385Z" fill="#19143E"/>
<path d="M128.542 49.4415L112.772 49.2762C112.297 49.2712 111.912 48.8781 111.917 48.4026C111.922 47.9271 112.315 47.5422 112.79 47.5471L128.56 47.7125C129.035 47.7175 129.42 48.1106 129.415 48.5861C129.41 49.0615 129.017 49.4465 128.542 49.4415Z" fill="#AEB8C4"/>
<path d="M119.641 52.5312L112.737 52.4588C112.262 52.4538 111.877 52.0607 111.882 51.5852C111.887 51.1097 112.28 50.7248 112.755 50.7298L119.663 50.8022C120.139 50.8072 120.524 51.2003 120.519 51.6758C120.51 52.1512 120.117 52.5362 119.641 52.5312ZM124.855 55.3133L112.708 55.1859C112.233 55.181 111.848 54.7878 111.853 54.3124C111.858 53.8369 112.251 53.4519 112.727 53.4569L124.873 53.5843C125.348 53.5892 125.733 53.9824 125.728 54.4578C125.723 54.9333 125.33 55.3183 124.855 55.3133Z" fill="#FBFAEE"/>
<path d="M117.657 45.9122L113.389 45.8675C112.591 45.8591 111.95 45.2039 111.958 44.4062L111.979 42.41C111.987 41.6123 112.643 40.9707 113.44 40.979L117.708 41.0238C118.506 41.0321 119.147 41.6873 119.139 42.485L119.118 44.4813C119.109 45.279 118.454 45.9206 117.657 45.9122Z" fill="#6F14E1"/>
<path d="M119.137 42.6972L117.789 42.6831L117.806 41.0248L116.474 41.0108L116.423 45.8993L117.755 45.9132L117.774 44.0388L119.122 44.0529L119.137 42.6972ZM113.472 40.9794L113.454 42.6377L111.977 42.6222L111.963 43.9779L113.44 43.9934L113.42 45.8678L114.753 45.8818L114.804 40.9933L113.472 40.9794Z" fill="white"/>
<path d="M135.289 48.3567L135.327 44.6707C132.16 44.6258 129.527 42.3934 128.854 39.4309L125.102 39.3916C125.804 44.398 130.086 48.2904 135.289 48.3567Z" fill="#F7F9DD"/>
<path d="M130.805 56.4258L130.802 56.7038L130.799 56.9819" fill="url(#paint8_linear_1077_10666)"/>
<path d="M130.805 56.4258L130.802 56.7038L130.799 56.9819" stroke="#6F14E1" stroke-linecap="round"/>
<path d="M130.869 50.3096L130.866 50.5876L130.863 50.8657" fill="url(#paint9_linear_1077_10666)"/>
<path d="M130.869 50.3096L130.866 50.5876L130.863 50.8657" stroke="#6F14E1" stroke-linecap="round"/>
<path d="M132.516 52.2729C132.524 51.5051 131.784 50.8748 130.863 50.8651C129.941 50.8555 129.188 51.4701 129.18 52.2379C129.172 53.0057 129.912 53.636 130.833 53.6456C131.755 53.6553 132.495 54.2856 132.487 55.0534C132.479 55.8212 131.726 56.4358 130.804 56.4261C129.883 56.4165 129.143 55.7862 129.151 55.0184" stroke="#6F14E1" stroke-linecap="round"/>
<path d="M102.051 40.6039L102.08 37.874L104.242 40.6269L104.271 37.897" stroke="white" stroke-width="0.3" stroke-linecap="round" stroke-linejoin="round"/>
<path d="M101.412 38.9287L104.917 38.9655M101.406 39.5354L104.911 39.5721" stroke="white" stroke-width="0.3" stroke-linecap="round" stroke-linejoin="round"/>
<path d="M118.081 87.5882C122.723 88.7238 126.367 83.1721 128.316 78.6321C127.128 80.3486 125.737 81.8484 123.976 82.5864C121.58 83.5911 118.45 83.0411 116.008 81.0509C115.043 80.2164 114.18 79.2702 113.437 78.2322C110.316 74.0626 107.953 69.3747 106.458 64.3837C105.916 62.5768 105.507 60.4913 106.301 59.1248C106.714 58.4106 107.387 58.0178 108.122 57.7607C105.443 58.332 103.294 59.7271 103.294 64.129C103.294 66.9334 109.315 85.4432 118.081 87.5882Z" fill="#441490"/>
<path d="M118.081 87.5873C122.723 88.7229 126.367 83.1712 128.316 78.6312C127.128 80.3477 125.737 81.8475 123.976 82.5855C121.58 83.5902 118.45 83.0402 116.008 81.05C115.043 80.2155 114.18 79.2693 113.437 78.2313C110.316 74.0617 107.953 69.3738 106.458 64.3828C105.916 62.5759 105.507 60.4904 106.301 59.1239C106.714 58.4097 107.387 58.0169 108.122 57.7598C105.443 58.3311 103.294 59.7262 103.294 64.1281C103.294 66.9325 109.315 85.4423 118.081 87.5873Z" fill="#FA9D8A"/>
<path d="M110.037 62.9026C110.037 63.9668 109.324 64.6667 108.43 64.4691C107.536 64.2715 106.83 63.2478 106.83 62.1861C106.83 61.1243 107.543 60.4244 108.43 60.6196C109.316 60.8148 110.037 61.8385 110.037 62.9026Z" fill="#F6FAFF"/>
<path d="M109.122 62.6979C109.122 63.155 108.813 63.4549 108.432 63.3692C108.228 63.3014 108.051 63.1697 107.928 62.9935C107.804 62.8174 107.74 62.6061 107.745 62.3908C107.745 61.9337 108.052 61.6337 108.432 61.717C108.637 61.7852 108.814 61.9172 108.938 62.0938C109.062 62.2703 109.127 62.482 109.122 62.6979Z" fill="#F6FAFF"/>
<path d="M208.061 122.874L153.248 108.823V25.3613L208.061 35.1959V122.874Z" fill="#FA9D8A"/>
<path d="M153.248 58.915V108.823L208.061 122.874V71.085L153.248 58.915Z" fill="#FACC79"/>
<path d="M191.927 58.7742C194.14 66.5447 187.456 76.665 180.636 84.845C173.9 92.9274 166.916 101.329 166.916 101.329L163.377 86.7186C163.377 86.7186 175.842 76.365 182.94 66.6637C190.127 56.8387 187.8 51.8154 187.8 51.8154L190.969 55.684L191.927 58.7742Z" fill="#19143E"/>
<path d="M168.286 53.9752C166.173 60.6887 172.603 73.4016 179.325 84.5455C186.128 95.8276 193.349 107.842 193.349 107.842L197.086 94.6015C197.086 94.6015 184.141 78.2082 177.029 65.4167C170.005 52.7848 172.263 48.752 172.263 48.752L169.197 51.3255L168.286 53.9752Z" fill="#6F14E1"/>
<path d="M179.978 49.5164C190.28 51.5448 191.939 58.8344 191.939 58.8344L188.587 47.9738C188.07 46.3482 187.083 44.9127 185.752 43.848C184.061 42.5423 182.08 41.6651 179.978 41.2912C177.58 40.8365 175.699 41.0722 174.261 41.6602C173.616 41.9375 173.036 42.3483 172.559 42.8656C172.083 43.3829 171.721 43.9952 171.497 44.6622L168.267 54.0278C168.267 54.0278 169.838 47.5214 179.978 49.5164Z" fill="#EEF4FE"/>
<path d="M169.935 198.416C169.845 196.035 169.136 193.75 168.433 191.486L166.224 184.37C165.749 182.832 165.274 181.237 165.464 179.642C165.787 177.066 169.248 171.469 170.218 164.774C170.265 164.436 170.33 164.06 170.605 163.858C171.081 163.52 171.715 163.936 172.043 164.408C172.804 165.493 172.958 166.879 173.089 168.2C173.223 169.298 173.277 170.404 173.251 171.509C173.137 174.009 172.222 176.428 172.169 178.93C172.098 182.263 173.553 185.41 174.67 188.553C175.787 191.695 176.571 195.252 175.198 198.294C174.852 199.133 174.275 199.856 173.534 200.378C173.162 200.634 172.733 200.795 172.284 200.846C171.836 200.897 171.382 200.837 170.962 200.67C170.139 200.301 169.588 199.33 169.833 198.461" fill="#824C37"/>
<path d="M173.235 171.836C173.244 171.726 173.252 171.617 173.256 171.507C173.282 170.401 173.228 169.296 173.095 168.198C172.964 166.877 172.809 165.491 172.049 164.405C171.984 164.31 171.909 164.222 171.825 164.144C173.14 167.343 170.352 170.595 169.377 173.29C169.032 174.308 168.787 175.358 168.645 176.423C168.443 177.718 168.317 179.128 168.971 180.263C168.989 180.305 169.022 180.339 169.063 180.358C169.149 180.389 169.225 180.294 169.268 180.213C170.09 178.666 170.616 176.978 171.369 175.395C171.94 174.195 172.648 173.031 173.235 171.836Z" fill="#593526"/>
<path d="M171.326 173C172.515 166.991 193.727 153.878 193.734 153.878C194.447 153.878 194.813 154.678 194.813 155.406C194.813 157.094 179.453 176.483 174.773 176.483C172.893 176.483 171.255 175.509 171.255 173.678C171.256 173.45 171.28 173.223 171.326 173Z" fill="#824C37"/>
<path d="M194.117 156.549C194.129 156.455 194.11 156.359 194.064 156.275C193.91 156.037 193.551 156.19 193.327 156.356C188.039 160.258 182.721 164.186 178.16 168.919C177.623 169.476 177.081 170.069 176.836 170.805L178.576 173.119C182.837 169.31 186.943 165.337 190.893 161.201L191.388 160.68C192.531 159.187 193.461 157.88 194.062 156.928C194.093 156.804 194.112 156.677 194.117 156.549Z" fill="#593526"/>
<path d="M177.837 172.34C179.976 168.686 197.566 154.98 198.754 154.98C199.496 154.98 199.764 155.425 199.764 156.07C199.764 157.48 188.379 177.892 182.541 177.892C179.888 177.892 177.328 176.299 177.328 174.083C177.34 173.467 177.516 172.865 177.837 172.34Z" fill="#824C37"/>
<path d="M198.777 158.392C198.813 158.155 198.822 157.916 198.804 157.677C198.775 157.311 198.592 157.051 198.226 157.273C196.208 158.494 189.051 166.391 186.79 169.045C185.473 170.595 184.176 172.197 183.36 174.064L184.948 176.723C185.46 176.359 185.923 175.93 186.324 175.447C189.921 171.459 193.187 167.186 196.308 162.829C197.325 161.122 198.176 159.58 198.777 158.392Z" fill="#593526"/>
<path d="M185.59 176.223C185.954 175.613 198.826 157.22 200.91 157.22C201.716 157.22 202.308 157.989 202.308 158.887C202.308 159.389 193.824 182.353 188.759 182.353C187.741 182.337 186.771 181.922 186.055 181.198C185.339 180.473 184.935 179.497 184.93 178.477C184.94 177.679 185.169 176.9 185.59 176.223Z" fill="#824C37"/>
<path d="M196.199 188.655C195.391 190.669 194.711 195.421 191.813 195.421C188.619 195.421 187.723 189.053 187.723 185.584C187.723 180.532 189.477 171.352 194.324 171.352C196.185 171.352 195.115 173.414 196.784 173.414C199.448 173.414 209.073 160.887 210.582 160.887C211.295 160.887 211.571 161.994 211.571 162.675C211.571 164.712 206.684 173.333 205.455 174.949C204.1 176.73 202.503 178.301 201.153 180.089C199.134 182.715 197.468 185.595 196.199 188.655Z" fill="#7C412E"/>
<path d="M210.583 160.882C209.073 160.882 199.449 173.409 196.784 173.409C196.587 173.416 196.39 173.375 196.211 173.29C199.539 166.805 202.308 159.175 202.308 158.887C202.308 157.989 201.716 157.22 200.911 157.22C198.826 157.22 185.955 175.613 185.591 176.223C185.17 176.9 184.942 177.68 184.933 178.477C184.939 179.353 185.238 180.2 185.783 180.885C186.327 181.57 187.085 182.053 187.935 182.255C187.8 183.361 187.729 184.474 187.723 185.588C187.723 189.057 188.619 195.425 191.814 195.425C194.712 195.425 195.379 190.664 196.2 188.66C197.468 185.598 199.134 182.716 201.153 180.089C202.503 178.301 204.101 176.73 205.455 174.949C206.684 173.333 211.571 164.712 211.571 162.674C211.571 161.991 211.3 160.882 210.583 160.882Z" fill="#824C37"/>
<path d="M195.523 189.81C194.458 198.725 194.335 200.813 193.308 203.206C192.255 205.634 190.363 207.593 189.046 209.888C186.286 214.697 182.114 217.321 178.349 252L159.621 248.941L188.539 186.75L195.523 189.81Z" fill="#824C37"/>
<path d="M150.439 246.889C158.745 230.495 170.378 208.141 170.378 191.316C170.378 189.412 170.351 187.319 170.351 185.21C170.351 176.811 169.971 169.897 176.173 169.897C178.999 169.897 195.45 176.994 195.45 185.36C195.45 205.241 183.071 190.597 169.71 250.331" fill="#824C37"/>
<path d="M198.806 172.342C197.964 173.004 197.261 173.409 196.783 173.409C196.585 173.416 196.389 173.375 196.21 173.29C198.094 169.541 199.787 165.699 201.285 161.779C201.262 161.752 201.23 161.735 201.194 161.732C199.821 161.56 191.789 175.413 192.112 177.17C192.132 177.318 192.2 177.454 192.306 177.558C192.412 177.662 192.549 177.727 192.697 177.744C192.829 177.737 192.958 177.7 193.075 177.637C194.294 177.061 194.876 176.418 198.806 172.342Z" fill="#593526"/>
<path d="M176.124 203.16C174.495 202.241 173.423 200.542 172.872 198.754C172.173 196.497 172.235 195.302 171.576 181.51C171.486 179.589 171.438 177.504 172.558 175.942C173.007 175.311 173.706 174.78 174.479 174.814C175.177 174.842 175.767 175.311 176.406 175.594C177.806 176.218 179.496 175.966 180.844 176.701C181.795 177.225 182.444 178.175 183.35 178.78C184.255 179.384 185.37 179.613 186.273 180.222C187.557 181.089 188.241 182.603 189.349 183.679C189.896 184.212 190.557 184.653 190.951 185.308C191.769 186.662 192.615 192.14 189.722 197.063C187.866 200.179 184.925 202.497 181.465 203.57C179.922 204.046 177.521 203.967 176.124 203.16Z" fill="#824C37"/>
<path d="M110.59 87.5215L117.958 101.205C118.462 102.141 118.981 103.167 118.802 104.214C118.636 105.195 117.894 105.962 117.169 106.64C115.774 107.943 114.303 109.163 112.765 110.292" fill="#593526"/>
<path d="M110.419 83.1504C112.016 82.5957 113.613 81.9196 114.74 80.6221C113.958 83.7884 110.77 85.9143 109.986 85.9143C109.511 85.9143 109.111 85.6406 109.111 85.0978C109.123 84.3598 109.813 83.3599 110.419 83.1504Z" fill="#19143E"/>
<path d="M157.691 239.092C156.672 229.298 155.447 219.489 152.994 209.952C151.062 202.448 148.122 194.771 142.146 189.85C137.715 186.198 110.751 177.501 105.54 175.156C100.378 172.833 94.5444 170.412 91.1144 165.66C89.3721 163.246 89.7477 160.608 89.6882 157.722C89.6217 154.278 89.655 150.819 90.0353 147.397C90.4156 143.976 91.6041 143.462 93.6507 143.169C98.7992 142.438 104.138 141.427 107.033 136.98C108.821 134.225 108.749 129.321 113.014 118.898C114.994 114.061 117.449 109.054 116.764 103.869C115.963 97.7821 110.924 92.6422 111.083 86.4906C111.124 84.9884 111.48 83.5123 111.675 82.022C113.18 70.5019 107.518 57.2129 98.4997 50.0828C93.2561 45.938 86.881 43.3454 80.3087 42.148C72.2935 40.6886 64.4542 40.2625 56.3582 41.9266C50.4324 43.1455 44.6326 45.6738 40.3944 49.9971C35.7308 54.7584 33.3158 61.2696 31.7256 67.7451C28.6711 80.2175 28.2575 93.5898 32.4101 105.736C35.1365 113.708 39.7146 120.886 43.9932 128.147C46.1919 131.883 48.343 135.718 49.4174 139.917C50.6321 144.679 50.411 149.678 50.0877 154.573C49.7233 160.088 49.2479 165.595 48.6615 171.092L30.3136 239.935L157.691 239.092Z" fill="#824C37"/>
<path d="M48.64 171.092L30.7627 238.247L138.188 237.113C135.875 225.658 125.885 216.313 125.828 204.624C125.811 201.575 126.481 198.435 125.531 195.535C124.214 191.526 120.206 189.128 116.431 187.255C111.348 184.727 106.124 182.492 100.786 180.56C93.8811 178.061 86.0751 175.489 82.7211 168.952C80.2348 164.117 80.734 160.727 80.6817 131.492L38.2312 118.317C40.0805 121.631 42.0629 124.881 43.9835 128.147C46.1822 131.883 48.3333 135.718 49.4077 139.917C50.6224 144.679 50.4013 149.678 50.078 154.573C49.7152 160.09 49.2358 165.596 48.64 171.092Z" fill="#593526"/>
<path d="M152.994 209.952C151.062 202.451 148.121 194.771 142.146 189.85C137.715 186.198 110.751 177.501 105.54 175.156L103.529 174.254C104.188 175.535 103.822 177.413 102.721 178.482C101.295 179.882 99.1556 180.222 97.1447 180.349C89.3268 180.844 81.5422 179.139 73.9667 177.149C66.3604 175.149 59.8831 172.49 55.1767 165.929C53.0704 162.959 51.3155 159.755 49.9473 156.38C49.6003 161.292 49.1637 166.196 48.6376 171.093L30.3135 239.935L157.691 239.092C156.662 229.298 155.447 219.489 152.994 209.952Z" fill="#FACC79"/>
<path d="M138.188 237.113C135.875 225.658 125.885 216.313 125.828 204.624C125.811 201.575 126.481 198.435 125.531 195.535C124.214 191.526 120.206 189.128 116.431 187.255C111.348 184.727 106.124 182.492 100.786 180.56L99.4147 180.065C98.6669 180.21 97.91 180.303 97.1494 180.344C89.3315 180.839 81.5469 179.134 73.9715 177.144C66.3651 175.144 59.8879 172.485 55.1814 165.924C53.0751 162.954 51.3202 159.75 49.9521 156.375C49.605 161.287 49.1685 166.191 48.6424 171.088L30.7627 238.247L138.188 237.113Z" fill="#FA9D8A"/>
<path d="M115.017 62.7899C107.563 50.1104 95.6876 41.6018 86.2129 38.5712C82.7853 37.4761 79.1985 36.9523 75.6116 36.6881C66.812 36.0524 56.5577 36.0024 48.369 39.6235C40.7627 42.9969 34.2759 49.0105 30.5916 56.512C28.8992 59.9569 27.7725 63.6541 26.9239 67.3989C21.4806 91.4009 27.3185 116.441 26.1252 141.027L25.8875 144.012C25.8875 144.012 28.8659 144.964 37.2638 146.267C51.2689 148.44 65.6925 148.819 79.4599 145.955C78.9438 142.727 78.8599 139.444 79.2104 136.194C79.8426 141.132 80.9123 145.3 85.9039 144.35C88.067 143.725 90.2063 143.011 92.3218 142.208C105.07 137.327 102.99 134.147 103.047 126.371C103.066 123.681 103.004 120.991 102.895 118.301C102.45 107.362 101.197 96.4551 101.259 85.4968C101.259 84.0137 101.331 82.4305 102.179 81.2116C102.655 80.5212 103.458 79.9665 104.535 79.3071C106.814 77.3097 107.546 74.7671 107.546 71.9031C107.546 71.3199 107.515 70.7128 107.463 70.1129C108.171 72.1317 108.727 74.2007 109.127 76.3026C111.243 74.7143 113.206 72.9314 114.991 70.9771C117.763 67.975 116.855 65.9133 115.017 62.7899Z" fill="#19143E"/>
<path d="M98.9014 96.1367C101.205 105.162 102.5 110.576 109.308 116.749C104.502 106.25 101.409 94.4846 101.195 82.8906L98.9014 96.1367Z" fill="#19143E"/>
<path d="M263.426 161.222L226.21 160.984V194.821C226.191 198.023 229.262 201.161 234.979 202.984C243.968 205.841 255.711 204.287 260.957 199.554C262.621 198.054 263.407 196.426 263.417 194.821L263.426 161.222Z" fill="#B363FF"/>
<path d="M231.71 161.024L226.21 160.989V194.821C226.193 197.344 228.1 199.82 231.706 201.658L231.71 161.024Z" fill="#FACC79"/>
<path d="M241.088 204.232C248.411 204.996 256.163 203.41 260.418 200.013V161.208L241.088 161.089V204.232Z" fill="#441490"/>
<path d="M229.11 156.577C223.61 160.643 226.129 166.067 234.984 168.633C243.973 171.238 255.716 169.823 260.962 165.519C266.075 161.332 262.954 156.058 254.223 153.68C245.616 151.337 234.477 152.609 229.11 156.577Z" fill="#FACC79"/>
<path d="M230.524 156.973C225.533 160.675 227.855 165.598 235.899 167.924C244.054 170.281 254.701 168.993 259.474 165.103C264.137 161.294 261.325 156.504 253.384 154.335C245.547 152.192 235.397 153.354 230.524 156.973Z" fill="#19143E"/>
<path d="M254.119 154.549V167.776C256.258 167.115 258.098 166.215 259.465 165.101C263.991 161.422 261.488 156.809 254.119 154.549Z" fill="#B363FF"/>
<path d="M253.384 160.368C245.54 158.189 235.397 159.373 230.524 163.058C230.048 163.413 229.61 163.817 229.217 164.263C230.519 165.724 232.782 167.019 235.898 167.922C244.054 170.279 254.7 168.991 259.473 165.101C259.814 164.828 260.132 164.528 260.424 164.203C259.05 162.641 256.652 161.277 253.384 160.368Z" fill="#593526"/>
<path d="M261.028 175.544C261.205 175.358 261.393 175.181 261.589 175.014L261.736 174.89C261.881 174.775 261.838 174.809 261.605 174.99C261.7 174.935 261.788 174.856 261.881 174.795C262.294 174.516 262.733 174.276 263.191 174.08L262.765 174.261C263.39 173.997 264.046 173.816 264.717 173.721L264.241 173.785C264.597 173.736 264.958 173.73 265.316 173.768L264.84 173.704C265.091 173.739 265.336 173.805 265.57 173.899L265.145 173.718C265.28 173.778 265.413 173.845 265.542 173.918C265.625 173.968 265.706 174.021 265.779 174.073C265.853 174.126 266.084 174.311 265.836 174.111C265.589 173.911 265.81 174.097 265.862 174.142L266.022 174.287C266.133 174.395 266.24 174.509 266.343 174.626C266.39 174.678 266.433 174.733 266.478 174.787C266.614 174.949 266.219 174.426 266.378 174.664C266.457 174.78 266.537 174.902 266.616 175.016C266.776 175.284 266.917 175.562 267.039 175.849L266.858 175.423C267.131 176.098 267.318 176.805 267.415 177.528L267.35 177.051C267.492 178.189 267.482 179.34 267.322 180.475L267.384 179.999C267.172 181.507 266.766 182.982 266.176 184.386L266.354 183.96C266.022 184.752 265.635 185.52 265.195 186.258C264.983 186.61 264.76 186.957 264.522 187.293C264.408 187.457 264.284 187.617 264.168 187.769C264.55 187.241 264.108 187.836 263.999 187.962C263.527 188.519 263.006 189.034 262.444 189.5C262.161 189.738 262.789 189.245 262.547 189.421L262.342 189.567C262.209 189.66 262.074 189.75 261.936 189.833C261.665 190 261.382 190.145 261.089 190.269L261.515 190.088C261.144 190.245 260.754 190.353 260.355 190.409L260.83 190.345C260.53 190.382 260.227 190.382 259.927 190.345C259.506 190.29 258.95 190.583 258.665 190.867C258.333 191.204 258.147 191.657 258.144 192.131C258.145 192.604 258.332 193.057 258.665 193.392C259.016 193.703 259.46 193.887 259.927 193.916C260.971 194.05 262.002 193.742 262.948 193.328C263.87 192.894 264.715 192.314 265.451 191.609C267.17 190.036 268.487 187.972 269.399 185.839C270.44 183.408 271.118 180.761 271.011 178.099C270.97 176.7 270.668 175.322 270.12 174.035C269.58 172.797 268.701 171.738 267.586 170.978C266.145 169.986 264.348 170.026 262.725 170.483C261.12 170.941 259.664 171.814 258.503 173.014C257.857 173.685 257.79 174.878 258.503 175.537C258.841 175.866 259.294 176.049 259.764 176.049C260.235 176.049 260.687 175.866 261.025 175.537L261.028 175.544Z" fill="#441490"/>
</g>
<defs>
<linearGradient id="paint0_linear_1077_10666" x1="258.093" y1="61.6387" x2="258.093" y2="68.788" gradientUnits="userSpaceOnUse">
<stop stop-color="#6F14E1"/>
<stop offset="0.5" stop-color="#6F14E1"/>
<stop offset="1" stop-color="#19143E"/>
</linearGradient>
<linearGradient id="paint1_linear_1077_10666" x1="258.093" y1="64.4189" x2="258.093" y2="66.0077" gradientUnits="userSpaceOnUse">
<stop stop-color="#6F14E1"/>
<stop offset="0.5" stop-color="#6F14E1"/>
<stop offset="1" stop-color="#19143E"/>
</linearGradient>
<linearGradient id="paint2_linear_1077_10666" x1="248.671" y1="79.0586" x2="248.671" y2="79.7635" gradientUnits="userSpaceOnUse">
<stop stop-color="white"/>
<stop offset="1" stop-color="white" stop-opacity="0"/>
</linearGradient>
<linearGradient id="paint3_linear_1077_10666" x1="248.671" y1="71.3047" x2="248.671" y2="72.0095" gradientUnits="userSpaceOnUse">
<stop stop-color="white"/>
<stop offset="1" stop-color="white" stop-opacity="0"/>
</linearGradient>
<linearGradient id="paint4_linear_1077_10666" x1="262.386" y1="75.7725" x2="262.386" y2="84.9997" gradientUnits="userSpaceOnUse">
<stop stop-color="#6F14E1"/>
<stop offset="0.5" stop-color="#6F14E1"/>
<stop offset="1" stop-color="#19143E"/>
</linearGradient>
<linearGradient id="paint5_linear_1077_10666" x1="242.614" y1="56" x2="242.614" y2="65.2273" gradientUnits="userSpaceOnUse">
<stop stop-color="#6F14E1"/>
<stop offset="0.5" stop-color="#6F14E1"/>
<stop offset="1" stop-color="#19143E"/>
</linearGradient>
<linearGradient id="paint6_linear_1077_10666" x1="248.123" y1="66.7959" x2="248.123" y2="83.0622" gradientUnits="userSpaceOnUse">
<stop stop-color="#6F14E1"/>
<stop offset="0.5" stop-color="#6F14E1"/>
<stop offset="1" stop-color="#19143E"/>
</linearGradient>
<linearGradient id="paint7_linear_1077_10666" x1="256.89" y1="58.0166" x2="256.89" y2="74.283" gradientUnits="userSpaceOnUse">
<stop stop-color="#6F14E1"/>
<stop offset="0.5" stop-color="#6F14E1"/>
<stop offset="1" stop-color="#19143E"/>
</linearGradient>
<linearGradient id="paint8_linear_1077_10666" x1="131.305" y1="56.431" x2="131.299" y2="56.9871" gradientUnits="userSpaceOnUse">
<stop stop-color="white"/>
<stop offset="1" stop-color="white" stop-opacity="0"/>
</linearGradient>
<linearGradient id="paint9_linear_1077_10666" x1="131.369" y1="50.3148" x2="131.363" y2="50.8709" gradientUnits="userSpaceOnUse">
<stop stop-color="white"/>
<stop offset="1" stop-color="white" stop-opacity="0"/>
</linearGradient>
<clipPath id="clip0_1077_10666">
<rect width="335" height="252" fill="white"/>
</clipPath>
</defs>
</svg>
