<svg width="21" height="20" viewBox="0 0 21 20" fill="none" xmlns="http://www.w3.org/2000/svg">
<g clip-path="url(#clip0_1192_12093)">
<path d="M15.9477 10.6254C15.9779 13.652 18.8004 14.6592 18.8317 14.672C18.8078 14.743 18.3807 16.1074 17.3447 17.5166C16.449 18.735 15.5195 19.9488 14.0552 19.974C12.6164 19.9986 12.1537 19.1799 10.5088 19.1799C8.8643 19.1799 8.35026 19.9489 6.98826 19.9987C5.57485 20.0485 4.49851 18.6812 3.59549 17.4673C1.75019 14.9842 0.339996 10.4508 2.23353 7.39061C3.17419 5.87092 4.85523 4.90859 6.67985 4.88391C8.06779 4.85927 9.3778 5.753 10.2263 5.753C11.0743 5.753 12.6662 4.67821 14.3398 4.83606C15.0404 4.8632 17.0071 5.09947 18.2699 6.81993C18.1682 6.87864 15.9233 8.09499 15.9477 10.6254ZM13.2436 3.1933C13.994 2.34789 14.4991 1.171 14.3613 0C13.2797 0.0404618 11.9717 0.670851 11.1959 1.5158C10.5006 2.26404 9.89168 3.46164 10.056 4.60946C11.2616 4.69628 12.4932 4.03925 13.2436 3.1933Z" fill="#32343D"/>
</g>
<defs>
<clipPath id="clip0_1192_12093">
<rect width="17.5" height="20" fill="white" transform="translate(1.33301)"/>
</clipPath>
</defs>
</svg>
