<svg width="124" height="106" viewBox="0 0 124 106" fill="none" xmlns="http://www.w3.org/2000/svg">
<path fill-rule="evenodd" clip-rule="evenodd" d="M0.303879 101.887C1.52628 107.472 10.3064 105.749 15.7139 105.75L112.297 105.748C120.847 105.752 123.06 106.489 123.029 97.2508C123.015 93.142 123.564 80.844 122.853 77.6862C121.657 72.3717 113.941 73.8204 107.386 73.8179L10.8027 73.8162C1.97971 73.8101 0.191689 73.2717 0.201124 82.5171C0.205167 86.3955 -0.316048 99.0556 0.303879 101.887ZM74.3008 94.0028C74.4253 96.6974 73.6265 100.145 76.343 100.593C79.8299 101.168 79.419 97.3226 79.3553 94.6181C81.3137 95.4917 82.3521 96.9561 84.9211 96.73C88.1115 93.6616 85.057 91.5412 82.2011 90.5146C83.0807 89.3643 81.8717 90.5665 82.9967 89.7198C84.0295 88.9421 85.3386 88.7678 86.1653 87.8788C87.7132 86.2142 86.5607 84.7013 85.6555 83.8752C82.937 83.3071 81.685 84.761 79.3354 85.6541C79.4804 81.1546 79.8903 77.6324 74.8825 79.4847C74.2439 81.4624 74.3736 82.4971 74.3232 85.0016C72.3854 84.2039 70.6602 81.9637 68.4999 83.2502C64.5576 85.8111 70.2232 88.0992 71.3673 89.4747C69.6945 90.8178 65.1975 91.4915 67.2061 94.8434C68.8122 97.5234 72.3313 94.5739 74.3008 94.0028ZM104.821 94.0474C104.85 97.3276 104.25 98.0277 106.06 100.499L109.232 100.387C110.113 98.2237 109.942 97.362 109.904 94.6692C111.74 95.1989 114.944 98.5441 116.546 95.7263C118.19 92.8337 114.239 91.1379 112.718 90.3192C114.407 88.3668 118.568 88.8316 117.164 85.132C115.937 81.8992 112.036 85.0478 109.886 85.5516L109.818 80.3173C108.134 78.4516 106.607 78.3178 105.133 80.3254L104.792 84.9564C103.36 84.4085 99.6776 80.9594 98.1496 83.9775C96.5871 87.0639 100.371 87.8218 101.903 89.4747C100.303 90.9257 95.7049 91.5976 97.75 94.9586C99.2722 97.46 102.849 94.4684 104.821 94.0474ZM13.2551 94.0017C13.3691 96.7723 12.5515 100.239 15.3481 100.613C18.879 101.085 18.1784 97.2968 18.4271 94.6452C20.5517 95.6567 21.3194 97.1419 24.5058 96.5448C26.8328 92.9698 23.7066 91.9539 21.2015 90.1649C23.1961 88.5368 28.4628 87.5791 24.6188 83.9057C21.4896 83.1256 20.9967 85.0233 18.3951 85.5578C18.2848 83.239 19.1028 79.2516 16.0548 78.9646C15.2376 78.8877 14.6821 79.1106 14.1137 79.6647C12.8463 80.9003 13.3029 83.2559 13.284 85.0136C11.1694 84.1676 10.0088 81.9283 7.43552 83.1949C3.49289 85.859 9.14555 88.1009 10.3403 89.4747C8.86162 90.6814 4.21355 91.4805 6.19716 94.8608C7.69955 97.4212 11.3166 94.6961 13.2551 94.0017ZM43.822 94.0618C43.8179 96.6269 43.2314 102.112 47.4813 100.458C49.3244 99.7412 48.9107 96.9031 48.8735 94.6341C50.728 95.321 53.9126 98.5175 55.5134 95.6847C57.0628 92.9428 53.6279 91.1698 51.7003 90.3671C52.729 89.0691 53.3273 89.3091 54.8315 88.4899C56.0128 87.8466 57.0124 86.632 56.0405 84.805C54.609 82.1134 50.7053 84.9924 49.0079 85.6194C48.6893 83.1006 49.622 79.4074 46.7118 78.9736C43.3846 78.4777 43.8133 82.29 43.8282 84.9096C42.205 84.4968 39.2187 81.2557 37.3438 83.73C35.0951 86.6975 39.2995 87.8716 40.8344 89.4747C39.2044 90.8674 34.9342 91.6056 36.643 94.7222C38.2227 97.6036 41.8764 94.4144 43.822 94.0618Z" fill="url(#paint0_linear_838_34417)"/>
<path fill-rule="evenodd" clip-rule="evenodd" d="M36.299 58.563C37.8819 66.9284 45.4144 66.4215 50.5003 66.4178C57.8667 66.4125 65.2336 66.4159 72.6 66.4162C77.5378 66.4164 85.3259 66.8201 86.8601 58.7174C87.7333 54.106 87.0641 41.7031 87.0814 36.2714C87.112 26.7138 84.6713 28.5925 72.6 28.5878L39.5683 28.6703C35.7552 29.2781 36.1242 32.2684 36.1366 36.271C36.1527 41.4961 35.4927 54.3028 36.299 58.563ZM64.4674 46.807C65.7325 45.7715 67.1272 44.7089 67.0172 42.0035C66.9199 39.6097 65.5353 38.0395 63.8331 37.2605C59.6641 35.3528 55.3056 39.1397 56.3139 43.5308C56.9161 46.1535 58.6129 45.3438 58.7782 48.5178C58.8874 50.615 58.145 53.9167 59.5167 55.4924C61.0587 57.2639 63.6671 56.3091 64.2606 54.5422C64.6556 53.3663 64.4814 48.3603 64.4674 46.807Z" fill="url(#paint1_linear_838_34417)"/>
<path fill-rule="evenodd" clip-rule="evenodd" d="M6.71062 66.4158C14.5322 66.4195 12.8169 67.8593 12.8169 51.4139C12.8169 47.4867 12.3708 36.1064 13.0866 33.2732C21.8043 32.1356 30.4542 35.9104 30.7444 30.5613C31.1909 22.328 31.5755 24.0716 15.3049 24.0721C8.15229 24.0724 3.75658 28.1076 3.75537 35.453L3.75098 63.6914C3.75569 66.2201 4.33182 66.4148 6.71062 66.4158Z" fill="url(#paint2_linear_838_34417)"/>
<path fill-rule="evenodd" clip-rule="evenodd" d="M111.859 33.4383C112.507 41.4668 112.125 54.7166 112.113 63.6916C112.109 66.9782 112.642 66.4158 118.436 66.4152C121.1 66.4151 121.136 66.3231 121.136 63.6916L121.137 34.6347C121.133 28.093 116.446 24.0745 109.842 24.0741C105.239 24.0737 98.9822 23.8372 94.5899 24.2989C93.5321 34.5979 93.9548 33.1176 102.066 33.1194C104.68 33.12 109.844 32.8537 111.859 33.4383Z" fill="url(#paint3_linear_838_34417)"/>
<path fill-rule="evenodd" clip-rule="evenodd" d="M48.2799 23.8422C49.0919 17.9925 47.6069 16.4451 51.2085 11.6048C55.4804 5.86357 64.7606 4.96333 69.9279 9.48992C75.0825 14.0058 74.24 17.1769 74.8728 23.7672L81.3472 23.7979C83.3954 -1.1809 56.5045 -5.7997 46.6897 6.68078C43.5552 10.6664 40.5288 16.8746 41.9633 23.8555L48.2799 23.8422Z" fill="url(#paint4_linear_838_34417)"/>
<defs>
<linearGradient id="paint0_linear_838_34417" x1="61.609" y1="106" x2="61.609" y2="73.6394" gradientUnits="userSpaceOnUse">
<stop offset="0.105" stop-color="#B569B4"/>
<stop offset="1" stop-color="#02E4F0"/>
</linearGradient>
<linearGradient id="paint1_linear_838_34417" x1="61.6038" y1="66.4248" x2="61.6038" y2="28.4412" gradientUnits="userSpaceOnUse">
<stop offset="0.105" stop-color="#B569B4"/>
<stop offset="1" stop-color="#02E4F0"/>
</linearGradient>
<linearGradient id="paint2_linear_838_34417" x1="17.3185" y1="66.4492" x2="17.3185" y2="23.9175" gradientUnits="userSpaceOnUse">
<stop offset="0.105" stop-color="#B569B4"/>
<stop offset="1" stop-color="#02E4F0"/>
</linearGradient>
<linearGradient id="paint3_linear_838_34417" x1="107.653" y1="66.4521" x2="107.653" y2="24.0132" gradientUnits="userSpaceOnUse">
<stop offset="0.105" stop-color="#B569B4"/>
<stop offset="1" stop-color="#02E4F0"/>
</linearGradient>
<linearGradient id="paint4_linear_838_34417" x1="61.5274" y1="23.8555" x2="61.5274" y2="-0.000450134" gradientUnits="userSpaceOnUse">
<stop offset="0.105" stop-color="#B569B4"/>
<stop offset="1" stop-color="#02E4F0"/>
</linearGradient>
</defs>
</svg>
