<svg width="213" height="176" viewBox="0 0 213 176" fill="none" xmlns="http://www.w3.org/2000/svg">
<circle cx="110" cy="90" r="75" fill="#E5E2FF"/>
<circle cx="77" cy="5" r="5" fill="url(#paint0_linear_53_2106)"/>
<circle cx="200.5" cy="34.5" r="12.5" fill="#FF4267"/>
<circle cx="183" cy="136" r="5" fill="url(#paint1_linear_53_2106)"/>
<circle cx="52" cy="136" r="10" fill="#FFAF2A"/>
<circle cx="5" cy="70" r="5" fill="#52D5BA"/>
<path d="M150.097 126.968C149.388 126.968 148.784 126.381 148.784 125.669V114.235C148.784 108.246 143.951 103.387 137.993 103.387C132.034 103.387 127.201 108.267 127.201 114.235V125.669C127.201 126.381 126.618 126.968 125.888 126.968H118.638C117.93 126.968 117.347 126.381 117.347 125.669V114.235C117.347 102.78 126.618 93.4609 138.013 93.4609C149.409 93.4609 158.68 102.78 158.68 114.235V125.669C158.68 126.381 158.097 126.968 157.368 126.968H150.097Z" fill="url(#paint2_linear_53_2106)"/>
<path d="M138.014 94.7589C148.68 94.7589 157.368 103.492 157.368 114.214V125.648H150.118V114.214C150.118 107.512 144.701 102.047 138.014 102.047C131.347 102.047 125.909 107.492 125.909 114.214V125.648H118.659V114.214C118.659 103.492 127.326 94.7589 138.014 94.7589ZM138.014 92.1621C125.909 92.1621 116.055 102.068 116.055 114.235V125.669C116.055 127.114 117.222 128.287 118.659 128.287H125.909C127.347 128.287 128.514 127.114 128.514 125.669V114.235C128.514 108.978 132.764 104.685 138.014 104.685C143.243 104.685 147.514 108.978 147.514 114.235V125.669C147.514 127.114 148.68 128.287 150.118 128.287H157.368C158.805 128.287 159.972 127.114 159.972 125.669V114.235C159.972 102.047 150.118 92.1621 138.014 92.1621Z" fill="white"/>
<path d="M113.805 174.674C112.055 174.674 110.638 173.25 110.638 171.491V127.534C110.638 125.775 112.055 124.351 113.805 124.351H162.222C163.972 124.351 165.388 125.775 165.388 127.534V171.47C165.388 173.229 163.972 174.653 162.222 174.653H113.805V174.674Z" fill="url(#paint3_linear_53_2106)"/>
<path d="M162.222 125.669C163.243 125.669 164.076 126.507 164.076 127.554V171.49C164.076 172.516 163.243 173.375 162.222 173.375H113.805C112.763 173.375 111.951 172.537 111.951 171.49V127.533C111.951 126.507 112.784 125.649 113.805 125.649H162.222V125.669ZM162.222 123.052H113.805C111.347 123.052 109.347 125.062 109.347 127.533V171.469C109.347 173.94 111.347 175.951 113.805 175.951H162.222C164.68 175.951 166.68 173.94 166.68 171.469V127.533C166.68 125.062 164.68 123.052 162.222 123.052Z" fill="white"/>
<path d="M162.222 125.67H152.764V160.308C152.764 161.334 151.93 162.172 150.889 162.172H111.93V171.47C111.93 172.496 112.764 173.354 113.784 173.354H162.201C163.222 173.354 164.055 172.517 164.055 171.47V127.534C164.076 126.508 163.243 125.67 162.222 125.67Z" fill="url(#paint4_linear_53_2106)"/>
<path d="M162.222 125.67H158.68V165.543C158.68 166.59 157.847 167.407 156.805 167.407H111.93V171.491C111.93 172.517 112.764 173.375 113.784 173.375H162.201C163.222 173.375 164.055 172.538 164.055 171.491V127.534C164.076 126.508 163.243 125.67 162.222 125.67Z" fill="url(#paint5_linear_53_2106)"/>
<path d="M135.825 154.443C135.825 154.184 135.665 153.952 135.424 153.86C132.701 152.819 130.783 150.178 130.783 147.092C130.783 143.101 134.026 139.864 137.993 139.864C141.979 139.864 145.202 143.1 145.202 147.092C145.202 150.178 143.284 152.819 140.561 153.86C140.32 153.952 140.16 154.184 140.16 154.443V158.129C140.16 159.337 139.186 160.311 137.993 160.311C136.799 160.311 135.825 159.337 135.825 158.129V154.443Z" fill="url(#paint6_linear_53_2106)" stroke="white" stroke-width="1.2486" stroke-miterlimit="10" stroke-linecap="round" stroke-linejoin="round"/>
<defs>
<linearGradient id="paint0_linear_53_2106" x1="77" y1="0" x2="77" y2="10" gradientUnits="userSpaceOnUse">
<stop stop-color="#E071DF"/>
<stop offset="1" stop-color="#02E4F0"/>
</linearGradient>
<linearGradient id="paint1_linear_53_2106" x1="183" y1="131" x2="183" y2="141" gradientUnits="userSpaceOnUse">
<stop stop-color="#E071DF"/>
<stop offset="1" stop-color="#02E4F0"/>
</linearGradient>
<linearGradient id="paint2_linear_53_2106" x1="138.013" y1="93.4609" x2="138.013" y2="126.968" gradientUnits="userSpaceOnUse">
<stop stop-color="#E071DF"/>
<stop offset="1" stop-color="#02E4F0"/>
</linearGradient>
<linearGradient id="paint3_linear_53_2106" x1="138.013" y1="124.351" x2="138.013" y2="174.674" gradientUnits="userSpaceOnUse">
<stop stop-color="#E071DF"/>
<stop offset="1" stop-color="#02E4F0"/>
</linearGradient>
<linearGradient id="paint4_linear_53_2106" x1="137.993" y1="125.67" x2="137.993" y2="173.354" gradientUnits="userSpaceOnUse">
<stop stop-color="#E071DF"/>
<stop offset="1" stop-color="#02E4F0"/>
</linearGradient>
<linearGradient id="paint5_linear_53_2106" x1="137.993" y1="125.67" x2="137.993" y2="173.375" gradientUnits="userSpaceOnUse">
<stop stop-color="#E071DF"/>
<stop offset="1" stop-color="#02E4F0"/>
</linearGradient>
<linearGradient id="paint6_linear_53_2106" x1="137.993" y1="139.239" x2="137.993" y2="160.935" gradientUnits="userSpaceOnUse">
<stop stop-color="#E071DF"/>
<stop offset="1" stop-color="#02E4F0"/>
</linearGradient>
</defs>
</svg>
