<svg width="308" height="278" viewBox="0 0 308 278" fill="none" xmlns="http://www.w3.org/2000/svg">
<path d="M160.256 233C214.656 233 258.756 189.124 258.756 135C258.756 80.8761 214.656 37 160.256 37C105.856 37 61.7559 80.8761 61.7559 135C61.7559 189.124 105.856 233 160.256 233Z" fill="url(#paint0_linear_1074_10305)"/>
<path d="M114.256 130.058L143.717 163.391L205.688 106.5" stroke="white" stroke-width="20" stroke-linecap="round" stroke-linejoin="round"/>
<path d="M279.756 78.5425C279.756 78.5425 288.047 77.6144 291.678 71.7954C295.53 65.6214 295.333 54.1527 304.479 49.3867" stroke="#FD5284" stroke-width="5" stroke-linecap="round"/>
<path d="M2.14453 67.5286C20.9985 66.1056 18.1522 91.0046 10.3262 86.7366C2.50017 82.4686 16.3729 67.8846 32.3789 86.7366" stroke="#00B1FF" stroke-width="4" stroke-linecap="round"/>
<path d="M135.756 16C140.174 16 143.756 12.4183 143.756 8C143.756 3.58172 140.174 0 135.756 0C131.338 0 127.756 3.58172 127.756 8C127.756 12.4183 131.338 16 135.756 16Z" fill="#0E920E"/>
<path d="M155.756 20C157.965 20 159.756 18.2091 159.756 16C159.756 13.7909 157.965 12 155.756 12C153.547 12 151.756 13.7909 151.756 16C151.756 18.2091 153.547 20 155.756 20Z" fill="#FDB952"/>
<path d="M249.756 57C253.622 57 256.756 53.866 256.756 50C256.756 46.134 253.622 43 249.756 43C245.89 43 242.756 46.134 242.756 50C242.756 53.866 245.89 57 249.756 57Z" fill="#5852FD"/>
<path d="M252.256 233C257.503 233 261.756 228.747 261.756 223.5C261.756 218.253 257.503 214 252.256 214C247.009 214 242.756 218.253 242.756 223.5C242.756 228.747 247.009 233 252.256 233Z" fill="#FDB952"/>
<path d="M113.256 252C116.846 252 119.756 249.09 119.756 245.5C119.756 241.91 116.846 239 113.256 239C109.666 239 106.756 241.91 106.756 245.5C106.756 249.09 109.666 252 113.256 252Z" fill="#FD5252"/>
<path d="M137.756 278C139.965 278 141.756 276.209 141.756 274C141.756 271.791 139.965 270 137.756 270C135.547 270 133.756 271.791 133.756 274C133.756 276.209 135.547 278 137.756 278Z" fill="#6FBF41"/>
<path d="M25.2559 143C32.1594 143 37.7559 137.404 37.7559 130.5C37.7559 123.596 32.1594 118 25.2559 118C18.3523 118 12.7559 123.596 12.7559 130.5C12.7559 137.404 18.3523 143 25.2559 143Z" fill="#D652FD"/>
<path d="M160.256 233C214.656 233 258.824 189.749 258.756 135C258.756 189.124 214.656 233 160.256 233ZM160.256 233C105.856 233 61.7561 189.124 61.7561 135C61.0561 189.147 105.856 233 160.256 233Z" stroke="#46195B" stroke-width="3" stroke-linecap="round" stroke-linejoin="round"/>
<path d="M216.907 272H205.604L202.104 261.165L211.256 254.478L220.408 261.165L216.907 272Z" fill="#FDB952"/>
<path d="M211.256 256.954L204.451 261.926L207.06 270H215.452L218.06 261.926L211.256 256.954ZM211.256 252L222.756 260.403L218.363 274H204.148L199.756 260.403L211.256 252Z" fill="#FD5252"/>
<defs>
<linearGradient id="paint0_linear_1074_10305" x1="160.256" y1="37" x2="160.256" y2="233" gradientUnits="userSpaceOnUse">
<stop stop-color="#DA5ED8"/>
<stop offset="0.5" stop-color="#B854B7"/>
<stop offset="1"/>
</linearGradient>
</defs>
</svg>
