<svg width="28" height="28" viewBox="0 0 28 28" fill="none" xmlns="http://www.w3.org/2000/svg">
<path d="M25.8658 24.4999H22.5005V12.2495H25.8658C26.597 12.2495 27.2444 11.7573 27.4681 11.0345C27.6915 10.31 27.4387 9.5168 26.8439 9.07578L15.0653 0.32551C14.4801 -0.108503 13.6948 -0.108503 13.11 0.32551L1.33143 9.07578C0.736611 9.5168 0.483371 10.3096 0.707165 11.0345C0.930117 11.7573 1.57752 12.2495 2.30863 12.2495H5.67395V24.4999H2.30863C1.37855 24.4999 0.625977 25.2826 0.625977 26.2499V28H27.5485V26.2499C27.5485 25.2826 26.7959 24.4999 25.8658 24.4999ZM12.4046 24.4999H9.03926V12.2495H12.4046V24.4999ZM19.1352 24.4999H15.7699V12.2495H19.1352V24.4999Z" fill="#292FD3"/>
</svg>
