<svg width="42" height="42" viewBox="0 0 42 42" fill="none" xmlns="http://www.w3.org/2000/svg">
<circle cx="21" cy="21" r="21" fill="url(#paint0_linear_818_12365)"/>
<path d="M10 18.9445C10 16.8275 11.7162 15.1112 13.8333 15.1112H24.0556C26.1727 15.1112 27.8889 16.8275 27.8889 18.9445V29.1668C27.8889 31.2839 26.1727 33.0001 24.0556 33.0001H13.8333C11.7162 33.0001 10 31.2839 10 29.1668V18.9445Z" stroke="white" stroke-width="2.5" stroke-linecap="round" stroke-linejoin="round"/>
<path d="M18.9447 24.0557V20.2224M18.9447 24.0557V27.8891M18.9447 24.0557H22.778M18.9447 24.0557H15.1113" stroke="white" stroke-width="2.5" stroke-linecap="round" stroke-linejoin="round"/>
<path d="M15.1113 10H29.1669C31.284 10 33.0002 11.7162 33.0002 13.8333V27.8889" stroke="white" stroke-width="2.5" stroke-linecap="round" stroke-linejoin="round"/>
<defs>
<linearGradient id="paint0_linear_818_12365" x1="21" y1="0" x2="21" y2="42" gradientUnits="userSpaceOnUse">
<stop stop-color="#DA5ED8"/>
<stop offset="0.5" stop-color="#B854B7"/>
<stop offset="1"/>
</linearGradient>
</defs>
</svg>
