<svg width="28" height="24" viewBox="0 0 28 24" fill="none" xmlns="http://www.w3.org/2000/svg">
<path d="M27.3582 14.6563C27.3203 15.0219 26.9727 15.2048 26.6767 15.371C26.4013 15.5239 26.126 15.6801 25.8541 15.833C25.4135 16.0789 24.9764 16.3249 24.5359 16.5709C23.9852 16.88 23.4379 17.1891 22.8872 17.4949C22.2815 17.834 21.6757 18.1763 21.0665 18.5153C20.4573 18.8577 19.8481 19.2001 19.2355 19.5424C18.6744 19.8582 18.1169 20.1706 17.5559 20.4864C17.0981 20.7423 16.6438 20.9983 16.186 21.2542C15.8866 21.4204 15.5871 21.5899 15.2877 21.7561C15.0605 21.8824 14.8471 22.0087 14.589 22.0819C13.9178 22.268 13.1744 22.2049 12.5687 21.8658C12.3518 21.7428 12.1315 21.6232 11.9147 21.5002C11.5155 21.2775 11.1196 21.0581 10.7204 20.8354C10.1972 20.5429 9.67408 20.2504 9.15092 19.9612C8.55549 19.6288 7.95661 19.2965 7.36117 18.9641C6.74509 18.6217 6.129 18.276 5.51292 17.9337C4.93125 17.6079 4.34958 17.2855 3.76447 16.9598L2.2776 16.1321C1.92309 15.9327 1.56515 15.7366 1.21064 15.5371C1.04887 15.4474 0.887106 15.3577 0.72534 15.2646C0.470645 15.1217 0.219392 14.8956 0.219392 14.5898C0.219392 14.869 0.219392 15.1483 0.21595 15.4308C0.21595 15.5305 0.209066 15.6335 0.21595 15.7366C0.236601 16.0058 0.456878 16.2152 0.68748 16.3482C0.828594 16.4313 0.973151 16.5077 1.11771 16.5875C1.48942 16.7936 1.86114 17.003 2.23286 17.2091C2.76978 17.5082 3.30327 17.8074 3.84019 18.1065C4.47693 18.4622 5.11711 18.8178 5.75384 19.1735C6.41812 19.5457 7.08239 19.9147 7.7501 20.287C8.3834 20.6393 9.01325 20.9916 9.64655 21.344C10.1731 21.6365 10.6963 21.929 11.2229 22.2215C11.5774 22.4209 11.9354 22.617 12.2899 22.8164C12.4964 22.9295 12.6994 23.0591 12.9232 23.1389C13.6219 23.3848 14.441 23.3316 15.0846 22.9693C15.329 22.8331 15.5734 22.6935 15.8177 22.5572C16.2686 22.3046 16.7195 22.052 17.1669 21.7993C17.7555 21.4703 18.3406 21.1412 18.9291 20.8088C19.5865 20.4399 20.2439 20.0709 20.8979 19.702L22.87 18.5951C23.4586 18.2627 24.0471 17.9337 24.6391 17.6013C25.0969 17.3453 25.5547 17.0894 26.0124 16.8301C26.2637 16.6872 26.5184 16.5476 26.7696 16.4047C26.8453 16.3615 26.9245 16.3183 26.9968 16.2684C27.1895 16.1288 27.341 15.936 27.3444 15.6934C27.3478 15.5704 27.3444 15.4507 27.3444 15.3277C27.3444 15.0851 27.3444 14.8391 27.3478 14.5965C27.3616 14.6231 27.3616 14.6397 27.3582 14.6563C27.3582 14.6663 27.3582 14.6497 27.3582 14.6563Z" fill="#7A9EFD"/>
<path d="M26.8696 13.9409C27.5236 14.3066 27.527 14.9015 26.8765 15.2672L15.0229 21.9182C14.3724 22.2839 13.3089 22.2839 12.6549 21.9182L0.722111 15.2672C0.0681643 14.9015 0.0647226 14.3066 0.715227 13.9409L12.5689 7.28985C13.2194 6.92422 14.2829 6.92422 14.9368 7.28985L26.8696 13.9409Z" fill="#E4ECF9"/>
<path d="M15.8454 0.0308847C15.6699 -0.0688317 15.4496 0.097362 15.2982 0.183783L14.4928 0.632507C14.0901 0.85853 13.6874 1.08123 13.2847 1.30725C12.8132 1.56984 12.3382 1.83575 11.8667 2.09834C11.3883 2.36425 10.9099 2.63348 10.4314 2.89939L9.18206 3.59741C8.89639 3.75695 8.60728 3.9165 8.32161 4.07937C8.1564 4.17244 7.97742 4.25221 7.84663 4.38849C7.68487 4.55801 7.57129 4.79068 7.57129 5.02335V5.71472C7.57129 6.04378 7.57473 6.37285 7.57473 6.70191C7.57473 7.13401 7.57817 7.56612 7.57817 7.99822C7.57817 8.50013 7.58162 9.00204 7.58162 9.50062C7.58162 10.0358 7.58506 10.5709 7.58506 11.1061C7.58506 11.6445 7.5885 12.183 7.5885 12.7248C7.5885 13.2333 7.59194 13.7419 7.59194 14.2504C7.59194 14.6925 7.59538 15.1346 7.59538 15.5767C7.59538 15.9224 7.59882 16.2714 7.59882 16.617C7.59882 16.8331 7.59882 17.0491 7.60227 17.2619C7.60227 17.4281 7.58161 17.6275 7.75026 17.7272C7.91547 17.8236 8.08412 17.9134 8.24933 18.0064C8.08756 17.9167 8.11166 17.7006 8.11166 17.5411C8.11166 17.3317 8.11166 17.1223 8.10821 16.9129C8.10821 16.5805 8.10477 16.2481 8.10477 15.919C8.10477 15.4936 8.10133 15.0714 8.10133 14.646C8.10133 14.1574 8.09789 13.6688 8.09789 13.1802C8.09789 12.6583 8.09445 12.1398 8.09445 11.6179C8.09445 11.0961 8.091 10.5776 8.091 10.0557C8.091 9.56045 8.08756 9.06519 8.08756 8.57325C8.08756 8.13783 8.08412 7.7024 8.08412 7.26365C8.08412 6.91796 8.08068 6.57228 8.08068 6.2266C8.08068 5.99725 8.08068 5.77122 8.07724 5.54188C8.07724 5.43884 8.07035 5.3358 8.08068 5.23276C8.11166 4.95023 8.29407 4.66437 8.54533 4.52145L8.66923 4.45164C8.89639 4.32534 9.12011 4.19903 9.34727 4.07605C9.71554 3.86996 10.0838 3.66721 10.4487 3.46113C10.8961 3.21184 11.347 2.96255 11.7944 2.70993C12.2625 2.45067 12.7306 2.18808 13.1952 1.92882C13.6255 1.6895 14.0522 1.45018 14.4825 1.21086C14.8129 1.02472 15.1433 0.841911 15.4772 0.655774C15.6492 0.559381 15.8213 0.462989 15.9934 0.36992C16.1036 0.31009 16.2378 0.253585 16.3583 0.320062C16.1827 0.220346 16.0141 0.123953 15.8454 0.0308847Z" fill="#2A2ABC"/>
<path d="M16.0209 0.34628C16.2791 0.203353 16.489 0.319688 16.489 0.605542L16.5269 13.0202C16.5269 13.3061 16.3169 13.6551 16.0622 13.798L8.57626 17.9695C8.31812 18.1124 8.10817 17.9961 8.10817 17.7135L8.07031 5.29886C8.07031 5.01301 8.28026 4.664 8.53496 4.52107L16.0209 0.34628Z" fill="#4040FF"/>
<path d="M14.4205 5.47856C14.5479 5.40543 14.6546 5.46526 14.6546 5.60819C14.6546 5.75111 14.5513 5.92396 14.424 5.99708L9.84635 8.54982C9.719 8.62295 9.6123 8.56312 9.6123 8.42019C9.6123 8.27726 9.71556 8.10442 9.84291 8.0313L14.4205 5.47856Z" fill="#2828CE"/>
<path d="M14.923 5.90445C14.9608 5.89116 15.009 5.88783 15.0469 5.90778L14.7268 5.72829C14.6476 5.68508 14.5926 5.67178 14.5065 5.71499C14.4274 5.75488 14.3516 5.80141 14.2759 5.84462C13.8526 6.08062 13.4258 6.31994 13.0024 6.55593C12.4483 6.86505 11.8976 7.17418 11.3435 7.47997C10.9374 7.706 10.5278 7.93534 10.1216 8.16137C10.0528 8.19793 9.98397 8.23449 9.91857 8.27438C9.78434 8.3608 9.66732 8.55358 9.70862 8.71313C9.72583 8.77628 9.77057 8.79955 9.82564 8.82947L10.0218 8.93916C10.0597 8.96242 10.101 8.98237 10.1388 9.00563C9.98397 8.91921 10.1113 8.65995 10.1905 8.56688C10.2283 8.52367 10.2731 8.49043 10.3213 8.46052C10.397 8.41731 10.4761 8.3741 10.5553 8.33088C10.9029 8.1381 11.2471 7.94531 11.5947 7.75253L12.9887 6.97474C13.4086 6.73875 13.8285 6.50607 14.2484 6.27008C14.3895 6.19363 14.5272 6.11386 14.6683 6.03741C14.713 6.01414 14.7578 5.98755 14.8025 5.96428C14.8163 5.95764 14.8645 5.94102 14.8714 5.9244C14.8714 5.92107 14.8782 5.92107 14.8817 5.92107L14.7578 5.85127L14.8301 5.89116C14.8782 5.92107 14.8714 5.9244 14.923 5.90445Z" fill="#ACC5EA"/>
<path d="M14.4205 3.83012C14.5479 3.75699 14.6546 3.81682 14.6546 3.95975C14.6546 4.10268 14.5513 4.27552 14.424 4.34864L9.84635 6.90138C9.719 6.97451 9.6123 6.91468 9.6123 6.77175C9.6123 6.62883 9.71556 6.45598 9.84291 6.38286L14.4205 3.83012Z" fill="#2828CE"/>
<path d="M14.8815 5.92387C15.0088 5.85074 15.1155 5.91057 15.1155 6.0535C15.1155 6.19643 15.0123 6.36927 14.8849 6.44239L10.3073 8.99513C10.1799 9.06826 10.0732 9.00843 10.0732 8.8655C10.0732 8.72258 10.1765 8.54973 10.3038 8.47661L14.8815 5.92387Z" fill="white"/>
<path d="M14.923 4.25504C14.9608 4.24174 15.009 4.23842 15.0469 4.25836L14.7268 4.07887C14.6476 4.03566 14.5926 4.02237 14.5065 4.06558C14.4274 4.10546 14.3516 4.152 14.2759 4.19521C13.8526 4.4312 13.4258 4.67052 13.0024 4.90652C12.4483 5.21564 11.8976 5.52476 11.3435 5.83056C10.9374 6.05658 10.5278 6.28593 10.1216 6.51195C10.0528 6.54852 9.98397 6.58508 9.91857 6.62497C9.78434 6.71139 9.66732 6.90417 9.70862 7.06372C9.72583 7.12687 9.77057 7.15014 9.82564 7.18005L10.0218 7.28974C10.0597 7.31301 10.101 7.33295 10.1388 7.35622C9.98397 7.2698 10.1113 7.01053 10.1905 6.91747C10.2283 6.87426 10.2731 6.84102 10.3213 6.8111C10.397 6.76789 10.4761 6.72468 10.5553 6.68147C10.9029 6.48869 11.2471 6.2959 11.5947 6.10312L12.9887 5.32533C13.4086 5.08933 13.8285 4.85666 14.2484 4.62067C14.3895 4.54422 14.5272 4.46444 14.6683 4.38799C14.713 4.36473 14.7578 4.33814 14.8025 4.31487C14.8163 4.30822 14.8645 4.2916 14.8714 4.27498C14.8714 4.27166 14.8782 4.27166 14.8817 4.27166L14.7578 4.20186L14.8301 4.24174C14.8782 4.27166 14.8714 4.27166 14.923 4.25504Z" fill="#ACC5EA"/>
<path d="M12.3963 8.32719C12.5236 8.25406 12.6303 8.31389 12.6303 8.45682C12.6303 8.59975 12.5271 8.77259 12.3963 8.84571L9.84244 10.2717C9.71509 10.3448 9.6084 10.285 9.6084 10.142C9.6084 9.9991 9.71165 9.82626 9.839 9.75313L12.3963 8.32719Z" fill="#2828CE"/>
<path d="M14.8815 4.2725C15.0088 4.19938 15.1155 4.25921 15.1155 4.40213C15.1155 4.54506 15.0123 4.7179 14.8849 4.79103L10.3073 7.34377C10.1799 7.41689 10.0732 7.35706 10.0732 7.21414C10.0732 7.07121 10.1765 6.89837 10.3038 6.82524L14.8815 4.2725Z" fill="white"/>
<path d="M12.6511 8.54713C12.5513 8.49395 12.4033 8.60696 12.3207 8.65349L11.7322 8.98256C11.2469 9.25179 10.7616 9.52435 10.2763 9.79358C10.1592 9.85674 10.0457 9.92322 9.92864 9.98637L10.0525 10.0562C10.0216 10.0396 9.97338 9.99634 9.93897 9.99302C9.89422 9.98637 9.83571 10.0595 9.80818 10.0927C9.7359 10.1825 9.6705 10.3254 9.70836 10.4417C9.7359 10.5248 9.84259 10.5614 9.91143 10.6013C9.98715 10.6445 10.0629 10.6844 10.1351 10.7276C10.0388 10.6744 10.0629 10.5348 10.0904 10.4517C10.1248 10.3586 10.1868 10.2722 10.2694 10.2124C10.3038 10.1891 10.3417 10.1692 10.3761 10.1492C10.5654 10.0429 10.7581 9.93651 10.9474 9.83015C11.4775 9.53432 12.0041 9.24182 12.5341 8.94599C12.6201 8.89946 12.7028 8.85293 12.7888 8.80307C12.8576 8.76651 12.9402 8.70668 13.0194 8.74989C12.8989 8.68673 12.775 8.61693 12.6511 8.54713Z" fill="#ACC5EA"/>
<path d="M12.8543 8.76957C12.9816 8.69645 13.0883 8.75628 13.0883 8.8992C13.0883 9.04213 12.9851 9.21497 12.8543 9.2881L10.3005 10.714C10.1731 10.7872 10.0664 10.7273 10.0664 10.5844C10.0664 10.4415 10.1697 10.2686 10.297 10.1955L12.8543 8.76957Z" fill="white"/>
<path d="M19.3695 10.584C19.1871 10.4843 18.9496 10.6638 18.7947 10.7502C18.4953 10.9164 18.1958 11.0826 17.8964 11.2521C17.4799 11.4848 17.0635 11.7175 16.647 11.9468C16.2305 12.1795 15.8141 12.4122 15.3976 12.6415C15.0947 12.811 14.7884 12.9805 14.4855 13.1501C14.2687 13.273 14.0656 13.3728 13.9211 13.5855C13.8144 13.745 13.7559 13.9212 13.7559 14.1107V14.4597C13.7559 14.9017 13.7593 15.3405 13.7593 15.7826C13.7593 16.1814 13.7627 16.5803 13.7627 16.9792V17.1886C13.7662 17.3215 13.8178 17.4212 13.9383 17.4877C14.0312 17.5409 14.1276 17.5941 14.2205 17.6473C14.2825 17.6838 14.3444 17.7171 14.4098 17.7536C14.279 17.6805 14.2756 17.5276 14.2721 17.3947V17.0323C14.2721 16.6202 14.2687 16.2114 14.2687 15.7992C14.2687 15.4136 14.2652 15.0247 14.2652 14.6392V14.3766C14.2652 14.1372 14.3788 13.9013 14.5475 13.7284C14.6783 13.5955 14.8607 13.5124 15.0259 13.4193C15.315 13.2597 15.6007 13.0969 15.8898 12.9373C16.2753 12.7213 16.6608 12.5085 17.0428 12.2925C17.4352 12.0731 17.831 11.8537 18.2233 11.6344C18.5297 11.4615 18.836 11.292 19.1458 11.1192C19.2765 11.046 19.4073 10.9696 19.5416 10.8998C19.6414 10.8466 19.7687 10.81 19.8754 10.8666C19.7102 10.7735 19.5416 10.6804 19.3695 10.584Z" fill="#C68620"/>
<path d="M19.5483 10.8997C19.8064 10.7568 20.0164 10.8698 20.0164 11.1556L20.0267 14.2568C20.0267 14.5427 19.8202 14.8917 19.5621 15.0346L14.747 17.717C14.4888 17.8599 14.2789 17.7436 14.2789 17.461L14.2686 14.3599C14.2686 14.074 14.4751 13.725 14.7332 13.5821L19.5483 10.8997Z" fill="#FFCD2E"/>
<path d="M18.4405 13.8012L18.0826 13.6018C18.0791 13.5984 18.0757 13.5984 18.0723 13.5918L18.4302 13.7912C18.4337 13.7979 18.4371 13.8012 18.4405 13.8012Z" fill="#674611"/>
<path d="M18.3238 13.6487L17.9658 13.4492L18.0725 13.5921L18.4305 13.7949L18.3238 13.6487Z" fill="#E8CFAC"/>
<path d="M18.4126 12.4723C18.4608 12.4457 18.4917 12.4856 18.4677 12.5454L18.1441 13.3531C18.1338 13.383 18.1097 13.4063 18.0891 13.4196C18.0684 13.4329 18.0478 13.4329 18.034 13.4162L17.9273 13.27L16.9533 14.44C16.936 14.4599 16.9154 14.4766 16.8982 14.4899C16.8603 14.5098 16.8225 14.5098 16.8018 14.4832L16.5265 14.1109L15.5593 15.2743C15.5421 15.2942 15.5215 15.3109 15.5042 15.3242C15.4664 15.3474 15.4285 15.3441 15.4079 15.3175C15.3769 15.2743 15.3941 15.1879 15.4492 15.1247L16.5127 13.845C16.5299 13.8251 16.5506 13.8085 16.5678 13.7952C16.6056 13.7719 16.6435 13.7752 16.6641 13.8018L16.9395 14.1741L17.8137 13.1204L17.707 12.9742C17.6829 12.9409 17.7139 12.8678 17.7586 12.8412L18.4126 12.4723Z" fill="#C68620"/>
<path d="M16.9775 14.3503L17.3355 14.5497L18.2097 13.4961L18.103 13.3498L17.7451 13.1504L17.8518 13.2933L16.9775 14.3503Z" fill="#E8CFAC"/>
<path d="M18.8498 12.8473L18.6674 12.7442L18.4919 12.6445H18.4884H18.485H18.4815H18.4781H18.4747H18.4643H18.4609H18.4575H18.454C18.4506 12.6445 18.4471 12.6479 18.4437 12.6479L17.7932 13.0135C17.7863 13.0168 17.7794 13.0235 17.7725 13.0268L17.7656 13.0334L17.7622 13.0368C17.7622 13.0401 17.7588 13.0401 17.7588 13.0434C17.7588 13.0467 17.7553 13.0467 17.7553 13.05C17.7553 13.0534 17.7519 13.0534 17.7519 13.0567V13.06C17.7519 13.0633 17.7484 13.0633 17.7484 13.0667C17.7484 13.07 17.7484 13.07 17.745 13.0733C17.745 13.0766 17.745 13.0766 17.7416 13.08C17.7416 13.0833 17.7416 13.0833 17.7381 13.0866C17.7381 13.0899 17.7381 13.0899 17.7347 13.0933C17.7347 13.0966 17.7347 13.0966 17.7312 13.0999V13.1298C17.7312 13.1365 17.7347 13.1431 17.7381 13.1464L18.0961 13.3459C18.0926 13.3425 18.0892 13.3359 18.0892 13.3293V13.3226V13.3093V13.296C18.0926 13.2827 18.0961 13.2694 18.1029 13.2594C18.1064 13.2528 18.1098 13.2462 18.1133 13.2428C18.1167 13.2395 18.1202 13.2329 18.127 13.2295C18.1339 13.2229 18.1408 13.2196 18.1477 13.2162L18.7982 12.8506C18.8016 12.8473 18.8051 12.8473 18.8085 12.844H18.812C18.8154 12.844 18.8188 12.8406 18.8223 12.8406H18.8326C18.8429 12.8473 18.8464 12.8473 18.8498 12.8473ZM17.1977 14.8582L16.9224 14.486L16.5645 14.2865L16.8398 14.6588C16.8432 14.6655 16.8501 14.6721 16.857 14.6754L17.215 14.8749C17.2081 14.8715 17.2012 14.8649 17.1977 14.8582Z" fill="#E8CFAC"/>
<path d="M16.6815 13.9617C16.6781 13.9617 16.6781 13.9584 16.6747 13.9584C16.6712 13.9584 16.6712 13.9584 16.6678 13.9551H16.6506H16.6471H16.6437C16.6402 13.9551 16.6368 13.9551 16.6333 13.9584C16.6333 13.9584 16.6299 13.9584 16.6299 13.9617H16.6265H16.623C16.6161 13.9651 16.6127 13.9651 16.6058 13.9684C16.5989 13.9717 16.5886 13.9783 16.5817 13.985L16.5748 13.9916L16.568 13.9983L16.5542 14.0116L16.5473 14.0182L15.4838 15.2979L15.8417 15.4974L16.9053 14.2177C16.9121 14.2077 16.9225 14.201 16.9293 14.1911L16.9362 14.1844C16.9431 14.1778 16.9534 14.1711 16.9603 14.1678L16.981 14.1578H16.9844C16.9913 14.1545 16.9982 14.1545 17.0016 14.1545H17.0188C17.0257 14.1545 17.0292 14.1578 17.036 14.1612L16.6815 13.9617ZM15.47 15.3112C15.4666 15.3145 15.4666 15.3179 15.4631 15.3212V15.3245C15.4631 15.3278 15.4597 15.3278 15.4597 15.3312C15.4562 15.3345 15.4562 15.3378 15.4528 15.3411C15.4528 15.3445 15.4494 15.3478 15.4494 15.3511C15.4494 15.3544 15.4459 15.3544 15.4459 15.3578C15.4459 15.3611 15.4425 15.3644 15.4425 15.3677C15.4425 15.3711 15.439 15.3744 15.439 15.3777C15.439 15.381 15.4356 15.3843 15.4356 15.3877C15.4356 15.391 15.4322 15.3976 15.4322 15.401V15.4043C15.4322 15.4076 15.4322 15.4109 15.4287 15.4143V15.4575C15.4322 15.4674 15.4356 15.4807 15.4425 15.4874C15.4459 15.494 15.4528 15.5007 15.4597 15.504L15.8176 15.7034C15.8108 15.7001 15.8039 15.6935 15.8004 15.6868C15.7935 15.6768 15.7901 15.6669 15.7867 15.6569V15.6536C15.7832 15.6436 15.7832 15.6303 15.7867 15.617C15.7867 15.6137 15.7867 15.607 15.7901 15.6037V15.6004C15.7935 15.5904 15.7935 15.5838 15.797 15.5738C15.8004 15.5638 15.8039 15.5572 15.8073 15.5472C15.8108 15.5372 15.8176 15.5306 15.8211 15.5206C15.828 15.5107 15.8314 15.504 15.8383 15.4974L15.4803 15.2979L15.4769 15.3012C15.4769 15.3046 15.4735 15.3079 15.47 15.3112Z" fill="#E8CFAC"/>
<path d="M18.8056 12.8541C18.8538 12.8275 18.8848 12.8674 18.8607 12.9272L18.5372 13.7349C18.5268 13.7648 18.5028 13.7881 18.4821 13.8014C18.4614 13.8147 18.4408 13.8147 18.427 13.7981L18.3203 13.6518L17.3497 14.8185C17.3325 14.8385 17.3119 14.8551 17.2947 14.8684C17.2568 14.8916 17.2189 14.8883 17.1983 14.8617L16.923 14.4894L15.9558 15.6528C15.9386 15.6727 15.9179 15.6894 15.9007 15.7027C15.8629 15.7259 15.825 15.7226 15.8044 15.696C15.7734 15.6528 15.7906 15.5664 15.8457 15.5032L16.9092 14.2235C16.9264 14.2036 16.947 14.187 16.9643 14.1737C17.0021 14.1504 17.04 14.1537 17.0606 14.1803L17.336 14.5526L18.2102 13.4989L18.1035 13.3527C18.0794 13.3194 18.1104 13.2463 18.1551 13.2197L18.8056 12.8541Z" fill="white"/>
</svg>
