<svg width="26" height="26" viewBox="0 0 26 26" fill="none" xmlns="http://www.w3.org/2000/svg">
<path opacity="0.4" d="M3.35059 10.188H22.6599" stroke="#CBCBCB" stroke-linecap="round" stroke-linejoin="round"/>
<path opacity="0.4" fill-rule="evenodd" clip-rule="evenodd" d="M7.6875 14.4189C7.6875 14.1428 7.91136 13.9189 8.1875 13.9189H8.19754C8.47368 13.9189 8.69754 14.1428 8.69754 14.4189C8.69754 14.6951 8.47368 14.9189 8.19754 14.9189H8.1875C7.91136 14.9189 7.6875 14.6951 7.6875 14.4189ZM13.0048 13.9189C12.7286 13.9189 12.5048 14.1428 12.5048 14.4189C12.5048 14.6951 12.7286 14.9189 13.0048 14.9189H13.0148C13.291 14.9189 13.5148 14.6951 13.5148 14.4189C13.5148 14.1428 13.291 13.9189 13.0148 13.9189H13.0048ZM17.812 13.9189C17.5359 13.9189 17.312 14.1428 17.312 14.4189C17.312 14.6951 17.5359 14.9189 17.812 14.9189H17.8221C18.0982 14.9189 18.3221 14.6951 18.3221 14.4189C18.3221 14.1428 18.0982 13.9189 17.8221 13.9189H17.812ZM17.812 18.1291C17.5359 18.1291 17.312 18.353 17.312 18.6291C17.312 18.9053 17.5359 19.1291 17.812 19.1291H17.8221C18.0982 19.1291 18.3221 18.9053 18.3221 18.6291C18.3221 18.353 18.0982 18.1291 17.8221 18.1291H17.812ZM12.5048 18.6291C12.5048 18.353 12.7286 18.1291 13.0048 18.1291H13.0148C13.291 18.1291 13.5148 18.353 13.5148 18.6291C13.5148 18.9053 13.291 19.1291 13.0148 19.1291H13.0048C12.7286 19.1291 12.5048 18.9053 12.5048 18.6291ZM8.1875 18.1291C7.91136 18.1291 7.6875 18.353 7.6875 18.6291C7.6875 18.9053 7.91136 19.1291 8.1875 19.1291H8.19754C8.47368 19.1291 8.69754 18.9053 8.69754 18.6291C8.69754 18.353 8.47368 18.1291 8.19754 18.1291H8.1875Z" fill="#CBCBCB"/>
<path d="M17.3807 2.16699V5.732" stroke="#CBCBCB" stroke-linecap="round" stroke-linejoin="round"/>
<path d="M8.62973 2.16699V5.732" stroke="#CBCBCB" stroke-linecap="round" stroke-linejoin="round"/>
<path fill-rule="evenodd" clip-rule="evenodd" d="M17.5915 3.87793H8.41854C5.23713 3.87793 3.25 5.65019 3.25 8.90787V18.7117C3.25 22.0206 5.23713 23.8338 8.41854 23.8338H17.5814C20.7729 23.8338 22.75 22.0513 22.75 18.7936V8.90787C22.76 5.65019 20.7829 3.87793 17.5915 3.87793Z" stroke="#CBCBCB" stroke-linecap="round" stroke-linejoin="round"/>
</svg>
