<svg width="57" height="85" viewBox="0 0 57 85" fill="none" xmlns="http://www.w3.org/2000/svg">
<path d="M46.8105 0.954102H11.1452C8.44349 0.957315 5.85332 2.12772 3.94294 4.20853C2.03257 6.28934 0.958028 9.1106 0.955078 12.0533V73.0989C0.958028 76.0416 2.03257 78.8629 3.94294 80.9437C5.85332 83.0245 8.44349 84.1949 11.1452 84.1981H46.8105C49.5121 84.1949 52.1023 83.0245 54.0127 80.9437C55.923 78.8629 56.9976 76.0416 57.0005 73.0989V12.0533C56.9976 9.1106 55.923 6.28934 54.0127 4.20853C52.1023 2.12772 49.5121 0.957315 46.8105 0.954102ZM41.3142 47.5204C42.5195 48.9373 43.1086 50.8433 42.9685 52.8862C42.693 56.9548 39.8446 60.2654 36.6204 60.2654C33.3962 60.2654 30.5429 56.9548 30.2707 52.8862C30.1337 50.8225 30.7181 48.9131 31.917 47.51C33.1159 46.107 34.7734 45.3509 36.6204 45.3509C37.4982 45.3371 38.3691 45.523 39.1773 45.8965C39.9855 46.2701 40.7133 46.8232 41.3142 47.5204ZM18.7877 12.0533C18.7877 11.3174 19.0561 10.6116 19.5339 10.0912C20.0116 9.57085 20.6596 9.2785 21.3352 9.2785H36.6204C37.296 9.2785 37.944 9.57085 38.4217 10.0912C38.8995 10.6116 39.1679 11.3174 39.1679 12.0533C39.1679 12.7892 38.8995 13.495 38.4217 14.0154C37.944 14.5358 37.296 14.8281 36.6204 14.8281H21.3352C20.6596 14.8281 20.0116 14.5358 19.5339 14.0154C19.0561 13.495 18.7877 12.7892 18.7877 12.0533ZM48.8803 75.1505C48.6968 75.3818 48.469 75.5664 48.2129 75.6914C47.9568 75.8163 47.6786 75.8786 47.398 75.8737H25.8428C25.5622 75.8786 25.284 75.8163 25.0279 75.6914C24.7717 75.5664 24.5439 75.3818 24.3604 75.1505C24.1615 74.8909 24.0187 74.586 23.9426 74.2581C23.8666 73.9303 23.8592 73.5881 23.921 73.2567C24.4384 70.2114 26.0513 67.6534 28.5861 65.8584C30.8375 64.2646 33.6907 63.3871 36.6204 63.3871C39.55 63.3871 42.4032 64.2646 44.6546 65.8584C47.1894 67.6534 48.8023 70.2114 49.3198 73.2567C49.3816 73.5881 49.3742 73.9303 49.2981 74.2581C49.2221 74.586 49.0793 74.8909 48.8803 75.1505Z" fill="#B8BCF3"/>
</svg>
