<svg width="17" height="19" viewBox="0 0 17 19" fill="none" xmlns="http://www.w3.org/2000/svg">
<path d="M10.9919 1.51853e-07H7.49482C5.9105 -8.96018e-06 4.65557 -2.7251e-05 3.67345 0.134494C2.66268 0.272933 1.84458 0.564618 1.19941 1.22189C0.55424 1.87915 0.267911 2.71258 0.13202 3.74228C-2.671e-05 4.74281 -8.83041e-06 6.02125 1.49932e-07 7.63525V12.9545C1.49932e-07 14.3287 0.826147 15.5063 2.00008 16C1.93966 15.1714 1.9397 14.0086 1.93975 13.0411V8.56312V8.47638C1.93969 7.30849 1.93963 6.30228 2.04597 5.49648C2.15994 4.6329 2.41696 3.80511 3.07604 3.13368C3.73512 2.46224 4.54768 2.20042 5.39537 2.08431C6.18635 1.97598 7.17413 1.97604 8.32047 1.9761L8.4056 1.97611H10.9919L11.0771 1.9761C12.2234 1.97604 13.209 1.97598 14 2.08431C13.5268 0.863629 12.3584 1.51853e-07 10.9919 1.51853e-07Z" fill="white"/>
<path d="M3 9.29412C3 6.79844 3 5.55061 3.8201 4.77531C4.6402 4 5.96013 4 8.6 4H11.4C14.0399 4 15.3598 4 16.1799 4.77531C17 5.55061 17 6.79845 17 9.29412V13.7059C17 16.2016 17 17.4494 16.1799 18.2247C15.3598 19 14.0399 19 11.4 19H8.6C5.96013 19 4.6402 19 3.8201 18.2247C3 17.4494 3 16.2016 3 13.7059V9.29412Z" fill="white"/>
</svg>
