<svg width="29" height="21" viewBox="0 0 29 21" fill="none" xmlns="http://www.w3.org/2000/svg">
<path d="M17.904 15.3777H2.71733C1.21778 15.3777 0 14.1599 0 12.6604V2.71733C0 1.21778 1.21778 0 2.71733 0H17.904C19.4035 0 20.6213 1.21778 20.6213 2.71733V12.6571C20.6213 14.1599 19.4067 15.3777 17.904 15.3777Z" fill="url(#paint0_linear_827_30040)"/>
<path d="M0 3.42969H20.6245V6.54215H0V3.42969Z" fill="#183351"/>
<path d="M7.76341 10.8626H2.07288C1.68099 10.8626 1.36035 10.5419 1.36035 10.15C1.36035 9.75814 1.68099 9.4375 2.07288 9.4375H7.76341C8.1553 9.4375 8.47594 9.75814 8.47594 10.15C8.47594 10.5419 8.1553 10.8626 7.76341 10.8626ZM12.0839 13.1103H2.07288C1.68099 13.1103 1.36035 12.7896 1.36035 12.3977C1.36035 12.0059 1.68099 11.6852 2.07288 11.6852H12.0839C12.4758 11.6852 12.7965 12.0059 12.7965 12.3977C12.7965 12.7896 12.4758 13.1103 12.0839 13.1103Z" fill="#FBFAEE"/>
<path d="M26.2829 20.4431H11.0962C9.59669 20.4431 8.37891 19.2254 8.37891 17.7258V7.78276C8.37891 6.28321 9.59669 5.06543 11.0962 5.06543H26.2829C27.7824 5.06543 29.0002 6.28321 29.0002 7.78276V17.7226C29.0002 19.2254 27.7857 20.4431 26.2829 20.4431Z" fill="url(#paint1_linear_827_30040)"/>
<path d="M23.449 13.3049H10.4518C10.0599 13.3049 9.73926 12.9843 9.73926 12.5924C9.73926 12.2005 10.0599 11.8799 10.4518 11.8799H23.449C23.8409 11.8799 24.1615 12.2005 24.1615 12.5924C24.1615 12.9843 23.8409 13.3049 23.449 13.3049Z" fill="#AEB8C4"/>
<path d="M16.1423 15.928H10.4518C10.0599 15.928 9.73926 15.6074 9.73926 15.2155C9.73926 14.8236 10.0599 14.5029 10.4518 14.5029H16.1456C16.5374 14.5029 16.8581 14.8236 16.8581 15.2155C16.8548 15.6074 16.5342 15.928 16.1423 15.928ZM20.4628 18.1757H10.4518C10.0599 18.1757 9.73926 17.8551 9.73926 17.4632C9.73926 17.0713 10.0599 16.7506 10.4518 16.7506H20.4628C20.8547 16.7506 21.1754 17.0713 21.1754 17.4632C21.1754 17.8551 20.8547 18.1757 20.4628 18.1757Z" fill="#FBFAEE"/>
<path d="M14.4484 10.49H10.9311C10.2737 10.49 9.73926 9.95558 9.73926 9.29811V7.65281C9.73926 6.99534 10.2737 6.46094 10.9311 6.46094H14.4484C15.1059 6.46094 15.6403 6.99534 15.6403 7.65281V9.29811C15.6403 9.95558 15.1059 10.49 14.4484 10.49Z" fill="url(#paint2_linear_827_30040)"/>
<path d="M15.6403 7.8277H14.5294V6.46094H13.4315V10.49H14.5294V8.94508H15.6403V7.8277ZM10.957 6.46094V7.8277H9.73926V8.94508H10.957V10.49H12.055V6.46094H10.957Z" fill="url(#paint3_linear_827_30040)"/>
<path d="M29 12.3529V9.31496C26.3895 9.30525 24.2001 7.48829 23.6204 5.05273H20.5273C21.1492 9.17246 24.7118 12.3432 29 12.3529Z" fill="#F7F9DD"/>
<path d="M25.375 19.042V19.2712V19.5003" fill="url(#paint4_linear_827_30040)"/>
<path d="M25.375 19.042V19.2712V19.5003" stroke="url(#paint5_linear_827_30040)" stroke-linecap="round"/>
<path d="M25.375 14V14.2292V14.4583" fill="url(#paint6_linear_827_30040)"/>
<path d="M25.375 14V14.2292V14.4583" stroke="url(#paint7_linear_827_30040)" stroke-linecap="round"/>
<path d="M26.75 15.6038C26.75 14.971 26.1344 14.458 25.375 14.458C24.6156 14.458 24 14.971 24 15.6038C24 16.2367 24.6156 16.7497 25.375 16.7497C26.1344 16.7497 26.75 17.2627 26.75 17.8955C26.75 18.5283 26.1344 19.0413 25.375 19.0413C24.6156 19.0413 24 18.5283 24 17.8955" fill="url(#paint8_linear_827_30040)"/>
<path d="M26.75 15.6038C26.75 14.971 26.1344 14.458 25.375 14.458C24.6156 14.458 24 14.971 24 15.6038C24 16.2367 24.6156 16.7497 25.375 16.7497C26.1344 16.7497 26.75 17.2627 26.75 17.8955C26.75 18.5283 26.1344 19.0413 25.375 19.0413C24.6156 19.0413 24 18.5283 24 17.8955" stroke="url(#paint9_linear_827_30040)" stroke-linecap="round"/>
<path d="M1.54199 6.25V4L3.34755 6.25V4" stroke="url(#paint10_linear_827_30040)" stroke-width="0.3" stroke-linecap="round" stroke-linejoin="round"/>
<path d="M1 4.875H3.88889M1 5.375H3.88889" stroke="url(#paint11_linear_827_30040)" stroke-width="0.3" stroke-linecap="round" stroke-linejoin="round"/>
<defs>
<linearGradient id="paint0_linear_827_30040" x1="10.3106" y1="0" x2="10.3106" y2="15.3777" gradientUnits="userSpaceOnUse">
<stop stop-color="#E071DF"/>
<stop offset="1" stop-color="#02E4F0"/>
</linearGradient>
<linearGradient id="paint1_linear_827_30040" x1="18.6895" y1="5.06543" x2="18.6895" y2="20.4431" gradientUnits="userSpaceOnUse">
<stop stop-color="#DA5ED8"/>
<stop offset="0.5" stop-color="#B854B7"/>
<stop offset="1"/>
</linearGradient>
<linearGradient id="paint2_linear_827_30040" x1="12.6898" y1="6.46094" x2="12.6898" y2="10.49" gradientUnits="userSpaceOnUse">
<stop stop-color="#E071DF"/>
<stop offset="1" stop-color="#02E4F0"/>
</linearGradient>
<linearGradient id="paint3_linear_827_30040" x1="12.6898" y1="6.46094" x2="12.6898" y2="10.49" gradientUnits="userSpaceOnUse">
<stop stop-color="#DA5ED8"/>
<stop offset="0.5" stop-color="#B854B7"/>
<stop offset="1"/>
</linearGradient>
<linearGradient id="paint4_linear_827_30040" x1="25.875" y1="19.042" x2="25.875" y2="19.5003" gradientUnits="userSpaceOnUse">
<stop stop-color="white"/>
<stop offset="1" stop-color="white" stop-opacity="0"/>
</linearGradient>
<linearGradient id="paint5_linear_827_30040" x1="25.875" y1="19.042" x2="25.875" y2="19.5003" gradientUnits="userSpaceOnUse">
<stop stop-color="#E071DF"/>
<stop offset="1" stop-color="#02E4F0"/>
</linearGradient>
<linearGradient id="paint6_linear_827_30040" x1="25.875" y1="14" x2="25.875" y2="14.4583" gradientUnits="userSpaceOnUse">
<stop stop-color="white"/>
<stop offset="1" stop-color="white" stop-opacity="0"/>
</linearGradient>
<linearGradient id="paint7_linear_827_30040" x1="25.875" y1="14" x2="25.875" y2="14.4583" gradientUnits="userSpaceOnUse">
<stop stop-color="#E071DF"/>
<stop offset="1" stop-color="#02E4F0"/>
</linearGradient>
<linearGradient id="paint8_linear_827_30040" x1="25.375" y1="14.458" x2="25.375" y2="19.0413" gradientUnits="userSpaceOnUse">
<stop stop-color="white"/>
<stop offset="1" stop-color="white" stop-opacity="0"/>
</linearGradient>
<linearGradient id="paint9_linear_827_30040" x1="25.375" y1="14.458" x2="25.375" y2="19.0413" gradientUnits="userSpaceOnUse">
<stop stop-color="#E071DF"/>
<stop offset="1" stop-color="#02E4F0"/>
</linearGradient>
<linearGradient id="paint10_linear_827_30040" x1="2.44477" y1="4" x2="2.44477" y2="6.25" gradientUnits="userSpaceOnUse">
<stop stop-color="#E071DF"/>
<stop offset="1" stop-color="#02E4F0"/>
</linearGradient>
<linearGradient id="paint11_linear_827_30040" x1="2.44444" y1="4.875" x2="2.44444" y2="5.375" gradientUnits="userSpaceOnUse">
<stop stop-color="#E071DF"/>
<stop offset="1" stop-color="#02E4F0"/>
</linearGradient>
</defs>
</svg>
