<svg width="42" height="42" viewBox="0 0 42 42" fill="none" xmlns="http://www.w3.org/2000/svg">
<circle cx="21" cy="21" r="21" fill="url(#paint0_linear_818_12397)"/>
<path d="M4 21.2559H15.223" stroke="white" stroke-width="2.34375" stroke-linecap="round" stroke-linejoin="round"/>
<path d="M26.5269 21.2559H37.7499" stroke="white" stroke-width="2.34375" stroke-linecap="round" stroke-linejoin="round"/>
<path d="M23.6406 18.4902L18.1094 24.0215" stroke="white" stroke-width="2.34375" stroke-linecap="round" stroke-linejoin="round"/>
<path d="M23.6406 24.0215L18.1094 18.4902" stroke="white" stroke-width="2.34375" stroke-linecap="round" stroke-linejoin="round"/>
<path d="M10.6631 25.9819C11.5643 27.9316 13.0049 29.5824 14.8144 30.7395C16.624 31.8966 18.7269 32.5114 20.8748 32.5114C23.0227 32.5114 25.1256 31.8966 26.9352 30.7395C28.7448 29.5824 30.1853 27.9316 31.0865 25.9819" stroke="white" stroke-width="2.34375" stroke-linecap="round" stroke-linejoin="round"/>
<path d="M10.6631 16.5295C11.5643 14.5799 13.0049 12.929 14.8144 11.7719C16.624 10.6149 18.7269 10 20.8748 10C23.0227 10 25.1256 10.6149 26.9352 11.7719C28.7448 12.929 30.1853 14.5799 31.0865 16.5295" stroke="white" stroke-width="2.34375" stroke-linecap="round" stroke-linejoin="round"/>
<defs>
<linearGradient id="paint0_linear_818_12397" x1="21" y1="0" x2="21" y2="42" gradientUnits="userSpaceOnUse">
<stop stop-color="#DA5ED8"/>
<stop offset="0.5" stop-color="#B854B7"/>
<stop offset="1"/>
</linearGradient>
</defs>
</svg>
