<svg width="51" height="51" viewBox="0 0 51 51" fill="none" xmlns="http://www.w3.org/2000/svg">
<path d="M36.6899 21.7077C38.9554 21.7301 41.1218 22.6401 42.7239 24.2421C44.3259 25.8441 45.2359 28.0105 45.2584 30.276C45.2872 32.5126 44.3573 34.6499 42.8448 36.2375C41.2132 37.9501 39.0103 38.8146 36.6899 38.8444C33.2931 38.888 33.289 44.1595 36.6899 44.1158C44.2928 44.018 50.4319 37.8788 50.5298 30.2759C50.6276 22.6725 44.1454 16.532 36.6899 16.4362C33.289 16.3925 33.2931 21.664 36.6899 21.7077ZM14.2072 38.8129C11.9416 38.7905 9.77524 37.8805 8.17318 36.2785C6.57112 34.6764 5.66115 32.51 5.63868 30.2445C5.60994 28.0078 6.53965 25.8705 8.05226 24.2826C9.68382 22.57 11.8866 21.7059 14.2071 21.676C17.6038 21.6323 17.608 16.3608 14.2071 16.4046C6.60414 16.5023 0.465018 22.6414 0.367302 30.2445C0.269585 37.8478 6.75157 43.9885 14.2072 44.0843C17.608 44.128 17.6039 38.8566 14.2072 38.8129Z" fill="#CE2ACD"/>
<path d="M16.9176 19.1347C16.94 16.8692 17.8499 14.7028 19.452 13.1008C21.054 11.4987 23.2204 10.5888 25.4859 10.5664C27.7225 10.5377 29.8598 11.4675 31.4474 12.98C33.1601 14.6116 34.0245 16.8143 34.0543 19.1347C34.098 22.5313 39.3695 22.5356 39.3258 19.1347C39.228 11.5319 33.0887 5.39275 25.4859 5.29504C17.8825 5.19732 11.7421 11.6791 11.6463 19.1347C11.6024 22.5356 16.874 22.5313 16.9176 19.1347Z" fill="#CE2ACD"/>
<path d="M27.1453 23.5613C27.9692 24.3851 27.9692 25.7206 27.1453 26.5444L21.0248 32.6651C20.201 33.4888 18.8654 33.4888 18.0417 32.6651C17.2179 31.841 17.2179 30.5055 18.0417 29.6819L24.1623 23.5613C24.9859 22.7374 26.3216 22.7374 27.1453 23.5613Z" fill="black"/>
<path d="M24.1635 23.5611C24.9871 22.7374 26.3227 22.7374 27.1464 23.5611L33.2672 29.6819C34.0909 30.5054 34.0909 31.8412 33.2672 32.665C32.4434 33.4887 31.1076 33.4887 30.284 32.665L24.1635 26.5445C23.3394 25.7206 23.3394 24.385 24.1635 23.5611Z" fill="black"/>
<path d="M25.6018 31.5811C26.7957 31.5811 27.7634 32.5489 27.7634 33.7425V42.612C27.7634 43.8058 26.7956 44.7735 25.6018 44.7735C24.4082 44.7735 23.4404 43.8057 23.4404 42.612V33.7425C23.4405 32.5488 24.4083 31.5811 25.6018 31.5811Z" fill="black"/>
</svg>
