<svg width="45" height="37" viewBox="0 0 45 37" fill="none" xmlns="http://www.w3.org/2000/svg">
<rect y="0.164062" width="45" height="36.5117" rx="5" fill="#CE2ACD"/>
<path d="M16.8333 16.7138H8.16667C7.59207 16.7138 7.04087 16.4742 6.63469 16.0474C6.22822 15.6209 6 15.0422 6 14.4389C6 13.8356 6.22822 13.257 6.63469 12.8304C7.04087 12.4037 7.59207 12.1641 8.16667 12.1641H16.8333C17.4079 12.1641 17.9591 12.4037 18.3653 12.8304C18.7718 13.257 19 13.8356 19 14.4389C19 15.0422 18.7718 15.6209 18.3653 16.0474C17.9591 16.4742 17.4079 16.7138 16.8333 16.7138Z" fill="white"/>
<path d="M16.8333 24.6757H8.16667C7.59207 24.6757 7.04087 24.4361 6.63469 24.0093C6.22822 23.5828 6 23.0041 6 22.4008C6 21.7975 6.22822 21.2189 6.63469 20.7923C7.04087 20.3657 7.59207 20.126 8.16667 20.126H16.8333C17.4079 20.126 17.9591 20.3657 18.3653 20.7923C18.7718 21.2189 19 21.7975 19 22.4008C19 23.0041 18.7718 23.5828 18.3653 24.0093C17.9591 24.4361 17.4079 24.6757 16.8333 24.6757Z" fill="white"/>
<path d="M36.8333 16.7138H28.1667C27.5921 16.7138 27.0409 16.4742 26.6347 16.0474C26.2282 15.6209 26 15.0422 26 14.4389C26 13.8356 26.2282 13.257 26.6347 12.8304C27.0409 12.4037 27.5921 12.1641 28.1667 12.1641H36.8333C37.4079 12.1641 37.9591 12.4037 38.3653 12.8304C38.7718 13.257 39 13.8356 39 14.4389C39 15.0422 38.7718 15.6209 38.3653 16.0474C37.9591 16.4742 37.4079 16.7138 36.8333 16.7138Z" fill="white"/>
<path d="M36.8333 24.6757H28.1667C27.5921 24.6757 27.0409 24.4361 26.6347 24.0093C26.2282 23.5828 26 23.0041 26 22.4008C26 21.7975 26.2282 21.2189 26.6347 20.7923C27.0409 20.3657 27.5921 20.126 28.1667 20.126H36.8333C37.4079 20.126 37.9591 20.3657 38.3653 20.7923C38.7718 21.2189 39 21.7975 39 22.4008C39 23.0041 38.7718 23.5828 38.3653 24.0093C37.9591 24.4361 37.4079 24.6757 36.8333 24.6757Z" fill="white"/>
</svg>
