<svg width="25" height="24" viewBox="0 0 25 24" fill="none" xmlns="http://www.w3.org/2000/svg">
<path d="M22.1647 8.40453C22.1647 8.40453 18.5335 6.43259 15.9272 7.3588C14.3296 7.9264 13.4928 9.68418 14.0568 11.2865C14.6252 12.8867 16.3793 13.7234 17.9776 13.1558C20.5832 12.2296 22.1647 8.40453 22.1647 8.40453Z" fill="#A0D468"/>
<path d="M18.9401 9.20921C18.8743 9.19884 18.8094 9.1996 18.7477 9.20921C18.6737 9.22029 16.9272 9.49541 15.003 10.4288C14.1758 10.8289 13.4398 11.2926 12.8059 11.8096V8H11.683V12.9064C10.9578 13.7635 10.4591 14.728 10.1992 15.7818L11.2953 16C11.5297 15.0503 11.9889 14.1828 12.6627 13.4167H12.8059V13.2592C12.8536 13.2081 12.9021 13.1578 12.9518 13.1075C13.6273 12.4264 14.4874 11.8288 15.5071 11.3311C17.2725 10.4695 18.9203 10.2069 18.9368 10.204C19.1637 10.1684 19.352 10.0102 19.3948 9.79495C19.4491 9.51979 19.2452 9.25798 18.9401 9.20921Z" fill="#8CC153"/>
<path d="M5.59668 18.6663C5.59668 18.6663 9.23303 13.3628 12.4999 13.3331C15.7668 13.3028 19.4031 18.6663 19.4031 18.6663H5.59668Z" fill="#434A54"/>
<path d="M21.9596 17.073C21.7974 17.0602 21.6191 17.0542 21.4235 17.0542C20.1494 17.0542 18.1653 17.3227 15.4464 17.7966C15.1082 16.8427 12.9588 16.4243 12.9588 16.4243C12.9588 16.4243 8.32005 16.1747 5.35921 16.015C5.17035 16.0045 4.98757 16 4.81162 16C0.889509 15.9992 0.0742188 18.4197 0.0742188 18.4197V20.9272C0.0757238 22.3645 4.55679 23.0694 4.57198 23.0717C8.13158 23.7668 12.5065 24 12.5065 24C12.5065 24 24.4951 19.3428 24.8098 19.0706C25.1245 18.7991 24.9864 17.3129 21.9596 17.073Z" fill="#EAC6BB"/>
<path d="M18.4827 17.7773C17.5616 17.8735 16.4878 18.0087 15.2605 18.1782C15.104 18.233 14.9431 18.2889 14.7777 18.3442C11.5607 19.4227 9.28555 19.6487 7.94365 19.6487C7.66409 19.6487 7.4375 19.827 7.4375 20.0467C7.4375 20.2663 7.66404 20.444 7.94365 20.444C10.0371 20.444 12.4755 19.982 15.1908 19.0708C16.8326 18.519 18.0577 17.9737 18.4827 17.7773Z" fill="#DBADA2"/>
<path d="M15.4105 3.80865C14.8935 2.60771 13.7846 1.77734 12.4997 1.77734C11.2148 1.77734 10.1055 2.60776 9.58843 3.80865H9.27832V5.33254C9.27832 7.29617 10.7206 8.88845 12.4997 8.88845C14.2787 8.88845 15.7213 7.29612 15.7213 5.33254V3.80865H15.4105Z" fill="#F6BB42"/>
<path d="M15.7213 3.55515C15.7213 5.51878 14.2786 7.11111 12.4997 7.11111C10.7206 7.11111 9.27832 5.51873 9.27832 3.55515C9.27832 1.59157 10.7206 0 12.4997 0C14.2787 0 15.7213 1.59157 15.7213 3.55515Z" fill="#FFCE54"/>
<path d="M12.9605 2.37029H12.9598C12.9598 2.04913 12.7612 1.78531 12.5109 1.77748C12.2567 1.77053 12.0461 2.02918 12.04 2.3564C12.04 2.36073 12.0404 2.36507 12.0404 2.37029H12.04V4.74075H12.0404C12.0404 5.06108 12.2389 5.32495 12.4893 5.33273C12.7434 5.34056 12.9541 5.08102 12.9601 4.75375C12.9601 4.74942 12.9598 4.74508 12.9598 4.74075H12.9605V2.37029Z" fill="#E8AA3D"/>
</svg>
