<svg width="30" height="28" viewBox="0 0 30 28" fill="none" xmlns="http://www.w3.org/2000/svg">
<path d="M10.3701 13.9869L13.3636 16.8899L19.363 11.084" stroke="url(#paint0_linear_827_30061)" stroke-width="3.75" stroke-linecap="round" stroke-linejoin="round"/>
<path d="M13.3135 2.5308C14.1705 1.82307 15.5741 1.82307 16.4436 2.5308L18.4061 4.16219C18.7788 4.47407 19.4744 4.72598 19.9712 4.72598H22.0828C23.3994 4.72598 24.4801 5.76959 24.4801 7.04111V9.08035C24.4801 9.54817 24.7409 10.2319 25.0639 10.5918L26.7531 12.487C27.486 13.3147 27.486 14.6702 26.7531 15.5099L25.0639 17.4052C24.7409 17.765 24.4801 18.4368 24.4801 18.9166V20.9558C24.4801 22.2274 23.3994 23.271 22.0828 23.271H19.9712C19.4868 23.271 18.7788 23.5229 18.4061 23.8348L16.4436 25.4661C15.5865 26.1739 14.1829 26.1739 13.3135 25.4661L11.3509 23.8348C10.9783 23.5229 10.2827 23.271 9.78586 23.271H7.637C6.32036 23.271 5.23972 22.2274 5.23972 20.9558V18.9046C5.23972 18.4368 4.97888 17.765 4.66835 17.4052L2.99149 15.4979C2.27107 14.6702 2.27107 13.3267 2.99149 12.499L4.66835 10.5918C4.97888 10.2319 5.23972 9.56017 5.23972 9.09234V7.02911C5.23972 5.75759 6.32036 4.71398 7.637 4.71398H9.78586C10.2703 4.71398 10.9783 4.46208 11.3509 4.15019L13.3135 2.5308Z" stroke="url(#paint1_linear_827_30061)" stroke-width="3.75" stroke-linecap="round" stroke-linejoin="round"/>
<defs>
<linearGradient id="paint0_linear_827_30061" x1="14.8666" y1="11.084" x2="14.8666" y2="16.8899" gradientUnits="userSpaceOnUse">
<stop stop-color="#DA5ED8"/>
<stop offset="0.5" stop-color="#B854B7"/>
<stop offset="1"/>
</linearGradient>
<linearGradient id="paint1_linear_827_30061" x1="14.877" y1="2" x2="14.877" y2="25.9969" gradientUnits="userSpaceOnUse">
<stop stop-color="#DA5ED8"/>
<stop offset="0.5" stop-color="#B854B7"/>
<stop offset="1"/>
</linearGradient>
</defs>
</svg>
