<svg width="23" height="22" viewBox="0 0 23 22" fill="none" xmlns="http://www.w3.org/2000/svg">
<path d="M21.5004 6.25187L17.3916 2.27637V18.2074H22.8903V9.47978C22.8903 8.26793 22.3899 7.10617 21.5004 6.25187Z" fill="#FFB782"/>
<path d="M3.32091 15.3038L0.214761 7.51655C-0.0969953 6.73483 0.306304 5.85672 1.11621 5.5555L15.7772 0.101775C16.5867 -0.199298 17.4959 0.190181 17.8077 0.972334L20.9138 8.7596C21.2256 9.54132 20.8223 10.4194 20.0124 10.7206L5.35183 16.1744C4.54193 16.4754 3.63311 16.0855 3.32091 15.3038Z" fill="#DE4C3C"/>
<path d="M18.9274 3.77832L1.34863 10.3587L2.51915 13.2931L20.0987 6.71575L18.9274 3.77832Z" fill="#7A4930"/>
<path d="M0.109375 9.86212V1.51727C0.109375 0.679375 0.812857 0 1.68049 0H17.3913C18.2589 0 18.9624 0.679375 18.9624 1.51727V9.86212C18.9624 10.7 18.2589 11.3794 17.3913 11.3794H1.68049C0.812857 11.3794 0.109375 10.7 0.109375 9.86212Z" fill="#4398D1"/>
<path d="M17.3919 0H15.7226L3.93945 11.3794H17.3919C18.2595 11.3794 18.963 10.7 18.963 9.86212V1.51727C18.963 0.679375 18.2595 0 17.3919 0Z" fill="#3E8CC7"/>
<path d="M1.68066 6.06934H3.25177V6.82797H1.68066V6.06934Z" fill="#5EB3D1"/>
<path d="M1.68066 8.34473H3.25177V9.10336H1.68066V8.34473Z" fill="#5EB3D1"/>
<path d="M8.75098 8.34473H10.3221V9.10336H8.75098V8.34473Z" fill="#5EB3D1"/>
<path d="M4.03711 6.06934H5.60807V6.82797H4.03711V6.06934Z" fill="#5EB3D1"/>
<path d="M6.39355 6.06934H7.96466V6.82797H6.39355V6.06934Z" fill="#5EB3D1"/>
<path d="M8.75098 6.06934H10.3221V6.82797H8.75098V6.06934Z" fill="#5EB3D1"/>
<path d="M16.2129 1.51758H16.9984V2.65553H16.2129V1.51758Z" fill="#5EB3D1"/>
<path d="M14.6416 1.51758H15.4272V2.65553H14.6416V1.51758Z" fill="#5EB3D1"/>
<path d="M13.0713 1.51758H13.8568V2.65553H13.0713V1.51758Z" fill="#5EB3D1"/>
<path d="M11.5 1.51758H12.2854V2.65553H11.5V1.51758Z" fill="#5EB3D1"/>
<path d="M15.8203 18.207H22.8902V22.0001H15.8203V18.207Z" fill="#88B337"/>
<path d="M14.6672 6.8526C14.001 6.21155 12.923 6.21344 12.2592 6.85681C11.6173 7.47885 11.5951 8.47831 12.2085 9.12662L15.4272 12.5177C14.4598 14.1528 14.5011 16.1692 15.5344 17.7662L15.82 18.2073H20.926V12.897L14.6672 6.8526Z" fill="#FFB782"/>
<path d="M16.999 19.3447H17.7846V20.1034H16.999V19.3447Z" fill="#6B962A"/>
<path d="M1.68066 3.94518V2.12452C1.68066 1.78918 1.96191 1.51758 2.30914 1.51758H4.19441C4.54164 1.51758 4.82273 1.78918 4.82273 2.12452V3.94518C4.82273 4.28052 4.54164 4.55212 4.19441 4.55212H2.30914C1.96191 4.55212 1.68066 4.28052 1.68066 3.94518Z" fill="#FDB62F"/>
<path d="M1.68066 2.65527H2.859V3.41391H1.68066V2.65527Z" fill="#FD7B2F"/>
<path d="M3.64453 2.65527H4.82271V3.41391H3.64453V2.65527Z" fill="#FD7B2F"/>
<path d="M20.5332 12.8962C20.4292 12.8962 20.3291 12.8563 20.2556 12.785L18.6845 11.2678C18.5337 11.1172 18.5381 10.8771 18.6944 10.7314C18.8468 10.5895 19.0879 10.5895 19.2399 10.7314L20.811 12.2486C20.9642 12.397 20.9642 12.6371 20.811 12.785C20.7371 12.8563 20.6374 12.8962 20.5332 12.8962Z" fill="#F2A46F"/>
</svg>
