<svg width="25" height="25" viewBox="0 0 25 25" fill="none" xmlns="http://www.w3.org/2000/svg">
<path fill-rule="evenodd" clip-rule="evenodd" d="M0 12.5C0 5.59643 5.59646 0 12.5 0C19.4036 0 25 5.59643 25 12.5C25 19.4035 19.4036 25 12.5 25C5.59646 25 0 19.4035 0 12.5ZM12.5 1.79303C6.58673 1.79303 1.79305 6.5867 1.79305 12.5C1.79305 18.4131 6.58673 23.207 12.5 23.207C18.4133 23.207 23.207 18.4131 23.207 12.5C23.207 6.5867 18.4133 1.79303 12.5 1.79303ZM13.9156 18.1627C13.9156 18.9445 13.2819 19.5782 12.5001 19.5782C11.7183 19.5782 11.0845 18.9445 11.0845 18.1627C11.0845 17.3809 11.7183 16.7471 12.5001 16.7471C13.2819 16.7471 13.9156 17.3809 13.9156 18.1627ZM9.76352 10.1412C9.76352 8.86177 10.8678 7.64041 12.5003 7.64041C14.1328 7.64041 15.237 8.86177 15.237 10.1412C15.237 11.0683 14.7274 11.5419 13.8487 12.0757C13.7506 12.1353 13.6375 12.201 13.5165 12.2712C13.1708 12.472 12.7605 12.7103 12.4521 12.9506C11.9946 13.307 11.4622 13.882 11.4622 14.7654C11.4622 15.3387 11.927 15.8034 12.5003 15.8034C13.071 15.8034 13.5341 15.3429 13.5383 14.7732L13.5393 14.7716C13.5557 14.7457 13.6042 14.6849 13.7281 14.5883C13.9197 14.4391 14.133 14.3155 14.4172 14.1508C14.5654 14.0649 14.733 13.9678 14.9267 13.8501C15.9354 13.2373 17.3131 12.2246 17.3131 10.1412C17.3131 7.64587 15.2089 5.56427 12.5003 5.56427C9.7917 5.56427 7.68736 7.64587 7.68736 10.1412C7.68736 10.7145 8.15213 11.1793 8.72544 11.1793C9.29876 11.1793 9.76352 10.7145 9.76352 10.1412Z" fill="url(#paint0_linear_827_29848)"/>
<defs>
<linearGradient id="paint0_linear_827_29848" x1="12.5" y1="0" x2="12.5" y2="25" gradientUnits="userSpaceOnUse">
<stop stop-color="#DA5ED8"/>
<stop offset="0.5" stop-color="#B854B7"/>
<stop offset="1"/>
</linearGradient>
</defs>
</svg>
