<svg width="42" height="42" viewBox="0 0 42 42" fill="none" xmlns="http://www.w3.org/2000/svg">
<circle cx="21" cy="21" r="21" fill="url(#paint0_linear_818_12373)"/>
<path d="M10.5762 14.9279C9.26328 15.8652 8.1988 16.8675 7.3831 17.7509C5.53897 19.748 5.53897 22.7326 7.3831 24.7297C9.77482 27.32 14.3053 30.9324 20.9668 30.9324C22.7609 30.9324 24.4004 30.6704 25.8852 30.2369L23.583 27.9346C22.7579 28.0814 21.8859 28.1632 20.9668 28.1632C15.3826 28.1632 11.5355 25.1448 9.41757 22.8511C8.55301 21.9149 8.55301 20.5658 9.41757 19.6295C10.2191 18.7615 11.2682 17.7897 12.5654 16.917L10.5762 14.9279Z" fill="white"/>
<path d="M16.1662 20.5181C16.131 20.7537 16.1128 20.9948 16.1128 21.2403C16.1128 23.9167 18.2824 26.0863 20.9588 26.0863C21.2042 26.0863 21.4454 26.068 21.681 26.0328L16.1662 20.5181Z" fill="white"/>
<path d="M25.7657 21.8596L20.3398 16.4337C20.5425 16.4079 20.7491 16.3945 20.9589 16.3945C23.6353 16.3945 25.8049 18.5642 25.8049 21.2406C25.8049 21.4503 25.7916 21.6569 25.7657 21.8596Z" fill="white"/>
<path d="M29.4291 25.5226C30.6982 24.6606 31.727 23.7056 32.516 22.8512C33.3805 21.915 33.3805 20.5658 32.516 19.6296C30.3981 17.3359 26.5509 14.3175 20.9668 14.3175C20.0798 14.3175 19.2367 14.3936 18.4374 14.5309L16.1274 12.221C17.5913 11.8012 19.2045 11.5483 20.9668 11.5483C27.6283 11.5483 32.1588 15.1608 34.5505 17.751C36.3946 19.7481 36.3946 22.7327 34.5505 24.7298C33.7471 25.5999 32.7025 26.5853 31.4168 27.5103L29.4291 25.5226Z" fill="white"/>
<path d="M7.1321 9.36363C6.59138 8.82292 6.59138 7.94625 7.1321 7.40554C7.67281 6.86482 8.54948 6.86482 9.09019 7.40554L34.8133 33.1287C35.3541 33.6694 35.3541 34.5461 34.8133 35.0868C34.2726 35.6275 33.3959 35.6275 32.8553 35.0868L7.1321 9.36363Z" fill="white"/>
<defs>
<linearGradient id="paint0_linear_818_12373" x1="21" y1="0" x2="21" y2="42" gradientUnits="userSpaceOnUse">
<stop stop-color="#DA5ED8"/>
<stop offset="0.5" stop-color="#B854B7"/>
<stop offset="1"/>
</linearGradient>
</defs>
</svg>
