<svg width="258" height="301" viewBox="0 0 258 301" fill="none" xmlns="http://www.w3.org/2000/svg">
<path d="M56.1233 211.835H30.8987V186.605H16.458V226.275H56.1233V211.835Z" fill="#B8BCF3"/>
<path d="M228.288 39.6706H242.729V0H203.063V14.4407H228.288V39.6706Z" fill="#B8BCF3"/>
<path d="M30.8987 14.4366L56.1233 14.4407V0H16.458V39.6706H30.8987V14.4366Z" fill="#B8BCF3"/>
<path d="M228.288 211.835H203.063V226.275H242.729V186.605H228.288V211.835Z" fill="#B8BCF3"/>
<path d="M189.751 256.013C178.489 251.801 165.665 240.425 165.665 231.94C165.665 226.323 165.665 219.305 165.665 209.677C172.885 201.658 183.716 189.821 187.326 169.363C195.749 166.355 200.563 161.541 206.58 140.482C212.983 118.055 196.953 118.821 196.953 118.821C196.953 118.821 196.953 106.787 196.953 96.3607C196.953 78.7091 188.736 26.5635 128.754 26.5635C68.7817 26.5635 60.5648 78.7091 60.5648 96.3607C60.5648 106.787 60.5648 118.821 60.5648 118.821C60.5648 118.821 44.535 118.055 50.9374 140.482C56.9455 161.541 61.7588 166.355 70.1827 169.363C73.7932 189.821 84.6328 201.658 91.8532 209.677C91.8532 219.304 91.8532 226.323 91.8532 231.94C91.8532 240.425 78.0048 252.403 67.7663 256.013C51.2759 261.828 10.1539 265.927 0 300.872H257.494C247.303 266.026 206.12 262.139 189.751 256.013Z" fill="black" fill-opacity="0.4"/>
</svg>
