<svg width="150" height="150" viewBox="0 0 150 150" fill="none" xmlns="http://www.w3.org/2000/svg">
<g clip-path="url(#clip0_184_6299)">
<path d="M144.722 74.9971C147.038 72.2995 148.662 69.0774 149.451 65.6103C150.24 62.1432 150.172 58.5359 149.252 55.1013C148.331 51.6667 146.587 48.5085 144.169 45.9007C141.752 43.2929 138.735 41.3143 135.38 40.1365C136.038 36.6418 135.832 33.0395 134.782 29.6422C133.732 26.2448 131.869 23.1549 129.354 20.6407C126.84 18.1264 123.75 16.2637 120.352 15.214C116.955 14.1644 113.352 13.9597 109.858 14.6175C108.681 11.2616 106.703 8.2438 104.095 5.82595C101.487 3.4081 98.3286 1.66334 94.8934 0.743148C91.4583 -0.177045 87.8505 -0.244855 84.3832 0.545607C80.916 1.33607 77.6941 2.96091 74.9972 5.27905C72.2996 2.9625 69.0775 1.33913 65.6104 0.549758C62.1433 -0.239611 58.536 -0.171133 55.1014 0.749248C51.6667 1.66963 48.5086 3.41412 45.9008 5.83138C43.293 8.24864 41.3144 11.2657 40.1366 14.6207C36.6422 13.964 33.0402 14.1697 29.6433 15.22C26.2464 16.2703 23.157 18.1335 20.6431 20.648C18.1293 23.1625 16.2668 26.2524 15.2174 29.6496C14.1679 33.0468 13.9632 36.6487 14.6208 40.143C11.2658 41.3208 8.24873 43.2994 5.83147 45.9072C3.41421 48.515 1.66971 51.6732 0.749326 55.1078C-0.171056 58.5424 -0.239544 62.1497 0.549825 65.6168C1.33919 69.0839 2.9626 72.306 5.27915 75.0036C2.96189 77.7012 1.33799 80.9236 0.548397 84.391C-0.241196 87.8584 -0.172649 91.4662 0.748136 94.9011C1.66892 98.336 3.41409 101.494 5.83218 104.102C8.25027 106.709 11.2682 108.688 14.6241 109.864C13.9659 113.359 14.1704 116.961 15.22 120.358C16.2696 123.756 18.1325 126.845 20.647 129.36C23.1614 131.874 26.2516 133.736 29.6491 134.785C33.0466 135.835 36.6488 136.039 40.1431 135.38C41.3209 138.735 43.2995 141.752 45.9073 144.169C48.5151 146.587 51.6733 148.331 55.1079 149.252C58.5425 150.172 62.1498 150.24 65.6169 149.451C69.0839 148.662 72.3061 147.038 75.0037 144.722C77.7013 147.039 80.9237 148.663 84.3911 149.452C87.8585 150.242 91.4663 150.174 94.9012 149.253C98.3361 148.332 101.494 146.587 104.102 144.169C106.71 141.751 108.688 138.733 109.864 135.377C113.359 136.035 116.961 135.83 120.359 134.781C123.756 133.731 126.846 131.868 129.36 129.354C131.875 126.839 133.738 123.749 134.787 120.352C135.837 116.955 136.041 113.352 135.383 109.858C138.739 108.68 141.756 106.702 144.173 104.094C146.591 101.486 148.335 98.3275 149.255 94.8927C150.175 91.4578 150.243 87.8503 149.453 84.3833C148.663 80.9162 147.039 77.6943 144.722 74.9971Z" fill="url(#paint0_linear_184_6299)"/>
<path d="M61.5369 103.626L40.6952 82.7978C39.9042 82.0056 39.46 80.9318 39.46 79.8123C39.46 78.6928 39.9042 77.6191 40.6952 76.8268L43.2273 74.2915C44.0195 73.5005 45.0933 73.0563 46.2128 73.0563C47.3323 73.0563 48.4061 73.5005 49.1983 74.2915L64.3485 89.4319L100.028 51.5159C100.796 50.7013 101.856 50.2246 102.974 50.1904C104.093 50.1563 105.18 50.5675 105.996 51.3339L108.596 53.7879C109.412 54.5558 109.889 55.6161 109.923 56.7357C109.957 57.8554 109.546 58.9428 108.778 59.7589L67.6086 103.532C67.221 103.945 66.7543 104.276 66.2361 104.505C65.718 104.735 65.1592 104.857 64.5927 104.866C64.0263 104.875 63.4638 104.77 62.9389 104.557C62.4139 104.344 61.9371 104.027 61.5369 103.626Z" fill="white"/>
</g>
<defs>
<linearGradient id="paint0_linear_184_6299" x1="75.0012" y1="-0.000976563" x2="75.0012" y2="149.998" gradientUnits="userSpaceOnUse">
<stop stop-color="#E071DF"/>
<stop offset="1" stop-color="#02E4F0"/>
</linearGradient>
<clipPath id="clip0_184_6299">
<rect width="150" height="150" fill="white"/>
</clipPath>
</defs>
</svg>
