<svg width="18" height="16" viewBox="0 0 18 16" fill="none" xmlns="http://www.w3.org/2000/svg">
<path d="M9.01494 1.94043C6.53244 1.94043 4.51494 3.73376 4.51494 5.94043V7.8671C4.51494 8.27376 4.31994 8.89376 4.08744 9.24043L3.22494 10.5138C2.69244 11.3004 3.05994 12.1738 4.03494 12.4671C7.26744 13.4271 10.7549 13.4271 13.9874 12.4671C14.8949 12.2004 15.2924 11.2471 14.7974 10.5138L13.9349 9.24043C13.7099 8.89376 13.5149 8.27376 13.5149 7.8671V5.94043C13.5149 3.74043 11.4899 1.94043 9.01494 1.94043Z" stroke="#B569B4" stroke-width="1.5" stroke-miterlimit="10" stroke-linecap="round"/>
<path d="M10.4029 2.13297C9.49596 1.90336 8.5349 1.90336 7.62793 2.13297C7.84543 1.63964 8.38543 1.29297 9.01543 1.29297C9.64543 1.29297 10.1854 1.63964 10.4029 2.13297V2.13297Z" stroke="#B569B4" stroke-width="1.5" stroke-miterlimit="10" stroke-linecap="round" stroke-linejoin="round"/>
<path d="M11.2646 12.707C11.2646 13.807 10.2521 14.707 9.01465 14.707C8.39965 14.707 7.82965 14.4804 7.42465 14.1204C7.00327 13.7452 6.76599 13.2371 6.76465 12.707" stroke="#B569B4" stroke-width="1.5" stroke-miterlimit="10"/>
<path d="M16 3.00033C16 3.95911 15.1056 4.83366 13.875 4.83366C12.6444 4.83366 11.75 3.95911 11.75 3.00033C11.75 2.04154 12.6444 1.16699 13.875 1.16699C15.1056 1.16699 16 2.04154 16 3.00033Z" fill="#FF5789" stroke="white"/>
</svg>
