<svg width="26" height="26" viewBox="0 0 26 26" fill="none" xmlns="http://www.w3.org/2000/svg">
<path d="M10.4 1.11433C10.4 0.654815 10.118 0.242426 9.68968 0.0758485C9.26142 -0.0907443 8.77482 0.0226454 8.46432 0.361388L0.292912 9.27565C-0.00568669 9.60138 -0.0835826 10.0728 0.0943462 10.4772C0.27229 10.8818 0.672422 11.1428 1.11432 11.1428H24.8857C25.501 11.1428 25.9999 10.6439 25.9999 10.0286C25.9999 9.4132 25.501 8.91431 24.8857 8.91431H10.4V1.11433Z" fill="url(#paint0_linear_827_29854)"/>
<path d="M15.5999 24.886V17.086H1.11428C0.498872 17.086 0 16.5871 0 15.9717C0 15.3563 0.498872 14.8574 1.11428 14.8574H24.8856C25.3275 14.8574 25.7277 15.1186 25.9056 15.523C26.0836 15.9276 26.0057 16.399 25.7071 16.7247L17.5357 25.6389C17.2252 25.9777 16.7386 26.091 16.3103 25.9245C15.8821 25.7579 15.5999 25.3455 15.5999 24.886Z" fill="url(#paint1_linear_827_29854)"/>
<defs>
<linearGradient id="paint0_linear_827_29854" x1="13" y1="0" x2="13" y2="11.1428" gradientUnits="userSpaceOnUse">
<stop stop-color="#DA5ED8"/>
<stop offset="0.5" stop-color="#B854B7"/>
<stop offset="1"/>
</linearGradient>
<linearGradient id="paint1_linear_827_29854" x1="13" y1="14.8574" x2="13" y2="26.0003" gradientUnits="userSpaceOnUse">
<stop stop-color="#DA5ED8"/>
<stop offset="0.5" stop-color="#B854B7"/>
<stop offset="1"/>
</linearGradient>
</defs>
</svg>
