<svg width="12" height="33" viewBox="0 0 12 33" fill="none" xmlns="http://www.w3.org/2000/svg">
<path d="M9 0.5H3C1.3 0.5 0 1.8 0 3.5V11.5V21.5V29.5C0 31.2 1.3 32.5 3 32.5H9C10.7 32.5 12 31.2 12 29.5V21.5V11.5V3.5C12 1.8 10.7 0.5 9 0.5ZM3.3 6.8L5.3 4.8C5.7 4.4 6.3 4.4 6.7 4.8L8.7 6.8C9.1 7.2 9.1 7.8 8.7 8.2C8.5 8.4 8.3 8.5 8 8.5C7.7 8.5 7.5 8.4 7.3 8.2L6 6.9L4.7 8.2C4.3 8.6 3.7 8.6 3.3 8.2C2.9 7.8 2.9 7.2 3.3 6.8ZM8.7 26.2L6.7 28.2C6.5 28.4 6.3 28.5 6 28.5C5.7 28.5 5.5 28.4 5.3 28.2L3.3 26.2C2.9 25.8 2.9 25.2 3.3 24.8C3.7 24.4 4.3 24.4 4.7 24.8L6 26.1L7.3 24.8C7.7 24.4 8.3 24.4 8.7 24.8C9.1 25.2 9.1 25.8 8.7 26.2ZM10 20.5H2V12.5H10V20.5Z" fill="white"/>
</svg>
