<svg width="28" height="19" viewBox="0 0 28 19" fill="none" xmlns="http://www.w3.org/2000/svg">
<path d="M17.2464 13.7869H3.14768C1.75554 13.7869 0.625 12.6951 0.625 11.3507V2.43623C0.625 1.0918 1.75554 0 3.14768 0H17.2464C18.6385 0 19.7691 1.0918 19.7691 2.43623V11.3478C19.7691 12.6951 18.6415 13.7869 17.2464 13.7869Z" fill="#248CBE"/>
<path d="M0.625 3.0752H19.7721V5.86568H0.625V3.0752Z" fill="#183351"/>
<path d="M7.83207 9.73956H2.54918C2.18537 9.73956 1.8877 9.45209 1.8877 9.10073C1.8877 8.74938 2.18537 8.46191 2.54918 8.46191H7.83207C8.19589 8.46191 8.49356 8.74938 8.49356 9.10073C8.49356 9.45209 8.19589 9.73956 7.83207 9.73956ZM11.8431 11.7547H2.54918C2.18537 11.7547 1.8877 11.4673 1.8877 11.1159C1.8877 10.7646 2.18537 10.4771 2.54918 10.4771H11.8431C12.2069 10.4771 12.5046 10.7646 12.5046 11.1159C12.5046 11.4673 12.2069 11.7547 11.8431 11.7547Z" fill="#FBFAEE"/>
<path d="M25.0247 18.3279H10.926C9.53386 18.3279 8.40332 17.2361 8.40332 15.8917V6.97725C8.40332 5.63282 9.53386 4.54102 10.926 4.54102H25.0247C26.4169 4.54102 27.5474 5.63282 27.5474 6.97725V15.8888C27.5474 17.2361 26.4199 18.3279 25.0247 18.3279Z" fill="#F5DB6F"/>
<path d="M22.3937 11.928H10.3275C9.96369 11.928 9.66602 11.6406 9.66602 11.2892C9.66602 10.9379 9.96369 10.6504 10.3275 10.6504H22.3937C22.7575 10.6504 23.0551 10.9379 23.0551 11.2892C23.0551 11.6406 22.7575 11.928 22.3937 11.928Z" fill="#AEB8C4"/>
<path d="M15.6104 14.2806H10.3275C9.96369 14.2806 9.66602 13.9931 9.66602 13.6418C9.66602 13.2904 9.96369 13.0029 10.3275 13.0029H15.6134C15.9772 13.0029 16.2749 13.2904 16.2749 13.6418C16.2719 13.9931 15.9742 14.2806 15.6104 14.2806ZM19.6214 16.2958H10.3275C9.96369 16.2958 9.66602 16.0083 9.66602 15.6569C9.66602 15.3056 9.96369 15.0181 10.3275 15.0181H19.6214C19.9852 15.0181 20.2829 15.3056 20.2829 15.6569C20.2829 16.0083 19.9852 16.2958 19.6214 16.2958Z" fill="#FBFAEE"/>
<path d="M14.0379 9.40521H10.7725C10.1621 9.40521 9.66602 8.92609 9.66602 8.33664V6.86154C9.66602 6.27208 10.1621 5.79297 10.7725 5.79297H14.0379C14.6482 5.79297 15.1443 6.27208 15.1443 6.86154V8.33664C15.1443 8.92609 14.6482 9.40521 14.0379 9.40521Z" fill="#F3C262"/>
<path d="M15.1443 7.01834H14.113V5.79297H13.0937V9.40521H14.113V8.02013H15.1443V7.01834ZM10.7966 5.79297V7.01834H9.66602V8.02013H10.7966V9.40521H11.8159V5.79297H10.7966Z" fill="#F7A04D"/>
<path d="M27.5473 11.0753V8.35158C25.1239 8.34287 23.0913 6.71388 22.5531 4.53027H19.6816C20.2589 8.22382 23.5664 11.0666 27.5473 11.0753Z" fill="#F7F9DD"/>
</svg>
