<svg width="25" height="22" viewBox="0 0 25 22" fill="none" xmlns="http://www.w3.org/2000/svg">
<path d="M13.875 13.501L6.375 13.5M13.875 13.501L10.75 10.375M13.875 13.501L10.75 16.625M23.875 11V10C23.875 8.59987 23.875 7.8998 23.6025 7.36503C23.3629 6.89461 22.9804 6.51216 22.51 6.27249C21.9753 6 21.2751 6 19.875 6H1.375M23.875 11V16M23.875 11H21.375C19.9943 11 18.875 12.1193 18.875 13.5C18.875 14.8807 19.9943 16 21.375 16H23.875M1.375 6V17C1.375 18.4001 1.375 19.1003 1.64749 19.635C1.88716 20.1054 2.26961 20.4879 2.74003 20.7275C3.2748 21 3.97487 21 5.375 21H19.875C21.2751 21 21.9753 21 22.51 20.7275C22.9804 20.4879 23.3629 20.1054 23.6025 19.635C23.875 19.1003 23.875 18.4001 23.875 17V16M1.375 6V5C1.375 3.59987 1.375 2.8998 1.64749 2.36503C1.88716 1.89461 2.26961 1.51216 2.74003 1.27249C3.2748 1 3.97486 1 5.375 1H16.125C17.5251 1 18.2253 1 18.76 1.27249C19.2304 1.51216 19.6129 1.89461 19.8525 2.36503C20.125 2.8998 20.125 3.59987 20.125 5V6" stroke="white" stroke-width="2" stroke-linecap="round" stroke-linejoin="round"/>
</svg>
