<svg width="42" height="42" viewBox="0 0 42 42" fill="none" xmlns="http://www.w3.org/2000/svg">
<circle cx="21" cy="21" r="21" fill="url(#paint0_linear_818_12384)"/>
<path fill-rule="evenodd" clip-rule="evenodd" d="M10.875 25.8704C11.4963 25.8704 12 26.3741 12 26.9954V30.3752C12 30.5823 12.1679 30.7502 12.375 30.7502H30.3751C30.5822 30.7502 30.7501 30.5823 30.7501 30.3752V26.9954C30.7501 26.3741 31.2538 25.8704 31.8751 25.8704C32.4965 25.8704 33.0001 26.3741 33.0001 26.9954V30.3752C33.0001 31.825 31.8248 33.0002 30.3751 33.0002H12.375C10.9253 33.0002 9.75 31.825 9.75 30.3752V26.9954C9.75 26.3741 10.2537 25.8704 10.875 25.8704Z" fill="white"/>
<path fill-rule="evenodd" clip-rule="evenodd" d="M21.6782 9.74994C22.2995 9.74994 22.8032 10.2536 22.8032 10.8749V23.0034C22.8032 23.6247 22.2995 24.1284 21.6782 24.1284C21.0569 24.1284 20.5532 23.6247 20.5532 23.0034V10.8749C20.5532 10.2536 21.0569 9.74994 21.6782 9.74994Z" fill="white"/>
<path fill-rule="evenodd" clip-rule="evenodd" d="M15.8574 19.3133C16.2916 18.8689 17.0039 18.8605 17.4483 19.2947L21.6778 23.4269L25.9076 19.2947C26.3519 18.8605 27.0642 18.8689 27.4983 19.3133C27.9326 19.7576 27.9243 20.47 27.4799 20.9041L22.4641 25.8045C22.0269 26.2315 21.3288 26.2315 20.8917 25.8045L15.8759 20.9041C15.4315 20.47 15.4232 19.7576 15.8574 19.3133Z" fill="white"/>
<defs>
<linearGradient id="paint0_linear_818_12384" x1="21" y1="0" x2="21" y2="42" gradientUnits="userSpaceOnUse">
<stop stop-color="#DA5ED8"/>
<stop offset="0.5" stop-color="#B854B7"/>
<stop offset="1"/>
</linearGradient>
</defs>
</svg>
