<svg width="37" height="35" viewBox="0 0 37 35" fill="none" xmlns="http://www.w3.org/2000/svg">
<path d="M36.0512 15.4296L30.4942 9.87262V3.45333C30.4942 2.29263 29.5536 1.35198 28.3912 1.35198C27.2315 1.35198 26.2909 2.29263 26.2909 3.45333V5.6694L22.1533 1.53161C20.1076 -0.512966 16.5508 -0.50934 14.5098 1.53531L0.615172 15.4296C-0.205057 16.2515 -0.205057 17.5813 0.615172 18.4019C1.43577 19.2235 2.76818 19.2235 3.58849 18.4019L17.4818 4.50722C17.9344 4.05699 18.7321 4.05699 19.1823 4.50589L33.078 18.4019C33.49 18.8128 34.0272 19.0171 34.5643 19.0171C35.1024 19.0171 35.6405 18.8125 36.0513 18.4019C36.8718 17.5814 36.8718 16.2516 36.0512 15.4296Z" fill="white"/>
<path d="M19.063 8.49595C18.6593 8.0925 18.0057 8.0925 17.6032 8.49595L5.38145 20.7141C5.1885 20.9069 5.0791 21.1703 5.0791 21.4451V30.3565C5.0791 32.4477 6.77463 34.1431 8.86569 34.1431H14.9167V24.7721H21.7482V34.1431H27.7992C29.8902 34.1431 31.5857 32.4477 31.5857 30.3566V21.4451C31.5857 21.1703 31.4773 20.9069 31.2834 20.7141L19.063 8.49595Z" fill="white"/>
</svg>
