<svg width="38" height="29" viewBox="0 0 38 29" fill="none" xmlns="http://www.w3.org/2000/svg">
<path d="M11.8889 3.8858L35 3.88707L11.8889 3.8858ZM11.8889 14.5012L35 14.5027L11.8889 14.5012ZM11.8889 25.1166L35 25.118L11.8889 25.1166ZM3.88889 3.88462H3.90667H3.88889ZM3.88889 14.5H3.90667H3.88889ZM3.88889 25.1154H3.90667H3.88889ZM4.77778 3.88462C4.77778 4.37317 4.3798 4.76923 3.88889 4.76923C3.39797 4.76923 3 4.37317 3 3.88462C3 3.39606 3.39797 3 3.88889 3C4.3798 3 4.77778 3.39606 4.77778 3.88462ZM4.77778 14.5C4.77778 14.9885 4.3798 15.3846 3.88889 15.3846C3.39797 15.3846 3 14.9885 3 14.5C3 14.0115 3.39797 13.6154 3.88889 13.6154C4.3798 13.6154 4.77778 14.0115 4.77778 14.5ZM4.77778 25.1154C4.77778 25.6039 4.3798 26 3.88889 26C3.39797 26 3 25.6039 3 25.1154C3 24.6269 3.39797 24.2308 3.88889 24.2308C4.3798 24.2308 4.77778 24.6269 4.77778 25.1154Z" fill="#F031EE"/>
<path d="M11.8889 3.8858L35 3.88707M11.8889 14.5012L35 14.5027M11.8889 25.1166L35 25.118M3.88889 3.88462H3.90667M3.88889 14.5H3.90667M3.88889 25.1154H3.90667M4.77778 3.88462C4.77778 4.37317 4.3798 4.76923 3.88889 4.76923C3.39797 4.76923 3 4.37317 3 3.88462C3 3.39606 3.39797 3 3.88889 3C4.3798 3 4.77778 3.39606 4.77778 3.88462ZM4.77778 14.5C4.77778 14.9885 4.3798 15.3846 3.88889 15.3846C3.39797 15.3846 3 14.9885 3 14.5C3 14.0115 3.39797 13.6154 3.88889 13.6154C4.3798 13.6154 4.77778 14.0115 4.77778 14.5ZM4.77778 25.1154C4.77778 25.6039 4.3798 26 3.88889 26C3.39797 26 3 25.6039 3 25.1154C3 24.6269 3.39797 24.2308 3.88889 24.2308C4.3798 24.2308 4.77778 24.6269 4.77778 25.1154Z" stroke="white" stroke-width="5" stroke-linecap="round" stroke-linejoin="round"/>
</svg>
