<svg width="28" height="27" viewBox="0 0 28 27" fill="none" xmlns="http://www.w3.org/2000/svg">
<g clip-path="url(#clip0_2298_1141)">
<path d="M2.82031 4.46815C2.82236 4.17426 2.93982 3.89298 3.14733 3.68506C3.35483 3.47714 3.63572 3.35928 3.92932 3.35693H24.0703C24.6829 3.35693 25.1793 3.85491 25.1793 4.46815V22.3886C25.1772 22.6825 25.0598 22.9637 24.8523 23.1717C24.6448 23.3796 24.3639 23.4974 24.0703 23.4998H3.92932C3.63509 23.4995 3.35301 23.3823 3.14506 23.1739C2.93712 22.9656 2.82031 22.6831 2.82031 22.3886V4.46815ZM7.29211 16.7855V19.0236H20.7075V16.7855H7.29211ZM7.29211 7.83312V14.5474H13.9998V7.83312H7.29211ZM16.2357 7.83312V10.0712H20.7075V7.83312H16.2357ZM16.2357 12.3093V14.5474H20.7075V12.3093H16.2357ZM9.52801 10.0712H11.7639V12.3093H9.52801V10.0712Z" fill="white"/>
</g>
<defs>
<clipPath id="clip0_2298_1141">
<rect width="26.8308" height="26.8571" fill="white" transform="translate(0.584473)"/>
</clipPath>
</defs>
</svg>
