<svg width="28" height="27" viewBox="0 0 28 27" fill="none" xmlns="http://www.w3.org/2000/svg">
<g clip-path="url(#clip0_2298_1153)">
<path d="M3.93826 3.49951H24.0613C24.3578 3.49951 24.6422 3.61741 24.8519 3.82727C25.0615 4.03714 25.1793 4.32177 25.1793 4.61856V22.5233C25.1793 22.8201 25.0615 23.1047 24.8519 23.3146C24.6422 23.5245 24.3578 23.6424 24.0613 23.6424H3.93826C3.64176 23.6424 3.35741 23.5245 3.14775 23.3146C2.9381 23.1047 2.82031 22.8201 2.82031 22.5233V4.61856C2.82031 4.32177 2.9381 4.03714 3.14775 3.82727C3.35741 3.61741 3.64176 3.49951 3.93826 3.49951ZM13.9998 10.2138H9.52801V12.4519H19.5896L13.9998 6.85665V10.2138ZM8.41006 14.69L13.9998 20.2852V16.9281H18.4716V14.69H8.41006Z" fill="white"/>
</g>
<defs>
<clipPath id="clip0_2298_1153">
<rect width="26.8308" height="26.8571" fill="white" transform="translate(0.584473 0.142578)"/>
</clipPath>
</defs>
</svg>
