<svg width="21" height="21" viewBox="0 0 21 21" fill="none" xmlns="http://www.w3.org/2000/svg">
<path d="M7.05371 10.4887L9.34241 12.7869L13.9293 8.19043" stroke="#0601B4" stroke-linecap="round" stroke-linejoin="round"/>
<path d="M9.30437 1.41925C9.95964 0.858947 11.0328 0.858947 11.6975 1.41925L13.198 2.7108C13.4829 2.95772 14.0147 3.15715 14.3946 3.15715H16.009C17.0157 3.15715 17.8419 3.98336 17.8419 4.99001V6.60445C17.8419 6.97482 18.0413 7.51613 18.2882 7.80103L19.5798 9.30146C20.1401 9.95673 20.1401 11.0299 19.5798 11.6946L18.2882 13.1951C18.0413 13.48 17.8419 14.0118 17.8419 14.3917V16.0061C17.8419 17.0128 17.0157 17.839 16.009 17.839H14.3946C14.0242 17.839 13.4829 18.0384 13.198 18.2853L11.6975 19.5769C11.0423 20.1372 9.96914 20.1372 9.30437 19.5769L7.80389 18.2853C7.51899 18.0384 6.98718 17.839 6.60731 17.839H4.96438C3.95773 17.839 3.13152 17.0128 3.13152 16.0061V14.3822C3.13152 14.0118 2.93209 13.48 2.69467 13.1951L1.41262 11.6851C0.86181 11.0299 0.86181 9.96623 1.41262 9.31096L2.69467 7.80103C2.93209 7.51613 3.13152 6.98431 3.13152 6.61394V4.98051C3.13152 3.97386 3.95773 3.14765 4.96438 3.14765H6.60731C6.97768 3.14765 7.51899 2.94822 7.80389 2.70131L9.30437 1.41925Z" stroke="#0601B4" stroke-linecap="round" stroke-linejoin="round"/>
</svg>
