<svg width="16" height="16" viewBox="0 0 16 16" fill="none" xmlns="http://www.w3.org/2000/svg">
<path opacity="0.4" d="M2.06152 6.26931H13.9442" stroke="#0601B4" stroke-linecap="round" stroke-linejoin="round"/>
<path opacity="0.4" fill-rule="evenodd" clip-rule="evenodd" d="M4.53857 8.87354C4.53857 8.59739 4.76243 8.37354 5.03857 8.37354H5.04475C5.32089 8.37354 5.54475 8.59739 5.54475 8.87354C5.54475 9.14968 5.32089 9.37354 5.04475 9.37354H5.03857C4.76243 9.37354 4.53857 9.14968 4.53857 8.87354ZM8.00306 8.37354C7.72691 8.37354 7.50306 8.59739 7.50306 8.87354C7.50306 9.14968 7.72691 9.37354 8.00306 9.37354H8.00923C8.28537 9.37354 8.50923 9.14968 8.50923 8.87354C8.50923 8.59739 8.28537 8.37354 8.00923 8.37354H8.00306ZM10.9614 8.37354C10.6852 8.37354 10.4614 8.59739 10.4614 8.87354C10.4614 9.14968 10.6852 9.37354 10.9614 9.37354H10.9675C11.2437 9.37354 11.4675 9.14968 11.4675 8.87354C11.4675 8.59739 11.2437 8.37354 10.9675 8.37354H10.9614ZM10.9614 10.9644C10.6852 10.9644 10.4614 11.1883 10.4614 11.4644C10.4614 11.7406 10.6852 11.9644 10.9614 11.9644H10.9675C11.2437 11.9644 11.4675 11.7406 11.4675 11.4644C11.4675 11.1883 11.2437 10.9644 10.9675 10.9644H10.9614ZM7.50306 11.4644C7.50306 11.1883 7.72691 10.9644 8.00306 10.9644H8.00923C8.28537 10.9644 8.50923 11.1883 8.50923 11.4644C8.50923 11.7406 8.28537 11.9644 8.00923 11.9644H8.00306C7.72691 11.9644 7.50306 11.7406 7.50306 11.4644ZM5.03857 10.9644C4.76243 10.9644 4.53857 11.1883 4.53857 11.4644C4.53857 11.7406 4.76243 11.9644 5.03857 11.9644H5.04475C5.32089 11.9644 5.54475 11.7406 5.54475 11.4644C5.54475 11.1883 5.32089 10.9644 5.04475 10.9644H5.03857Z" fill="#0601B4"/>
<path d="M10.696 1.3335V3.52735" stroke="#0601B4" stroke-linecap="round" stroke-linejoin="round"/>
<path d="M5.31026 1.3335V3.52735" stroke="#0601B4" stroke-linecap="round" stroke-linejoin="round"/>
<path fill-rule="evenodd" clip-rule="evenodd" d="M10.8255 2.38623H5.18064C3.22285 2.38623 2 3.47685 2 5.48158V11.5147C2 13.5509 3.22285 14.6668 5.18064 14.6668H10.8193C12.7833 14.6668 14 13.5698 14 11.5651V5.48158C14.0062 3.47685 12.7895 2.38623 10.8255 2.38623Z" stroke="#0601B4" stroke-linecap="round" stroke-linejoin="round"/>
</svg>
