<svg width="379" height="258" viewBox="0 0 379 258" fill="none" xmlns="http://www.w3.org/2000/svg">
<path d="M146.673 197.158C143.322 185.548 133.733 176.622 121.363 176.318C114.171 176.143 107.195 179.235 101.068 182.765C92.8004 187.526 83.0545 193.272 73.1574 191.831C66.8211 190.904 59.3154 187.339 57.8259 179.971C56.2549 172.176 62.533 166.826 69.2474 163.693C75.0018 161.004 83.072 154.58 85.6612 148.431C95.9132 124.039 67.2459 96.1986 75.3335 68.399C83.7993 39.3044 123.01 34.3862 142.717 54.1405C144.608 56.0366 146.371 58.0552 147.982 60.1963C152.003 65.552 154.371 72.8446 159.962 76.8643C167.201 82.0684 176.58 80.3998 184.382 77.3136C199.283 71.4094 203.228 67.5123 217.797 61.1531C228.276 56.5791 241.187 52.5011 252.958 56.5616C261.395 59.4729 270.716 64.7119 275.435 72.2904C284.209 86.3856 280.27 101.572 294.141 121.618C300.425 130.701 310.415 133.245 318.375 139.809C339.007 156.821 332.112 192.689 309.606 204.958C291.127 215.033 268.377 212.735 248.338 210.15C246.802 209.952 245.266 209.742 243.736 209.514" stroke="#ADBBF9" stroke-miterlimit="10" stroke-linejoin="round" stroke-dasharray="3.5 3.5"/>
<path d="M83.7877 87.6105C83.7703 87.2196 83.7354 86.8054 83.6888 86.3678C83.2873 82.7448 80.8145 83.0774 79.2726 83.1882C77.7308 83.2991 75.8165 83.3574 75.0834 81.6714C74.7634 80.9363 74.775 80.0553 74.5655 79.2619C74.1001 77.5058 72.5407 76.4498 71.0512 76.4498C69.5617 76.444 68.1536 77.3016 66.9376 78.3634C66.3034 78.9118 65.5877 79.5594 64.8371 79.3494C64.3542 79.2152 63.976 78.7543 63.6735 78.2642C61.9105 75.3939 61.9221 71.2166 59.9904 68.5155C57.8609 65.5342 53.8752 65.4759 51.1813 67.6403C48.4874 69.8048 46.9397 73.6611 46.2298 77.5525C46.0029 78.8185 45.7993 80.207 45.0254 81.0646C43.9141 82.2956 42.2093 81.8872 40.7256 81.7239C39.0034 81.5313 37.1647 81.8114 35.7683 83.0774C34.6279 84.11 33.889 85.9186 34.0286 87.6163H83.7877V87.6105Z" fill="white" stroke="#ADBBF9" stroke-miterlimit="10" stroke-linejoin="round"/>
<path d="M183.452 24.8648H232.431C232.431 24.8648 230.47 22.5778 228.248 21.7961C225.449 20.8159 224.291 23.5755 222.522 20.005C221.533 18.0039 220.841 15.3669 218.234 14.6843C214.161 13.6167 213.126 16.9888 211.182 16.0786C209.478 15.2794 209.53 12.0706 207.814 9.39276C206.132 6.77325 202.036 5.16303 199.237 6.52821C194.129 9.02521 194.792 12.9924 193.122 14.2992C191.47 15.5886 187.688 11.0438 183.452 15.962C180.537 19.3516 183.452 24.8648 183.452 24.8648Z" fill="white" stroke="#ADBBF9" stroke-miterlimit="10" stroke-linejoin="round"/>
<path d="M234.578 7.98677C234.578 9.17693 233.618 10.1396 232.431 10.1396C231.244 10.1396 230.284 9.17693 230.284 7.98677C230.284 6.79661 231.244 5.83398 232.431 5.83398C233.618 5.83398 234.578 6.79661 234.578 7.98677Z" stroke="#ADBBF9" stroke-miterlimit="10" stroke-linejoin="round"/>
<path d="M376.216 181.668C376.216 182.859 375.256 183.821 374.069 183.821C372.882 183.821 371.922 182.859 371.922 181.668C371.922 180.478 372.882 179.516 374.069 179.516C375.256 179.51 376.216 180.478 376.216 181.668Z" stroke="#ADBBF9" stroke-miterlimit="10" stroke-linejoin="round"/>
<path d="M273.567 92.3715C273.567 93.5617 272.607 94.5243 271.42 94.5243C270.233 94.5243 269.273 93.5617 269.273 92.3715C269.273 91.1814 270.233 90.2188 271.42 90.2188C272.607 90.2188 273.567 91.1814 273.567 92.3715Z" stroke="#ADBBF9" stroke-miterlimit="10" stroke-linejoin="round"/>
<path d="M7.75298 117.925C7.75298 119.115 6.79294 120.078 5.60598 120.078C4.41902 120.078 3.45898 119.115 3.45898 117.925C3.45898 116.735 4.41902 115.772 5.60598 115.772C6.78712 115.772 7.75298 116.735 7.75298 117.925Z" stroke="#ADBBF9" stroke-miterlimit="10" stroke-linejoin="round"/>
<path d="M95.4249 37.1401C95.4249 38.3302 94.4648 39.2929 93.2779 39.2929C92.0909 39.2929 91.1309 38.3302 91.1309 37.1401C91.1309 35.9499 92.0909 34.9873 93.2779 34.9873C94.4648 34.9873 95.4249 35.9499 95.4249 37.1401Z" stroke="#ADBBF9" stroke-miterlimit="10" stroke-linejoin="round"/>
<path d="M120.886 27.3386C120.886 28.1496 120.234 28.803 119.425 28.803C118.617 28.803 117.965 28.1496 117.965 27.3386C117.965 26.5277 118.617 25.8743 119.425 25.8743C120.234 25.8743 120.886 26.5277 120.886 27.3386Z" stroke="#ADBBF9" stroke-miterlimit="10" stroke-linejoin="round"/>
<path d="M358.824 131.04C358.824 131.851 358.173 132.504 357.364 132.504C356.555 132.504 355.903 131.851 355.903 131.04C355.903 130.229 356.555 129.575 357.364 129.575C358.173 129.575 358.824 130.229 358.824 131.04Z" stroke="#ADBBF9" stroke-miterlimit="10" stroke-linejoin="round"/>
<path d="M252.685 84.0171C253.492 84.0171 254.145 83.3615 254.145 82.5527C254.145 81.744 253.492 81.0884 252.685 81.0884C251.878 81.0884 251.225 81.744 251.225 82.5527C251.225 83.3615 251.878 84.0171 252.685 84.0171Z" stroke="#ADBBF9" stroke-miterlimit="10" stroke-linejoin="round"/>
<path d="M311.608 45.6926C311.608 46.5036 310.957 47.157 310.148 47.157C309.339 47.157 308.688 46.5036 308.688 45.6926C308.688 44.8817 309.339 44.2283 310.148 44.2283C310.957 44.2283 311.608 44.8817 311.608 45.6926Z" stroke="#ADBBF9" stroke-miterlimit="10" stroke-linejoin="round"/>
<path d="M278.132 35.8855C278.132 36.6964 277.48 37.3499 276.671 37.3499C275.863 37.3499 275.211 36.6964 275.211 35.8855C275.211 35.0746 275.863 34.4211 276.671 34.4211C277.48 34.4211 278.132 35.0746 278.132 35.8855Z" stroke="#ADBBF9" stroke-miterlimit="10" stroke-linejoin="round"/>
<path d="M308.495 153.011C308.495 153.822 307.843 154.475 307.035 154.475C306.226 154.475 305.574 153.822 305.574 153.011C305.574 152.2 306.226 151.547 307.035 151.547C307.843 151.541 308.495 152.2 308.495 153.011Z" stroke="#ADBBF9" stroke-miterlimit="10" stroke-linejoin="round"/>
<path d="M81.746 167.036C81.746 167.847 81.0944 168.501 80.2856 168.501C79.4769 168.501 78.8252 167.847 78.8252 167.036C78.8252 166.225 79.4769 165.572 80.2856 165.572C81.0944 165.572 81.746 166.225 81.746 167.036Z" stroke="#ADBBF9" stroke-miterlimit="10" stroke-linejoin="round"/>
<path d="M86.1328 100.107C86.1328 100.918 85.4811 101.572 84.6723 101.572C83.8636 101.572 83.2119 100.918 83.2119 100.107C83.2119 99.2965 83.8636 98.6431 84.6723 98.6431C85.4811 98.6431 86.1328 99.3023 86.1328 100.107Z" stroke="#ADBBF9" stroke-miterlimit="10" stroke-linejoin="round"/>
<path d="M367.814 110.084H365.859C365.51 110.084 365.225 109.798 365.225 109.448V107.487C365.225 107.137 365.51 106.852 365.859 106.852H367.814C368.163 106.852 368.448 107.137 368.448 107.487V109.448C368.448 109.798 368.163 110.084 367.814 110.084Z" fill="#E4E9F9"/>
<path d="M66.9261 177.514H64.9711C64.622 177.514 64.3369 177.228 64.3369 176.878V174.918C64.3369 174.568 64.622 174.282 64.9711 174.282H66.9261C67.2752 174.282 67.5603 174.568 67.5603 174.918V176.878C67.5661 177.228 67.281 177.514 66.9261 177.514Z" fill="#E4E9F9"/>
<path d="M63.5277 58.1835H61.5727C61.2236 58.1835 60.9385 57.8976 60.9385 57.5476V55.5873C60.9385 55.2373 61.2236 54.9514 61.5727 54.9514H63.5277C63.8768 54.9514 64.1619 55.2373 64.1619 55.5873V57.5476C64.1619 57.8976 63.8768 58.1835 63.5277 58.1835Z" fill="#E4E9F9"/>
<path d="M279.63 128.934H277.675C277.326 128.934 277.041 128.648 277.041 128.298V126.338C277.041 125.988 277.326 125.702 277.675 125.702H279.63C279.979 125.702 280.264 125.988 280.264 126.338V128.298C280.264 128.648 279.979 128.934 279.63 128.934Z" fill="#E4E9F9"/>
<path d="M235.102 105.691C235.119 105.411 235.142 105.113 235.183 104.798C235.509 102.196 237.539 102.435 238.808 102.517C240.07 102.599 241.641 102.639 242.247 101.426C242.508 100.901 242.497 100.265 242.671 99.699C243.055 98.4389 244.335 97.6804 245.557 97.6804C246.779 97.6804 247.931 98.293 248.932 99.0514C252.179 101.519 253.11 95.0259 254.651 93.1415C256.403 91.0004 259.661 89.8044 261.872 91.3563C264.083 92.9081 265.357 95.6735 265.933 98.468C266.12 99.3782 266.189 100.487 266.922 100.988C269.069 102.459 271.833 99.6057 274.428 101.823C275.336 102.599 275.51 104.471 275.394 105.691H235.102Z" fill="white" stroke="#ADBBF9" stroke-miterlimit="10" stroke-linejoin="round"/>
<path d="M74.8279 239.052C67.5316 228.02 52.2583 200.138 65.501 190.547C72.7682 185.279 82.4035 190.074 87.064 201.69C91.486 212.722 93.1792 225.756 95.0236 238.894" fill="white"/>
<path d="M74.9848 238.965C71.4937 233.603 68.3518 227.979 65.7451 222.134C62.9232 215.798 60.3282 208.744 60.5143 201.697C60.6831 195.39 64.5058 188.932 71.4297 188.657C80.1748 188.313 85.3765 197.461 87.8726 204.555C91.7593 215.617 93.1615 227.408 94.7848 238.965C94.8314 239.28 95.3027 239.146 95.2561 238.837C93.6793 227.6 92.3004 216.177 88.6755 205.378C86.2667 198.208 81.8389 189.562 73.5011 188.313C67.3219 187.386 61.9399 191.942 60.5493 197.794C58.9492 204.526 61.1951 211.912 63.6156 218.166C66.4666 225.535 70.2893 232.588 74.6706 239.152C74.7986 239.338 75.1128 239.157 74.9848 238.965Z" fill="#ADBBF9"/>
<path d="M69.248 188.897L86.4473 239.088" stroke="#ADBBF9" stroke-miterlimit="10" stroke-linejoin="round"/>
<path d="M45.579 239.063C39.2834 230.901 25.5287 210.278 36.9503 203.184C43.2225 199.286 50.9494 202.834 54.9699 211.427C58.7868 219.589 60.2472 229.233 61.8356 238.947" fill="white"/>
<path d="M45.7351 238.971C42.8201 235.12 40.097 231.095 37.7813 226.853C35.3143 222.332 32.8997 217.204 32.7891 211.953C32.6786 206.737 36.1347 202.321 41.5109 201.877C48.2545 201.317 52.9907 207.361 55.3704 212.927C58.9022 221.177 60.159 230.22 61.6019 239.017C61.6543 239.327 62.1256 239.198 62.0732 238.889C60.6593 230.231 59.4026 221.358 56.0162 213.201C53.7412 207.723 49.5985 201.953 43.1808 201.411C38.3922 201.008 33.6677 204.141 32.6146 208.908C31.5032 213.931 33.6095 219.356 35.7332 223.82C38.3341 229.298 41.732 234.426 45.4558 239.198C45.578 239.35 45.8573 239.134 45.7351 238.971Z" fill="#ADBBF9"/>
<path d="M40.1846 201.959L55.0215 239.087" stroke="#ADBBF9" stroke-miterlimit="10" stroke-linejoin="round"/>
<path d="M119.17 238.948C101.93 207.583 90.7874 176.493 104.705 161.721C118.489 147.084 132.913 164.428 136.421 179.795C140.721 198.616 141.344 218.995 141.256 238.948" fill="white"/>
<path d="M119.17 238.948C101.93 207.583 90.7874 176.493 104.705 161.721C118.489 147.084 132.913 164.428 136.421 179.795C140.721 198.616 141.344 218.995 141.256 238.948" stroke="#ADBBF9" stroke-miterlimit="10" stroke-linejoin="round"/>
<path d="M109.808 157.912L130.521 238.901" stroke="#ADBBF9" stroke-miterlimit="10" stroke-linejoin="round"/>
<path d="M93.2944 239.046C86.4461 222.454 71.0389 188.896 81.9019 178.517C88.8491 171.884 101.399 180.017 107.852 194.515C113.985 208.283 115.823 222.454 119.501 238.848" fill="white"/>
<path d="M93.4699 239C90.2174 231.025 86.7904 223.131 83.9335 215.004C81.0651 206.848 78.1966 198.016 78.3711 189.264C78.4351 186.05 78.9995 182.625 80.9371 179.976C83.1713 176.931 86.7671 175.84 90.3687 176.762C94.5987 177.847 98.1887 180.887 101.011 184.107C104.857 188.494 107.434 193.716 109.494 199.141C114.346 211.942 116.296 225.617 119.269 238.918C119.339 239.228 119.81 239.099 119.74 238.79C116.912 226.113 115.01 213.12 110.64 200.845C107.37 191.651 102.145 181.137 92.6495 177.059C89.5949 175.747 86.0165 175.414 83.1073 177.281C80.4949 178.961 79.0286 181.849 78.3886 184.825C77.5973 188.523 77.8649 192.397 78.4119 196.108C79.0984 200.787 80.3319 205.372 81.7458 209.876C84.8878 219.864 89.077 229.461 93.115 239.099C93.2139 239.303 93.5572 239.216 93.4699 239Z" fill="#ADBBF9"/>
<path d="M226.939 238.953C221.126 172.182 235.271 147.789 250.748 146.698C258.079 146.179 279.549 150.415 253.628 238.912" fill="white"/>
<path d="M227.049 238.953C225.618 216.97 224.152 194.124 229.807 172.561C232.257 163.215 236.853 151.156 246.896 147.708C250.858 146.349 255.362 146.599 258.719 149.283C264.654 154.032 265.573 163.273 265.8 170.28C266.05 178.139 265.201 186.026 263.991 193.78C262.175 205.454 259.441 216.976 256.351 228.376C255.403 231.877 254.413 235.371 253.453 238.872C253.395 239.088 253.727 239.181 253.791 238.965C257.724 226.299 260.947 213.318 263.35 200.273C264.933 191.691 266.155 182.981 266.283 174.241C266.359 168.927 266.068 163.466 264.59 158.332C263.717 155.31 262.379 152.299 260.168 150.012C257.323 147.066 253.349 146.004 249.369 146.64C239.652 148.186 234.16 158.134 231.18 166.57C228.382 174.492 227.026 182.893 226.241 191.236C225.089 203.453 225.234 215.78 225.956 228.014C226.171 231.667 226.427 235.319 226.817 238.959C226.84 239.099 227.061 239.105 227.049 238.953Z" fill="#ADBBF9"/>
<path d="M253.761 146.85L240.088 238.913" stroke="#ADBBF9" stroke-miterlimit="10" stroke-linejoin="round"/>
<path fill-rule="evenodd" clip-rule="evenodd" d="M100.742 63.0804L103.594 62.361L103.979 63.9154L101.761 64.4747C102.086 65.0816 102.279 65.5124 102.342 65.7667C102.415 66.0591 102.448 66.5876 102.442 67.352L102.596 67.364C102.816 67.3831 103.017 67.4016 103.199 67.4196C103.381 67.4379 103.548 67.4548 103.7 67.4706C104.547 67.5877 105.148 67.6017 105.502 67.5125C105.773 67.444 105.987 67.2889 106.142 67.0471C106.224 66.9183 106.307 66.7455 106.391 66.5283C106.475 66.3114 106.562 66.0462 106.653 65.733L108.679 66.3565C108.48 67.3725 108.177 68.1278 107.769 68.6222C107.358 69.1312 106.786 69.478 106.053 69.6628C105.523 69.7967 104.668 69.8131 103.489 69.7121C102.333 69.5714 101.544 69.5543 101.121 69.661C100.773 69.7487 100.519 69.9007 100.357 70.1169C100.196 70.3333 100.055 70.7402 99.9345 71.3379L97.8013 70.8528C98.1547 69.7574 98.4721 69.0323 98.7535 68.6777C99.0776 68.2515 99.5682 67.915 100.225 67.6682C100.253 67.1279 100.216 66.6541 100.116 66.2472C100.007 65.8085 99.7914 65.4105 99.4682 65.0531L96.9667 65.6841L96.5825 64.1296L98.2975 63.697C97.3816 62.6246 96.816 61.653 96.6006 60.7818C96.288 59.5169 96.4955 58.3199 97.223 57.1907C97.963 56.0585 99.0091 55.3218 100.361 54.9808C101.719 54.6383 102.945 54.8053 104.038 55.4818C105.135 56.144 105.857 57.1776 106.204 58.5826L104.234 59.9405C103.972 58.8788 103.681 58.1621 103.361 57.7903C102.735 57.0501 101.904 56.8104 100.868 57.0717C100.103 57.2645 99.5369 57.6742 99.1683 58.3006C98.7982 58.9207 98.7089 59.6186 98.9006 60.3943C99.0609 61.0427 99.6252 61.8865 100.593 62.9255C100.611 62.9414 100.631 62.9616 100.654 62.9862C100.676 63.0109 100.706 63.0423 100.742 63.0804Z" fill="#E4E9F9"/>
<path fill-rule="evenodd" clip-rule="evenodd" d="M244.456 16.991L247.308 16.2716L247.692 17.8261L245.475 18.3853C245.8 18.9923 245.993 19.4231 246.056 19.6773C246.128 19.9697 246.162 20.4983 246.156 21.2627L246.31 21.2747C246.529 21.2937 246.73 21.3122 246.913 21.3303C247.095 21.3485 247.262 21.3655 247.414 21.3812C248.261 21.4984 248.862 21.5124 249.216 21.4231C249.487 21.3547 249.7 21.1995 249.856 20.9578C249.938 20.829 250.021 20.6561 250.105 20.439C250.189 20.222 250.276 19.9569 250.366 19.6437L252.393 20.2671C252.194 21.2831 251.891 22.0384 251.483 22.5329C251.072 23.0418 250.5 23.3887 249.767 23.5735C249.237 23.7073 248.382 23.7237 247.203 23.6227C246.047 23.482 245.258 23.4649 244.834 23.5717C244.487 23.6593 244.233 23.8114 244.071 24.0276C243.91 24.2439 243.769 24.6508 243.648 25.2485L241.515 24.7634C241.869 23.6681 242.186 22.943 242.467 22.5883C242.791 22.1622 243.282 21.8257 243.939 21.5788C243.967 21.0385 243.93 20.5648 243.829 20.1579C243.721 19.7192 243.505 19.3212 243.182 18.9637L240.681 19.5947L240.296 18.0402L242.011 17.6077C241.095 16.5353 240.53 15.5637 240.315 14.6925C240.002 13.4275 240.209 12.2305 240.937 11.1013C241.677 9.96916 242.723 9.23247 244.075 8.89149C245.433 8.5489 246.659 8.71589 247.752 9.39244C248.848 10.0546 249.57 11.0883 249.918 12.4932L247.948 13.8511C247.686 12.7894 247.394 12.0728 247.074 11.7009C246.449 10.9607 245.617 10.721 244.582 10.9823C243.817 11.1751 243.251 11.5849 242.882 12.2113C242.512 12.8313 242.423 13.5293 242.615 14.3049C242.775 14.9533 243.339 15.7972 244.307 16.8361C244.324 16.852 244.345 16.8722 244.367 16.8969C244.39 16.9216 244.42 16.9529 244.456 16.991Z" fill="#E4E9F9"/>
<path d="M272.677 238.959C277.419 199.275 293.385 176.4 307.808 182.607C319.608 187.683 313.522 209.776 295.136 238.93" fill="white"/>
<path d="M272.788 238.988C274.574 227.297 276.657 215.722 281.154 204.719C284.139 197.426 288.206 189.568 294.729 184.83C299.145 181.622 305.406 180.455 309.95 184.148C315.256 188.453 313.807 196.959 312.318 202.683C308.932 215.699 301.787 227.402 294.985 238.842C294.868 239.041 295.165 239.204 295.287 239.017C299.238 233.067 302.758 226.772 305.906 220.36C308.361 215.36 310.59 210.209 312.178 204.865C313.947 198.931 315.902 190.425 311.527 185.093C308.018 180.822 301.676 180.554 297.027 182.893C290.371 186.248 285.978 193.395 282.842 199.882C280.183 205.378 278.193 211.183 276.61 217.075C274.696 224.21 273.212 231.591 272.561 238.953C272.555 239.087 272.77 239.117 272.788 238.988Z" fill="#ADBBF9"/>
<g filter="url(#filter0_d_95_1697)">
<path d="M219.52 28.6043C223.318 28.6043 226.387 32.1163 226.387 36.4623V225.624C226.387 229.97 223.318 233.482 219.52 233.482H126.095C122.297 233.482 119.227 229.97 119.227 225.624V36.4623C119.227 32.1163 122.297 28.6043 126.095 28.6043H219.52ZM219.52 23.3364H126.095C119.764 23.3364 114.623 29.2189 114.623 36.4623V225.624C114.623 232.867 119.764 238.75 126.095 238.75H219.52C225.85 238.75 230.991 232.867 230.991 225.624V36.4623C230.991 29.2189 225.85 23.3364 219.52 23.3364Z" fill="url(#paint0_linear_95_1697)"/>
</g>
<path d="M137.896 30.2627V26.927H205.927V30.8881C204.972 33.0563 201.352 33.8764 199.661 34.0154C182.852 34.0848 148.161 34.1821 143.864 34.0154C139.567 33.8486 138.095 31.4441 137.896 30.2627Z" fill="url(#paint1_linear_95_1697)"/>
<path d="M307.809 182.607L284.209 238.936" stroke="#ADBBF9" stroke-miterlimit="10" stroke-linejoin="round"/>
<path d="M85.6611 176.458L106.747 239.087" stroke="#ADBBF9" stroke-miterlimit="10" stroke-linejoin="round"/>
<path d="M274.44 239.034C283.761 219.216 302.566 173.967 288.404 157.923C280.631 149.113 266.399 159.93 258.852 179.357C251.684 197.805 246.319 216.801 241.874 238.772" fill="white"/>
<path d="M274.591 239.123C279.473 228.825 283.86 218.254 287.403 207.42C291.052 196.254 294.386 184.142 293.647 172.275C293.193 165 289.748 153.204 280.258 154.715C275.121 155.537 270.815 159.586 267.627 163.442C262.949 169.107 259.929 175.723 257.363 182.555C250.515 200.787 245.505 219.631 241.63 238.708C241.566 239.018 242.043 239.152 242.101 238.837C245.412 222.536 249.531 206.399 254.96 190.67C257.491 183.343 260.022 175.875 264.095 169.247C267.173 164.242 271.217 159.143 276.564 156.447C280.712 154.359 285.262 154.61 288.404 158.273C291.354 161.716 292.617 166.307 293.065 170.735C294.211 181.995 291.22 193.646 287.927 204.316C284.261 216.177 279.519 227.694 274.283 238.942C274.184 239.152 274.492 239.333 274.591 239.123Z" fill="#ADBBF9"/>
<path d="M284.209 155.158L259.277 239.088" stroke="#ADBBF9" stroke-miterlimit="10" stroke-linejoin="round"/>
<path d="M290.9 238.96C303.189 213.978 313.86 207.368 323.879 209.363C331.67 210.915 332.886 222.455 316.42 238.942" fill="white"/>
<path d="M290.994 239.017C294.799 232.221 298.238 225.313 303.3 219.321C306.424 215.623 310.166 212.105 314.756 210.349C317.957 209.129 322.175 208.633 325.398 210.074C328.994 211.679 329.593 215.786 328.884 219.281C327.307 227.028 321.43 233.212 316.298 238.825C316.147 238.994 316.38 239.227 316.548 239.076C321.779 234.216 326.993 227.775 328.994 220.774C329.972 217.355 330.105 213.009 327.068 210.564C324.421 208.441 320.185 208.505 317.043 209.205C312.476 210.226 308.566 213.149 305.348 216.445C302.753 219.1 300.507 222.093 298.465 225.185C295.602 229.514 292.879 234.128 290.814 238.907C290.744 239.029 290.924 239.146 290.994 239.017Z" fill="#ADBBF9"/>
<path d="M322.907 209.532L304.131 238.941" stroke="#ADBBF9" stroke-miterlimit="10" stroke-linejoin="round"/>
<path d="M26.8369 239.116H351.243" stroke="#849CF4" stroke-miterlimit="10"/>
<path d="M333.368 222.881L334.381 239.531L333.84 244.77L314.04 244.665C313.539 244.665 313.138 244.257 313.138 243.755C313.138 243.382 313.37 243.043 313.72 242.909L322.552 238.837L320.556 221.51" fill="#FFCBBD"/>
<path d="M312.241 244.443C312.451 243.784 312.835 243.049 313.224 242.88L322.592 238.837C327.753 240.937 334.438 239.333 334.438 239.333L334.95 246.404C334.95 246.637 334.758 246.824 334.526 246.824L312.404 246.707C311.939 246.701 312.235 244.461 312.241 244.443Z" fill="#FF4267"/>
<path d="M320.562 239.24C321.085 239.928 321.527 240.675 321.882 241.462" stroke="#B22B19" stroke-width="0.75" stroke-miterlimit="10"/>
<path d="M319.38 239.945C319.921 240.698 320.142 241.135 320.468 241.836" stroke="#B22B19" stroke-width="0.75" stroke-miterlimit="10"/>
<path d="M318.386 240.465C318.752 240.961 319.119 241.649 319.404 242.197" stroke="#B22B19" stroke-width="0.75" stroke-miterlimit="10"/>
<path d="M334.823 245.295L312.143 245.173" stroke="#B22B19" stroke-width="0.75" stroke-miterlimit="10"/>
<path d="M334.619 241.911C334.619 241.911 329.365 241.946 328.894 245.26" stroke="#B22B19" stroke-width="0.75" stroke-miterlimit="10"/>
<path d="M315.139 242.052C315.139 242.052 316.651 244.21 316.948 245.202" stroke="#B22B19" stroke-width="0.75" stroke-miterlimit="10"/>
<path d="M317.811 158.892C317.811 158.892 314.966 182.328 316.054 199.346C317.142 216.364 318.713 236.112 318.713 236.112H335.924C335.924 236.112 333.695 206.889 333.939 193.214C334.213 178.057 338.833 158.898 338.833 158.898" fill="#3629B7"/>
<path d="M332.432 236.106C332.432 236.106 330.203 206.883 330.447 193.208C330.721 178.051 335.341 158.892 335.341 158.892" stroke="#121649" stroke-width="0.75" stroke-miterlimit="10"/>
<path d="M355.98 200.576L371.939 205.722L376.757 207.822L370.671 226.713C370.52 227.192 370.008 227.454 369.531 227.297C369.176 227.18 368.926 226.859 368.902 226.48L367.704 216.807L351.133 211.405" fill="#FFCBBD"/>
<path d="M369.915 228.37C369.351 227.973 368.769 227.378 368.728 226.958L367.716 216.784C371.271 212.484 371.765 205.611 371.765 205.611L378.643 207.262C378.864 207.332 378.986 207.572 378.916 207.793L372.115 228.901C371.969 229.339 369.933 228.382 369.915 228.37Z" fill="#FF4267"/>
<path d="M367.482 218.843C368.291 218.551 369.141 218.353 369.996 218.254" stroke="#B22B19" stroke-width="0.75" stroke-miterlimit="10"/>
<path d="M367.797 220.186C368.681 219.893 369.158 219.817 369.921 219.718" stroke="#B22B19" stroke-width="0.75" stroke-miterlimit="10"/>
<path d="M367.989 221.294C368.571 221.09 369.339 220.955 369.944 220.844" stroke="#B22B19" stroke-width="0.75" stroke-miterlimit="10"/>
<path d="M377.554 207.046L370.578 228.679" stroke="#B22B19" stroke-width="0.75" stroke-miterlimit="10"/>
<path d="M374.279 206.218C374.279 206.218 372.725 211.247 375.734 212.7" stroke="#B22B19" stroke-width="0.75" stroke-miterlimit="10"/>
<path d="M368.518 224.87C368.518 224.87 371.025 224.076 372.061 224.094" stroke="#B22B19" stroke-width="0.75" stroke-miterlimit="10"/>
<path d="M345.832 159.645C345.832 159.645 347.38 166.307 347.38 169.166C347.38 171.266 346.548 172.695 346.106 174.23C345.914 174.889 345.809 175.56 345.78 176.243C345.646 179.305 345.472 187.905 347.386 191.995C349.737 197.018 369.31 203.686 369.31 203.686L364.347 218.674C364.347 218.674 334.382 211.125 330.646 201.93C325.433 189.101 326.923 159.65 326.923 159.65" fill="#3629B7"/>
<path d="M334.254 206.218C332.526 204.847 331.24 203.406 330.64 201.924C325.427 189.095 326.917 159.645 326.917 159.645" stroke="#121649" stroke-width="0.75" stroke-miterlimit="10"/>
<path d="M343.289 159.09C343.289 159.09 345.046 167.474 345.046 170.332C345.046 172.474 344.179 173.979 343.743 175.484C343.568 176.091 343.464 176.715 343.423 177.351C343.237 180.379 342.905 189.147 345.046 193.167C348.008 198.733 368.512 206.06 368.512 206.06" stroke="#121649" stroke-width="0.75" stroke-miterlimit="10"/>
<path d="M324.473 161.284C324.473 161.284 324.211 167.334 325.055 168.057C325.898 168.781 326.719 169.265 326.719 169.265" stroke="#121649" stroke-width="0.75" stroke-miterlimit="10"/>
<path d="M366.837 202.8L361.373 217.863" stroke="#121649" stroke-width="0.75" stroke-miterlimit="10"/>
<path d="M318.479 233.137H335.708" stroke="#121649" stroke-width="0.75" stroke-miterlimit="10"/>
<path d="M338.57 160.105C338.57 160.105 339.641 163.968 344.424 165.105" stroke="#121649" stroke-width="0.75" stroke-miterlimit="10"/>
<path d="M317.258 164.434C317.258 164.434 321.575 163.168 322.902 160.111" stroke="#121649" stroke-width="0.75" stroke-miterlimit="10"/>
<path d="M327.672 113.374L326.899 118.806C326.899 118.806 326.829 120.311 329.75 121.355C333.281 122.627 335.428 119.897 335.428 119.897L335.196 114.401" fill="#FFCBBB"/>
<path d="M327.241 106.175C327.241 106.175 323.488 112.464 326.095 114.979C328.457 117.26 333.653 115.83 334.13 115.031C334.602 114.232 337.563 107.208 335.946 106.239C333.06 104.518 328.847 103.468 327.241 106.175Z" fill="#FFCBBB"/>
<path d="M327.277 116.152C327.277 116.152 329.82 116.97 332.171 115.941" stroke="#EF977F" stroke-miterlimit="10"/>
<path d="M326.614 102.085C327.109 98.369 331.6 101.152 333.427 102.844C333.974 103.351 337.18 104.296 337.704 104.833C338.228 105.37 338.646 106.029 338.786 106.77C338.908 107.418 338.804 108.083 338.646 108.719C338.367 109.868 337.913 110.965 337.465 112.056C336.977 113.246 336.098 115.615 334.405 115.37C334.079 115.323 333.718 115.259 333.503 115.008C333.288 114.757 333.282 114.395 333.317 114.069C333.375 113.538 333.538 113.018 333.782 112.546C333.433 112.639 333.072 112.855 332.735 112.721C332.624 112.674 332.572 112.569 332.508 112.464C332.287 112.103 332.555 109.699 333.672 108.754C332.06 107.989 330.797 107.919 329.157 107.225C327.836 106.665 327.266 105.988 326.794 105.352C326.108 104.442 326.463 103.211 326.614 102.085Z" fill="#4A1A1A"/>
<path d="M333.38 112.33C333.793 111.752 334.421 111.087 335.027 111.694C335.242 111.91 335.3 112.266 335.323 112.61C335.399 113.742 334.253 115.189 333.258 114.792C332.769 114.599 332.635 113.934 332.548 113.386" fill="#FFCBBB"/>
<path d="M328.069 108.952C328.069 108.952 326.445 110.55 326.445 111.093C326.445 111.636 327.661 111.974 327.661 111.974" stroke="#F7A794" stroke-width="0.5" stroke-miterlimit="10"/>
<path d="M325.834 112.167L328.743 113.257C328.743 113.257 328.068 114.984 326.323 114.191C325.078 113.625 325.834 112.167 325.834 112.167Z" fill="white"/>
<path d="M326.835 108.059C326.748 108.188 326.666 108.316 326.591 108.456C326.445 108.719 326.852 108.952 326.986 108.69C327.068 108.538 327.137 108.38 327.201 108.217C327.289 107.984 326.957 107.884 326.835 108.059Z" fill="#212237"/>
<path d="M328.086 107.506C328.086 107.506 327.725 106.694 326.858 107.074" stroke="#212237" stroke-width="0.5" stroke-miterlimit="10" stroke-linecap="round" stroke-linejoin="round"/>
<path d="M330.466 109.81C330.385 109.944 330.315 110.078 330.245 110.218C330.117 110.486 330.525 110.72 330.641 110.451C330.711 110.294 330.775 110.13 330.833 109.967C330.903 109.739 330.583 109.617 330.466 109.81Z" fill="#212237"/>
<path d="M330.588 108.468C330.588 108.468 331.472 108.368 332.112 109.535" stroke="#212237" stroke-width="0.5" stroke-miterlimit="10" stroke-linecap="round" stroke-linejoin="round"/>
<path d="M315.088 89.6C314.849 86.4438 315.274 77.5118 314.721 77.2784C314.169 77.045 313.942 80.0671 313.523 79.7929C313.104 79.5128 313.139 74.8339 312.528 74.7464C311.696 74.6297 311.917 79.4195 311.917 79.4195C311.917 79.4195 311.416 74.1805 310.66 74.2855C310.131 74.3613 310.328 78.3752 310.212 79.9212C310.125 78.2293 309.63 75.0848 309.077 75.1781C308.531 75.2656 308.635 78.4277 308.589 80.528C308.496 79.2153 308.234 76.3449 307.722 76.4033C307.21 76.4616 307.053 83.9234 307.047 90.2126" fill="#FFCBBD"/>
<path d="M314.297 121.198C314.297 121.198 310.916 114.103 308.804 105.836C306.692 97.5635 307.064 86.8113 307.064 86.8113L315.001 88.1531C315.001 88.1531 315.361 103.164 324.397 118.065" fill="#FFCBBD"/>
<path d="M308.699 80.8899C309.351 81.8875 310.218 83.0602 310.177 85.0088" stroke="#F7A794" stroke-miterlimit="10"/>
<path d="M313.458 80.5105C312.696 81.1931 311.87 83.0308 312.265 83.976" stroke="#F7A794" stroke-miterlimit="10"/>
<path d="M327.01 118.036C324.648 118.036 320.964 110.463 320.964 110.463L311.48 117.534C311.48 117.534 314.512 126.991 319.65 132.983" fill="#FF4267"/>
<path d="M321.755 111.974L312.091 119.249" stroke="#B22B19" stroke-width="0.75" stroke-miterlimit="10"/>
<path opacity="0.3" d="M348.705 77.3436L318.261 95.9551C316.547 95.0988 314.983 94.0214 313.598 92.7696L348.079 71.9814C348.512 73.7126 348.728 75.5129 348.705 77.3436Z" fill="white"/>
<path opacity="0.3" d="M341.212 60.9588L307.105 81.5437C307.012 81.115 306.932 80.6832 306.867 80.248L340.015 60.019C340.426 60.3188 340.826 60.6316 341.212 60.9588Z" fill="white"/>
<path opacity="0.3" d="M346.227 67.1734L310.33 89.0299C310.045 88.613 309.774 88.1858 309.52 87.7487L345.504 65.9209C345.76 66.3301 346 66.7474 346.227 67.1734Z" fill="white"/>
<path opacity="0.2" d="M343.989 80.6304L323.056 93.2977C321.122 92.7458 319.358 91.8708 317.81 90.7442L343.734 75.0554C344.122 76.8541 344.22 78.7333 343.989 80.6304Z" fill="#FBE6A1"/>
<path opacity="0.2" d="M335.962 64.1532L310.998 79.2588C310.928 78.7306 310.884 78.1939 310.866 77.6569L334.488 63.3618C334.994 63.601 335.487 63.866 335.962 64.1532Z" fill="#FBE6A1"/>
<path opacity="0.2" d="M341.664 69.8591L313.857 86.6871C313.584 86.2927 313.329 85.8881 313.089 85.47L340.868 68.6592C341.149 69.0463 341.415 69.4464 341.664 69.8591Z" fill="#FBE6A1"/>
<path d="M348.087 82.1511C345.301 93.4537 333.902 100.354 322.623 97.5615C321.082 97.1797 319.623 96.6373 318.26 95.955C316.545 95.0987 314.982 94.0213 313.596 92.7695C312.359 91.6523 311.264 90.3945 310.33 89.0298C310.044 88.6129 309.773 88.1857 309.519 87.7487C308.398 85.8317 307.578 83.7382 307.104 81.5439C307.012 81.1152 306.932 80.6835 306.867 80.2483C306.464 77.5903 306.565 74.8098 307.249 72.0382C307.311 71.7849 307.379 71.5328 307.453 71.2822C310.548 60.4293 321.69 53.8981 332.713 56.6275C335.426 57.2991 337.884 58.4708 340.014 60.0189C340.426 60.3183 340.825 60.6311 341.212 60.9583C342.901 62.3848 344.346 64.063 345.504 65.92C345.759 66.3293 346 66.7465 346.227 67.1726C347.034 68.6871 347.658 70.3012 348.078 71.9806C348.511 73.7118 348.727 75.512 348.704 77.3428C348.687 78.6796 348.542 80.0324 348.259 81.3868C348.208 81.6435 348.15 81.8983 348.087 82.1511Z" fill="#FDD462"/>
<path d="M343.989 81.1369C343.927 81.3879 343.859 81.6373 343.788 81.8837C341.257 90.4596 332.385 95.62 323.636 93.4536C314.887 91.2873 309.435 82.5798 311.179 73.8086C311.231 73.5576 311.286 73.3047 311.348 73.0538C313.571 64.0335 322.701 58.5085 331.701 60.737C340.7 62.9652 346.213 72.1163 343.989 81.1369Z" fill="#F37E00"/>
<path d="M343.789 81.8836C341.257 90.4595 332.386 95.62 323.637 93.4536C323.441 93.4051 323.249 93.3525 323.057 93.2976C321.122 92.7457 319.359 91.8707 317.81 90.7441C316.261 89.617 314.928 88.2409 313.857 86.687C313.584 86.2927 313.329 85.888 313.089 85.47C312.005 83.5717 311.283 81.4652 310.998 79.2588C310.927 78.7305 310.883 78.1939 310.866 77.6569C310.821 76.3887 310.924 75.0992 311.179 73.8089C313.711 65.233 322.582 60.0703 331.331 62.2366C332.438 62.5109 333.492 62.8904 334.487 63.3622C334.994 63.6013 335.486 63.8664 335.962 64.1536C337.903 65.3245 339.562 66.8665 340.867 68.6595C341.149 69.0466 341.415 69.4467 341.663 69.8594C342.63 71.4552 343.335 73.2112 343.734 75.0557C344.122 76.854 344.219 78.7332 343.988 80.6307C343.939 81.0468 343.872 81.466 343.789 81.8836Z" fill="#F7A219"/>
<path d="M327.65 86.9378L326.981 89.6557L323.536 88.8029L324.176 86.2075C321.769 85.4557 319.563 84.2077 318.32 82.9388L321.215 79.1869C322.592 80.5409 324.591 81.6855 326.472 82.1512C328.108 82.5566 328.779 82.3591 328.924 81.7713C329.455 79.6168 319.573 79.0141 321.148 72.6233C321.83 69.8566 324.406 68.0266 328.551 68.4553L329.209 65.7866L332.654 66.6394L332.008 69.2593C333.774 69.8783 335.418 70.7792 336.617 71.9074L333.851 75.6646C332.376 74.3904 330.891 73.581 329.401 73.2118C327.715 72.7946 327.057 73.1512 326.912 73.7385C326.405 75.7955 336.281 76.4225 334.724 82.7393C334.073 85.3848 331.6 87.2144 327.65 86.9378Z" fill="#F37E00"/>
<path d="M327.772 86.0088L327.103 88.7267L323.658 87.8739L324.298 85.2784C321.891 84.5266 319.685 83.2787 318.442 82.0097L321.337 78.2578C322.714 79.6122 324.713 80.7564 326.594 81.2221C328.23 81.6276 328.901 81.4296 329.046 80.8423C329.577 78.6877 319.695 78.0851 321.27 71.6946C321.952 68.9279 324.528 67.0979 328.674 67.5266L329.331 64.8579L332.776 65.7107L332.13 68.3306C333.896 68.9496 335.54 69.8505 336.739 70.9787L333.973 74.7363C332.499 73.462 331.013 72.6527 329.523 72.2835C327.837 71.8662 327.179 72.2229 327.034 72.8102C326.527 74.8671 336.404 75.4942 334.846 81.8114C334.195 84.4557 331.722 86.2853 327.772 86.0088Z" fill="#FDD462"/>
<path d="M258.433 61.9816L259.15 63.6109L257.085 64.5241L256.401 62.9682C254.898 63.5279 253.304 63.7596 252.186 63.6051L252.189 60.5882C253.407 60.7333 254.857 60.5302 255.984 60.0316C256.965 59.5978 257.226 59.2366 257.072 58.8844C256.504 57.5928 251.295 61.1412 249.611 57.3104C248.882 55.6518 249.469 53.7264 251.722 52.3266L251.019 50.7268L253.083 49.8136L253.774 51.3841C254.903 51.0075 256.079 50.8203 257.12 50.9207L257.185 53.8905C255.948 53.8236 254.887 53.9952 253.994 54.3902C252.983 54.8372 252.79 55.2731 252.945 55.6253C253.487 56.8583 258.702 53.3246 260.367 57.1116C261.064 58.6967 260.529 60.5815 258.433 61.9816Z" fill="#E4E9F9"/>
<path d="M142.065 14.142L142.782 15.7713L140.717 16.6845L140.033 15.1286C138.53 15.6883 136.936 15.92 135.818 15.7655L135.821 12.7486C137.039 12.8937 138.489 12.6906 139.616 12.192C140.597 11.7582 140.858 11.397 140.703 11.0448C140.136 9.75321 134.927 13.3016 133.243 9.47078C132.513 7.81225 133.101 5.88682 135.354 4.48704L134.65 2.8872L136.715 1.97397L137.406 3.54448C138.534 3.16792 139.711 2.9807 140.752 3.08114L140.816 6.05094C139.58 5.98405 138.519 6.15564 137.625 6.55059C136.615 6.99757 136.422 7.43353 136.577 7.78571C137.119 9.0187 142.334 5.48501 143.999 9.27196C144.696 10.8571 144.16 12.7419 142.065 14.142Z" fill="#E4E9F9"/>
<path d="M193.917 97.7918C193.453 109.423 183.668 118.469 172.058 117.993C170.472 117.928 168.934 117.689 167.461 117.294C165.61 116.799 163.862 116.057 162.254 115.108C160.818 114.261 159.493 113.248 158.304 112.099C157.941 111.748 157.59 111.383 157.253 111.006C155.771 109.353 154.547 107.466 153.644 105.411C153.467 105.01 153.302 104.603 153.151 104.19C152.224 101.666 151.766 98.922 151.88 96.0695C151.89 95.8089 151.906 95.5484 151.928 95.2881C152.785 84.035 162.392 75.4031 173.739 75.8676C176.531 75.9819 179.174 76.6371 181.572 77.7268C182.035 77.9377 182.489 78.164 182.933 78.4071C184.874 79.466 186.626 80.8205 188.133 82.4079C188.465 82.7577 188.784 83.1182 189.092 83.4901C190.186 84.8122 191.121 86.2685 191.869 87.8296C192.64 89.4388 193.213 91.1591 193.557 92.9574C193.808 94.2705 193.938 95.625 193.932 97.0085C193.933 97.2703 193.927 97.5316 193.917 97.7918Z" fill="#FDD462"/>
<path d="M189.698 97.6194C189.687 97.8777 189.67 98.1359 189.651 98.3913C188.889 107.301 181.233 114.134 172.227 113.766C163.221 113.397 156.134 105.959 156.085 97.0161C156.085 96.7598 156.089 96.501 156.099 96.2427C156.469 86.9599 164.307 79.717 173.57 80.0965C182.834 80.4757 190.068 88.3362 189.698 97.6194Z" fill="#F37E00"/>
<path d="M189.65 98.3915C188.889 107.301 181.232 114.135 172.227 113.766C172.025 113.758 171.826 113.745 171.627 113.729C169.621 113.576 167.718 113.073 165.975 112.279C164.232 111.485 162.65 110.404 161.289 109.097C160.943 108.765 160.611 108.42 160.292 108.058C158.85 106.416 157.72 104.497 156.999 102.392C156.824 101.889 156.673 101.372 156.548 100.849C156.25 99.616 156.092 98.3321 156.084 97.0168C156.846 88.1074 164.502 81.2714 173.508 81.6402C174.647 81.6871 175.755 81.8476 176.825 82.1103C177.369 82.2431 177.905 82.404 178.429 82.5901C180.565 83.3481 182.5 84.5263 184.137 86.0214C184.491 86.3442 184.832 86.6828 185.158 87.0373C186.425 88.4069 187.468 89.986 188.228 91.7132C188.969 93.3973 189.441 95.2188 189.595 97.1241C189.63 97.5415 189.648 97.9657 189.65 98.3915Z" fill="#F7A219"/>
<path d="M174.854 106.578L174.742 109.375L171.197 109.229L171.303 106.558C168.795 106.304 166.383 105.524 164.912 104.53L166.995 100.274C168.616 101.324 170.803 102.045 172.739 102.124C174.424 102.193 175.042 101.865 175.066 101.261C175.155 99.0433 165.352 100.434 165.614 93.8568C165.728 91.0095 167.885 88.7003 172.032 88.2895L172.142 85.543L175.687 85.6882L175.58 88.3843C177.434 88.6369 179.225 89.19 180.626 90.0549L178.669 94.2903C176.969 93.3375 175.351 92.8422 173.818 92.7792C172.082 92.7083 171.509 93.1895 171.485 93.794C171.401 95.9108 181.202 94.5456 180.943 101.046C180.834 103.769 178.779 106.057 174.854 106.578Z" fill="#F37E00"/>
<path d="M174.787 105.643L174.676 108.44L171.13 108.294L171.237 105.623C168.728 105.369 166.317 104.589 164.845 103.595L166.929 99.3388C168.549 100.39 170.737 101.11 172.673 101.189C174.358 101.259 174.975 100.93 175 100.326C175.088 98.1083 165.286 99.4987 165.548 92.9222C165.661 90.075 167.819 87.7657 171.966 87.3549L172.075 84.6085L175.621 84.7536L175.513 87.4497C177.367 87.7023 179.158 88.2554 180.56 89.1203L178.602 93.3562C176.903 92.4032 175.285 91.908 173.751 91.845C172.016 91.7741 171.443 92.2553 171.419 92.8599C171.334 94.9766 181.136 93.6114 180.876 100.113C180.768 102.834 178.712 105.122 174.787 105.643Z" fill="#FDD462"/>
<path d="M351.54 85.7378C351.034 82.2665 349.713 74.0871 349.131 73.9529C348.549 73.8187 348.305 75.7673 348.543 76.5607C348.171 75.073 347.147 71.8234 346.53 71.8468C345.692 71.876 346.745 76.5549 346.745 76.5549C346.745 76.5549 345.337 71.4851 344.616 71.7243C344.104 71.8935 345.006 75.8081 345.157 77.3542C344.779 75.709 343.743 72.6986 343.214 72.8853C342.69 73.0719 343.348 76.164 343.668 78.241C343.348 76.9633 342.591 74.1863 342.097 74.3321C341.602 74.478 342.888 80.8955 343.656 87.2955" fill="#FFCBBD"/>
<path d="M349.899 118.38C349.899 118.38 351.999 110.807 352.651 102.295C353.303 93.7833 351.08 83.2585 351.08 83.2585L343.493 85.9597C343.493 85.9597 345.733 100.802 339.408 117.056" fill="#FFCBBD"/>
<path d="M327.01 118.035C327.01 118.035 327.469 119.366 330.088 119.5C333.457 119.675 335.33 118.035 335.33 118.035C335.33 118.035 345.373 119.371 346.187 130.375C347.124 143.046 347.38 160.846 347.38 160.846H316.06C316.06 160.846 316.269 140.52 316.927 130.818C317.555 121.524 327.01 118.035 327.01 118.035Z" fill="#FF4267"/>
<path d="M346.164 131.764C349.94 121.916 351.284 114.401 351.284 114.401L341.23 109.518C341.23 109.518 338.839 116.21 335.336 118.03" fill="#FF4267"/>
<path d="M340.415 111.455L350.847 116.461" stroke="#B22B19" stroke-width="0.75" stroke-miterlimit="10"/>
<path d="M316.053 159.108H347.344" stroke="#B22B19" stroke-width="0.75" stroke-miterlimit="10"/>
<path d="M346.437 131.04C346.437 131.04 345.163 133.776 345.029 135.153" stroke="#B22B19" stroke-width="0.75" stroke-miterlimit="10"/>
<path d="M319.247 123.806C319.247 123.806 317.345 127.038 316.926 130.818" stroke="#B22B19" stroke-width="0.75" stroke-miterlimit="10"/>
<path d="M325.816 117.534C325.816 117.534 326.352 121.198 330.425 121.198C335.428 121.198 336.418 117.534 336.418 117.534" stroke="#B22B19" stroke-width="0.75" stroke-miterlimit="10"/>
<path d="M348.542 76.5609C348.537 76.5259 348.589 76.6192 348.606 76.6542L348.682 76.7943L348.81 77.0801C348.897 77.2727 348.961 77.4652 349.025 77.6635C349.148 78.0603 349.241 78.457 349.281 78.8829C349.153 78.7078 349.06 78.5211 348.967 78.3345C348.874 78.1478 348.81 77.9494 348.746 77.751C348.688 77.5527 348.63 77.3543 348.595 77.1443L348.542 76.8351L348.531 76.6776L348.525 76.5959C348.519 76.5842 348.531 76.4967 348.542 76.5609Z" fill="#EF977F"/>
<path d="M274.453 221.976L275 239.257L274.442 244.694L253.897 244.583C253.379 244.583 252.96 244.157 252.96 243.638C252.96 243.247 253.204 242.897 253.565 242.763L262.729 238.539L261.344 220.558" fill="#FFCBBD"/>
<path d="M252.029 244.356C252.245 243.673 252.646 242.909 253.047 242.734L262.764 238.539C268.123 240.715 275.053 239.052 275.053 239.052L275.582 246.392C275.582 246.637 275.384 246.829 275.14 246.829L252.186 246.707C251.715 246.695 252.023 244.373 252.029 244.356Z" fill="#3629B7"/>
<path d="M260.663 238.953C261.21 239.665 261.67 240.441 262.03 241.258" stroke="#121649" stroke-width="0.75" stroke-miterlimit="10"/>
<path d="M259.437 239.688C260.001 240.47 260.228 240.925 260.565 241.649" stroke="#121649" stroke-width="0.75" stroke-miterlimit="10"/>
<path d="M258.406 240.225C258.79 240.738 259.163 241.456 259.465 242.028" stroke="#121649" stroke-width="0.75" stroke-miterlimit="10"/>
<path d="M275.46 245.236L251.931 245.114" stroke="#121649" stroke-width="0.75" stroke-miterlimit="10"/>
<path d="M275.25 241.724C275.25 241.724 269.798 241.765 269.31 245.202" stroke="#121649" stroke-width="0.75" stroke-miterlimit="10"/>
<path d="M255.037 241.87C255.037 241.87 256.608 244.105 256.916 245.137" stroke="#121649" stroke-width="0.75" stroke-miterlimit="10"/>
<path d="M272.073 154.079C272.073 154.079 274.575 158.303 275.297 161.447C276.443 166.453 275.297 171.575 275.297 171.575L275.244 231.982H259.988C259.988 231.982 256.602 162.369 258.109 153.367" fill="url(#paint2_linear_95_1697)"/>
<path d="M262.316 231.982C262.316 231.982 258.929 162.369 260.436 153.367" stroke="#121649" stroke-width="0.75" stroke-miterlimit="10"/>
<path d="M257.608 215.174L264.538 231.002L266.039 236.252L246.931 243.831C246.448 244.023 245.901 243.784 245.709 243.3C245.564 242.938 245.663 242.524 245.948 242.261L252.883 234.916L244.918 218.75" fill="#FFCBBD"/>
<path d="M245.116 244.315C245.063 243.603 245.151 242.74 245.459 242.431L252.918 234.905C258.696 234.922 264.514 230.786 264.514 230.786L267.732 237.396C267.819 237.623 267.709 237.874 267.488 237.967L246.14 246.433C245.698 246.608 245.116 244.338 245.116 244.315Z" fill="#3629B7"/>
<path d="M251.121 236.083C251.889 236.538 252.605 237.086 253.251 237.711" stroke="#121649" stroke-width="0.75" stroke-miterlimit="10"/>
<path d="M250.26 237.221C251.074 237.734 251.453 238.072 252.034 238.621" stroke="#121649" stroke-width="0.75" stroke-miterlimit="10"/>
<path d="M249.497 238.102C250.044 238.44 250.661 238.959 251.144 239.379" stroke="#121649" stroke-width="0.75" stroke-miterlimit="10"/>
<path d="M267.191 236.381L245.308 245.062" stroke="#121649" stroke-width="0.75" stroke-miterlimit="10"/>
<path d="M265.69 233.201C265.69 233.201 260.645 235.272 261.471 238.65" stroke="#121649" stroke-width="0.75" stroke-miterlimit="10"/>
<path d="M246.983 240.89C246.983 240.89 249.27 242.378 249.945 243.218" stroke="#121649" stroke-width="0.75" stroke-miterlimit="10"/>
<path d="M245.773 163.921C237.936 183.238 237.796 185.28 236.505 194.708C235.178 204.38 249.672 232.857 249.672 232.857L263.578 226.702C263.578 226.702 254.356 200.647 254.949 196.166C256.049 187.922 265.533 173.862 265.533 173.862C265.533 173.862 270.036 170.286 271.02 165.537C271.997 160.788 269.844 155.812 269.844 155.812" fill="url(#paint3_linear_95_1697)"/>
<path d="M260.069 166.196C260.273 166.126 266.313 164.224 266.313 164.224" stroke="#121649" stroke-width="0.75" stroke-miterlimit="10"/>
<path d="M273.388 162.456L275.372 161.821" stroke="#121649" stroke-width="0.75" stroke-miterlimit="10"/>
<path d="M250.428 163.337C250.428 163.337 240.74 184.451 239.413 194.124C238.087 203.797 252.185 231.48 252.185 231.48" stroke="#121649" stroke-width="0.75" stroke-miterlimit="10"/>
<path d="M258.178 186.878C261.186 180.239 265.538 173.856 265.538 173.856C265.538 173.856 270.041 170.28 271.025 165.531" stroke="#121649" stroke-width="0.75" stroke-miterlimit="10"/>
<path d="M244.452 116.122L248.438 123.082C248.438 123.082 246.046 128.269 239.588 125.807L237.93 122.131L244.452 116.122Z" fill="#FFCBBD"/>
<path d="M233.857 111.414C233.857 111.414 231.896 120.667 235.312 122.318C237.086 123.175 242.055 122.644 243.231 120.748C244.103 119.336 243.76 112.668 242.695 111.857C238.622 108.765 233.857 111.414 233.857 111.414Z" fill="#FFCBBD"/>
<path d="M242.509 108.678C241.013 106.064 237.976 106.583 233.031 109.407C232.367 109.786 230.924 109.92 230.913 110.685C230.889 111.688 231.611 113.339 232.769 113.672C233.543 113.893 233.95 113.823 234.735 113.637C235.765 113.397 237.138 113.812 237.121 115.025C237.115 115.34 237.022 115.924 237.319 116.04C237.47 116.099 237.854 116.052 238.017 116.058C238.482 116.075 238.733 116.641 238.674 117.102C238.616 117.563 238.907 117.901 238.849 118.362C238.709 119.453 240.1 120.649 241.194 120.737C242.16 120.813 244.987 120.34 246.326 118.514C247.489 116.933 247.338 114.261 245.401 110.282C244.656 108.754 243.027 108.293 242.509 108.678Z" fill="#212237"/>
<path d="M237.034 116.449C237.348 114.967 238.111 114.803 238.774 115.206C239.652 115.743 239.46 117.855 239.135 118.362C238.477 119.389 237.686 119.704 237.244 118.975" fill="#FFCBBD"/>
<path d="M238.25 122.709C239.268 121.863 239.117 120.241 239.117 120.241" stroke="#E88872" stroke-width="0.5" stroke-miterlimit="10" stroke-linejoin="round"/>
<path d="M234.159 115.836C234.019 116.157 233.973 116.629 234.234 116.834C234.31 116.892 234.397 116.892 234.479 116.84C234.991 116.524 234.456 115.171 234.159 115.836Z" fill="#28364C"/>
<path d="M233.74 114.815C234.136 114.768 234.828 114.803 235.241 115.131" stroke="#28364C" stroke-width="0.75" stroke-miterlimit="10"/>
<path d="M235.44 119.243L233.95 119.191C233.95 119.191 233.892 121.028 234.59 121.063C235.364 121.11 235.44 119.243 235.44 119.243Z" fill="white"/>
<path d="M247.518 121.472C247.518 121.472 250.991 120.579 255.908 122.014C260.056 123.228 265.334 126.343 269.308 130.579C276.185 137.912 273.014 156.144 273.014 156.144L264.071 155.806C264.071 155.806 265.473 144.091 260.789 139.394C256.106 134.698 249.496 133.595 249.496 133.595" fill="#ADBBF9"/>
<path d="M209.57 147.083C206.765 147.865 198.276 148.787 198.143 149.37C198.009 149.954 200.999 149.668 200.796 150.123C200.592 150.578 196.025 151.331 196.042 151.949C196.065 152.783 200.708 151.762 200.708 151.762C200.708 151.762 198.783 152.107 199.009 152.83C199.172 153.338 199.958 153.495 201.482 153.349C200.644 153.536 200.319 153.944 200.499 154.469C200.679 154.989 201.488 154.954 202.349 154.843C201.756 154.977 201.302 155.368 201.686 155.712C202.186 156.161 205.648 155.969 211.787 154.925" fill="#FFCBBD"/>
<path d="M238.686 123.806C238.686 123.806 241.077 124.839 243.724 123.806C246.372 122.773 247.518 121.478 247.518 121.478C247.518 121.478 253.529 121.064 260.848 128.403C268.237 135.813 273.986 156.833 273.986 156.833L243.695 167.043C243.695 167.043 238.517 148.642 236.475 140.264C234.432 131.875 238.686 123.806 238.686 123.806Z" fill="#ADBBF9"/>
<path d="M260.452 126.472C266.509 133.56 273.986 156.827 273.986 156.827" stroke="#525BCE" stroke-width="0.75" stroke-miterlimit="10"/>
<path d="M238.686 123.805C234.694 125.34 231.267 129.219 229.167 133.222C225.722 139.773 223.622 144.528 223.622 144.528L206.254 147.136L207.115 156.424C207.115 156.424 218.903 156.074 228.306 154.656C234.985 153.647 240.152 139.773 240.152 139.773" fill="#ADBBF9"/>
<path d="M237.516 124.33C237.516 124.33 239.436 126.903 244.044 125.17C248.652 123.438 248.815 121.297 248.815 121.297" stroke="#525BCE" stroke-width="0.75" stroke-miterlimit="10"/>
<path d="M237.935 144.546L239.82 140.543" stroke="#525BCE" stroke-width="0.75" stroke-miterlimit="10"/>
<path d="M208.965 146.722L209.622 156.29" stroke="#525BCE" stroke-width="0.75" stroke-miterlimit="10"/>
<path d="M243.136 165.047L273.386 155.024" stroke="#525BCE" stroke-width="0.75" stroke-miterlimit="10"/>
<path d="M123.993 139.622C124.127 139.71 124.267 139.803 124.406 139.89C125.762 140.754 127.147 141.623 128.683 142.078C129.579 142.341 130.551 142.481 131.278 143.064C131.575 143.298 131.825 143.548 132.151 143.741C132.238 143.793 133.093 144.114 133.058 144.021C133.186 144.33 133.524 144.482 133.832 144.604C133.867 144.616 133.908 144.634 133.943 144.628C133.983 144.622 134.012 144.581 134.001 144.546C134.111 144.762 134.501 144.861 134.629 144.739C134.751 144.622 134.443 144.073 134.443 144.073C134.443 144.073 134.652 144.085 134.716 144.021C134.815 143.904 134.839 143.747 134.85 143.595C134.943 142.189 134.396 140.754 133.378 139.756" fill="#FFCBBD"/>
<path d="M133.663 142.527C133.663 142.767 133.803 143.012 133.896 143.233C133.995 143.472 134.099 143.7 134.222 143.933C134.28 144.038 134.425 143.963 134.402 143.857C134.35 143.583 134.257 143.332 134.134 143.076C134.035 142.866 133.931 142.621 133.733 142.492C133.704 142.469 133.663 142.492 133.663 142.527Z" fill="#F49C8E"/>
<path d="M132.208 142.58C132.726 143.146 133.244 143.683 133.697 144.301C133.744 144.365 133.866 144.33 133.837 144.243C133.616 143.478 132.854 143.012 132.307 142.481C132.237 142.417 132.144 142.51 132.208 142.58Z" fill="#F49C8E"/>
<path d="M122.83 246.818L112.49 141.016" stroke="#0E32AE" stroke-miterlimit="10"/>
<path d="M163.081 246.818L152.742 141.016H112.49" stroke="#0E32AE" stroke-miterlimit="10"/>
<path d="M142.402 246.818L152.742 141.016" stroke="#0E32AE" stroke-miterlimit="10"/>
<path d="M102.156 246.818L112.49 141.016H152.742" stroke="#0E32AE" stroke-miterlimit="10"/>
<path d="M161.422 231.83H103.616" stroke="#0E32AE" stroke-miterlimit="10"/>
<path d="M160.078 218.878H104.885" stroke="#0E32AE" stroke-miterlimit="10"/>
<path d="M159.049 205.565H106.188" stroke="#0E32AE" stroke-miterlimit="10"/>
<path d="M157.758 192.875H107.429" stroke="#0E32AE" stroke-miterlimit="10"/>
<path d="M156.512 179.62H108.667" stroke="#0E32AE" stroke-miterlimit="10"/>
<path d="M155.232 166.488H109.959" stroke="#0E32AE" stroke-miterlimit="10"/>
<path d="M153.725 154.084H111.216" stroke="#0E32AE" stroke-miterlimit="10"/>
<path d="M121.747 140.754C125.878 140.765 130.009 140.76 134.134 140.725C133.745 140.025 133.5 139.587 133.058 139.144C132.511 138.601 132.092 138.28 131.522 137.988C129.602 137.002 127.449 136.472 125.29 136.448" fill="#FFCBBD"/>
<path d="M107.33 112.207C107.33 112.207 112.979 126.973 114.387 128.21C115.801 129.447 129.254 136.156 129.254 136.156L125.128 144.907C125.128 144.907 108.941 138.426 106.62 136.156C104.298 133.887 96.9206 125.101 96.1816 116.285" fill="#FF4267"/>
<path d="M96.5486 208.704L95.9668 224.59L96.4556 229.59L115.354 229.584C115.831 229.584 116.215 229.193 116.215 228.715C116.215 228.359 115.994 228.032 115.662 227.904L107.255 223.977L108.61 207.449" fill="#FFCBBD"/>
<path d="M117.07 229.386C116.872 228.755 116.511 228.05 116.139 227.886L107.219 223.983C102.285 225.961 95.9143 224.397 95.9143 224.397L95.3906 231.142C95.3906 231.363 95.571 231.544 95.7921 231.544L116.901 231.538C117.349 231.544 117.076 229.403 117.07 229.386Z" fill="#FF4267"/>
<path d="M109.157 224.38C108.651 225.033 108.226 225.745 107.889 226.498" stroke="#B22B19" stroke-width="0.75" stroke-miterlimit="10"/>
<path d="M110.274 225.062C109.75 225.78 109.541 226.194 109.227 226.859" stroke="#B22B19" stroke-width="0.75" stroke-miterlimit="10"/>
<path d="M111.222 225.558C110.867 226.031 110.518 226.684 110.244 227.209" stroke="#B22B19" stroke-width="0.75" stroke-miterlimit="10"/>
<path d="M95.5127 230.091L117.157 230.085" stroke="#B22B19" stroke-width="0.75" stroke-miterlimit="10"/>
<path d="M95.7275 226.865C95.7275 226.865 100.737 226.924 101.174 230.092" stroke="#B22B19" stroke-width="0.75" stroke-miterlimit="10"/>
<path d="M114.312 227.087C114.312 227.087 112.857 229.135 112.566 230.086" stroke="#B22B19" stroke-width="0.75" stroke-miterlimit="10"/>
<path d="M92.3702 148.973C92.3702 148.973 90.549 157.071 94.4648 166.878C94.4648 166.878 96.3616 177.135 96.5129 188.861C96.67 200.821 95.0816 216.06 95.0816 221.754H110.628C110.628 221.754 112.537 205.547 112.706 189.211C112.898 170.916 111.35 150.263 111.35 144.93" fill="#ADBBF9"/>
<path d="M108.302 221.754C108.302 221.754 110.21 205.25 110.385 188.704C110.571 170.531 109.023 150.211 109.023 144.925" stroke="#525BCE" stroke-width="0.75" stroke-miterlimit="10"/>
<path d="M122.83 195.775L122.248 211.667L122.737 216.667L141.635 216.661C142.112 216.661 142.496 216.27 142.496 215.792C142.496 215.436 142.275 215.109 141.943 214.981L133.536 211.055L134.891 194.527" fill="#FFCBBD"/>
<path d="M143.351 216.451C143.153 215.821 142.793 215.115 142.42 214.952L133.501 211.049C128.567 213.027 122.196 211.463 122.196 211.463L121.672 218.207C121.672 218.429 121.852 218.61 122.073 218.61L143.183 218.604C143.631 218.61 143.357 216.475 143.351 216.451Z" fill="#FF4267"/>
<path d="M135.438 211.451C134.932 212.105 134.507 212.817 134.17 213.569" stroke="#B22B19" stroke-width="0.75" stroke-miterlimit="10"/>
<path d="M136.555 212.128C136.031 212.846 135.822 213.26 135.508 213.925" stroke="#B22B19" stroke-width="0.75" stroke-miterlimit="10"/>
<path d="M137.504 212.624C137.149 213.097 136.8 213.75 136.526 214.275" stroke="#B22B19" stroke-width="0.75" stroke-miterlimit="10"/>
<path d="M121.794 217.157L143.438 217.151" stroke="#B22B19" stroke-width="0.75" stroke-miterlimit="10"/>
<path d="M122.009 213.931C122.009 213.931 127.018 213.989 127.455 217.157" stroke="#B22B19" stroke-width="0.75" stroke-miterlimit="10"/>
<path d="M140.593 214.158C140.593 214.158 139.139 216.206 138.848 217.157" stroke="#B22B19" stroke-width="0.75" stroke-miterlimit="10"/>
<path d="M118.559 149.861C118.559 149.861 133.495 164.055 136.864 173.302C139.209 179.749 135.799 209.164 135.799 209.164H120.921C120.921 209.164 122.737 182.386 121.794 179.62C120.689 176.371 107.882 165.292 107.882 165.292C107.882 165.292 102.419 164.067 99.8412 158.238C97.5196 152.988 98.5902 146.617 98.5902 146.617" fill="#ADBBF9"/>
<path d="M115.067 149.861C115.067 149.861 130.55 166.272 133.372 173.302C135.513 178.64 132.307 209.164 132.307 209.164" stroke="#525BCE" stroke-width="0.75" stroke-miterlimit="10"/>
<path d="M112.391 169.329C111.216 168.261 109.185 166.43 108.568 165.881C108.173 165.531 107.719 165.257 107.219 165.082C105.683 164.545 101.871 162.807 99.8467 158.233" stroke="#525BCE" stroke-width="0.75" stroke-miterlimit="10"/>
<path d="M103.96 154.966C103.96 154.966 108.417 155.123 110.279 154.966" stroke="#525BCE" stroke-width="0.75" stroke-miterlimit="10"/>
<path d="M91.9512 154.966H95.5411" stroke="#525BCE" stroke-width="0.75" stroke-miterlimit="10"/>
<path d="M145.253 113.911C146.812 113.199 153.922 110.078 154.091 110.51C154.254 110.924 152.002 112.429 152.252 112.499C152.392 112.54 154.399 112.015 155.406 111.519C156.302 111.076 157.815 110.516 158.059 110.883C158.519 111.577 153.567 113.94 153.567 113.94C153.567 113.94 154.44 113.538 154.888 114.08C155.528 114.862 154.173 115.585 154.173 115.585C154.173 115.585 154.952 115.189 155.208 115.866C155.476 116.566 154.312 117.137 154.312 117.137C154.312 117.137 155.237 116.694 155.354 117.54C155.505 118.654 148.116 121.268 148.116 121.268" fill="#FFCBBD"/>
<path d="M109.231 106.7C109.231 106.7 107.747 107.884 105.373 107.476C102.999 107.073 102.423 105.924 102.423 105.924C102.423 105.924 96.1104 106.805 93.079 126.32C90.9495 140.03 91.6535 151.185 91.6535 151.185H120.426C120.426 151.185 121.304 121.367 119.844 115.825" fill="#FF4267"/>
<path d="M111.495 121.04C111.495 121.04 120.019 130.48 127.973 130.48C135.926 130.48 150.897 122.014 150.897 122.014L147.319 112.172L129.922 118.426C129.922 118.426 120.764 109.845 116.534 108.263C112.309 106.682 109.226 106.694 109.226 106.694" fill="#FF4267"/>
<path d="M120.659 128.31C120.659 128.31 115.306 124.214 112.723 122.295" stroke="#B22B19" stroke-width="0.75" stroke-miterlimit="10"/>
<path d="M145.661 112.773L148.937 123.082" stroke="#B22B19" stroke-width="0.75" stroke-miterlimit="10"/>
<path d="M91.5664 148.781H120.49" stroke="#B22B19" stroke-width="0.75" stroke-miterlimit="10"/>
<path d="M115.579 124.447C115.858 132.743 115.579 151.185 115.579 151.185" stroke="#B22B19" stroke-width="0.75" stroke-miterlimit="10"/>
<path d="M102.53 101.671L101.878 106.939C101.878 106.939 106.946 109.605 110.309 106.77V103.701L102.53 101.671Z" fill="#FFCBBD"/>
<path d="M109.413 93.404C109.413 93.404 115.336 100.895 113.172 103.666C112.049 105.107 108.371 104.763 106.62 103.666C105.322 102.849 101.692 98.5088 102.25 97.3945C104.368 93.159 109.413 93.404 109.413 93.404Z" fill="#FFCBBD"/>
<path d="M108.651 94.7751C108.75 97.8088 108.36 100.522 108.36 100.522L107.906 110.376C107.906 110.376 100.086 111.21 95.0879 107.727C95.0879 107.727 96.7636 97.3713 100.493 94.2325C104.037 91.2455 108.651 91.4613 110.995 93.3924C110.995 93.3924 110.67 94.2967 110.233 94.5067C109.791 94.7226 108.651 94.7751 108.651 94.7751Z" fill="#4A1A1A"/>
<path d="M109.163 99.5298C108.441 98.608 107.853 98.7539 107.533 99.2615C107.109 99.9324 107.964 101.333 108.36 101.572C109.168 102.056 109.82 102.003 109.884 101.35" fill="#FFCBBD"/>
<path d="M110.373 104.594C109.518 104.594 109.244 103.876 109.244 103.876" stroke="#E88872" stroke-width="0.5" stroke-miterlimit="10" stroke-linejoin="round"/>
<path d="M110.966 97.2021C111.216 97.4121 111.449 97.7855 111.31 98.0597C111.269 98.1356 111.193 98.1764 111.112 98.1647C110.553 98.1181 110.448 96.7704 110.966 97.2021Z" fill="#28364C"/>
<path d="M110.896 96.1812C110.338 96.1812 109.989 96.6187 109.779 97.0621" stroke="#28364C" stroke-width="0.5" stroke-miterlimit="10" stroke-linecap="round"/>
<path d="M111.42 101.07L112.735 100.644C112.735 100.644 113.253 102.266 112.636 102.476C111.961 102.71 111.42 101.07 111.42 101.07Z" fill="white"/>
<path d="M104.246 92.4764C104.77 92.3422 105.13 91.7938 105.119 91.2571C105.101 90.7145 104.752 90.2128 104.275 89.9619C103.798 89.7052 103.222 89.6819 102.704 89.8277C102.506 89.8803 102.314 89.9619 102.145 90.0844C101.471 90.5862 101.488 91.6655 101.965 92.3597C102.163 92.6398 102.431 92.8906 102.768 92.9665C103.1 93.0423 103.792 92.9257 104.188 92.6923" fill="#4A1A1A"/>
<path d="M111.594 97.1204C111.739 97.202 113.304 97.8788 113.31 98.5089C113.316 98.8648 112.449 99.2498 112.449 99.2498" fill="#FFCBBD"/>
<path d="M132.109 139.517C133.04 140.52 133.349 141.512 133.727 142.323C133.744 142.358 133.762 142.399 133.762 142.44C133.768 142.626 133.488 142.644 133.314 142.574C132.918 142.422 132.552 142.206 132.226 141.926C132.098 141.815 131.976 141.699 131.83 141.611C131.563 141.46 131.248 141.442 130.94 141.401C129.689 141.244 128.432 140.625 127.821 139.517" fill="#FFCBBD"/>
<path d="M132.11 139.517C132.75 140.112 133.209 140.882 133.564 141.676L133.838 142.259C133.855 142.329 133.902 142.393 133.884 142.492C133.867 142.597 133.768 142.679 133.698 142.702C133.547 142.755 133.424 142.737 133.291 142.702C132.86 142.545 132.47 142.317 132.127 142.026C131.958 141.874 131.824 141.74 131.644 141.67C131.469 141.6 131.26 141.571 131.045 141.541C130.608 141.489 130.172 141.39 129.759 141.221C128.944 140.894 128.194 140.311 127.827 139.511C128.298 140.246 129.043 140.736 129.84 141.011C130.242 141.139 130.655 141.238 131.074 141.279C131.289 141.302 131.516 141.32 131.743 141.407C131.976 141.495 132.156 141.67 132.313 141.798C132.622 142.072 132.988 142.294 133.372 142.44C133.448 142.469 133.547 142.475 133.605 142.452C133.634 142.44 133.634 142.434 133.634 142.434C133.64 142.428 133.616 142.387 133.611 142.358C133.518 142.16 133.442 141.956 133.36 141.757C133.046 140.958 132.656 140.188 132.11 139.517Z" fill="#E88872"/>
<path d="M33.0051 222.88L32.4814 239.531L33.0226 244.77L52.8226 244.665C53.323 244.665 53.7245 244.256 53.7245 243.755C53.7245 243.381 53.4918 243.043 53.1427 242.909L44.3103 238.837L45.6427 221.509" fill="#FFCBBD"/>
<path d="M54.6146 244.443C54.4051 243.784 54.0211 243.049 53.6312 242.88L44.2636 238.837C39.1027 240.937 32.4173 239.333 32.4173 239.333L31.9053 246.404C31.9053 246.637 32.0973 246.824 32.33 246.824L54.4516 246.707C54.9171 246.701 54.6204 244.461 54.6146 244.443Z" fill="#3629B7"/>
<path d="M46.2944 239.239C45.7708 239.928 45.3286 240.674 44.9736 241.462" stroke="#5565AA" stroke-width="0.75" stroke-miterlimit="10"/>
<path d="M47.4748 239.945C46.9336 240.698 46.7125 241.135 46.3867 241.835" stroke="#5565AA" stroke-width="0.75" stroke-miterlimit="10"/>
<path d="M48.4704 240.464C48.1038 240.96 47.7373 241.649 47.4521 242.197" stroke="#5565AA" stroke-width="0.75" stroke-miterlimit="10"/>
<path d="M32.0342 245.295L54.7086 245.172" stroke="#5565AA" stroke-width="0.75" stroke-miterlimit="10"/>
<path d="M32.2373 241.911C32.2373 241.911 37.4913 241.946 37.9626 245.26" stroke="#5565AA" stroke-width="0.75" stroke-miterlimit="10"/>
<path d="M51.7109 242.051C51.7109 242.051 50.1981 244.21 49.9014 245.202" stroke="#5565AA" stroke-width="0.75" stroke-miterlimit="10"/>
<path d="M34.8379 163.291C34.8379 163.291 45.3576 183.063 48.6974 195.501C52.0372 207.933 47.5977 235.943 47.5977 235.943H31.2247C31.2247 235.943 34.4888 205.547 30.6254 195.501C26.762 185.455 12.9258 159.026 12.9258 159.026" fill="url(#paint4_linear_95_1697)"/>
<path d="M33.4641 235.937C33.4641 235.937 36.1464 204.316 34.5172 196.504C32.8823 188.693 21.5654 170.513 21.5654 170.513" stroke="#525BCE" stroke-width="0.75" stroke-miterlimit="10"/>
<path d="M14.2463 213.616L4.57031 226.993L1.93457 231.55L18.005 243.142C18.4123 243.434 18.9767 243.34 19.2676 242.938C19.4887 242.635 19.4946 242.226 19.2909 241.911L14.5373 233.411L25.2606 219.386" fill="#FFCBBD"/>
<path d="M19.5875 244.017C19.8028 243.364 19.9249 242.535 19.7097 242.174L14.508 233.382C9.10268 232.034 4.63995 226.795 4.63995 226.795L0.0783126 232.209C-0.0555111 232.401 -0.0147822 232.664 0.177226 232.798L18.1329 245.75C18.5052 246.024 19.5817 244.041 19.5875 244.017Z" fill="#3629B7"/>
<path d="M15.9159 234.904C15.0897 235.149 14.2926 235.494 13.542 235.925" stroke="#5565AA" stroke-width="0.75" stroke-miterlimit="10"/>
<path d="M16.4509 236.17C15.5665 236.462 15.1359 236.684 14.4668 237.057" stroke="#5565AA" stroke-width="0.75" stroke-miterlimit="10"/>
<path d="M16.9568 237.18C16.3691 237.366 15.6709 237.705 15.1182 237.985" stroke="#5565AA" stroke-width="0.75" stroke-miterlimit="10"/>
<path d="M0.829102 231.392L19.2386 244.671" stroke="#5565AA" stroke-width="0.75" stroke-miterlimit="10"/>
<path d="M2.97559 228.773C2.97559 228.773 7.19976 231.9 5.64042 234.858" stroke="#5565AA" stroke-width="0.75" stroke-miterlimit="10"/>
<path d="M18.6456 240.377C18.6456 240.377 16.1554 241.228 15.335 241.853" stroke="#5565AA" stroke-width="0.75" stroke-miterlimit="10"/>
<path d="M8.60871 159.02C5.49004 167.882 8.60871 174.854 8.60871 174.854C8.60871 174.854 19.239 194.334 19.239 198.29C19.239 201.918 5.60059 222.606 5.60059 222.606L18.0695 232.658C18.0695 232.658 37.6543 211.521 37.2877 196.895C36.828 178.81 27.0124 159.02 27.0124 159.02" fill="url(#paint5_linear_95_1697)"/>
<path d="M10.936 159.604C7.81736 168.466 11.5819 174.434 11.5819 174.434C11.5819 174.434 21.5663 194.917 21.5663 198.873C21.5663 202.502 7.39844 224.053 7.39844 224.053" stroke="#525BCE" stroke-width="0.75" stroke-miterlimit="10"/>
<path d="M32.3239 212.933C35.2447 207.56 37.4092 201.854 37.2812 196.895C36.8215 178.81 27.0059 159.02 27.0059 159.02" stroke="#525BCE" stroke-width="0.75" stroke-miterlimit="10"/>
<path d="M9.91113 166.552C9.91113 166.552 15.4735 166.879 17.6554 162.392" stroke="#525BCE" stroke-width="0.75" stroke-miterlimit="10"/>
<path d="M31.2354 169.113C31.2354 169.113 32.7598 169.282 32.6143 168.524C32.4689 167.766 31.2354 163.693 31.2354 163.693" stroke="#525BCE" stroke-width="0.75" stroke-miterlimit="10"/>
<path fill-rule="evenodd" clip-rule="evenodd" d="M38.3058 112.015C38.876 115.585 38.428 118.742 35.385 119.22C32.342 119.693 28.1178 118.823 27.2916 113.736C26.7097 110.165 28.7229 106.881 31.7659 106.408C34.809 105.936 37.7356 108.444 38.3058 112.015Z" fill="#FFCBBB"/>
<path d="M35.8438 112.05C35.7798 112.377 35.8379 112.832 36.1289 112.96C36.2103 112.995 36.2976 112.977 36.3558 112.913C36.7689 112.511 35.9776 111.367 35.8438 112.05Z" fill="#28364C"/>
<path d="M34.832 111.239C35.5826 110.83 36.2983 110.871 36.9325 111.093" stroke="#28364C" stroke-width="0.5" stroke-miterlimit="10" stroke-linecap="round" stroke-linejoin="round"/>
<path d="M37.8223 115.754L35.8382 115.76C35.8382 115.76 35.7219 117.411 36.7052 117.586C37.5256 117.726 37.8223 115.754 37.8223 115.754Z" fill="white"/>
<path fill-rule="evenodd" clip-rule="evenodd" d="M33.773 123.135C33.773 123.135 31.4049 123.543 29.1764 122.936C26.5465 122.219 25.8018 121.145 25.8018 121.145L29.4441 113.52L35.0647 116.075L33.773 123.135Z" fill="#FFCBBB"/>
<path d="M34.4768 119.313C34.4768 119.313 32.0272 119.395 30.7588 118.187" stroke="#EF977F" stroke-miterlimit="10"/>
<path fill-rule="evenodd" clip-rule="evenodd" d="M37.665 111.91C37.665 111.91 39.1836 114.15 39.108 114.547C39.0324 114.944 37.9269 115.119 37.9269 115.119" fill="#FFCBBB"/>
<path d="M29.4791 116.956C29.1474 117.102 28.7518 117.16 28.4318 117.195C27.7161 117.277 26.9772 117.166 26.3371 116.834C25.1676 116.221 24.4171 114.827 24.6789 113.526C24.7196 113.316 24.7895 113.106 24.8244 112.89C24.9815 111.892 24.3996 110.941 24.2367 109.944C24.0796 108.975 24.3298 107.96 24.8767 107.143C25.4178 106.327 26.2382 105.714 27.1517 105.364C27.879 105.084 28.6762 104.985 29.2813 104.46C29.5606 104.215 29.8166 103.94 30.1366 103.742C31.6494 102.785 33.808 103.31 35.1579 104.32C35.3208 104.436 35.4779 104.57 35.6699 104.623C36.0015 104.71 36.3506 104.57 36.6881 104.64C37.9856 104.903 38.5558 106.822 38.5442 107.972C38.5384 108.31 38.4569 108.66 38.2533 108.929C37.9623 109.319 37.4678 109.506 36.9849 109.564C36.3099 109.646 35.6117 109.512 34.9484 109.71C34.4829 109.85 34.0873 110.154 33.6334 110.335C32.9411 110.615 32.1265 110.585 31.4515 110.265C31.5854 110.737 31.6843 111.239 31.6145 111.729C31.4748 112.645 30.701 113.1 29.8806 113.327C30.154 114.255 30.3751 115.416 30.0842 116.361C29.9911 116.647 29.7584 116.834 29.4791 116.956Z" fill="#14122D"/>
<path d="M30.6019 112.575C30.6019 112.575 29.8746 111.688 29.0193 112.4C27.9138 113.322 29.351 115.311 30.2296 115.638C31.1023 115.964 31.3642 114.99 31.3642 114.99" fill="#FFCBBB"/>
<path opacity="0.3" d="M60.7051 115.068L49.3363 154.08C48.9742 153.825 48.6155 153.556 48.2652 153.28L59.1603 115.198C59.675 115.137 60.1891 115.093 60.7051 115.068Z" fill="white"/>
<path opacity="0.2" d="M76.3079 127.811L69.353 151.779C67.5262 152.708 65.6044 153.282 63.6692 153.515L72.2831 123.831C73.8113 124.903 75.1756 126.234 76.3079 127.811Z" fill="#FBE6A1"/>
<path d="M60.4326 150.572C62.1432 150.718 69.8643 151.506 69.7944 151.967C69.7304 152.41 67.118 152.556 67.2169 152.795C67.3565 153.133 69.3232 153.431 70.4461 153.495C71.4411 153.554 73.0353 153.81 73.0644 154.248C73.1226 155.082 67.6533 154.697 67.6533 154.697C67.6707 154.948 73.6113 154.009 73.7335 154.703C73.9081 155.7 67.5776 156.191 67.374 156.43C67.374 156.43 72.7444 154.475 72.8782 155.216C73.0062 155.957 68.2526 157.818 66.7398 157.847C67.9791 157.591 71.6331 155.525 71.7262 156.068C71.8193 156.605 68.59 158.011 68.0664 158.098C63.7433 158.816 59.3213 158.39 59.3213 158.39" fill="#FFCBBD"/>
<path d="M33.8715 122.644C33.8715 122.644 32.2132 123.432 29.6997 122.341C26.9708 121.151 26.3948 119.786 26.3948 119.786C26.3948 119.786 11.5928 121.098 6.18164 162.275L36.4898 166.044C36.4898 166.044 38.9277 151.325 38.5379 139.417C38.2935 131.833 35.3552 125.929 33.8715 122.644Z" fill="#DD63DB"/>
<path d="M24.9756 139.126C24.9756 139.126 29.6361 154.785 42.2272 158.174C53.4451 161.19 62.1902 161.179 62.1902 161.179L63.4121 150.625C63.4121 150.625 49.7039 148.157 44.06 144.417C39.766 141.57 38.9282 132.44 37.8401 129.214C36.3331 124.733 33.8661 122.65 33.8661 122.65" fill="#DD63DB"/>
<path d="M25.1904 120.101C25.1904 120.101 26.1214 122.971 30.4386 123.916C33.5922 124.605 34.8315 123.66 34.8315 123.66" stroke="#121649" stroke-width="0.75" stroke-miterlimit="10"/>
<path d="M37.2869 156.4C37.2869 156.4 25.8072 151.086 25.1904 136.022" stroke="#121649" stroke-width="0.75" stroke-miterlimit="10"/>
<path d="M60.8632 150.111L59.3213 161.056" stroke="#121649" stroke-width="0.75" stroke-miterlimit="10"/>
<path fill-rule="evenodd" clip-rule="evenodd" d="M158.842 120.576C156.535 122.425 155.079 125.156 154.743 128.266C154.695 128.717 154.67 129.175 154.67 129.627C154.67 130.83 154.841 132.025 155.179 133.18C155.492 134.251 155.944 135.277 156.526 136.232L154.651 137.094L154.124 137.337L154.672 137.519L159.033 138.963L159.321 139.059L159.311 138.739L159.154 133.903L159.133 133.267L158.769 133.773L157.708 135.251C156.697 133.541 156.164 131.603 156.164 129.626C156.164 129.233 156.186 128.837 156.228 128.446C156.517 125.768 157.767 123.421 159.747 121.835L159.918 121.699L159.789 121.518L159.146 120.619L159.092 120.541L159.001 120.529L158.91 120.518L158.842 120.576Z" fill="#3629B7"/>
<path fill-rule="evenodd" clip-rule="evenodd" d="M186.488 139C188.795 137.151 190.251 134.421 190.587 131.31C190.635 130.86 190.66 130.402 190.66 129.949C190.66 128.747 190.489 127.551 190.151 126.396C189.838 125.325 189.386 124.3 188.804 123.344L190.679 122.482L191.206 122.239L190.658 122.058L186.297 120.613L186.009 120.518L186.019 120.837L186.176 125.674L186.197 126.309L186.561 125.803L187.622 124.325C188.633 126.035 189.165 127.973 189.165 129.95C189.165 130.343 189.144 130.74 189.102 131.13C188.813 133.808 187.563 136.156 185.583 137.741L185.412 137.878L185.541 138.058L186.183 138.958L186.238 139.035L186.329 139.047L186.42 139.059L186.488 139Z" fill="#FF4267"/>
<defs>
<filter id="filter0_d_95_1697" x="99.623" y="12.3364" width="146.368" height="245.413" filterUnits="userSpaceOnUse" color-interpolation-filters="sRGB">
<feFlood flood-opacity="0" result="BackgroundImageFix"/>
<feColorMatrix in="SourceAlpha" type="matrix" values="0 0 0 0 0 0 0 0 0 0 0 0 0 0 0 0 0 0 127 0" result="hardAlpha"/>
<feOffset dy="4"/>
<feGaussianBlur stdDeviation="7.5"/>
<feColorMatrix type="matrix" values="0 0 0 0 0 0 0 0 0 0 0 0 0 0 0 0 0 0 0.1 0"/>
<feBlend mode="normal" in2="BackgroundImageFix" result="effect1_dropShadow_95_1697"/>
<feBlend mode="normal" in="SourceGraphic" in2="effect1_dropShadow_95_1697" result="shape"/>
</filter>
<linearGradient id="paint0_linear_95_1697" x1="172.807" y1="23.3364" x2="172.807" y2="238.75" gradientUnits="userSpaceOnUse">
<stop stop-color="#E071DF"/>
<stop offset="1" stop-color="#02E4F0"/>
</linearGradient>
<linearGradient id="paint1_linear_95_1697" x1="171.912" y1="26.927" x2="171.912" y2="34.1074" gradientUnits="userSpaceOnUse">
<stop stop-color="#E071DF"/>
<stop offset="1" stop-color="#02E4F0"/>
</linearGradient>
<linearGradient id="paint2_linear_95_1697" x1="266.764" y1="153.367" x2="266.764" y2="231.982" gradientUnits="userSpaceOnUse">
<stop stop-color="#E071DF"/>
<stop offset="1" stop-color="#02E4F0"/>
</linearGradient>
<linearGradient id="paint3_linear_95_1697" x1="253.847" y1="155.812" x2="253.847" y2="232.857" gradientUnits="userSpaceOnUse">
<stop stop-color="#E071DF"/>
<stop offset="1" stop-color="#02E4F0"/>
</linearGradient>
<linearGradient id="paint4_linear_95_1697" x1="31.4339" y1="159.026" x2="31.4339" y2="235.943" gradientUnits="userSpaceOnUse">
<stop stop-color="#E071DF"/>
<stop offset="1" stop-color="#02E4F0"/>
</linearGradient>
<linearGradient id="paint5_linear_95_1697" x1="21.4467" y1="159.02" x2="21.4467" y2="232.658" gradientUnits="userSpaceOnUse">
<stop stop-color="#E071DF"/>
<stop offset="1" stop-color="#02E4F0"/>
</linearGradient>
</defs>
</svg>
