<svg width="16" height="157" viewBox="0 0 16 157" fill="none" xmlns="http://www.w3.org/2000/svg">
<path d="M8 157C12.4183 157 16 153.418 16 149C16 144.582 12.4183 141 8 141C3.58172 141 1.93129e-07 144.582 0 149C-1.93129e-07 153.418 3.58172 157 8 157ZM8.00001 16C12.4183 16 16 12.4183 16 8C16 3.58173 12.4183 1.93129e-07 8.00001 0C3.58173 -1.93129e-07 6.35643e-06 3.58173 6.16331e-06 8C5.97018e-06 12.4183 3.58173 16 8.00001 16ZM9.5 149L9.50001 8L6.50001 8L6.5 149L9.5 149Z" fill="#D9D9D9"/>
<circle cx="8" cy="77" r="8" fill="#D9D9D9"/>
<circle cx="8" cy="113" r="8" fill="#D9D9D9"/>
</svg>
