<svg width="36" height="37" viewBox="0 0 36 37" fill="none" xmlns="http://www.w3.org/2000/svg">
<path d="M23.996 6.09521H6.86118C6.35295 6.09521 5.88101 6.1153 5.44538 6.13539C1.14353 6.41662 0 8.16426 0 13.588V14.7531C0 15.8579 0.816807 16.7619 1.81513 16.7619H29.042C30.0404 16.7619 30.8572 15.8579 30.8572 14.7531V13.588C30.8572 7.6018 29.4777 6.09521 23.996 6.09521Z" fill="url(#paint0_linear_827_33067)"/>
<path d="M1.81513 21.3335C0.816807 21.3335 0 22.231 0 23.328V29.132C0 35.0757 1.3795 36.5716 6.86118 36.5716H23.996C29.3869 36.5716 30.8027 35.1355 30.8572 29.4512V23.328C30.8572 22.231 30.0404 21.3335 29.042 21.3335H1.81513ZM9.00303 31.705H5.89916C5.15496 31.705 4.53782 31.0268 4.53782 30.2091C4.53782 29.3913 5.15496 28.7132 5.89916 28.7132H9.02118C9.76538 28.7132 10.3825 29.3913 10.3825 30.2091C10.3825 31.0268 9.76539 31.705 9.00303 31.705ZM19.1496 31.705H12.9056C12.1614 31.705 11.5442 31.0268 11.5442 30.2091C11.5442 29.3913 12.1614 28.7132 12.9056 28.7132H19.1496C19.8938 28.7132 20.5109 29.3913 20.5109 30.2091C20.5109 31.0268 19.9119 31.705 19.1496 31.705Z" fill="url(#paint1_linear_827_33067)"/>
<path d="M36.0002 20.4171V9.42161C36.0002 2.85376 32.844 0 28.0832 0H12.3375C10.9974 0 9.79844 0.230819 8.7405 0.713441C7.91178 1.07016 7.17122 1.59475 6.57172 2.28721C6.25433 2.64393 6.50119 3.23147 6.95963 3.23147H26.126C30.0933 3.23147 33.3024 7.05047 33.3024 11.7718V26.8171C33.3024 27.3416 33.7785 27.6354 34.0959 27.2577C35.3125 25.7259 36.0002 23.4807 36.0002 20.4171Z" fill="url(#paint2_linear_827_33067)"/>
<defs>
<linearGradient id="paint0_linear_827_33067" x1="15.4286" y1="6.09521" x2="15.4286" y2="16.7619" gradientUnits="userSpaceOnUse">
<stop stop-color="#DA5ED8"/>
<stop offset="0.5" stop-color="#B854B7"/>
<stop offset="1"/>
</linearGradient>
<linearGradient id="paint1_linear_827_33067" x1="15.4286" y1="21.3335" x2="15.4286" y2="36.5716" gradientUnits="userSpaceOnUse">
<stop stop-color="#DA5ED8"/>
<stop offset="0.5" stop-color="#B854B7"/>
<stop offset="1"/>
</linearGradient>
<linearGradient id="paint2_linear_827_33067" x1="21.2144" y1="0" x2="21.2144" y2="27.4285" gradientUnits="userSpaceOnUse">
<stop stop-color="#DA5ED8"/>
<stop offset="0.5" stop-color="#B854B7"/>
<stop offset="1"/>
</linearGradient>
</defs>
</svg>
