<svg width="29" height="26" viewBox="0 0 29 26" fill="none" xmlns="http://www.w3.org/2000/svg">
<g clip-path="url(#clip0_849_10180)">
<path d="M3.13965 12.7104C3.13965 11.7982 3.26895 10.9144 3.51109 10.0696C4.16048 10.1003 4.80666 9.96919 5.3782 9.69089C5.94974 9.41259 6.42439 8.99792 6.74966 8.4927C7.07494 7.98748 7.23817 7.41141 7.22133 6.82815C7.20448 6.24489 7.00821 5.67718 6.65421 5.18775C8.07525 3.93334 9.82883 3.02417 11.7497 2.5459C12.0448 3.06633 12.4945 3.50336 13.0493 3.80862C13.604 4.11388 14.2421 4.27545 14.8929 4.27545C15.5436 4.27545 16.1817 4.11388 16.7364 3.80862C17.2912 3.50336 17.741 3.06633 18.036 2.5459C19.9569 3.02417 21.7105 3.93334 23.1315 5.18775C22.7771 5.67726 22.5805 6.2452 22.5636 6.82872C22.5466 7.41225 22.7099 7.98861 23.0353 8.49404C23.3608 8.99947 23.8358 9.41426 24.4077 9.69252C24.9796 9.97079 25.6261 10.1017 26.2758 10.0707C26.5179 10.9144 26.6472 11.7982 26.6472 12.7104C26.6472 13.6227 26.5179 14.5065 26.2758 15.3512C25.6263 15.3204 24.98 15.4513 24.4083 15.7296C23.8365 16.0078 23.3617 16.4224 23.0363 16.9277C22.7109 17.4329 22.5475 18.0091 22.5643 18.5925C22.5811 19.1758 22.7774 19.7436 23.1315 20.2331C21.7105 21.4875 19.9569 22.3967 18.036 22.875C17.741 22.3546 17.2912 21.9175 16.7364 21.6123C16.1817 21.307 15.5436 21.1454 14.8929 21.1454C14.2421 21.1454 13.604 21.307 13.0493 21.6123C12.4945 21.9175 12.0448 22.3546 11.7497 22.875C9.82883 22.3967 8.07525 21.4875 6.65421 20.2331C7.00861 19.7436 7.20517 19.1757 7.22214 18.5922C7.23912 18.0086 7.07584 17.4323 6.75037 16.9269C6.42491 16.4214 5.94995 16.0066 5.37804 15.7284C4.80614 15.4501 4.15958 15.3192 3.50991 15.3502C3.26895 14.5075 3.13965 13.6238 3.13965 12.7104ZM8.78646 15.8743C9.52698 17.0249 9.73856 18.3485 9.4494 19.5909C9.92898 19.8967 10.4391 20.1614 10.9739 20.3818C12.0514 19.5158 13.4474 19.0373 14.894 19.0382C16.3751 19.0382 17.7598 19.535 18.8141 20.3818C19.3489 20.1614 19.8591 19.8967 20.3387 19.5909C20.0418 18.321 20.2779 16.9976 21.0016 15.8743C21.7241 14.7505 22.8835 13.9055 24.2576 13.5014C24.3119 12.9752 24.3119 12.4457 24.2576 11.9195C22.8831 11.5156 21.7232 10.6706 21.0004 9.54655C20.2767 8.42329 20.0406 7.09984 20.3375 5.83002C19.858 5.5241 19.3476 5.25928 18.8129 5.03905C17.7358 5.90483 16.3402 6.38329 14.894 6.38265C13.4474 6.38355 12.0514 5.90507 10.9739 5.03905C10.4393 5.25928 9.92885 5.5241 9.4494 5.83002C9.74628 7.09984 9.5102 8.42329 8.78646 9.54655C8.064 10.6704 6.90456 11.5154 5.53049 11.9195C5.47613 12.4457 5.47613 12.9752 5.53049 13.5014C6.90499 13.9053 8.06489 14.7503 8.78763 15.8743H8.78646ZM14.894 15.8743C13.9588 15.8743 13.0619 15.541 12.4006 14.9477C11.7392 14.3543 11.3677 13.5496 11.3677 12.7104C11.3677 11.8713 11.7392 11.0666 12.4006 10.4732C13.0619 9.87988 13.9588 9.54655 14.894 9.54655C15.8293 9.54655 16.7262 9.87988 17.3875 10.4732C18.0488 11.0666 18.4203 11.8713 18.4203 12.7104C18.4203 13.5496 18.0488 14.3543 17.3875 14.9477C16.7262 15.541 15.8293 15.8743 14.894 15.8743ZM14.894 13.7651C15.2058 13.7651 15.5048 13.654 15.7252 13.4562C15.9456 13.2584 16.0695 12.9901 16.0695 12.7104C16.0695 12.4307 15.9456 12.1625 15.7252 11.9647C15.5048 11.7669 15.2058 11.6558 14.894 11.6558C14.5823 11.6558 14.2833 11.7669 14.0629 11.9647C13.8424 12.1625 13.7186 12.4307 13.7186 12.7104C13.7186 12.9901 13.8424 13.2584 14.0629 13.4562C14.2833 13.654 14.5823 13.7651 14.894 13.7651Z" fill="black"/>
</g>
<defs>
<clipPath id="clip0_849_10180">
<rect width="28.2105" height="25.3112" fill="white" transform="translate(0.789062 0.0546875)"/>
</clipPath>
</defs>
</svg>
