<svg width="398" height="105" viewBox="0 0 398 105" fill="none" xmlns="http://www.w3.org/2000/svg">
<g opacity="0.7">
<line x1="270.988" y1="0.476563" x2="270.988" y2="104.616" stroke="url(#paint0_radial_765_8283)" stroke-width="2" stroke-dasharray="2 2"/>
</g>
<path d="M2.03601 27.9701L0 33.4491V104.616H398V69.9135L395.231 68.5001C392.462 67.0868 386.924 64.2601 381.386 64.5007C375.848 64.7414 370.31 68.0493 364.772 65.1062C359.234 62.163 353.696 52.9688 348.158 59.0069C342.62 65.0449 337.082 86.3153 331.544 85.253C326.006 84.1908 320.468 60.7958 314.931 49.9205C309.393 39.0451 303.855 40.6893 298.317 40.3053C292.779 39.9212 287.241 37.5089 281.703 34.2154C276.165 30.9219 270.627 26.7472 265.089 22.9836C259.551 19.2201 254.013 15.8678 248.475 26.1204C242.937 36.3731 237.399 60.2308 231.861 60.535C226.323 60.8391 220.785 37.5897 215.247 35.0153C209.709 32.4409 204.171 50.5415 198.633 61.038C193.096 71.5345 187.558 74.4269 182.02 77.7204C176.482 81.0139 170.944 84.7084 165.406 74.2349C159.868 63.7614 154.33 39.1198 148.792 37.639C143.254 36.1582 137.716 57.8383 132.178 66.8495C126.64 75.8608 121.102 72.2032 115.564 66.3471C110.026 60.491 104.488 52.4363 98.9502 46.0218C93.4123 39.6073 87.8743 34.8328 82.3364 39.0629C76.7984 43.293 71.2605 56.5277 65.7225 59.092C60.1845 61.6563 54.6466 53.5503 49.1086 43.3329C43.5707 33.1156 38.0327 20.7868 32.4948 13.4415C26.9568 6.09611 21.4189 3.73415 15.8809 7.87276C10.3429 12.0114 4.80499 22.6506 2.03601 27.9701Z" fill="url(#paint1_linear_765_8283)"/>
<path d="M277.299 26.2431C277.299 29.7333 274.181 32.832 269.989 32.832C265.797 32.832 262.679 29.7333 262.679 26.2431C262.679 22.753 265.797 19.6543 269.989 19.6543C274.181 19.6543 277.299 22.753 277.299 26.2431Z" fill="#CE2ACD" stroke="#FFDBFF" stroke-width="4"/>
<defs>
<radialGradient id="paint0_radial_765_8283" cx="0" cy="0" r="1" gradientUnits="userSpaceOnUse" gradientTransform="translate(269.988 42.8839) rotate(90) scale(58.8791 3012.94)">
<stop stop-color="#B854B7"/>
<stop offset="1" stop-color="#1573FE" stop-opacity="0"/>
</radialGradient>
<linearGradient id="paint1_linear_765_8283" x1="199" y1="5.84473" x2="199" y2="104.616" gradientUnits="userSpaceOnUse">
<stop stop-color="#CF15FE" stop-opacity="0.6"/>
<stop offset="1" stop-color="#EB15FE" stop-opacity="0"/>
</linearGradient>
</defs>
</svg>
