<svg width="30" height="31" viewBox="0 0 30 31" fill="none" xmlns="http://www.w3.org/2000/svg">
<path d="M23.3944 13.3182V18.9238C23.3944 19.2882 23.3804 19.6385 23.3383 19.9748C23.016 23.7586 20.7878 25.6365 16.6817 25.6365H16.1211C15.7708 25.6365 15.4344 25.8047 15.2242 26.0849L13.5425 28.3272C12.7998 29.3222 11.5946 29.3222 10.8519 28.3272L9.17016 26.0849C8.98797 25.8467 8.58158 25.6365 8.27327 25.6365H7.71273C3.24226 25.6365 1 24.5294 1 18.9238V13.3182C1 9.21209 2.89191 6.98386 6.66168 6.66154C6.99801 6.6195 7.34836 6.60547 7.71273 6.60547H16.6817C21.1522 6.60547 23.3944 8.84773 23.3944 13.3182Z" stroke="url(#paint0_linear_933_15566)" stroke-width="2" stroke-miterlimit="10" stroke-linecap="round" stroke-linejoin="round"/>
<path d="M28.9999 7.71273V13.3183C28.9999 17.4384 27.108 19.6527 23.3382 19.975C23.3803 19.6386 23.3943 19.2883 23.3943 18.9239V13.3183C23.3943 8.84786 21.1521 6.60561 16.6816 6.60561H7.71267C7.34831 6.60561 6.99796 6.61963 6.66162 6.66168C6.98394 2.89191 9.21217 1 13.3182 1H22.2872C26.7577 1 28.9999 3.24226 28.9999 7.71273Z" stroke="url(#paint1_linear_933_15566)" stroke-width="2" stroke-miterlimit="10" stroke-linecap="round" stroke-linejoin="round"/>
<path d="M17.1099 16.7656H17.1225" stroke="url(#paint2_linear_933_15566)" stroke-width="2" stroke-linecap="round" stroke-linejoin="round"/>
<path d="M12.2051 16.7656H12.2177" stroke="url(#paint3_linear_933_15566)" stroke-width="2" stroke-linecap="round" stroke-linejoin="round"/>
<path d="M7.2998 16.7656H7.31242" stroke="url(#paint4_linear_933_15566)" stroke-width="2" stroke-linecap="round" stroke-linejoin="round"/>
<defs>
<linearGradient id="paint0_linear_933_15566" x1="12.1972" y1="6.60547" x2="12.1972" y2="29.0734" gradientUnits="userSpaceOnUse">
<stop stop-color="#E071DF"/>
<stop offset="1" stop-color="#02E4F0"/>
</linearGradient>
<linearGradient id="paint1_linear_933_15566" x1="17.8308" y1="1" x2="17.8308" y2="19.975" gradientUnits="userSpaceOnUse">
<stop stop-color="#E071DF"/>
<stop offset="1" stop-color="#02E4F0"/>
</linearGradient>
<linearGradient id="paint2_linear_933_15566" x1="17.1162" y1="16.7656" x2="17.1162" y2="17.7656" gradientUnits="userSpaceOnUse">
<stop stop-color="#E071DF"/>
<stop offset="1" stop-color="#02E4F0"/>
</linearGradient>
<linearGradient id="paint3_linear_933_15566" x1="12.2114" y1="16.7656" x2="12.2114" y2="17.7656" gradientUnits="userSpaceOnUse">
<stop stop-color="#E071DF"/>
<stop offset="1" stop-color="#02E4F0"/>
</linearGradient>
<linearGradient id="paint4_linear_933_15566" x1="7.30611" y1="16.7656" x2="7.30611" y2="17.7656" gradientUnits="userSpaceOnUse">
<stop stop-color="#E071DF"/>
<stop offset="1" stop-color="#02E4F0"/>
</linearGradient>
</defs>
</svg>
