<svg width="25" height="27" viewBox="0 0 25 27" fill="none" xmlns="http://www.w3.org/2000/svg">
<path fill-rule="evenodd" clip-rule="evenodd" d="M4.73212 0C2.12986 0 0 2.12985 0 4.73212V25.5535C7.49708e-05 25.7565 0.0654685 25.9542 0.18652 26.1173C0.307572 26.2804 0.477862 26.4002 0.672235 26.459C0.866608 26.5179 1.07476 26.5126 1.26593 26.4441C1.4571 26.3756 1.62117 26.2474 1.73388 26.0784L2.83927 24.4203L3.94467 26.0784C4.03111 26.208 4.14821 26.3143 4.28558 26.3878C4.42294 26.4613 4.57633 26.4998 4.73212 26.4998C4.88792 26.4998 5.0413 26.4613 5.17867 26.3878C5.31603 26.3143 5.43313 26.208 5.51958 26.0784L6.62497 24.4203L7.73037 26.0784C7.81681 26.208 7.93391 26.3143 8.07128 26.3878C8.20864 26.4613 8.36203 26.4998 8.51782 26.4998C8.67361 26.4998 8.827 26.4613 8.96437 26.3878C9.10173 26.3143 9.21883 26.208 9.30528 26.0784L10.4107 24.4203L11.5161 26.0784C11.6025 26.208 11.7196 26.3143 11.857 26.3878C11.9943 26.4613 12.1477 26.4998 12.3035 26.4998C12.4593 26.4998 12.6127 26.4613 12.7501 26.3878C12.8874 26.3143 13.0045 26.208 13.091 26.0784L14.1964 24.4203L15.3018 26.0784C15.4145 26.2474 15.5785 26.3756 15.7697 26.4441C15.9609 26.5126 16.169 26.5179 16.3634 26.459C16.5578 26.4002 16.7281 26.2804 16.8491 26.1173C16.9702 25.9542 17.0356 25.7565 17.0356 25.5535V14.1964H23.6606C23.9116 14.1963 24.1523 14.0966 24.3298 13.9191C24.5073 13.7417 24.607 13.5009 24.607 13.2499V4.73212C24.607 2.12985 22.4772 0 19.8749 0H4.73212ZM4.73212 1.89285H16.0966C15.4986 2.6853 15.1428 3.6689 15.1428 4.73212V5.67855V13.2499V22.4277L14.9838 22.1892C14.8974 22.0596 14.7803 21.9533 14.6429 21.8798C14.5055 21.8063 14.3522 21.7679 14.1964 21.7679C14.0406 21.7679 13.8872 21.8063 13.7498 21.8798C13.6125 21.9533 13.4954 22.0596 13.4089 22.1892L12.3035 23.8473L11.1981 22.1892C11.1117 22.0596 10.9946 21.9533 10.8572 21.8798C10.7198 21.8063 10.5665 21.7679 10.4107 21.7679C10.2549 21.7679 10.1015 21.8063 9.96413 21.8798C9.82676 21.9533 9.70966 22.0596 9.62321 22.1892L8.51782 23.8473L7.41243 22.1892C7.32598 22.0596 7.20888 21.9533 7.07152 21.8798C6.93415 21.8063 6.78077 21.7679 6.62497 21.7679C6.46918 21.7679 6.31579 21.8063 6.17843 21.8798C6.04106 21.9533 5.92396 22.0596 5.83752 22.1892L4.73212 23.8473L3.62673 22.1892C3.54029 22.0596 3.42318 21.9533 3.28582 21.8798C3.14845 21.8063 2.99507 21.7679 2.83927 21.7679C2.68348 21.7679 2.5301 21.8063 2.39273 21.8798C2.25536 21.9533 2.13826 22.0596 2.05182 22.1892L1.89285 22.4277V4.73212C1.89285 3.15282 3.15283 1.89285 4.73212 1.89285ZM19.8749 1.89285C21.4542 1.89285 22.7142 3.15282 22.7142 4.73212V12.3035H17.0356V5.67855V4.73212C17.0356 3.15282 18.2956 1.89285 19.8749 1.89285Z" fill="url(#paint0_linear_933_15515)"/>
<path fill-rule="evenodd" clip-rule="evenodd" d="M4.73207 11.3569C4.48106 11.3569 4.24033 11.4566 4.06285 11.6341C3.88536 11.8116 3.78564 12.0524 3.78564 12.3034C3.78564 12.5544 3.88536 12.7951 4.06285 12.9726C4.24033 13.1501 4.48106 13.2498 4.73207 13.2498H8.51777C8.76877 13.2498 9.0095 13.1501 9.18699 12.9726C9.36448 12.7951 9.46419 12.5544 9.46419 12.3034C9.46419 12.0524 9.36448 11.8116 9.18699 11.6341C9.0095 11.4566 8.76877 11.3569 8.51777 11.3569H4.73207Z" fill="url(#paint1_linear_933_15515)"/>
<path fill-rule="evenodd" clip-rule="evenodd" d="M4.73207 14.1963C4.48106 14.1963 4.24033 14.296 4.06285 14.4735C3.88536 14.651 3.78564 14.8917 3.78564 15.1427C3.78564 15.3937 3.88536 15.6344 4.06285 15.8119C4.24033 15.9894 4.48106 16.0891 4.73207 16.0891H12.3035C12.5545 16.0891 12.7952 15.9894 12.9727 15.8119C13.1502 15.6344 13.2499 15.3937 13.2499 15.1427C13.2499 14.8917 13.1502 14.651 12.9727 14.4735C12.7952 14.296 12.5545 14.1963 12.3035 14.1963H4.73207Z" fill="url(#paint2_linear_933_15515)"/>
<path fill-rule="evenodd" clip-rule="evenodd" d="M4.73207 17.0356C4.48106 17.0356 4.24033 17.1354 4.06285 17.3128C3.88536 17.4903 3.78564 17.7311 3.78564 17.9821C3.78564 18.2331 3.88536 18.4738 4.06285 18.6513C4.24033 18.8288 4.48106 18.9285 4.73207 18.9285H12.3035C12.5545 18.9285 12.7952 18.8288 12.9727 18.6513C13.1502 18.4738 13.2499 18.2331 13.2499 17.9821C13.2499 17.7311 13.1502 17.4903 12.9727 17.3128C12.7952 17.1354 12.5545 17.0356 12.3035 17.0356H4.73207Z" fill="url(#paint3_linear_933_15515)"/>
<path fill-rule="evenodd" clip-rule="evenodd" d="M4.73207 4.73193C4.48107 4.73196 4.24036 4.83168 4.06287 5.00916C3.88539 5.18665 3.78567 5.42736 3.78564 5.67836V9.46406C3.78567 9.71506 3.88539 9.95577 4.06287 10.1333C4.24036 10.3107 4.48107 10.4105 4.73207 10.4105H8.51777C8.76877 10.4105 9.00948 10.3107 9.18696 10.1333C9.36445 9.95577 9.46417 9.71506 9.46419 9.46406V5.67836C9.46417 5.42736 9.36445 5.18665 9.18696 5.00916C9.00948 4.83168 8.76877 4.73196 8.51777 4.73193H4.73207ZM5.67849 6.62478H7.57134V8.51763H5.67849V6.62478Z" fill="url(#paint4_linear_933_15515)"/>
<defs>
<linearGradient id="paint0_linear_933_15515" x1="12.3035" y1="0" x2="12.3035" y2="26.4998" gradientUnits="userSpaceOnUse">
<stop stop-color="#E071DF"/>
<stop offset="1" stop-color="#02E4F0"/>
</linearGradient>
<linearGradient id="paint1_linear_933_15515" x1="6.62492" y1="11.3569" x2="6.62492" y2="13.2498" gradientUnits="userSpaceOnUse">
<stop stop-color="#E071DF"/>
<stop offset="1" stop-color="#02E4F0"/>
</linearGradient>
<linearGradient id="paint2_linear_933_15515" x1="8.51777" y1="14.1963" x2="8.51777" y2="16.0891" gradientUnits="userSpaceOnUse">
<stop stop-color="#E071DF"/>
<stop offset="1" stop-color="#02E4F0"/>
</linearGradient>
<linearGradient id="paint3_linear_933_15515" x1="8.51777" y1="17.0356" x2="8.51777" y2="18.9285" gradientUnits="userSpaceOnUse">
<stop stop-color="#E071DF"/>
<stop offset="1" stop-color="#02E4F0"/>
</linearGradient>
<linearGradient id="paint4_linear_933_15515" x1="6.62492" y1="4.73193" x2="6.62492" y2="10.4105" gradientUnits="userSpaceOnUse">
<stop stop-color="#E071DF"/>
<stop offset="1" stop-color="#02E4F0"/>
</linearGradient>
</defs>
</svg>
