<svg width="22" height="26" viewBox="0 0 22 26" fill="none" xmlns="http://www.w3.org/2000/svg">
<mask id="path-1-inside-1_933_15508" fill="white">
<path fill-rule="evenodd" clip-rule="evenodd" d="M6.74073 8.73471C9.07632 6.40242 12.873 6.42722 15.2229 8.7771C17.5738 11.128 17.5976 14.927 15.2623 17.2623C12.9269 19.5976 9.12796 19.5738 6.77707 17.2229C5.38393 15.8298 4.80864 13.9292 5.05567 12.1269C5.09029 11.8743 5.32308 11.6977 5.57561 11.7323C5.82815 11.7669 6.00481 11.9997 5.9702 12.2522C5.76098 13.7786 6.24789 15.3883 7.42979 16.5702C9.42639 18.5668 12.6409 18.5782 14.6095 16.6095C16.5782 14.6409 16.5668 11.4264 14.5702 9.42981C12.5746 7.43422 9.3624 7.42178 7.39345 9.38743L7.85357 9.38974C8.10847 9.39102 8.31406 9.5987 8.31278 9.8536C8.3115 10.1085 8.10383 10.3141 7.84893 10.3128L6.28244 10.3049C6.02935 10.3037 5.8245 10.0988 5.82322 9.84572L5.81535 8.27923C5.81407 8.02433 6.01967 7.81666 6.27457 7.81537C6.52946 7.81409 6.73714 8.01969 6.73842 8.27459L6.74073 8.73471ZM10.9999 10.0769C11.2548 10.0769 11.4615 10.2835 11.4615 10.5384V12.8088L12.8647 14.2121C13.045 14.3923 13.045 14.6846 12.8647 14.8647C12.6845 15.045 12.3922 15.045 12.2121 14.8647L10.5384 13.1911V10.5384C10.5384 10.2835 10.745 10.0769 10.9999 10.0769Z"/>
</mask>
<path fill-rule="evenodd" clip-rule="evenodd" d="M6.74073 8.73471C9.07632 6.40242 12.873 6.42722 15.2229 8.7771C17.5738 11.128 17.5976 14.927 15.2623 17.2623C12.9269 19.5976 9.12796 19.5738 6.77707 17.2229C5.38393 15.8298 4.80864 13.9292 5.05567 12.1269C5.09029 11.8743 5.32308 11.6977 5.57561 11.7323C5.82815 11.7669 6.00481 11.9997 5.9702 12.2522C5.76098 13.7786 6.24789 15.3883 7.42979 16.5702C9.42639 18.5668 12.6409 18.5782 14.6095 16.6095C16.5782 14.6409 16.5668 11.4264 14.5702 9.42981C12.5746 7.43422 9.3624 7.42178 7.39345 9.38743L7.85357 9.38974C8.10847 9.39102 8.31406 9.5987 8.31278 9.8536C8.3115 10.1085 8.10383 10.3141 7.84893 10.3128L6.28244 10.3049C6.02935 10.3037 5.8245 10.0988 5.82322 9.84572L5.81535 8.27923C5.81407 8.02433 6.01967 7.81666 6.27457 7.81537C6.52946 7.81409 6.73714 8.01969 6.73842 8.27459L6.74073 8.73471ZM10.9999 10.0769C11.2548 10.0769 11.4615 10.2835 11.4615 10.5384V12.8088L12.8647 14.2121C13.045 14.3923 13.045 14.6846 12.8647 14.8647C12.6845 15.045 12.3922 15.045 12.2121 14.8647L10.5384 13.1911V10.5384C10.5384 10.2835 10.745 10.0769 10.9999 10.0769Z" fill="#1C274C"/>
<path d="M6.74073 8.73471L4.24076 8.74725L4.27078 14.7342L8.50724 10.5037L6.74073 8.73471ZM15.2229 8.7771L13.4551 10.5449L13.4551 10.5449L15.2229 8.7771ZM15.2623 17.2623L17.03 19.0301L17.03 19.03L15.2623 17.2623ZM6.77707 17.2229L8.54484 15.4551L8.54482 15.4551L6.77707 17.2229ZM5.05567 12.1269L7.53251 12.4664L7.53252 12.4664L5.05567 12.1269ZM5.57561 11.7323L5.23611 14.2092L5.23612 14.2092L5.57561 11.7323ZM5.9702 12.2522L8.44704 12.5918L8.44705 12.5917L5.9702 12.2522ZM7.42979 16.5702L5.66201 18.338L5.66201 18.338L7.42979 16.5702ZM14.5702 9.42981L12.8024 11.1976L12.8024 11.1976L14.5702 9.42981ZM7.39345 9.38743L5.62716 7.61818L1.381 11.8572L7.38088 11.8874L7.39345 9.38743ZM7.85357 9.38974L7.841 11.8897H7.84102L7.85357 9.38974ZM7.84893 10.3128L7.83637 12.8128H7.83638L7.84893 10.3128ZM6.28244 10.3049L6.26985 12.8049H6.26988L6.28244 10.3049ZM5.82322 9.84572L3.32326 9.85829L3.32326 9.85831L5.82322 9.84572ZM5.81535 8.27923L8.31532 8.26666L8.31532 8.26661L5.81535 8.27923ZM6.27457 7.81537L6.26201 5.3154L6.26195 5.3154L6.27457 7.81537ZM6.73842 8.27459L9.23839 8.26205V8.26204L6.73842 8.27459ZM11.4615 12.8088H8.96148V13.8443L9.69371 14.5766L11.4615 12.8088ZM12.8647 14.8647L11.0973 13.0967L11.097 13.097L12.8647 14.8647ZM12.2121 14.8647L13.9801 13.0973L13.9798 13.0969L12.2121 14.8647ZM10.5384 13.1911H8.0384V14.2267L8.77067 14.9589L10.5384 13.1911ZM8.50724 10.5037C9.84931 9.16356 12.064 9.15372 13.4551 10.5449L16.9907 7.00934C13.6821 3.70072 8.30333 3.64128 4.97421 6.9657L8.50724 10.5037ZM13.4551 10.5449C14.8469 11.9366 14.8364 14.1526 13.4945 15.4945L17.03 19.03C20.3588 15.7013 20.3007 10.3193 16.9907 7.00933L13.4551 10.5449ZM13.4945 15.4945C12.1525 16.8364 9.9366 16.8469 8.54484 15.4551L5.0093 18.9907C8.31932 22.3007 13.7012 22.3588 17.03 19.0301L13.4945 15.4945ZM8.54482 15.4551C7.72396 14.6343 7.38788 13.5216 7.53251 12.4664L2.57883 11.7874C2.22939 14.3368 3.04391 17.0253 5.00932 18.9907L8.54482 15.4551ZM7.53252 12.4664C7.37962 13.5819 6.35132 14.362 5.23611 14.2092L5.91512 9.25548C4.29484 9.03339 2.80096 10.1667 2.57883 11.7874L7.53252 12.4664ZM5.23612 14.2092C4.12082 14.0563 3.3405 13.0282 3.49335 11.9128L8.44705 12.5917C8.66912 10.9712 7.53549 9.47758 5.91511 9.25548L5.23612 14.2092ZM3.49336 11.9127C3.18168 14.1866 3.90814 16.5841 5.66201 18.338L9.19756 14.8025C8.58763 14.1925 8.34029 13.3706 8.44704 12.5918L3.49336 11.9127ZM5.66201 18.338C8.61863 21.2946 13.4161 21.3385 16.3773 18.3773L12.8418 14.8418C11.8656 15.8179 10.2341 15.8391 9.19756 14.8025L5.66201 18.338ZM16.3773 18.3773C19.3386 15.4161 19.2945 10.6186 16.3379 7.66204L12.8024 11.1976C13.839 12.2342 13.8179 13.8657 12.8418 14.8418L16.3773 18.3773ZM16.3379 7.66205C13.3828 4.70694 8.58882 4.66149 5.62716 7.61818L9.15973 11.1567C10.136 10.1821 11.7663 10.1615 12.8024 11.1976L16.3379 7.66205ZM7.38088 11.8874L7.841 11.8897L7.86614 6.88977L7.40602 6.88746L7.38088 11.8874ZM7.84102 11.8897C6.71518 11.8841 5.80716 10.9668 5.81281 9.84104L10.8128 9.86615C10.821 8.23059 9.50175 6.89799 7.86612 6.88977L7.84102 11.8897ZM5.81281 9.84104C5.81847 8.71521 6.73572 7.80719 7.86148 7.81284L7.83638 12.8128C9.47193 12.821 10.8045 11.5018 10.8128 9.86615L5.81281 9.84104ZM7.86149 7.81284L6.295 7.80497L6.26988 12.8049L7.83637 12.8128L7.86149 7.81284ZM6.29502 7.80497C7.41283 7.81059 8.31757 8.71537 8.32319 9.83314L3.32326 9.85831C3.33143 11.4822 4.64587 12.7967 6.26985 12.8049L6.29502 7.80497ZM8.32319 9.83316L8.31532 8.26666L3.31539 8.29179L3.32326 9.85829L8.32319 9.83316ZM8.31532 8.26661C8.321 9.39251 7.41288 10.3097 6.28718 10.3153L6.26195 5.3154C4.62646 5.32366 3.30713 6.65615 3.31539 8.29184L8.31532 8.26661ZM6.28712 10.3153C5.16132 10.321 4.2441 9.41293 4.23845 8.28715L9.23839 8.26204C9.23017 6.62645 7.89761 5.30719 6.26201 5.3154L6.28712 10.3153ZM4.23845 8.28713L4.24076 8.74725L9.24069 8.72218L9.23839 8.26205L4.23845 8.28713ZM10.9999 12.5769C9.87414 12.5769 8.96148 11.6642 8.96148 10.5384H13.9615C13.9615 8.90278 12.6355 7.57688 10.9999 7.57688V12.5769ZM8.96148 10.5384V12.8088H13.9615V10.5384H8.96148ZM9.69371 14.5766L11.097 15.9798L14.6325 12.4443L13.2292 11.041L9.69371 14.5766ZM11.097 15.9798C10.3011 15.1839 10.3006 13.893 11.0973 13.0967L14.6322 16.6328C15.7893 15.4761 15.7889 13.6007 14.6325 12.4443L11.097 15.9798ZM11.097 13.097C11.8929 12.3011 13.1838 12.3006 13.9801 13.0973L10.444 16.6322C11.6007 17.7893 13.4761 17.7889 14.6325 16.6325L11.097 13.097ZM13.9798 13.0969L12.3061 11.4233L8.77067 14.9589L10.4443 16.6325L13.9798 13.0969ZM13.0384 13.1911V10.5384H8.0384V13.1911H13.0384ZM13.0384 10.5384C13.0384 11.6642 12.1257 12.5769 10.9999 12.5769V7.57688C9.36436 7.57688 8.0384 8.90278 8.0384 10.5384H13.0384Z" fill="url(#paint0_linear_933_15508)" mask="url(#path-1-inside-1_933_15508)"/>
<path d="M4.81175 22.2373C5.77645 21.1815 7.24705 21.2655 8.09411 22.4173L9.28237 24.0371C10.2353 25.321 11.7765 25.321 12.7294 24.0371L13.9177 22.4173C14.7647 21.2655 16.2353 21.1815 17.2 22.2373C19.2941 24.5171 21 23.7612 21 20.5696V7.04724C21 2.21185 19.8941 1 15.4471 1H6.55293C2.10588 1 1 2.21185 1 7.04724V20.5576C1.01176 23.7612 2.7294 24.5051 4.81175 22.2373Z" stroke="url(#paint1_linear_933_15508)" stroke-width="2" stroke-linecap="round" stroke-linejoin="round"/>
<defs>
<linearGradient id="paint0_linear_933_15508" x1="11" y1="7" x2="11" y2="19" gradientUnits="userSpaceOnUse">
<stop stop-color="#E071DF"/>
<stop offset="1" stop-color="#02E4F0"/>
</linearGradient>
<linearGradient id="paint1_linear_933_15508" x1="11" y1="1" x2="11" y2="25" gradientUnits="userSpaceOnUse">
<stop stop-color="#E071DF"/>
<stop offset="1" stop-color="#02E4F0"/>
</linearGradient>
</defs>
</svg>
