<svg width="28" height="30" viewBox="0 0 28 30" fill="none" xmlns="http://www.w3.org/2000/svg">
<path d="M13.879 22.5939C17.7785 22.5939 20.9396 19.4328 20.9396 15.5333C20.9396 11.6338 17.7785 8.47266 13.879 8.47266C9.97951 8.47266 6.81836 11.6338 6.81836 15.5333C6.81836 19.4328 9.97951 22.5939 13.879 22.5939Z" fill="white"/>
<mask id="mask0_933_15553" style="mask-type:luminance" maskUnits="userSpaceOnUse" x="6" y="8" width="15" height="15">
<path d="M13.879 22.5939C17.7785 22.5939 20.9396 19.4328 20.9396 15.5333C20.9396 11.6338 17.7785 8.47266 13.879 8.47266C9.97951 8.47266 6.81836 11.6338 6.81836 15.5333C6.81836 19.4328 9.97951 22.5939 13.879 22.5939Z" fill="url(#paint0_linear_933_15553)"/>
</mask>
<g mask="url(#mask0_933_15553)">
<path d="M30.8246 -1.41211H-3.06641V32.4789H30.8246V-1.41211Z" fill="white"/>
</g>
<path d="M7.27493 3.36119C7.95298 2.98456 8.80389 3.23635 9.17549 3.92358C9.54709 4.61081 9.29867 5.47325 8.62063 5.84989C7.69583 6.36358 6.84217 7.01134 6.0804 7.78344C1.70653 12.2166 1.70653 19.4041 6.0804 23.8372C10.4543 28.2703 17.5457 28.2703 21.9196 23.8372C26.2935 19.4041 26.2935 12.2166 21.9196 7.78344C21.2005 7.05459 20.3994 6.43646 19.5337 5.93725C18.8617 5.54972 18.6268 4.68338 19.0092 4.00223C19.3915 3.32108 20.2463 3.08306 20.9183 3.47059C22.0014 4.09513 23.0027 4.86782 23.8995 5.77671C29.3668 11.3181 29.3668 20.3025 23.8995 25.8439C18.4322 31.3854 9.56785 31.3854 4.1005 25.8439C-1.36683 20.3025 -1.36683 11.3181 4.1005 5.77671C5.05054 4.8138 6.11785 4.00392 7.27493 3.36119ZM13.801 0C14.5742 0 15.201 0.635293 15.201 1.41897V11.3517C15.201 12.1354 14.5742 12.7707 13.801 12.7707C13.0278 12.7707 12.401 12.1354 12.401 11.3517V1.41897C12.401 0.635293 13.0278 0 13.801 0Z" fill="white"/>
<defs>
<linearGradient id="paint0_linear_933_15553" x1="13.879" y1="8.47266" x2="13.879" y2="22.5939" gradientUnits="userSpaceOnUse">
<stop stop-color="#E071DF"/>
<stop offset="1" stop-color="#02E4F0"/>
</linearGradient>
</defs>
</svg>
