<svg width="56" height="30" viewBox="0 0 56 30" fill="none" xmlns="http://www.w3.org/2000/svg">
<rect width="56" height="30" rx="15" fill="white"/>
<g filter="url(#filter0_d_2232_8093)">
<circle cx="15" cy="15" r="10" fill="url(#paint0_linear_2232_8093)"/>
</g>
<path d="M15.5 20.834V21.4173V22.0007" stroke="white" stroke-width="2" stroke-linecap="round"/>
<path d="M15.5 8V8.58333V9.16667" stroke="white" stroke-width="2" stroke-linecap="round"/>
<path d="M19 12.0827C19 10.4719 17.433 9.16602 15.5 9.16602C13.5669 9.16602 12 10.4719 12 12.0827C12 13.6935 13.5669 14.9993 15.5 14.9993C17.433 14.9993 19 16.3052 19 17.916C19 19.5268 17.433 20.8327 15.5 20.8327C13.5669 20.8327 12 19.5268 12 17.916" stroke="white" stroke-width="2" stroke-linecap="round"/>
<defs>
<filter id="filter0_d_2232_8093" x="1" y="2" width="28" height="28" filterUnits="userSpaceOnUse" color-interpolation-filters="sRGB">
<feFlood flood-opacity="0" result="BackgroundImageFix"/>
<feColorMatrix in="SourceAlpha" type="matrix" values="0 0 0 0 0 0 0 0 0 0 0 0 0 0 0 0 0 0 127 0" result="hardAlpha"/>
<feOffset dy="1"/>
<feGaussianBlur stdDeviation="2"/>
<feComposite in2="hardAlpha" operator="out"/>
<feColorMatrix type="matrix" values="0 0 0 0 0 0 0 0 0 0 0 0 0 0 0 0 0 0 0.25 0"/>
<feBlend mode="normal" in2="BackgroundImageFix" result="effect1_dropShadow_2232_8093"/>
<feBlend mode="normal" in="SourceGraphic" in2="effect1_dropShadow_2232_8093" result="shape"/>
</filter>
<linearGradient id="paint0_linear_2232_8093" x1="15" y1="5" x2="15" y2="25" gradientUnits="userSpaceOnUse">
<stop stop-color="#E071DF"/>
<stop offset="1" stop-color="#02E4F0"/>
</linearGradient>
</defs>
</svg>
