<svg width="107" height="32" viewBox="0 0 107 32" fill="none" xmlns="http://www.w3.org/2000/svg">
<path d="M19.8409 20.86C19.8409 22.1433 19.5026 23.3333 18.8259 24.43C18.1726 25.5033 17.1926 26.39 15.8859 27.09C14.6026 27.7667 13.0743 28.14 11.3009 28.21V31.045H9.06094V28.175C6.5876 27.965 4.5926 27.23 3.07594 25.97C1.55927 24.6867 0.754271 22.9483 0.660938 20.755H7.03094C7.17094 22.155 7.8476 23.0533 9.06094 23.45V17.92C7.24094 17.4533 5.7826 16.9983 4.68594 16.555C3.6126 16.1117 2.6676 15.4 1.85094 14.42C1.03427 13.44 0.625938 12.0983 0.625938 10.395C0.625938 8.27167 1.4076 6.56833 2.97094 5.285C4.5576 4.00166 6.5876 3.27833 9.06094 3.115V0.279998H11.3009V3.115C13.7509 3.30167 15.6876 4.01333 17.1109 5.25C18.5343 6.48667 19.3276 8.20167 19.4909 10.395H13.0859C12.9459 9.135 12.3509 8.31833 11.3009 7.945V13.37C13.2376 13.9067 14.7309 14.385 15.7809 14.805C16.8309 15.225 17.7643 15.925 18.5809 16.905C19.4209 17.8617 19.8409 19.18 19.8409 20.86ZM6.96094 10.115C6.96094 10.6983 7.13594 11.1883 7.48594 11.585C7.85927 11.9817 8.38427 12.3317 9.06094 12.635V7.77C8.4076 7.88667 7.89427 8.14333 7.52094 8.54C7.1476 8.91333 6.96094 9.43833 6.96094 10.115ZM11.3009 23.555C12.0009 23.4383 12.5493 23.1583 12.9459 22.715C13.3659 22.2717 13.5759 21.7233 13.5759 21.07C13.5759 20.4633 13.3776 19.9733 12.9809 19.6C12.6076 19.2033 12.0476 18.865 11.3009 18.585V23.555ZM31.115 14.875C31.115 10.8617 31.885 7.7 33.425 5.39C34.9884 3.08 37.4967 1.925 40.95 1.925C44.4034 1.925 46.9 3.08 48.44 5.39C50.0034 7.7 50.785 10.8617 50.785 14.875C50.785 18.935 50.0034 22.12 48.44 24.43C46.9 26.74 44.4034 27.895 40.95 27.895C37.4967 27.895 34.9884 26.74 33.425 24.43C31.885 22.12 31.115 18.935 31.115 14.875ZM44.905 14.875C44.905 12.5183 44.6484 10.71 44.135 9.45C43.6217 8.16667 42.56 7.525 40.95 7.525C39.34 7.525 38.2784 8.16667 37.765 9.45C37.2517 10.71 36.995 12.5183 36.995 14.875C36.995 16.4617 37.0884 17.78 37.275 18.83C37.4617 19.8567 37.835 20.6967 38.395 21.35C38.9784 21.98 39.83 22.295 40.95 22.295C42.07 22.295 42.91 21.98 43.47 21.35C44.0534 20.6967 44.4384 19.8567 44.625 18.83C44.8117 17.78 44.905 16.4617 44.905 14.875ZM57.3421 28.28C56.2921 28.28 55.4287 27.9767 54.7521 27.37C54.0987 26.74 53.7721 25.97 53.7721 25.06C53.7721 24.1267 54.0987 23.345 54.7521 22.715C55.4287 22.085 56.2921 21.77 57.3421 21.77C58.3687 21.77 59.2087 22.085 59.8621 22.715C60.5387 23.345 60.8771 24.1267 60.8771 25.06C60.8771 25.97 60.5387 26.74 59.8621 27.37C59.2087 27.9767 58.3687 28.28 57.3421 28.28ZM63.825 14.875C63.825 10.8617 64.595 7.7 66.135 5.39C67.6983 3.08 70.2067 1.925 73.66 1.925C77.1133 1.925 79.61 3.08 81.15 5.39C82.7133 7.7 83.495 10.8617 83.495 14.875C83.495 18.935 82.7133 22.12 81.15 24.43C79.61 26.74 77.1133 27.895 73.66 27.895C70.2067 27.895 67.6983 26.74 66.135 24.43C64.595 22.12 63.825 18.935 63.825 14.875ZM77.615 14.875C77.615 12.5183 77.3583 10.71 76.845 9.45C76.3317 8.16667 75.27 7.525 73.66 7.525C72.05 7.525 70.9883 8.16667 70.475 9.45C69.9617 10.71 69.705 12.5183 69.705 14.875C69.705 16.4617 69.7983 17.78 69.985 18.83C70.1717 19.8567 70.545 20.6967 71.105 21.35C71.6883 21.98 72.54 22.295 73.66 22.295C74.78 22.295 75.62 21.98 76.18 21.35C76.7633 20.6967 77.1483 19.8567 77.335 18.83C77.5217 17.78 77.615 16.4617 77.615 14.875ZM86.657 14.875C86.657 10.8617 87.427 7.7 88.967 5.39C90.5304 3.08 93.0387 1.925 96.492 1.925C99.9454 1.925 102.442 3.08 103.982 5.39C105.545 7.7 106.327 10.8617 106.327 14.875C106.327 18.935 105.545 22.12 103.982 24.43C102.442 26.74 99.9454 27.895 96.492 27.895C93.0387 27.895 90.5304 26.74 88.967 24.43C87.427 22.12 86.657 18.935 86.657 14.875ZM100.447 14.875C100.447 12.5183 100.19 10.71 99.677 9.45C99.1637 8.16667 98.102 7.525 96.492 7.525C94.882 7.525 93.8204 8.16667 93.307 9.45C92.7937 10.71 92.537 12.5183 92.537 14.875C92.537 16.4617 92.6304 17.78 92.817 18.83C93.0037 19.8567 93.377 20.6967 93.937 21.35C94.5204 21.98 95.372 22.295 96.492 22.295C97.612 22.295 98.452 21.98 99.012 21.35C99.5954 20.6967 99.9804 19.8567 100.167 18.83C100.354 17.78 100.447 16.4617 100.447 14.875Z" fill="white"/>
</svg>
