<svg width="25" height="10" viewBox="0 0 25 10" fill="none" xmlns="http://www.w3.org/2000/svg">
<path d="M2.76 0.576V5.616C2.76 6.12 2.884 6.508 3.132 6.78C3.38 7.052 3.744 7.188 4.224 7.188C4.704 7.188 5.072 7.052 5.328 6.78C5.584 6.508 5.712 6.12 5.712 5.616V0.576H7.764V5.604C7.764 6.356 7.604 6.992 7.284 7.512C6.964 8.032 6.532 8.424 5.988 8.688C5.452 8.952 4.852 9.084 4.188 9.084C3.524 9.084 2.928 8.956 2.4 8.7C1.88 8.436 1.468 8.044 1.164 7.524C0.86 6.996 0.708 6.356 0.708 5.604V0.576H2.76ZM12.2529 9.084C11.6369 9.084 11.0849 8.984 10.5969 8.784C10.1089 8.584 9.71694 8.288 9.42094 7.896C9.13294 7.504 8.98094 7.032 8.96494 6.48H11.1489C11.1809 6.792 11.2889 7.032 11.4729 7.2C11.6569 7.36 11.8969 7.44 12.1929 7.44C12.4969 7.44 12.7369 7.372 12.9129 7.236C13.0889 7.092 13.1769 6.896 13.1769 6.648C13.1769 6.44 13.1049 6.268 12.9609 6.132C12.8249 5.996 12.6529 5.884 12.4449 5.796C12.2449 5.708 11.9569 5.608 11.5809 5.496C11.0369 5.328 10.5929 5.16 10.2489 4.992C9.90494 4.824 9.60894 4.576 9.36094 4.248C9.11294 3.92 8.98894 3.492 8.98894 2.964C8.98894 2.18 9.27294 1.568 9.84094 1.128C10.4089 0.68 11.1489 0.456 12.0609 0.456C12.9889 0.456 13.7369 0.68 14.3049 1.128C14.8729 1.568 15.1769 2.184 15.2169 2.976H12.9969C12.9809 2.704 12.8809 2.492 12.6969 2.34C12.5129 2.18 12.2769 2.1 11.9889 2.1C11.7409 2.1 11.5409 2.168 11.3889 2.304C11.2369 2.432 11.1609 2.62 11.1609 2.868C11.1609 3.14 11.2889 3.352 11.5449 3.504C11.8009 3.656 12.2009 3.82 12.7449 3.996C13.2889 4.18 13.7289 4.356 14.0649 4.524C14.4089 4.692 14.7049 4.936 14.9529 5.256C15.2009 5.576 15.3249 5.988 15.3249 6.492C15.3249 6.972 15.2009 7.408 14.9529 7.8C14.7129 8.192 14.3609 8.504 13.8969 8.736C13.4329 8.968 12.8849 9.084 12.2529 9.084ZM19.7438 0.576C20.6318 0.576 21.4078 0.752 22.0718 1.104C22.7358 1.456 23.2478 1.952 23.6078 2.592C23.9758 3.224 24.1598 3.956 24.1598 4.788C24.1598 5.612 23.9758 6.344 23.6078 6.984C23.2478 7.624 22.7318 8.12 22.0598 8.472C21.3958 8.824 20.6238 9 19.7438 9H16.5878V0.576H19.7438ZM19.6118 7.224C20.3878 7.224 20.9918 7.012 21.4238 6.588C21.8558 6.164 22.0718 5.564 22.0718 4.788C22.0718 4.012 21.8558 3.408 21.4238 2.976C20.9918 2.544 20.3878 2.328 19.6118 2.328H18.6398V7.224H19.6118Z" fill="url(#paint0_linear_2232_8106)"/>
<defs>
<linearGradient id="paint0_linear_2232_8106" x1="12.5" y1="-9" x2="12.5" y2="19" gradientUnits="userSpaceOnUse">
<stop stop-color="#DA5ED8"/>
<stop offset="0.5" stop-color="#B854B7"/>
<stop offset="1"/>
</linearGradient>
</defs>
</svg>
