<svg width="32" height="24" viewBox="0 0 32 24" fill="none" xmlns="http://www.w3.org/2000/svg">
<path d="M9.375 12.0569C8.3861 12.0569 7.4194 11.7233 6.59715 11.0983C5.7749 10.4736 5.13405 9.58525 4.7556 8.54622C4.37717 7.50689 4.27815 6.36344 4.47107 5.26025C4.664 4.15706 5.1402 3.14369 5.83947 2.34835C6.53872 1.55297 7.42965 1.01133 8.39955 0.791894C9.36945 0.572456 10.3748 0.685088 11.2884 1.11552C12.202 1.54598 12.983 2.2749 13.5322 3.21015C14.0817 4.1454 14.375 5.24495 14.375 6.36975C14.375 7.87798 13.8482 9.3245 12.9105 10.3911C11.9727 11.4577 10.7011 12.0569 9.375 12.0569ZM9.375 4.94797C9.12777 4.94797 8.8861 5.03137 8.68055 5.18759C8.47497 5.34382 8.31477 5.56587 8.22015 5.82566C8.12555 6.08545 8.1008 6.37134 8.14902 6.64714C8.19725 6.92294 8.3163 7.17618 8.49112 7.37523C8.66592 7.574 8.88865 7.70935 9.13115 7.76424C9.37362 7.81912 9.62495 7.79096 9.85335 7.68319C10.0818 7.57571 10.277 7.39343 10.4143 7.15969C10.5517 6.92584 10.625 6.65095 10.625 6.36975C10.625 5.99266 10.4933 5.63105 10.2589 5.36441C10.0245 5.09776 9.70652 4.94797 9.375 4.94797Z" fill="white"/>
<path d="M16.875 23.431C16.3797 23.4236 15.9065 23.1967 15.5562 22.7983C15.206 22.3999 15.0065 21.8616 15 21.2983C15 19.3647 14.575 17.7439 9.375 17.7439C4.175 17.7439 3.75 19.3647 3.75 21.2983C3.75 21.8639 3.55245 22.4065 3.20083 22.8063C2.8492 23.2064 2.37227 23.431 1.875 23.431C1.37773 23.431 0.9008 23.2064 0.549175 22.8063C0.19755 22.4065 0 21.8639 0 21.2983C0 13.4785 7.05 13.4785 9.375 13.4785C11.7 13.4785 18.75 13.4785 18.75 21.2983C18.7435 21.8616 18.544 22.3999 18.1938 22.7983C17.8435 23.1967 17.3703 23.4236 16.875 23.431Z" fill="white"/>
<path d="M29.375 9.21359H21.875C21.3778 9.21359 20.9007 8.98895 20.5492 8.58886C20.1975 8.18906 20 7.6465 20 7.08092C20 6.5153 20.1975 5.97284 20.5492 5.57289C20.9007 5.17294 21.3778 4.94824 21.875 4.94824H29.375C29.8722 4.94824 30.3493 5.17294 30.7008 5.57289C31.0525 5.97284 31.25 6.5153 31.25 7.08092C31.25 7.6465 31.0525 8.18906 30.7008 8.58886C30.3493 8.98895 29.8722 9.21359 29.375 9.21359Z" fill="white"/>
<path d="M26.875 17.7439H21.875C21.3778 17.7439 20.9007 17.5192 20.5492 17.1191C20.1975 16.7193 20 16.1768 20 15.6112C20 15.0456 20.1975 14.5031 20.5492 14.1032C20.9007 13.7032 21.3778 13.4785 21.875 13.4785H26.875C27.3723 13.4785 27.8493 13.7032 28.2008 14.1032C28.5525 14.5031 28.75 15.0456 28.75 15.6112C28.75 16.1768 28.5525 16.7193 28.2008 17.1191C27.8493 17.5192 27.3723 17.7439 26.875 17.7439Z" fill="white"/>
</svg>
