<svg width="25" height="26" viewBox="0 0 25 26" fill="none" xmlns="http://www.w3.org/2000/svg">
<path fill-rule="evenodd" clip-rule="evenodd" d="M0 13C0 6.09643 5.59646 0.5 12.5 0.5C19.4036 0.5 25 6.09643 25 13C25 19.9035 19.4036 25.5 12.5 25.5C5.59646 25.5 0 19.9035 0 13ZM12.5 2.29303C6.58673 2.29303 1.79305 7.0867 1.79305 13C1.79305 18.9131 6.58673 23.707 12.5 23.707C18.4133 23.707 23.207 18.9131 23.207 13C23.207 7.0867 18.4133 2.29303 12.5 2.29303ZM13.9156 18.6627C13.9156 19.4445 13.2819 20.0782 12.5001 20.0782C11.7183 20.0782 11.0845 19.4445 11.0845 18.6627C11.0845 17.8809 11.7183 17.2471 12.5001 17.2471C13.2819 17.2471 13.9156 17.8809 13.9156 18.6627ZM9.76352 10.6412C9.76352 9.36177 10.8678 8.14041 12.5003 8.14041C14.1328 8.14041 15.237 9.36177 15.237 10.6412C15.237 11.5683 14.7274 12.0419 13.8487 12.5757C13.7506 12.6353 13.6375 12.701 13.5165 12.7712C13.1708 12.972 12.7605 13.2103 12.4521 13.4506C11.9946 13.807 11.4622 14.382 11.4622 15.2654C11.4622 15.8387 11.927 16.3034 12.5003 16.3034C13.071 16.3034 13.5341 15.8429 13.5383 15.2732L13.5393 15.2716C13.5557 15.2457 13.6042 15.1849 13.7281 15.0883C13.9197 14.9391 14.133 14.8155 14.4172 14.6508C14.5654 14.5649 14.733 14.4678 14.9267 14.3501C15.9354 13.7373 17.3131 12.7246 17.3131 10.6412C17.3131 8.14587 15.2089 6.06427 12.5003 6.06427C9.7917 6.06427 7.68736 8.14587 7.68736 10.6412C7.68736 11.2145 8.15213 11.6793 8.72544 11.6793C9.29876 11.6793 9.76352 11.2145 9.76352 10.6412Z" fill="#46195B"/>
</svg>
