<svg width="21" height="21" viewBox="0 0 21 21" fill="none" xmlns="http://www.w3.org/2000/svg">
<path d="M10.5 0.5C8.52219 0.5 6.58879 1.08649 4.9443 2.1853C3.29981 3.28412 2.01809 4.8459 1.26121 6.67317C0.504333 8.50043 0.306299 10.5111 0.692152 12.4509C1.078 14.3907 2.03041 16.1725 3.42894 17.5711C4.82746 18.9696 6.60929 19.922 8.5491 20.3079C10.4889 20.6937 12.4996 20.4957 14.3268 19.7388C16.1541 18.9819 17.7159 17.7002 18.8147 16.0557C19.9135 14.4112 20.5 12.4778 20.5 10.5C20.5 9.18678 20.2413 7.88642 19.7388 6.67317C19.2363 5.45991 18.4997 4.35752 17.5711 3.42893C16.6425 2.50035 15.5401 1.76375 14.3268 1.2612C13.1136 0.758658 11.8132 0.5 10.5 0.5ZM10.5 18.5C8.91775 18.5 7.37104 18.0308 6.05544 17.1518C4.73985 16.2727 3.71447 15.0233 3.10897 13.5615C2.50347 12.0997 2.34504 10.4911 2.65372 8.93928C2.9624 7.38743 3.72433 5.96197 4.84315 4.84315C5.96197 3.72433 7.38743 2.9624 8.93928 2.65372C10.4911 2.34504 12.0997 2.50346 13.5615 3.10896C15.0233 3.71447 16.2727 4.73984 17.1518 6.05544C18.0308 7.37103 18.5 8.91775 18.5 10.5C18.5 12.6217 17.6572 14.6566 16.1569 16.1569C14.6566 17.6571 12.6217 18.5 10.5 18.5Z" fill="#7B7B7B"/>
<path d="M13.2099 7.78994C13.117 7.69621 13.0064 7.62182 12.8845 7.57105C12.7627 7.52028 12.632 7.49414 12.4999 7.49414C12.3679 7.49414 12.2372 7.52028 12.1154 7.57105C11.9935 7.62182 11.8829 7.69621 11.7899 7.78994L10.4999 9.08994L9.20994 7.78994C9.02164 7.60164 8.76624 7.49585 8.49994 7.49585C8.23364 7.49585 7.97824 7.60164 7.78994 7.78994C7.60164 7.97824 7.49585 8.23364 7.49585 8.49994C7.49585 8.76624 7.60164 9.02164 7.78994 9.20994L9.08994 10.4999L7.78994 11.7899C7.69621 11.8829 7.62182 11.9935 7.57105 12.1154C7.52028 12.2372 7.49414 12.3679 7.49414 12.4999C7.49414 12.632 7.52028 12.7627 7.57105 12.8845C7.62182 13.0064 7.69621 13.117 7.78994 13.2099C7.8829 13.3037 7.9935 13.3781 8.11536 13.4288C8.23722 13.4796 8.36793 13.5057 8.49994 13.5057C8.63195 13.5057 8.76266 13.4796 8.88452 13.4288C9.00638 13.3781 9.11698 13.3037 9.20994 13.2099L10.4999 11.9099L11.7899 13.2099C11.8829 13.3037 11.9935 13.3781 12.1154 13.4288C12.2372 13.4796 12.3679 13.5057 12.4999 13.5057C12.632 13.5057 12.7627 13.4796 12.8845 13.4288C13.0064 13.3781 13.117 13.3037 13.2099 13.2099C13.3037 13.117 13.3781 13.0064 13.4288 12.8845C13.4796 12.7627 13.5057 12.632 13.5057 12.4999C13.5057 12.3679 13.4796 12.2372 13.4288 12.1154C13.3781 11.9935 13.3037 11.8829 13.2099 11.7899L11.9099 10.4999L13.2099 9.20994C13.3037 9.11698 13.3781 9.00638 13.4288 8.88452C13.4796 8.76266 13.5057 8.63195 13.5057 8.49994C13.5057 8.36793 13.4796 8.23722 13.4288 8.11536C13.3781 7.9935 13.3037 7.8829 13.2099 7.78994Z" fill="#7B7B7B"/>
</svg>
