<svg width="28" height="22" viewBox="0 0 28 22" fill="none" xmlns="http://www.w3.org/2000/svg">
<path d="M27.4801 13.5349C27.443 13.8934 27.1022 14.0727 26.8119 14.2356C26.542 14.3855 26.272 14.5387 26.0054 14.6886C25.5734 14.9298 25.1448 15.171 24.7129 15.4121C24.1729 15.7152 23.6363 16.0183 23.0964 16.3181C22.5024 16.6506 21.9085 16.9862 21.3112 17.3187C20.7139 17.6543 20.1165 17.99 19.5158 18.3257C18.9658 18.6353 18.4191 18.9417 17.869 19.2513C17.4201 19.5022 16.9747 19.7532 16.5259 20.0041C16.2323 20.1671 15.9387 20.3333 15.6451 20.4962C15.4223 20.6201 15.2131 20.7439 14.96 20.8156C14.3019 20.9981 13.573 20.9362 12.979 20.6038C12.7664 20.4832 12.5505 20.3659 12.3379 20.2453C11.9464 20.0269 11.5583 19.8118 11.1668 19.5935C10.6539 19.3067 10.1409 19.0199 9.62797 18.7364C9.04415 18.4105 8.45695 18.0845 7.87313 17.7586C7.26906 17.423 6.66499 17.084 6.06092 16.7483C5.49059 16.4289 4.92027 16.1128 4.34657 15.7934L2.8887 14.9819C2.54111 14.7864 2.19014 14.5941 1.84254 14.3986C1.68393 14.3106 1.52532 14.2226 1.36671 14.1313C1.11698 13.9912 0.870632 13.7696 0.870632 13.4697C0.870632 13.7435 0.870632 14.0172 0.867258 14.2943C0.867258 14.392 0.860508 14.4931 0.867258 14.5941C0.887506 14.8581 1.10349 15.0634 1.32959 15.1938C1.46795 15.2752 1.60969 15.3502 1.75143 15.4284C2.1159 15.6305 2.48036 15.8358 2.84483 16.0379C3.37128 16.3312 3.89436 16.6245 4.42081 16.9178C5.04513 17.2665 5.67283 17.6152 6.29714 17.964C6.94846 18.329 7.59978 18.6907 8.25447 19.0557C8.87541 19.4012 9.49298 19.7467 10.1139 20.0921C10.6303 20.3789 11.1432 20.6657 11.6595 20.9525C12.0071 21.1481 12.3581 21.3403 12.7057 21.5359C12.9082 21.6467 13.1073 21.7738 13.3266 21.852C14.0117 22.0932 14.8149 22.041 15.4459 21.6858C15.6856 21.5522 15.9252 21.4153 16.1648 21.2817C16.6068 21.034 17.0489 20.7863 17.4876 20.5386C18.0647 20.216 18.6384 19.8933 19.2155 19.5674C19.8601 19.2057 20.5046 18.8439 21.1458 18.4821L23.0795 17.3969C23.6566 17.071 24.2337 16.7483 24.8141 16.4224C25.2629 16.1715 25.7118 15.9205 26.1606 15.6663C26.407 15.5262 26.6567 15.3893 26.903 15.2492C26.9773 15.2068 27.0549 15.1644 27.1258 15.1155C27.3148 14.9787 27.4632 14.7896 27.4666 14.5517C27.47 14.4311 27.4666 14.3138 27.4666 14.1932C27.4666 13.9553 27.4666 13.7142 27.47 13.4762C27.4835 13.5023 27.4835 13.5186 27.4801 13.5349C27.4835 13.5284 27.4801 13.5447 27.4801 13.5349Z" fill="#7A9EFD"/>
<path d="M27.0014 12.8345C27.6426 13.193 27.646 13.7764 27.0082 14.1349L15.3857 20.6562C14.7479 21.0147 13.7051 21.0147 13.0639 20.6562L1.36387 14.1349C0.722678 13.7764 0.719303 13.193 1.35712 12.8345L12.9796 6.30989C13.6174 5.95139 14.6602 5.95139 15.3014 6.30989L27.0014 12.8345Z" fill="#E4ECF9"/>
<path d="M15.5306 8.83865L15.6825 8.82887H15.6926C15.7432 8.82561 15.7938 8.82235 15.8478 8.81909H15.8647C15.9187 8.81583 15.9727 8.80932 16.0267 8.80606C16.0807 8.8028 16.1347 8.79628 16.1887 8.79302C16.1954 8.79302 16.2055 8.79302 16.2123 8.78976L16.3641 8.77998C16.3709 8.77998 16.381 8.77998 16.3878 8.77673C16.4384 8.77347 16.4856 8.77021 16.5363 8.76695H16.5531C16.6037 8.76369 16.651 8.76043 16.6982 8.76043H16.7016C16.732 8.76043 16.7624 8.75717 16.7927 8.75717H16.9952C17.0222 8.75717 17.0458 8.75717 17.0695 8.76043H17.0897C17.1032 8.76043 17.1167 8.76369 17.1302 8.76369C17.1369 8.76369 17.1437 8.76695 17.1504 8.76695C17.1606 8.76695 17.1741 8.77021 17.1842 8.77021C17.1909 8.77021 17.1977 8.77347 17.2044 8.77347C17.2146 8.77673 17.2247 8.77672 17.2348 8.77998C17.2416 8.78324 17.2517 8.78324 17.2584 8.7865C17.2787 8.79628 17.3023 8.8028 17.3259 8.80932C17.3327 8.81257 17.3394 8.81257 17.3462 8.81583L17.4069 8.83539C17.4305 8.84191 17.4542 8.85168 17.4778 8.8582C17.4845 8.86146 17.4913 8.86146 17.4947 8.86472C17.5149 8.87124 17.5352 8.87776 17.5554 8.88753C17.5622 8.89079 17.5689 8.89079 17.5757 8.89405C17.5858 8.89731 17.5959 8.90383 17.606 8.90709C17.6162 8.91035 17.6263 8.91686 17.633 8.92012C17.6432 8.92338 17.6533 8.9299 17.6634 8.93316C17.6735 8.93968 17.687 8.94294 17.6971 8.94945L17.1977 8.66918C17.1943 8.66592 17.1909 8.66592 17.1876 8.66266C17.1808 8.6594 17.1707 8.65614 17.1639 8.64962C17.1538 8.6431 17.1437 8.63984 17.1336 8.63659C17.1234 8.63333 17.1133 8.62681 17.1066 8.62355C17.0965 8.62029 17.0863 8.61377 17.0762 8.61051C17.0728 8.61051 17.0728 8.60725 17.0695 8.60725C17.0661 8.604 17.0593 8.60399 17.056 8.60399C17.0357 8.59748 17.0155 8.5877 16.9952 8.58118C16.9885 8.57792 16.9817 8.57792 16.9783 8.57466C16.9547 8.56489 16.9311 8.55837 16.9075 8.55185L16.8467 8.5323C16.84 8.52904 16.8332 8.52904 16.8265 8.52578C16.8029 8.51926 16.7792 8.50948 16.759 8.50296C16.7556 8.50296 16.7489 8.49971 16.7455 8.49971C16.7421 8.49971 16.7387 8.49971 16.7354 8.49645C16.7252 8.49319 16.7151 8.49319 16.705 8.48993C16.7016 8.48993 16.6982 8.48993 16.6949 8.48667H16.6847C16.6746 8.48667 16.6645 8.48341 16.651 8.48341C16.6442 8.48341 16.6375 8.48015 16.6274 8.48015C16.6139 8.48015 16.6004 8.47689 16.5869 8.47689H16.57H16.5666C16.543 8.47689 16.5194 8.47363 16.4924 8.47363H16.2899C16.2595 8.47363 16.2325 8.47689 16.2022 8.47689H16.1988C16.1515 8.48015 16.1043 8.48015 16.0537 8.48341H16.0368C15.9896 8.48667 15.9389 8.48993 15.8883 8.49319H15.8647L15.7128 8.50296C15.7027 8.50296 15.6926 8.50296 15.6858 8.50622C15.6318 8.50948 15.5812 8.51274 15.5272 8.51926C15.4732 8.52252 15.4159 8.52904 15.3619 8.5323H15.3484C15.2944 8.53556 15.2437 8.53881 15.1931 8.54207H15.183L15.0311 8.55185H15.0109C14.9636 8.55511 14.9164 8.55837 14.8725 8.55837H14.8455C14.8185 8.55837 14.7882 8.56163 14.7612 8.56163H14.5384C14.5148 8.56163 14.4946 8.56163 14.4743 8.55837H14.4608C14.4406 8.55837 14.4237 8.55511 14.4034 8.55511H14.3967C14.3764 8.55185 14.3596 8.55185 14.3427 8.54859C14.3258 8.54533 14.3123 8.54207 14.2988 8.53881L14.7983 8.81909C14.8118 8.82235 14.8253 8.82561 14.8422 8.82887H14.8455C14.8624 8.83213 14.8827 8.83539 14.8995 8.83539H14.9063C14.9231 8.83865 14.9434 8.83865 14.9603 8.83865H14.9738C14.994 8.83865 15.0176 8.84191 15.0379 8.84191H15.2606C15.2876 8.84191 15.3146 8.83865 15.345 8.83865H15.372C15.4159 8.83539 15.4631 8.83539 15.5103 8.83213C15.5171 8.83865 15.5238 8.83865 15.5306 8.83865Z" fill="#2A2ABC"/>
<path d="M14.686 8.79004L14.1865 8.50977C14.1865 8.50977 14.1899 8.50977 14.1899 8.51302L14.6894 8.7933C14.6894 8.79004 14.6894 8.79004 14.686 8.79004ZM14.6927 8.79004L14.1933 8.50977C14.2034 8.51628 14.2169 8.5228 14.227 8.52606L14.7265 8.80634C14.713 8.80308 14.7029 8.79656 14.6927 8.79004Z" fill="black"/>
<path d="M14.727 8.80567L14.2275 8.52539C14.241 8.52865 14.2512 8.53517 14.2647 8.53843L14.7641 8.81871C14.7506 8.81545 14.7405 8.81219 14.727 8.80567Z" fill="black"/>
<path d="M14.7641 8.81934L14.2646 8.53906C14.2748 8.54232 14.2849 8.54558 14.295 8.54558L14.7945 8.82586C14.7844 8.82586 14.7742 8.8226 14.7641 8.81934Z" fill="black"/>
<path d="M11.8892 9.72801V9.71498C11.8892 9.67913 11.8892 9.64328 11.8858 9.60743L11.3864 9.32715C11.3897 9.363 11.3897 9.39885 11.3897 9.4347V9.44773C11.3897 9.48358 11.3864 9.51943 11.383 9.55528C11.383 9.5618 11.383 9.56832 11.3796 9.57484C11.3762 9.59765 11.3729 9.62372 11.3695 9.64654C11.3661 9.66609 11.3627 9.68239 11.3594 9.70194C11.3526 9.74105 11.3425 9.7769 11.3324 9.81601C11.3324 9.81927 11.329 9.82252 11.329 9.82578C11.3189 9.86163 11.3054 9.89748 11.2919 9.93333C11.2885 9.94311 11.2851 9.94963 11.2817 9.95615C11.2682 9.99525 11.2514 10.0311 11.2345 10.0702L11.2244 10.0898C11.2075 10.1289 11.1872 10.168 11.167 10.2071C11.167 10.2104 11.1636 10.2104 11.1636 10.2136C11.14 10.256 11.1164 10.2951 11.0894 10.3342C11.0826 10.344 11.0759 10.3537 11.0691 10.3668C11.0556 10.3863 11.0421 10.4026 11.0286 10.4254L11.0084 10.4548C10.9983 10.4711 10.9848 10.4874 10.9713 10.5037C10.9645 10.5134 10.9544 10.5265 10.9476 10.5363C10.9341 10.5526 10.9206 10.5721 10.9071 10.5884C10.9004 10.5982 10.8903 10.608 10.8835 10.621L10.8025 10.7188C10.7992 10.7253 10.7924 10.7285 10.789 10.7351C10.7654 10.7644 10.7384 10.7937 10.7148 10.8231C10.7047 10.8328 10.6945 10.8459 10.6844 10.8589C10.6608 10.885 10.6372 10.911 10.6169 10.9371C10.6068 10.9502 10.5967 10.9599 10.5866 10.973C10.5562 11.0056 10.5258 11.0414 10.4954 11.0773L10.4853 11.087C10.4516 11.1261 10.4144 11.1653 10.3773 11.2076C10.3672 11.2174 10.3571 11.2304 10.3469 11.2435L10.266 11.3315C10.2525 11.3445 10.2423 11.3575 10.2288 11.3706L10.1377 11.4683C10.131 11.4749 10.1242 11.4846 10.1175 11.4912C10.0803 11.5335 10.0398 11.5726 10.0027 11.615C9.9926 11.6248 9.98248 11.6378 9.97236 11.6476C9.94198 11.6769 9.91499 11.7095 9.88461 11.7388C9.87111 11.7519 9.85762 11.7649 9.84749 11.778C9.81712 11.8105 9.78675 11.8399 9.75975 11.8692C9.74963 11.879 9.74288 11.8888 9.73275 11.8985C9.69563 11.9376 9.65851 11.9768 9.61801 12.0159C9.60789 12.0289 9.59439 12.0387 9.58427 12.0517C9.55727 12.0778 9.53027 12.1071 9.50665 12.1332C9.48977 12.1495 9.47628 12.1658 9.4594 12.1821C9.43578 12.2049 9.41553 12.2277 9.39191 12.2505C9.31091 12.3353 9.22992 12.4167 9.15905 12.4917C9.14893 12.5015 9.13881 12.5145 9.12868 12.5243C9.10506 12.5471 9.08481 12.5699 9.06119 12.5927C9.05106 12.6025 9.04094 12.6123 9.03419 12.6221C9.00719 12.6514 8.97682 12.6807 8.9532 12.7068L8.94982 12.71C8.92282 12.7394 8.8992 12.7655 8.8722 12.7915L8.85196 12.8111C8.83508 12.8306 8.81821 12.8469 8.80471 12.8632C8.79796 12.8697 8.79121 12.8763 8.78446 12.886C8.76759 12.9023 8.75409 12.9219 8.73722 12.9349L8.72709 12.9447L8.72372 12.948C8.71359 12.9577 8.70684 12.9675 8.69672 12.9773C8.69335 12.9805 8.68997 12.9871 8.68322 12.9903C8.6731 13.0034 8.66297 13.0164 8.65285 13.0262C8.62923 13.0555 8.6056 13.0816 8.58198 13.1109C8.57523 13.1174 8.57186 13.1272 8.56511 13.1337C8.53473 13.1696 8.50774 13.2087 8.48074 13.2445C8.47062 13.2576 8.46387 13.2673 8.45374 13.2804C8.45037 13.2836 8.44699 13.2869 8.44699 13.2902C8.41662 13.3293 8.38962 13.3716 8.36263 13.414L8.34238 13.4433C8.34238 13.4433 8.34238 13.4466 8.339 13.4466C8.30525 13.4987 8.27151 13.5476 8.24114 13.5998V13.603C8.23101 13.6161 8.22426 13.6324 8.21751 13.6454C8.19727 13.6812 8.17364 13.7171 8.15339 13.7529C8.15339 13.7562 8.15002 13.7562 8.15002 13.7595C8.1399 13.779 8.12977 13.7986 8.11965 13.8149C8.10277 13.8475 8.0859 13.8768 8.06903 13.9094C8.06903 13.9126 8.06565 13.9159 8.06565 13.9192C8.05553 13.9387 8.04878 13.9583 8.03865 13.9746C8.02516 14.0071 8.00828 14.0365 7.99478 14.0691C7.99141 14.0723 7.99141 14.0788 7.98803 14.0821C7.98128 14.0984 7.97454 14.118 7.96441 14.1343L7.92391 14.232C7.92054 14.2385 7.91716 14.2451 7.91716 14.2516C7.91042 14.2679 7.90704 14.2809 7.90029 14.2972C7.88679 14.3331 7.87329 14.3656 7.8598 14.4015C7.85642 14.4113 7.85305 14.421 7.84967 14.4276C7.8463 14.4406 7.84292 14.4536 7.83955 14.4634C7.82605 14.5025 7.81255 14.5416 7.80243 14.5807C7.79905 14.5938 7.79568 14.6068 7.78893 14.6199L7.7788 14.659C7.77543 14.672 7.77205 14.685 7.76868 14.6948C7.75518 14.7404 7.74506 14.7861 7.73493 14.8349C7.72481 14.8838 7.71468 14.9327 7.70793 14.9816C7.70456 14.9979 7.70456 15.0142 7.70118 15.0272C7.69781 15.0533 7.69106 15.0794 7.68769 15.1022C7.68769 15.1087 7.68769 15.1152 7.68431 15.1217L7.67419 15.2293C7.67419 15.2456 7.67081 15.2651 7.67081 15.2814C7.66744 15.3336 7.66406 15.389 7.66406 15.4411L8.16352 15.7214C8.16352 15.6693 8.16689 15.6171 8.17027 15.5617C8.17027 15.5454 8.17364 15.5259 8.17364 15.5096L8.18377 15.402C8.18714 15.3694 8.19389 15.3401 8.19727 15.3075C8.20064 15.2912 8.20064 15.2749 8.20401 15.2619C8.21414 15.213 8.22089 15.1641 8.23101 15.1152C8.24114 15.0696 8.25126 15.024 8.26476 14.9751C8.26813 14.9621 8.27151 14.949 8.27488 14.9392C8.28163 14.9132 8.28838 14.8871 8.29851 14.861C8.312 14.8219 8.32213 14.7828 8.33563 14.7437C8.34238 14.7209 8.34913 14.7013 8.35925 14.6785C8.37275 14.6427 8.38625 14.6101 8.39975 14.5742C8.4065 14.5514 8.41662 14.5319 8.42337 14.509L8.46387 14.4113C8.47399 14.3885 8.48074 14.3689 8.49086 14.3461C8.50436 14.3135 8.52124 14.2842 8.53473 14.2516C8.54486 14.2288 8.55498 14.2092 8.56511 14.1864C8.58198 14.1538 8.59885 14.1245 8.61573 14.0919C8.62585 14.0723 8.63598 14.0495 8.64947 14.03C8.66972 13.9941 8.68997 13.9583 8.71359 13.9224C8.72372 13.9061 8.73047 13.8898 8.74059 13.8768C8.77096 13.8246 8.80471 13.7725 8.83846 13.7236L8.85871 13.6943C8.8857 13.6519 8.91608 13.6128 8.94307 13.5704C8.9532 13.5541 8.9667 13.5378 8.97682 13.5248C9.00382 13.4857 9.03419 13.4499 9.06119 13.414C9.09156 13.3782 9.11856 13.3423 9.14893 13.3065C9.15905 13.2967 9.16918 13.2836 9.1793 13.2706L9.1928 13.2576C9.19955 13.2478 9.20967 13.238 9.2198 13.2282C9.22317 13.225 9.22655 13.2217 9.22992 13.2152C9.24342 13.1989 9.26029 13.1826 9.27717 13.1663C9.28392 13.1598 9.29067 13.1533 9.29742 13.1435C9.31429 13.1272 9.32779 13.1109 9.34466 13.0914C9.35141 13.0848 9.35816 13.0783 9.36491 13.0685C9.38853 13.0425 9.41216 13.0164 9.43915 12.9903L9.4459 12.9838C9.46953 12.9577 9.49652 12.9317 9.52352 12.9023C9.53364 12.8926 9.54377 12.8828 9.55389 12.8697C9.57414 12.8469 9.59439 12.8274 9.61801 12.8046C9.62814 12.7915 9.64164 12.7817 9.65176 12.7687C9.67876 12.7394 9.70575 12.7133 9.73275 12.684C9.76987 12.6449 9.81037 12.6058 9.85087 12.5634C9.85762 12.5569 9.86099 12.5504 9.86774 12.5438C9.89811 12.5112 9.92848 12.4819 9.95886 12.4493C9.96898 12.4363 9.98248 12.4265 9.9926 12.4135C10.023 12.3809 10.0533 12.3516 10.0837 12.319L10.1107 12.2929C10.1478 12.2538 10.1883 12.2147 10.2255 12.1723C10.2356 12.1625 10.2423 12.1527 10.2525 12.143C10.2828 12.1136 10.3098 12.081 10.3402 12.0517C10.3537 12.0387 10.3672 12.0256 10.3773 12.0126C10.4077 11.98 10.4381 11.9507 10.4651 11.9181C10.4752 11.9083 10.4853 11.8985 10.4954 11.8855C10.5326 11.8431 10.5731 11.804 10.6102 11.7617C10.6169 11.7519 10.627 11.7454 10.6338 11.7356L10.7249 11.6378C10.735 11.6248 10.7485 11.6117 10.7587 11.5987L10.8397 11.5107C10.8498 11.4977 10.8599 11.4879 10.8734 11.4749C10.9105 11.4358 10.9443 11.3966 10.9814 11.3575L10.9848 11.3543L10.9949 11.3445C11.0253 11.3087 11.0556 11.2761 11.086 11.2435C11.0961 11.2304 11.1063 11.2207 11.1164 11.2076C11.14 11.1815 11.1636 11.1555 11.1839 11.1294C11.194 11.1164 11.2041 11.1066 11.2142 11.0936C11.2412 11.0642 11.2649 11.0349 11.2885 11.0056C11.2919 10.999 11.2986 10.9958 11.302 10.9893C11.329 10.9567 11.356 10.9208 11.383 10.8915C11.3864 10.8882 11.3864 10.885 11.3897 10.885C11.3965 10.8785 11.4032 10.8687 11.4066 10.8622C11.4201 10.8426 11.4336 10.8263 11.4471 10.81C11.4572 10.8002 11.464 10.7872 11.4707 10.7774C11.4842 10.7611 11.4943 10.7448 11.5078 10.7285C11.5112 10.722 11.5146 10.7188 11.5213 10.7122C11.5247 10.709 11.5281 10.7025 11.5315 10.6992C11.545 10.6797 11.5585 10.6601 11.572 10.6438C11.5753 10.6373 11.5787 10.634 11.5821 10.6275C11.5855 10.621 11.5888 10.6177 11.5922 10.6145C11.6057 10.5949 11.6158 10.5754 11.6293 10.5558C11.6428 10.5363 11.653 10.5134 11.6665 10.4939C11.6665 10.4906 11.6698 10.4906 11.6698 10.4874V10.4841C11.6833 10.4613 11.6968 10.4352 11.707 10.4124C11.7137 10.3994 11.7204 10.3863 11.7272 10.37L11.7373 10.3505C11.7407 10.3472 11.7407 10.3407 11.7441 10.3375C11.7542 10.3114 11.7677 10.2853 11.7778 10.2625C11.7812 10.256 11.7846 10.2495 11.7846 10.2397C11.7879 10.2299 11.7913 10.2234 11.7947 10.2136C11.7981 10.2006 11.8048 10.1908 11.8082 10.1778C11.8149 10.1549 11.8251 10.1289 11.8318 10.1061C11.8318 10.1028 11.8352 10.0995 11.8352 10.0963V10.093C11.8453 10.0604 11.8521 10.0278 11.8588 9.99525C11.8588 9.992 11.8588 9.98548 11.8622 9.98222C11.8656 9.96266 11.8689 9.94637 11.8723 9.92681C11.8757 9.91052 11.8791 9.89096 11.8824 9.87467C11.8824 9.86815 11.8824 9.86163 11.8858 9.85511C11.8858 9.8486 11.8858 9.84208 11.8892 9.83556C11.8858 9.79971 11.8858 9.76386 11.8892 9.72801Z" fill="#2A2ABC"/>
<path d="M12.9959 0.951758C13.1107 0.886577 13.2052 0.847468 13.2895 0.798582C13.5865 0.63237 14.0185 0.511786 14.1534 0.648666C14.1602 0.645407 14.2783 0.550894 14.447 0.456381C14.636 0.348833 14.8824 0.247802 15.068 0.286911C15.419 0.39446 16.0939 0.407496 16.104 4.08371C16.104 4.17822 16.1108 5.98048 16.4617 6.26727C16.455 6.29986 16.3234 6.92234 15.1591 7.73385C14.9465 7.88051 14.7305 8.01739 14.5145 8.13471C14.4268 8.50624 14.5449 8.77674 14.7946 8.82237C15.2536 8.92666 16.8735 8.65942 17.2514 8.78C17.6024 8.91688 18.1693 8.93318 18.1727 10.1358L8.14648 15.7348C8.15323 14.9559 8.5312 14.0303 9.13865 13.3101C9.40862 12.9809 11.1567 11.2797 11.5887 10.6181C11.8047 10.2857 11.9126 9.91089 11.8823 9.61106C11.7135 9.70232 11.5414 9.78379 11.3727 9.85223C10.907 10.0445 10.2523 10.2303 10.0194 9.8946C10.0363 9.84571 10.367 8.94622 10.3637 7.31995C10.3333 5.73931 10.4345 3.75128 11.5111 2.39552C12.2805 1.42758 12.7057 1.11145 12.9959 0.951758Z" fill="#4040FF"/>
<path d="M10.046 9.92746C10.0359 9.91768 10.0257 9.90464 10.019 9.89161L9.51953 9.61133C9.5364 9.63414 9.55665 9.65695 9.5769 9.67651C9.59715 9.69606 9.62077 9.71236 9.64777 9.72539L10.1472 10.0057C10.1101 9.98612 10.0764 9.96005 10.046 9.92746Z" fill="#2A2ABC"/>
<path d="M14.8381 0.10429C14.8347 0.10429 14.8313 0.101031 14.8313 0.101031C14.8212 0.0945127 14.8077 0.0912537 14.7976 0.0847356C14.7841 0.0782175 14.7739 0.0716994 14.7604 0.0684403C14.7604 0.0684403 14.7571 0.0684401 14.7571 0.0651811C14.7436 0.0586629 14.7334 0.0554041 14.7199 0.052145C14.7098 0.048886 14.6997 0.0456268 14.6929 0.0423678C14.6761 0.0391087 14.6626 0.0325908 14.6491 0.0293318C14.6221 0.0228137 14.5951 0.0130366 14.5715 0.0065185C14.5647 0.0065185 14.5613 0.00325925 14.5546 0.00325925C14.5411 1.98868e-07 14.5276 0 14.5107 0H14.4635C14.4567 0 14.4466 0.00325925 14.4398 0.00325925C14.4297 0.00325925 14.423 0.00325945 14.4128 0.0065185H14.3993C14.3926 0.0065185 14.3825 0.00977746 14.3757 0.0130365C14.3588 0.0162956 14.3453 0.0195547 14.3285 0.0228138C14.3251 0.0228138 14.3184 0.0260725 14.315 0.0260725L14.2846 0.0358498C14.2745 0.0391088 14.2644 0.042368 14.2576 0.045627L14.207 0.0651811C14.2002 0.0684401 14.1901 0.0716993 14.1834 0.0749583C14.18 0.0749583 14.18 0.0749585 14.1766 0.0782176C14.1732 0.0814766 14.1665 0.0814765 14.1631 0.0847356C14.1327 0.0977718 14.1057 0.110808 14.0787 0.123844C14.0686 0.127103 14.0619 0.133622 14.0517 0.136881C14.018 0.153176 13.9876 0.169471 13.9573 0.185766C13.802 0.273761 13.6907 0.355237 13.667 0.374791L13.6265 0.351978H13.6232L13.6029 0.342201C13.5995 0.342201 13.5995 0.342201 13.5962 0.338942C13.5928 0.338942 13.5894 0.335683 13.586 0.335683C13.5827 0.335683 13.5793 0.332424 13.5759 0.332424C13.5725 0.332424 13.5658 0.329165 13.5624 0.329165C13.559 0.329165 13.5523 0.325905 13.5489 0.325905H13.5422C13.5354 0.325905 13.532 0.325906 13.5253 0.322647C13.5185 0.322647 13.5118 0.319387 13.5017 0.319387H13.4274C13.4038 0.319387 13.3768 0.322646 13.3532 0.325905H13.3498C13.3431 0.325905 13.3397 0.329165 13.3329 0.329165C13.3194 0.332424 13.3059 0.332423 13.2924 0.335683C13.2857 0.335683 13.2756 0.338941 13.2688 0.342201L13.2283 0.351978C13.2249 0.351978 13.2182 0.355237 13.2148 0.355237C13.2114 0.355237 13.2081 0.358496 13.2081 0.358496C13.1777 0.365014 13.1473 0.374791 13.117 0.384568C13.1136 0.387827 13.1068 0.387827 13.1035 0.391086C13.0731 0.400863 13.0427 0.4139 13.009 0.423677H13.0056C13.0056 0.423677 13.0022 0.423677 13.0022 0.426936C12.9651 0.439972 12.9313 0.456267 12.8942 0.472563H12.8909C12.8537 0.488858 12.82 0.508412 12.7862 0.524708C12.7019 0.573593 12.6074 0.612702 12.4926 0.677883C12.4724 0.68766 12.4521 0.700697 12.4319 0.713733L12.4285 0.716992C12.4083 0.730028 12.388 0.739805 12.3678 0.752841C12.3644 0.752841 12.3644 0.756101 12.361 0.756101C12.3408 0.769137 12.3205 0.782173 12.2969 0.798468L12.2902 0.804986C12.2699 0.821282 12.2463 0.837577 12.2227 0.853872L12.2159 0.86039C12.1923 0.879945 12.1653 0.89624 12.1417 0.919053L12.1383 0.922312C12.1113 0.945125 12.0843 0.967939 12.0539 0.990752L12.0506 0.994011C12.0236 1.01682 11.9932 1.0429 11.9628 1.06897C11.9594 1.07223 11.9561 1.07223 11.9561 1.07549C11.9257 1.10156 11.8987 1.12763 11.8683 1.15696L11.8649 1.16022L11.8582 1.16674L11.784 1.23844L11.7738 1.24822C11.7468 1.27429 11.7232 1.30036 11.6928 1.32969L11.6895 1.33295C11.6625 1.36228 11.6355 1.39162 11.6051 1.42095C11.6017 1.42747 11.595 1.43072 11.5916 1.43724C11.5646 1.46657 11.5342 1.49916 11.5072 1.53175C11.5039 1.53501 11.5005 1.53827 11.5005 1.54153L11.4904 1.55131C11.46 1.5839 11.433 1.61649 11.4026 1.65234C11.3992 1.6556 11.3959 1.66212 11.3891 1.66538L11.298 1.77293L11.2879 1.7827C11.2541 1.82181 11.2204 1.86092 11.1866 1.90329C11.1799 1.90981 11.1731 1.91958 11.1664 1.9261C11.1326 1.96847 11.0989 2.00758 11.0651 2.0532C11.0618 2.05646 11.0618 2.05972 11.0584 2.06298C11.0415 2.08253 11.0246 2.10209 11.0078 2.1249C10.974 2.16727 10.9403 2.2129 10.9065 2.25526V2.25852C10.8998 2.26504 10.8964 2.27482 10.8897 2.28134C10.8627 2.32045 10.8357 2.3563 10.8087 2.3954C10.8053 2.39866 10.8053 2.40192 10.8019 2.40518C10.7918 2.42148 10.7817 2.43451 10.7715 2.45081C10.7547 2.48014 10.7344 2.50947 10.7175 2.5388C10.7142 2.54206 10.7108 2.54858 10.7074 2.55184C10.6973 2.56813 10.6906 2.58117 10.6804 2.59747L10.6298 2.68546C10.6264 2.69198 10.6231 2.6985 10.6163 2.70501L10.5961 2.74412C10.5792 2.77671 10.5623 2.80604 10.5454 2.83864C10.5421 2.84841 10.5353 2.85819 10.5319 2.86797C10.5252 2.87774 10.5218 2.88752 10.5184 2.90056C10.5016 2.93641 10.4847 2.97226 10.4678 3.01136C10.4611 3.0244 10.4577 3.03418 10.4509 3.04721C10.4476 3.05373 10.4442 3.06025 10.4442 3.06677C10.4172 3.12543 10.3936 3.18735 10.3666 3.24602V3.24928C10.3666 3.25254 10.3632 3.25579 10.3632 3.25905C10.3362 3.32749 10.3126 3.39593 10.2856 3.46437C10.2822 3.47415 10.2788 3.48067 10.2755 3.49045L10.2653 3.51978C10.2552 3.54585 10.2485 3.56866 10.2417 3.59474C10.2316 3.62081 10.2248 3.64688 10.2181 3.67295C10.2113 3.69903 10.2012 3.72184 10.1945 3.74791C10.1911 3.76421 10.1843 3.77724 10.181 3.79354C10.1776 3.80331 10.1776 3.80983 10.1742 3.81961C10.1607 3.8685 10.1472 3.91738 10.1337 3.96953L10.1236 4.00864C10.1067 4.07056 10.0932 4.13248 10.0797 4.19766C10.0797 4.20092 10.0764 4.20418 10.0764 4.2107C10.073 4.23025 10.0696 4.24655 10.0662 4.2661L10.046 4.36387C10.0426 4.38668 10.0359 4.41276 10.0325 4.43557C10.0257 4.46816 10.019 4.49749 10.0156 4.53008C10.0122 4.55616 10.0055 4.57897 10.0021 4.60504C9.99536 4.63763 9.99199 4.66696 9.98524 4.69955C9.98187 4.72563 9.97849 4.7517 9.97512 4.77451C9.97174 4.8071 9.96499 4.83643 9.96162 4.86902C9.96162 4.88206 9.95824 4.89184 9.95824 4.90487C9.95824 4.91465 9.95487 4.92117 9.95487 4.93095C9.94474 5.01242 9.93462 5.09064 9.92449 5.17212C9.92449 5.18189 9.92112 5.19167 9.92112 5.20145C9.91437 5.27967 9.90425 5.35788 9.90087 5.4361C9.90087 5.44588 9.8975 5.45565 9.8975 5.46543C9.89075 5.54691 9.88737 5.62513 9.88062 5.7066C9.88062 5.7229 9.87725 5.73919 9.87725 5.75549C9.87387 5.8337 9.8705 5.91192 9.86713 5.9934V6.03251C9.86375 6.11072 9.86375 6.18568 9.86038 6.2639V6.28019C9.86038 6.35841 9.857 6.43989 9.857 6.51811V6.82772C9.857 6.90267 9.86038 6.98089 9.86038 7.05585V7.29376C9.86038 7.33939 9.857 7.38501 9.857 7.43064V7.47627C9.85363 7.53493 9.85363 7.59033 9.85025 7.64574V7.67507C9.84688 7.7207 9.84688 7.76632 9.8435 7.80869C9.8435 7.82499 9.84013 7.84128 9.84013 7.85432C9.83675 7.89668 9.83338 7.94231 9.83 7.98468C9.83 7.99446 9.83 8.00097 9.82663 8.01075C9.82325 8.05964 9.8165 8.10852 9.81313 8.15741C9.81313 8.17045 9.80976 8.18348 9.80976 8.19326L9.79963 8.30081C9.79963 8.31384 9.79626 8.32688 9.79626 8.33992C9.78951 8.38554 9.78613 8.42791 9.77938 8.47028C9.77601 8.50287 9.76926 8.53546 9.76588 8.56805C9.76588 8.57783 9.76251 8.5876 9.76251 8.60064C9.75914 8.62019 9.75576 8.64301 9.75239 8.66256C9.74901 8.6756 9.74901 8.68538 9.74564 8.69841C9.74226 8.71797 9.73889 8.73426 9.73551 8.75056C9.73214 8.76359 9.73214 8.77663 9.72876 8.78641L9.71864 8.83529C9.71526 8.84833 9.71526 8.85811 9.71189 8.87114C9.70851 8.88744 9.70514 8.90047 9.70177 8.91677C9.69839 8.9298 9.69839 8.93958 9.69502 8.94936C9.69164 8.96239 9.68827 8.97869 9.68489 8.99173C9.68152 9.0015 9.68152 9.01454 9.67814 9.02432C9.67477 9.03735 9.67139 9.05039 9.66802 9.06668C9.66464 9.07646 9.66464 9.08624 9.66127 9.09602C9.65789 9.10579 9.65789 9.11231 9.65452 9.12209C9.64777 9.14816 9.6444 9.17097 9.63765 9.19379C9.63765 9.20031 9.63427 9.20682 9.63427 9.21008L9.61402 9.2883C9.61402 9.29482 9.61065 9.29808 9.61065 9.3046C9.6039 9.32415 9.60052 9.34371 9.59715 9.36326C9.59715 9.36978 9.59377 9.37304 9.59377 9.37955C9.58703 9.39911 9.58365 9.42192 9.5769 9.43822C9.5769 9.44148 9.57353 9.44473 9.57353 9.44799L9.5634 9.4871C9.5634 9.49036 9.56003 9.49688 9.56003 9.50014L9.5499 9.52947C9.5499 9.53273 9.54653 9.53599 9.54653 9.53925C9.54315 9.55228 9.53978 9.56206 9.5364 9.57184V9.5751C9.53303 9.58487 9.52966 9.59139 9.52966 9.59791C9.52966 9.60117 9.52966 9.60117 9.52628 9.60443C9.52291 9.61095 9.52291 9.61421 9.52291 9.61747V9.62072C9.52291 9.62398 9.51953 9.62724 9.51953 9.6305L10.019 9.91078C10.019 9.90752 10.0224 9.90752 10.0224 9.901V9.89774C10.0224 9.89448 10.0257 9.89123 10.0257 9.88471V9.88145V9.87819C10.0291 9.87167 10.0291 9.86515 10.0325 9.85538V9.85212C10.0359 9.84234 10.0392 9.83256 10.0426 9.81953C10.0426 9.81627 10.046 9.81301 10.046 9.80975L10.0561 9.78042C10.0561 9.77716 10.0595 9.77064 10.0595 9.76738L10.0696 9.72827C10.0696 9.72501 10.0696 9.72176 10.073 9.7185V9.71524C10.0797 9.69568 10.0831 9.67613 10.0899 9.65657C10.0899 9.65006 10.0932 9.6468 10.0932 9.64028C10.0966 9.62072 10.1034 9.60443 10.1067 9.58161C10.1067 9.5751 10.1101 9.57184 10.1101 9.56532C10.1169 9.53925 10.1236 9.51643 10.1304 9.4871C10.1304 9.48058 10.1337 9.47407 10.1337 9.47081C10.1405 9.44799 10.1439 9.42518 10.1506 9.39911C10.1506 9.39259 10.154 9.38933 10.154 9.38607C10.154 9.38281 10.154 9.37955 10.1573 9.37304C10.1607 9.36326 10.1607 9.35348 10.1641 9.3437L10.1742 9.3046C10.1776 9.29482 10.1776 9.28178 10.181 9.27201C10.1843 9.25897 10.1877 9.24267 10.1911 9.22964C10.1945 9.21986 10.1945 9.20682 10.1978 9.19379C10.2012 9.17749 10.2046 9.16446 10.208 9.14816C10.2113 9.13513 10.2113 9.12535 10.2147 9.11231L10.2248 9.06343C10.2282 9.05039 10.2282 9.04061 10.2316 9.02758C10.235 9.01128 10.2383 8.99173 10.2417 8.97543C10.2451 8.96239 10.2451 8.95262 10.2485 8.93958C10.2518 8.92003 10.2552 8.89721 10.2586 8.87766C10.2586 8.86788 10.262 8.8581 10.262 8.84507C10.2653 8.81248 10.2721 8.77989 10.2755 8.7473C10.2822 8.70493 10.2856 8.6593 10.2923 8.61693C10.2923 8.6039 10.2957 8.59086 10.2957 8.57783L10.3058 8.47028C10.3058 8.45724 10.3092 8.44421 10.3092 8.43443C10.3126 8.38554 10.3193 8.33666 10.3227 8.28777C10.3227 8.27799 10.3227 8.27148 10.3261 8.2617C10.3295 8.21933 10.3328 8.17696 10.3362 8.13134C10.3362 8.11504 10.3396 8.10201 10.3396 8.08571C10.343 8.04008 10.3463 7.99772 10.3463 7.95209V7.92276C10.3497 7.86735 10.3497 7.81195 10.3531 7.75329V7.70766C10.3531 7.66203 10.3565 7.61641 10.3565 7.57078V7.51863V7.33287C10.3565 7.25791 10.3531 7.18295 10.3531 7.10473V7.06237V6.83749V6.79513C10.3531 6.71691 10.3531 6.63869 10.3565 6.55721V6.54092C10.3565 6.46596 10.3598 6.38774 10.3632 6.30953V6.27042C10.3666 6.1922 10.37 6.11398 10.3733 6.03251C10.3733 6.01621 10.3767 5.99992 10.3767 5.98362C10.3801 5.90214 10.3868 5.82393 10.3936 5.74245C10.3936 5.73267 10.397 5.7229 10.397 5.71312L10.4172 5.47847C10.4172 5.46869 10.4206 5.45891 10.4206 5.44914C10.4307 5.36766 10.4374 5.28944 10.4509 5.20797C10.4543 5.18841 10.4577 5.16886 10.4577 5.14604C10.4611 5.11345 10.4678 5.08412 10.4712 5.05153C10.4746 5.02546 10.4779 4.99939 10.4813 4.97657C10.4847 4.94398 10.4914 4.91465 10.4982 4.88206C10.5016 4.85599 10.5049 4.83318 10.5117 4.8071C10.5184 4.77451 10.5218 4.74518 10.5286 4.71259C10.5319 4.68978 10.5387 4.6637 10.5421 4.64089L10.5623 4.54312C10.5657 4.52031 10.5724 4.49749 10.5758 4.47468C10.5893 4.41276 10.6062 4.35084 10.6197 4.28565L10.6298 4.24655C10.6433 4.19766 10.6568 4.14552 10.6703 4.09663C10.6771 4.07382 10.6838 4.04774 10.6906 4.02493C10.6973 3.99886 10.7041 3.97279 10.7142 3.94997C10.7209 3.9239 10.731 3.89783 10.7378 3.87176C10.7445 3.84568 10.7547 3.82287 10.7614 3.7968C10.7682 3.77724 10.7749 3.75769 10.7817 3.74139C10.8053 3.67295 10.8323 3.60451 10.8593 3.53607C10.8593 3.53281 10.8627 3.52955 10.8627 3.5263C10.8863 3.46437 10.9133 3.40571 10.9403 3.34705C10.947 3.32749 10.9572 3.3112 10.9639 3.29164C10.9808 3.25579 10.9976 3.21669 11.0145 3.18084C11.0246 3.16128 11.0348 3.14173 11.0449 3.11891C11.0618 3.08632 11.0786 3.05373 11.0955 3.0244C11.1056 3.00485 11.1158 2.98529 11.1293 2.96574L11.1799 2.87774C11.19 2.85819 11.2035 2.83863 11.2136 2.81908C11.2305 2.78975 11.2508 2.76042 11.2676 2.73109C11.2777 2.71153 11.2912 2.69524 11.3014 2.67568C11.3284 2.63657 11.3554 2.59747 11.3824 2.56162C11.3891 2.55184 11.3925 2.54532 11.3992 2.53554C11.433 2.48992 11.4634 2.44755 11.5005 2.40518C11.5207 2.38237 11.5376 2.35955 11.5578 2.33348C11.5916 2.29111 11.6287 2.24875 11.6625 2.20638C11.6692 2.19986 11.676 2.19008 11.6793 2.18357C11.7131 2.1412 11.7468 2.10209 11.7806 2.06298C11.784 2.05972 11.7873 2.05646 11.7873 2.0532C11.8177 2.01735 11.8514 1.97825 11.8818 1.94565C11.8852 1.9424 11.8886 1.93588 11.8953 1.93262C11.9257 1.89677 11.9561 1.86418 11.9864 1.83159C11.9932 1.82507 11.9966 1.81855 12.0033 1.81203C12.0337 1.77944 12.0607 1.74685 12.0911 1.71752C12.0944 1.711 12.1012 1.70774 12.1045 1.70448C12.1349 1.67515 12.1619 1.64256 12.1889 1.61649L12.1923 1.61323C12.2193 1.5839 12.2463 1.55783 12.2733 1.53175L12.2834 1.52198L12.3577 1.45028L12.3711 1.43724C12.4015 1.40791 12.4319 1.38184 12.4589 1.35577L12.4656 1.34925C12.496 1.32318 12.523 1.2971 12.5534 1.27429L12.5568 1.27103C12.5871 1.24496 12.6141 1.22215 12.6411 1.20259L12.6445 1.19933C12.6715 1.17978 12.6951 1.16022 12.7187 1.14067L12.7255 1.13415C12.7491 1.11786 12.7694 1.10156 12.793 1.08526C12.7964 1.08201 12.7997 1.08201 12.7997 1.07875C12.82 1.06245 12.8402 1.04942 12.8605 1.03638C12.8639 1.03638 12.8639 1.03312 12.8672 1.03312C12.8875 1.02008 12.9077 1.00705 12.928 0.99727L12.9313 0.994011C12.9516 0.980975 12.9718 0.971198 12.9921 0.958162C13.1068 0.892981 13.2013 0.853872 13.2857 0.804986C13.3194 0.785432 13.3532 0.769137 13.3903 0.752841H13.3937C13.4274 0.736546 13.4646 0.720251 13.5017 0.707215C13.505 0.707215 13.505 0.703956 13.5084 0.703956C13.5388 0.690919 13.5692 0.681142 13.6029 0.671365C13.6063 0.668106 13.613 0.668106 13.6164 0.664847C13.6468 0.65507 13.6772 0.645293 13.7075 0.638775C13.7143 0.635515 13.721 0.635516 13.7278 0.632257L13.7683 0.622479C13.775 0.61922 13.7851 0.61922 13.7919 0.615961C13.8054 0.612702 13.8189 0.609443 13.8324 0.609443C13.8391 0.609443 13.8459 0.606184 13.8526 0.606184C13.8796 0.602925 13.9033 0.599666 13.9269 0.599666H13.9978C14.0045 0.599666 14.0113 0.599666 14.0214 0.602925C14.0281 0.602925 14.0349 0.606184 14.0416 0.606184C14.045 0.606184 14.0517 0.609443 14.0551 0.609443C14.0619 0.612702 14.0686 0.612702 14.0754 0.615961L14.153 0.658329C14.1597 0.65507 14.2779 0.560557 14.4466 0.466045C14.477 0.449749 14.5073 0.433454 14.5411 0.417159C14.5512 0.4139 14.558 0.407382 14.5681 0.404123C14.5951 0.391087 14.6254 0.378051 14.6524 0.365014L14.6727 0.355237C14.6794 0.351978 14.6896 0.348719 14.6963 0.34546C14.7132 0.338942 14.7301 0.332423 14.7503 0.325905C14.7604 0.322646 14.7706 0.319388 14.7773 0.316129C14.7908 0.312869 14.8077 0.306351 14.8212 0.303092C14.8381 0.299833 14.8516 0.296574 14.8684 0.293315C14.8819 0.290056 14.8954 0.286797 14.9089 0.286797C14.919 0.286797 14.9258 0.283538 14.9359 0.283538C14.9528 0.283538 14.9697 0.280279 14.9865 0.280279H15C15.0237 0.280279 15.0473 0.283538 15.0675 0.286797C15.0844 0.293315 15.1013 0.296574 15.1215 0.303092H15.1249C15.1317 0.306351 15.1418 0.306351 15.1485 0.30961C15.162 0.312869 15.1755 0.319387 15.1924 0.322647C15.2025 0.325906 15.2126 0.329165 15.2194 0.332424C15.2329 0.335683 15.2464 0.342201 15.2599 0.348719C15.2734 0.355237 15.2835 0.361755 15.297 0.365014L15.3375 0.384568L14.8381 0.10429Z" fill="#2A2ABC"/>
<path d="M13.5295 8.92285C13.5868 8.94892 13.6374 8.975 13.6813 8.99781C13.7218 9.02062 13.7522 9.05647 13.7758 9.09884C13.7961 9.13795 13.7961 9.19661 13.7691 9.25527C13.7016 9.42475 13.6476 9.56163 13.6003 9.66266C13.5632 9.75391 13.5126 9.83864 13.4586 9.92012C13.4856 9.98856 13.5126 10.0831 13.5463 10.2037C13.5801 10.3242 13.6104 10.4513 13.6408 10.5817C13.6712 10.7121 13.6982 10.8327 13.7218 10.9369C13.7421 11.0086 13.7556 11.0869 13.7589 11.1683C13.7556 11.227 13.7353 11.2922 13.7049 11.3541C13.6644 11.4388 13.6206 11.5236 13.5666 11.6018C13.516 11.6833 13.4586 11.7615 13.3978 11.8364C13.354 11.8951 13.3033 11.9473 13.2493 11.9831C13.1954 12.0092 13.1481 12.0157 13.1042 12.0027C13.0469 11.9896 12.9929 11.9668 12.949 11.9342C12.9018 11.9016 12.8579 11.869 12.8174 11.8299C12.787 11.8071 12.7668 11.7647 12.76 11.7126C12.7634 11.6148 12.7735 11.5105 12.7904 11.4063C12.8106 11.2661 12.8343 11.1195 12.8646 10.9565C12.8916 10.7968 12.9254 10.6404 12.9558 10.4839C12.9895 10.3308 13.0131 10.2102 13.03 10.1287C12.9726 10.1026 12.9254 10.0603 12.8916 10.0016C12.8433 9.92733 12.7927 9.85452 12.7398 9.78324C12.7161 9.75717 12.7128 9.70502 12.733 9.64962C12.7533 9.5877 12.7803 9.52903 12.814 9.46711C12.8545 9.38564 12.9018 9.30742 12.9524 9.2292L13.5295 8.92285Z" fill="#2828CE"/>
<path d="M13.3603 12.2112C13.3299 12.1884 13.3097 12.1461 13.3029 12.0939C13.3029 12.0483 13.3063 12.0027 13.3131 11.957C13.3131 11.944 13.3164 11.9277 13.3164 11.9147C13.3198 11.8723 13.3266 11.8299 13.3333 11.7876C13.3536 11.6474 13.3772 11.5008 13.4076 11.3378C13.4346 11.1781 13.4683 11.0217 13.4987 10.8652C13.5324 10.7121 13.556 10.5915 13.5729 10.51L13.2085 10.3047C13.1916 10.3894 13.168 10.5067 13.1342 10.6599C13.1005 10.8131 13.0701 10.9695 13.0431 11.1325C13.0127 11.2922 12.9891 11.4421 12.9688 11.5822C12.9655 11.6083 12.9621 11.6311 12.9587 11.6572C12.9554 11.6767 12.9553 11.693 12.952 11.7126C12.952 11.7256 12.9486 11.7419 12.9486 11.755L12.9385 11.8918C12.9452 11.944 12.9621 11.9831 12.9958 12.0092C13.0363 12.0483 13.0802 12.0841 13.1275 12.1135C13.1376 12.12 13.1511 12.1298 13.1612 12.1363L13.5257 12.3416C13.5155 12.3351 13.5021 12.3286 13.4919 12.3188C13.4447 12.2862 13.4008 12.2503 13.3603 12.2112Z" fill="#ACC5EA"/>
<path d="M14.0686 9.29809L13.7041 9.09277C13.7446 9.10907 13.7783 9.12862 13.8121 9.14492L14.1766 9.35024C14.1462 9.33068 14.1091 9.31439 14.0686 9.29809Z" fill="#878787"/>
<path d="M14.177 9.34985L13.8125 9.14453C13.8159 9.14779 13.8192 9.14779 13.8226 9.15105L14.1871 9.35637C14.1837 9.35311 14.1803 9.34985 14.177 9.34985Z" fill="#838383"/>
<path d="M13.4953 9.61748L13.1309 9.41216L13.7046 9.09277L14.069 9.29809L13.4953 9.61748Z" fill="#ACC5EA"/>
<path d="M14.0685 9.29785C14.1259 9.32392 14.1765 9.35 14.2204 9.37281C14.2609 9.39562 14.2912 9.43147 14.3149 9.47384C14.3351 9.51295 14.3351 9.57161 14.3081 9.63027C14.2406 9.79975 14.1866 9.93663 14.1394 10.0377C14.1023 10.1289 14.0516 10.2136 13.9976 10.2951C14.0246 10.3636 14.0516 10.4581 14.0854 10.5787C14.1191 10.6992 14.1495 10.8263 14.1799 10.9567C14.2102 11.0871 14.2372 11.2077 14.2609 11.3119C14.2811 11.3836 14.2946 11.4619 14.298 11.5433C14.2946 11.602 14.2744 11.6672 14.244 11.7291C14.2035 11.8138 14.1596 11.8986 14.1056 11.9768C14.055 12.0583 13.9976 12.1365 13.9369 12.2114C13.893 12.2701 13.8424 12.3223 13.7884 12.3581C13.7344 12.3842 13.6872 12.3907 13.6433 12.3777C13.5859 12.3646 13.5319 12.3418 13.4881 12.3092C13.4408 12.2766 13.3969 12.244 13.3565 12.2049C13.3261 12.1821 13.3058 12.1397 13.2991 12.0876C13.3025 11.9898 13.3126 11.8855 13.3295 11.7813C13.3497 11.6411 13.3733 11.4945 13.4037 11.3315C13.4307 11.1718 13.4644 11.0154 13.4948 10.8589C13.5286 10.7058 13.5522 10.5852 13.5691 10.5037C13.5117 10.4776 13.4644 10.4353 13.4307 10.3766C13.3824 10.3023 13.3317 10.2295 13.2788 10.1582C13.2552 10.1322 13.2518 10.08 13.2721 10.0246C13.2923 9.9627 13.3193 9.90403 13.3531 9.84211C13.3936 9.76064 13.4408 9.68242 13.4914 9.6042L14.0685 9.29785Z" fill="white"/>
<path d="M13.4341 10.3862L13.0697 10.1809C13.1 10.2298 13.1405 10.2722 13.1911 10.2982L13.5556 10.5036C13.505 10.4742 13.4645 10.4351 13.4341 10.3862ZM13.2823 10.1679C13.2755 10.1614 13.2721 10.1548 13.2688 10.1451C13.2688 10.1418 13.2688 10.1418 13.2654 10.1385C13.262 10.132 13.262 10.1223 13.262 10.1157V10.1125C13.262 10.1027 13.262 10.0897 13.2654 10.0799V10.0766L13.2755 10.0375C13.2856 10.0082 13.2991 9.97886 13.3093 9.94952V9.94627C13.3228 9.91693 13.3363 9.8876 13.3531 9.85827C13.37 9.82242 13.3903 9.78657 13.4105 9.75398C13.4173 9.7442 13.4206 9.73443 13.4274 9.72465C13.4476 9.6888 13.4679 9.65621 13.4915 9.62036L13.127 9.41504C13.1102 9.44111 13.0933 9.46718 13.0798 9.49326C13.0764 9.50303 13.0697 9.50955 13.0663 9.51933C13.0595 9.52911 13.0562 9.53888 13.0494 9.54866C13.0427 9.55844 13.0393 9.56821 13.0325 9.57799C13.019 9.60406 13.0055 9.62688 12.992 9.65295C12.992 9.65295 12.992 9.65621 12.9887 9.65621C12.9819 9.66925 12.9752 9.68228 12.9684 9.69858C12.9617 9.71161 12.9549 9.72791 12.9482 9.74094V9.74746C12.9414 9.7605 12.938 9.77354 12.9313 9.78657C12.9245 9.80287 12.9178 9.81916 12.9144 9.8322V9.83546C12.9144 9.83872 12.911 9.84198 12.911 9.84523C12.911 9.84849 12.9077 9.85175 12.9077 9.85501C12.9077 9.85827 12.9043 9.86479 12.9043 9.86805V9.91367C12.9043 9.92345 12.9077 9.92997 12.9077 9.93649C12.9077 9.93975 12.9077 9.93975 12.911 9.94301C12.9144 9.94952 12.9178 9.9593 12.9245 9.96582C12.9819 10.0473 13.0325 10.1223 13.0764 10.1842L13.4409 10.3895C13.3936 10.3211 13.343 10.2494 13.2823 10.1679Z" fill="#ACC5EA"/>
<path d="M19.2495 11.2861L18.75 11.0059L20.2855 11.6349L20.7883 11.9151L19.2495 11.2861Z" fill="#C68620"/>
<path d="M19.9675 10.4483L19.468 10.168C19.3263 10.0898 19.333 9.90405 19.2217 9.83887L19.7211 10.1191C19.8291 10.1811 19.8258 10.3701 19.9675 10.4483Z" fill="#C68620"/>
<path d="M18.8676 11.4979L18.3682 11.2176V10.7939L18.8676 11.0742V11.4979Z" fill="#C68620"/>
<path d="M18.8681 11.0745L18.3686 10.7942L18.7499 10.5791L19.2494 10.8626L18.8681 11.0745ZM18.1054 11.9251L17.6025 11.6448L18.3686 11.2179L18.8681 11.4982L18.1054 11.9251ZM16.1987 14.4737L15.6992 14.1901L17.2246 11.8567L17.724 12.1369L16.1987 14.4737Z" fill="#C68620"/>
<path d="M16.202 15.4608L16.1987 14.4701L15.6992 14.1898L15.7026 15.1805C15.7026 15.2979 15.7532 15.3793 15.8275 15.4217L16.3269 15.702C16.2527 15.6596 16.202 15.5781 16.202 15.4608ZM17.724 12.1366L17.2246 11.8563V11.4326L17.724 11.7129V12.1366Z" fill="#C68620"/>
<path d="M17.7241 11.7128L17.2246 11.4325L17.6026 11.2207L18.102 11.501L17.7241 11.7128Z" fill="#C68620"/>
<path d="M19.2494 10.8623V11.286L20.7849 11.915L20.7883 12.9057C20.7883 13.1795 20.5217 13.551 20.2753 13.6879L16.7083 15.6759C16.4619 15.8128 16.1987 15.7378 16.1987 15.4641L16.1953 14.4733L17.7207 12.1366V11.7129L18.0986 11.5011V11.9248L18.8647 11.4978V11.0741L19.2494 10.8623Z" fill="#FFCD2E"/>
<path d="M18.4794 9.73108C18.5537 9.68871 19.9508 8.91632 20.7101 8.98476C21.0037 9.01083 21.1488 9.22267 21.1556 9.47688C21.1623 9.77671 20.9801 10.1417 20.619 10.3405C20.5144 10.3992 20.3963 10.4416 20.2647 10.4676C19.7078 10.5752 19.9306 10.0635 19.5931 10.0994C19.0599 10.158 18.5469 10.435 18.4862 10.4709C18.4288 10.5035 17.9091 10.8001 17.3658 11.3443C17.0317 11.68 17.2578 11.944 16.701 12.4589C16.5694 12.5795 16.4513 12.6675 16.3466 12.7262C15.9889 12.925 15.8033 12.7718 15.8067 12.4654C15.8101 12.2014 15.9552 11.8267 16.2488 11.4714C17.0081 10.5589 18.4052 9.77345 18.4794 9.73108Z" fill="#FFCD2E"/>
<path d="M18.5174 9.71228C18.5241 9.70902 18.5275 9.70576 18.5343 9.7025C18.5376 9.69924 18.5444 9.69598 18.5478 9.69598L18.568 9.6862C18.5748 9.68294 18.5781 9.67969 18.5849 9.67643C18.5916 9.67317 18.6017 9.66665 18.6085 9.66339L18.6287 9.65361C18.6389 9.65035 18.649 9.64384 18.6591 9.63732L18.6794 9.62754C18.6895 9.62102 18.6996 9.61776 18.7131 9.61124C18.7199 9.60799 18.73 9.60147 18.7367 9.59821C18.7469 9.59169 18.7604 9.58517 18.7739 9.58191C18.784 9.57865 18.7907 9.57214 18.8009 9.56888L18.8414 9.54932C18.8515 9.54606 18.8582 9.53955 18.8683 9.53629C18.8818 9.52977 18.8987 9.52325 18.9122 9.51347C18.9223 9.51021 18.9291 9.5037 18.9392 9.50044L19 9.47111C19.0033 9.46785 19.0101 9.46785 19.0135 9.46459C19.0405 9.45155 19.0641 9.44178 19.0911 9.42874C19.0978 9.42548 19.108 9.42222 19.1147 9.41896C19.1349 9.40918 19.1518 9.40267 19.1721 9.39289C19.1822 9.38963 19.1923 9.38311 19.2024 9.37985C19.2193 9.37333 19.2396 9.36356 19.2564 9.35704C19.2666 9.35052 19.2801 9.34726 19.2936 9.34074C19.3104 9.33423 19.3273 9.32445 19.3476 9.31793C19.3611 9.31141 19.3746 9.30815 19.3847 9.30163C19.4016 9.29512 19.4184 9.2886 19.4387 9.27882C19.4488 9.27556 19.4589 9.2723 19.469 9.26579C19.5129 9.24949 19.5568 9.22994 19.604 9.21364C19.6074 9.21364 19.6142 9.21038 19.6175 9.21038C19.6614 9.19409 19.7053 9.17779 19.7491 9.16476C19.7559 9.1615 19.7626 9.1615 19.7694 9.15824C19.8133 9.14194 19.8571 9.12891 19.9044 9.11587C19.9145 9.11261 19.9213 9.10935 19.9314 9.10935C19.9752 9.09631 20.0191 9.08328 20.0664 9.07024C20.0731 9.06698 20.0799 9.06698 20.0866 9.06698C20.1305 9.05721 20.1744 9.04417 20.2149 9.03765C20.2182 9.03765 20.2216 9.03439 20.225 9.03439C20.2688 9.02462 20.3127 9.0181 20.3532 9.01158C20.3633 9.01158 20.3735 9.00832 20.3802 9.00832C20.3971 9.00506 20.4173 9.00506 20.4342 9.0018C20.4443 9.0018 20.4578 8.99854 20.468 8.99854C20.4882 8.99528 20.5085 8.99528 20.5253 8.99528C20.5355 8.99528 20.5422 8.99528 20.5523 8.99202H20.6637C20.6772 8.99202 20.6941 8.99203 20.7076 8.99528C20.7244 8.99854 20.7447 8.99854 20.7616 9.0018C20.7717 9.00506 20.7852 9.00506 20.7953 9.00832C20.8021 9.01158 20.8122 9.01158 20.8189 9.01484C20.829 9.0181 20.8392 9.02136 20.8459 9.02462C20.8527 9.02787 20.8628 9.03113 20.8695 9.03439C20.8797 9.03765 20.8864 9.04091 20.8965 9.04743C20.9033 9.05069 20.9134 9.05395 20.9202 9.06047L20.4207 8.78019C20.4207 8.78019 20.4173 8.77693 20.414 8.77693L20.3937 8.76715C20.3836 8.76389 20.3768 8.75737 20.3667 8.75411H20.3633C20.3566 8.75086 20.3498 8.75085 20.3431 8.7476C20.333 8.74434 20.3228 8.74108 20.3161 8.73782H20.3127C20.306 8.73456 20.2992 8.73456 20.2925 8.73456C20.2823 8.7313 20.2722 8.72804 20.2587 8.72804H20.252C20.2351 8.72478 20.2216 8.72478 20.2047 8.72152C20.1946 8.72152 20.1845 8.71826 20.1744 8.71826H20.1609C20.1237 8.71501 20.0866 8.71501 20.0495 8.71826H20.0461C20.0394 8.71826 20.0292 8.71826 20.0225 8.72152C20.0022 8.72152 19.9854 8.72478 19.9651 8.72478C19.955 8.72478 19.9415 8.72804 19.9314 8.72804C19.9145 8.7313 19.8943 8.7313 19.8774 8.73456C19.874 8.73456 19.8673 8.73456 19.8639 8.73782C19.8605 8.73782 19.8538 8.74108 19.8504 8.74108C19.8065 8.7476 19.766 8.75411 19.7221 8.76389C19.7188 8.76389 19.7154 8.76715 19.712 8.76715C19.6682 8.77693 19.6243 8.7867 19.5838 8.79648C19.5804 8.79648 19.577 8.79974 19.5703 8.79974C19.5669 8.79974 19.5669 8.79974 19.5635 8.803C19.5197 8.81604 19.4758 8.82581 19.4286 8.84211C19.4184 8.84537 19.4117 8.84863 19.4016 8.84863C19.3577 8.86166 19.3138 8.87796 19.2666 8.891C19.2598 8.89425 19.2531 8.89425 19.2463 8.89751C19.2024 8.91381 19.1586 8.92684 19.1181 8.94314C19.1147 8.9464 19.108 8.9464 19.1046 8.94966C19.0607 8.96595 19.0168 8.98225 18.973 9.0018C18.9696 9.00506 18.9628 9.00506 18.9595 9.00832C18.9527 9.01158 18.9493 9.01158 18.9426 9.01484L18.892 9.03439C18.8785 9.04091 18.865 9.04417 18.8549 9.05069C18.838 9.05721 18.8211 9.06372 18.8042 9.0735C18.7907 9.08002 18.7806 9.08328 18.7671 9.0898C18.7502 9.09631 18.7334 9.10609 18.7131 9.11261C18.703 9.11587 18.6895 9.12239 18.6794 9.12565C18.6591 9.13542 18.6389 9.14194 18.6186 9.15172C18.6119 9.15498 18.6017 9.15824 18.595 9.1615C18.568 9.17453 18.541 9.18757 18.514 9.19735C18.5106 9.2006 18.5039 9.2006 18.5005 9.20386L18.4398 9.2332C18.4296 9.23645 18.4229 9.23971 18.4161 9.24623C18.3993 9.25275 18.3858 9.26253 18.3689 9.26904C18.3588 9.2723 18.352 9.27882 18.3419 9.28208L18.3014 9.30163C18.2913 9.30489 18.2845 9.31141 18.2744 9.31467C18.2643 9.32119 18.2508 9.32771 18.2407 9.33097C18.2305 9.33423 18.2238 9.34074 18.2137 9.344C18.2035 9.35052 18.1934 9.35378 18.1833 9.3603C18.1765 9.36356 18.1664 9.36682 18.1597 9.37333C18.1495 9.37659 18.1428 9.38311 18.1327 9.38637L18.1124 9.39615C18.1057 9.39941 18.0955 9.40593 18.0888 9.40918C18.082 9.41244 18.0787 9.4157 18.0719 9.41896C18.0652 9.42222 18.0584 9.42548 18.0517 9.432C18.0483 9.43526 18.0415 9.43852 18.0382 9.43852C18.0314 9.44177 18.0247 9.44503 18.0213 9.44829C18.0179 9.44829 18.0146 9.45155 18.0146 9.45155C18.0112 9.45481 18.0044 9.45481 18.0011 9.45807C17.9943 9.46133 17.9842 9.46785 17.9842 9.46785C17.9808 9.46785 17.9774 9.47111 17.9741 9.47437C17.9741 9.47437 17.9707 9.47437 17.9707 9.47762C17.9673 9.48088 17.9639 9.48088 17.9572 9.48414C17.9538 9.48414 17.9538 9.4874 17.9504 9.4874C17.9471 9.49066 17.9403 9.49392 17.9369 9.49718C17.9336 9.50044 17.9302 9.50044 17.9268 9.5037C17.9201 9.50696 17.9167 9.51021 17.9099 9.51347C17.9066 9.51673 17.8998 9.51999 17.8964 9.51999C17.8897 9.52325 17.8829 9.52977 17.8728 9.53303C17.8694 9.53629 17.8627 9.53955 17.8593 9.53955C17.8458 9.54606 17.8323 9.55584 17.8188 9.56236C17.8154 9.56236 17.8121 9.56562 17.8121 9.56888C17.7986 9.5754 17.7884 9.58517 17.7749 9.59169C17.7716 9.59495 17.7648 9.59821 17.7581 9.60147C17.748 9.60799 17.7345 9.6145 17.7243 9.62102C17.7176 9.62428 17.7108 9.6308 17.7007 9.63406C17.6906 9.64058 17.6771 9.6471 17.667 9.65361C17.6602 9.65687 17.6535 9.66339 17.6433 9.66665C17.6298 9.67317 17.6163 9.68294 17.6028 9.69272C17.5961 9.69598 17.5893 9.7025 17.5826 9.70576C17.5657 9.71554 17.5488 9.72531 17.532 9.73835C17.5286 9.74161 17.5218 9.74487 17.5185 9.74813C17.4948 9.76116 17.4746 9.77746 17.451 9.79049C17.4476 9.79375 17.4409 9.79701 17.4341 9.80027C17.4172 9.81331 17.397 9.82308 17.3801 9.83612C17.3734 9.84264 17.3632 9.8459 17.3565 9.85242C17.3396 9.86219 17.3227 9.87523 17.3092 9.88501C17.2991 9.89152 17.289 9.89804 17.2822 9.90456C17.2654 9.91434 17.2519 9.92737 17.235 9.93715L17.2046 9.9567C17.1878 9.96974 17.1709 9.97952 17.154 9.99255C17.1439 9.99907 17.1338 10.0056 17.127 10.0121C17.1068 10.0251 17.0865 10.0414 17.0629 10.0577C17.0561 10.061 17.0528 10.0643 17.046 10.0708L16.965 10.1294C16.9583 10.136 16.9515 10.1392 16.9414 10.1457C16.9212 10.162 16.9009 10.1751 16.8807 10.1914C16.8705 10.1979 16.8604 10.2077 16.8503 10.2142C16.8334 10.2272 16.8132 10.2402 16.7963 10.2533C16.7862 10.2631 16.776 10.2696 16.7625 10.2794C16.7457 10.2924 16.7288 10.3054 16.7085 10.3217C16.6984 10.3315 16.6883 10.338 16.6748 10.3478C16.6545 10.3608 16.6377 10.3771 16.6174 10.3934C16.6073 10.3999 16.5972 10.4097 16.5904 10.4162C16.5668 10.4358 16.5398 10.4553 16.5162 10.4782C16.5128 10.4814 16.5094 10.4847 16.5061 10.4847C16.4791 10.5075 16.4487 10.5303 16.4217 10.5531C16.4116 10.5596 16.4048 10.5661 16.3981 10.5759C16.3778 10.5922 16.361 10.6085 16.3407 10.6248C16.3306 10.6346 16.3205 10.6444 16.3103 10.6509C16.2935 10.6672 16.2766 10.6802 16.2597 10.6965L16.2293 10.7258C16.2125 10.7421 16.1956 10.7584 16.1787 10.7715L16.1483 10.8008L16.1348 10.8138L16.1213 10.8269C16.0842 10.8627 16.0437 10.9018 16.01 10.9377L15.9999 10.9475C15.9627 10.9866 15.9256 11.0257 15.8885 11.068L15.875 11.0811C15.8716 11.0843 15.8682 11.0909 15.8649 11.0941C15.8311 11.13 15.8008 11.1658 15.7704 11.2049C15.7636 11.2147 15.7535 11.2245 15.7468 11.2343C15.7231 11.2636 15.6995 11.2962 15.6759 11.3288C15.6725 11.332 15.6725 11.3353 15.6691 11.3353C15.6658 11.3418 15.6624 11.3451 15.659 11.3516L15.6185 11.4102C15.6084 11.4265 15.5983 11.4461 15.5848 11.4624C15.5814 11.4689 15.578 11.4722 15.5746 11.4787C15.5713 11.4819 15.5713 11.4852 15.5679 11.4885C15.5544 11.5145 15.5375 11.5373 15.524 11.5634C15.5173 11.5732 15.5139 11.5862 15.5072 11.596L15.497 11.6156L15.4869 11.6351C15.4734 11.6579 15.4633 11.684 15.4532 11.7068L15.443 11.7264C15.4397 11.7329 15.4363 11.7394 15.4363 11.7459C15.4329 11.7557 15.4262 11.7655 15.4228 11.7753C15.4127 11.7981 15.4025 11.8241 15.3958 11.847C15.3958 11.8502 15.3958 11.8535 15.3924 11.8567C15.389 11.8633 15.389 11.8665 15.389 11.873C15.3823 11.8893 15.3789 11.9089 15.3722 11.9252C15.3688 11.9382 15.3654 11.9545 15.362 11.9675C15.3587 11.9741 15.3587 11.9838 15.3553 11.9904C15.3553 11.9936 15.3519 12.0001 15.3519 12.0034C15.3452 12.0327 15.3418 12.0621 15.335 12.0914V12.0979C15.3317 12.1338 15.3283 12.1696 15.3283 12.2022C15.3249 12.3554 15.3722 12.4694 15.4633 12.5216L15.9627 12.8019C15.8716 12.7497 15.8244 12.6356 15.8277 12.4825C15.8277 12.4499 15.8311 12.414 15.8345 12.3782V12.3717C15.8379 12.3391 15.8446 12.3065 15.8547 12.2706C15.8581 12.2641 15.8581 12.2543 15.8615 12.2478C15.8682 12.2185 15.8784 12.1859 15.8885 12.1533C15.8885 12.1468 15.8919 12.1435 15.8919 12.137C15.9054 12.1012 15.9189 12.0621 15.9357 12.0262C15.9391 12.0197 15.9425 12.0132 15.9425 12.0066C15.9594 11.9708 15.9762 11.9317 15.9965 11.8926L16.0066 11.873C16.0269 11.8339 16.0505 11.7948 16.0741 11.7557C16.0775 11.7492 16.0809 11.7459 16.0842 11.7394C16.1078 11.7036 16.1315 11.6644 16.1585 11.6286C16.1618 11.6221 16.1652 11.6188 16.1686 11.6123C16.199 11.5699 16.2327 11.5243 16.2698 11.4819C16.3002 11.4461 16.334 11.407 16.3643 11.3711C16.3711 11.3614 16.3812 11.3516 16.3879 11.3451C16.4251 11.306 16.4622 11.2636 16.4993 11.2245L16.5094 11.2147C16.5466 11.1756 16.5837 11.1397 16.6208 11.1039L16.6478 11.0778L16.6782 11.0485C16.695 11.0322 16.7119 11.0159 16.7288 11.0029L16.7592 10.9735C16.776 10.9572 16.7929 10.9442 16.8098 10.9279C16.8199 10.9181 16.83 10.9083 16.8402 10.9018C16.8604 10.8855 16.8773 10.8692 16.8975 10.8529C16.9077 10.8464 16.9144 10.8366 16.9245 10.8301C16.9515 10.8073 16.9785 10.7845 17.0089 10.7617L17.019 10.7519C17.0426 10.7324 17.0696 10.7128 17.0933 10.6933C17.1034 10.6867 17.1135 10.677 17.1203 10.6704C17.1405 10.6541 17.1574 10.6411 17.1776 10.6248C17.1878 10.615 17.1979 10.6085 17.2114 10.5987C17.2282 10.5857 17.2451 10.5727 17.2654 10.5596C17.2755 10.5499 17.289 10.5433 17.2991 10.5336C17.316 10.5205 17.3329 10.5075 17.3531 10.4944C17.3632 10.4879 17.3734 10.4782 17.3835 10.4716C17.4037 10.4586 17.424 10.4423 17.4409 10.4293C17.4476 10.4227 17.4577 10.4162 17.4645 10.413L17.5455 10.3543C17.5522 10.3511 17.5556 10.3478 17.5623 10.3413C17.5826 10.325 17.6028 10.3119 17.6265 10.2956C17.6366 10.2891 17.6467 10.2826 17.6535 10.2761C17.6703 10.2631 17.6872 10.2533 17.7041 10.2402L17.7345 10.2207C17.7513 10.2109 17.7682 10.1979 17.7817 10.1881C17.7918 10.1816 17.8019 10.1751 17.8087 10.1685C17.8256 10.1588 17.8424 10.1457 17.8559 10.136C17.8627 10.1294 17.8728 10.1262 17.8796 10.1197C17.8998 10.1066 17.9167 10.0968 17.9336 10.0838C17.9403 10.0805 17.9437 10.0773 17.9504 10.074C17.9741 10.0577 17.9943 10.0447 18.0179 10.0317C18.0247 10.0284 18.028 10.0251 18.0348 10.0219C18.0517 10.0121 18.0685 10.0023 18.082 9.99255C18.0888 9.9893 18.0955 9.98278 18.1023 9.97952C18.1158 9.96974 18.1293 9.96322 18.1428 9.95345C18.1495 9.95019 18.1597 9.94367 18.1664 9.94041C18.1765 9.93389 18.19 9.92737 18.2002 9.92086C18.2069 9.9176 18.2137 9.91108 18.2238 9.90782C18.2373 9.9013 18.2474 9.89478 18.2575 9.88826C18.2643 9.88501 18.2677 9.88175 18.2744 9.87849C18.2879 9.87197 18.3014 9.86219 18.3115 9.85567C18.3149 9.85567 18.3183 9.85242 18.3183 9.84916C18.3318 9.83938 18.3453 9.83286 18.3588 9.82634C18.3621 9.82308 18.3689 9.81983 18.3723 9.81983C18.379 9.81657 18.3891 9.81005 18.3959 9.80679C18.3993 9.80353 18.406 9.80027 18.4094 9.80027C18.4161 9.79701 18.4229 9.79375 18.4263 9.79049C18.4296 9.78723 18.433 9.78723 18.4364 9.78398C18.4431 9.78072 18.4465 9.77746 18.4499 9.7742C18.4533 9.7742 18.4533 9.77094 18.4566 9.77094C18.46 9.76768 18.4668 9.76442 18.4701 9.76442C18.4701 9.76442 18.4735 9.76442 18.4735 9.76116C18.4769 9.7579 18.4803 9.7579 18.4836 9.75464C18.487 9.75139 18.4938 9.74813 18.5005 9.74487C18.5039 9.74161 18.5073 9.74161 18.514 9.73835C18.514 9.71554 18.5174 9.71228 18.5174 9.71228Z" fill="#C68620"/>
<path d="M18.5943 12.1301C19.0364 11.8824 19.3941 12.0812 19.3975 12.5701C19.3975 13.0589 19.0431 13.6553 18.601 13.903C18.1589 14.1507 17.8012 13.9519 17.7979 13.4631C17.7979 12.9742 18.1522 12.3778 18.5943 12.1301Z" fill="#C68620"/>
<path d="M19.1715 12.2607H19.1749C19.1951 12.2541 19.2154 12.2509 19.2322 12.2444C19.2424 12.2411 19.2525 12.2411 19.266 12.2378C19.2795 12.2346 19.293 12.2346 19.3099 12.2313C19.3166 12.2313 19.3267 12.2281 19.3335 12.2281H19.3942C19.4145 12.2281 19.4347 12.2313 19.455 12.2346C19.4583 12.2346 19.4651 12.2378 19.4685 12.2378C19.482 12.2411 19.4988 12.2444 19.5123 12.2509C19.5157 12.2509 19.5225 12.2541 19.5258 12.2541C19.5427 12.2607 19.563 12.2704 19.5798 12.2769L19.2896 12.114C19.2896 12.114 19.2862 12.114 19.2862 12.1107L19.2457 12.0912C19.2424 12.0912 19.239 12.0879 19.239 12.0879C19.2356 12.0847 19.2289 12.0847 19.2255 12.0847C19.2187 12.0814 19.212 12.0781 19.2052 12.0781C19.1985 12.0749 19.1884 12.0749 19.1816 12.0716C19.1782 12.0716 19.1715 12.0684 19.1681 12.0684C19.1647 12.0684 19.1647 12.0684 19.1614 12.0651C19.1445 12.0619 19.131 12.0619 19.1141 12.0586H19.05C19.0433 12.0586 19.0331 12.0586 19.0264 12.0619C19.0196 12.0619 19.0129 12.0619 19.0028 12.0651C18.996 12.0651 18.9893 12.0684 18.9825 12.0684C18.9724 12.0716 18.9623 12.0716 18.9488 12.0749C18.942 12.0749 18.9386 12.0781 18.9319 12.0781C18.9184 12.0814 18.9049 12.0847 18.8914 12.0912H18.888C18.8711 12.0977 18.8543 12.101 18.8374 12.1107L18.8171 12.1205L18.7969 12.1303C18.7733 12.1401 18.7497 12.1531 18.7227 12.1661C18.6957 12.1792 18.672 12.1955 18.645 12.2118C18.6383 12.2183 18.6282 12.2215 18.6214 12.2281C18.6045 12.2411 18.5877 12.2509 18.5708 12.2639C18.5607 12.2704 18.5539 12.277 18.5438 12.2867C18.5269 12.2998 18.5134 12.3128 18.4999 12.3258C18.4898 12.3324 18.4831 12.3421 18.4729 12.3486L18.4561 12.3649C18.4493 12.3715 18.4459 12.378 18.4392 12.3812C18.4223 12.3975 18.4021 12.4171 18.3852 12.4366L18.3683 12.4529C18.3649 12.4595 18.3582 12.4627 18.3548 12.4692C18.3447 12.4823 18.3346 12.492 18.3244 12.5051C18.3177 12.5116 18.3109 12.5214 18.3042 12.5279C18.2974 12.5344 18.2941 12.5409 18.2873 12.5475C18.2806 12.5572 18.2738 12.567 18.2637 12.5768C18.2603 12.5833 18.2536 12.5898 18.2468 12.5963C18.2401 12.6094 18.2299 12.6192 18.2232 12.6322C18.2165 12.6387 18.2131 12.6485 18.2063 12.655C18.203 12.6583 18.203 12.6615 18.1996 12.6648C18.1861 12.6876 18.1726 12.7071 18.1591 12.73L18.1557 12.7332C18.1523 12.7365 18.149 12.743 18.149 12.7463C18.1388 12.7625 18.1321 12.7788 18.122 12.7919C18.1186 12.7984 18.1152 12.8082 18.1118 12.8147C18.1085 12.8212 18.1051 12.831 18.0983 12.8375L18.0882 12.8571C18.0781 12.8766 18.0713 12.8929 18.0612 12.9125C18.0612 12.9157 18.0578 12.919 18.0578 12.9222V12.9255L18.0275 12.9939C18.0275 12.9972 18.0241 13.0037 18.0241 13.007C18.0207 13.0168 18.0173 13.0233 18.014 13.033C18.0106 13.0461 18.0038 13.0559 18.0005 13.0689C17.9971 13.0787 17.9937 13.0885 17.9903 13.095C17.987 13.1047 17.9836 13.1178 17.9802 13.1276C17.9768 13.1341 17.9768 13.1406 17.9735 13.1471C17.9701 13.1602 17.9667 13.1699 17.9633 13.183L17.9532 13.2221C17.9532 13.2253 17.9498 13.2319 17.9498 13.2351C17.9465 13.2449 17.9465 13.2547 17.9465 13.2644C17.9431 13.284 17.9397 13.3068 17.9364 13.3264C17.9364 13.3329 17.933 13.3361 17.933 13.3427C17.9296 13.3557 17.9296 13.3687 17.9296 13.3818C17.9296 13.3915 17.9262 13.4013 17.9262 13.4078C17.9229 13.4372 17.9229 13.4665 17.9229 13.4926C17.9229 13.737 18.014 13.9065 18.1557 13.988L18.4459 14.1509C18.3008 14.0694 18.2131 13.9 18.2131 13.6555C18.2131 13.6262 18.2131 13.6001 18.2165 13.5708C18.2165 13.561 18.2198 13.5512 18.2198 13.5447C18.2232 13.5252 18.2232 13.5089 18.2266 13.4893C18.2299 13.4698 18.2333 13.447 18.2367 13.4274C18.2401 13.4144 18.2434 13.3981 18.2468 13.385L18.2569 13.3459C18.2603 13.3264 18.2671 13.3101 18.2738 13.2905C18.2772 13.2807 18.2806 13.2677 18.2839 13.2579C18.2907 13.2384 18.2974 13.2156 18.3042 13.196C18.3076 13.1862 18.3109 13.1797 18.3143 13.1699C18.3244 13.1406 18.3379 13.1145 18.3481 13.0852C18.3481 13.0819 18.3514 13.0787 18.3514 13.0754C18.3616 13.0493 18.3751 13.0265 18.3886 13.0005C18.3919 12.9939 18.3953 12.9842 18.4021 12.9776L18.4426 12.9092C18.4459 12.9059 18.4493 12.8994 18.4493 12.8962L18.4999 12.818C18.5033 12.8114 18.51 12.8017 18.5168 12.7951C18.5303 12.7756 18.5438 12.7593 18.5573 12.7397C18.564 12.73 18.5708 12.7202 18.5809 12.7104C18.591 12.6941 18.6045 12.6811 18.618 12.6648C18.6282 12.6517 18.6383 12.6387 18.6484 12.6289C18.6585 12.6192 18.6687 12.6061 18.6788 12.5963C18.6957 12.5768 18.7125 12.5605 18.7328 12.5409L18.7665 12.5083C18.7766 12.4986 18.7834 12.492 18.7935 12.4855C18.807 12.4725 18.8239 12.4595 18.8374 12.4464C18.8475 12.4399 18.8543 12.4301 18.8644 12.4236C18.8813 12.4106 18.8981 12.3975 18.915 12.3878C18.9218 12.3812 18.9319 12.3747 18.9386 12.3715C18.9623 12.3552 18.9893 12.3389 19.0163 12.3258C19.0399 12.3128 19.0669 12.2998 19.0905 12.29L19.1107 12.2802C19.1276 12.2769 19.1479 12.2672 19.1715 12.2607Z" fill="#E8CFAC"/>
<path d="M19.0093 12.3322C19.4514 12.0846 19.8091 12.2834 19.8125 12.7722C19.8125 13.2611 19.4582 13.8575 19.0161 14.1052C18.574 14.3529 18.2163 14.1541 18.2129 13.6652C18.2129 13.1763 18.5672 12.5767 19.0093 12.3322Z" fill="white"/>
</svg>
