<svg width="24" height="22" viewBox="0 0 24 22" fill="none" xmlns="http://www.w3.org/2000/svg">
<path d="M8.80566 7H13.2367C14.2144 7 15.0186 7.99128 15.0186 9.00009C15.0186 10.0974 14.2301 11 13.2367 11H8.80566V7Z" stroke="#B03B16" stroke-width="2" stroke-miterlimit="10" stroke-linecap="round" stroke-linejoin="round"/>
<path d="M8.80566 11H13.9808C15.1219 11 16.0541 11.885 16.0541 13C16.0541 14.0973 15.1219 15 13.9808 15H8.80566V11Z" stroke="#B03B16" stroke-width="2" stroke-miterlimit="10" stroke-linecap="round" stroke-linejoin="round"/>
<path d="M10.877 15V16" stroke="#B03B16" stroke-width="2" stroke-miterlimit="10" stroke-linecap="round" stroke-linejoin="round"/>
<path d="M10.877 6V7" stroke="#B03B16" stroke-width="2" stroke-miterlimit="10" stroke-linecap="round" stroke-linejoin="round"/>
<path d="M22.2673 11.0002C22.2673 16.5269 17.6353 21 11.9125 21C6.1896 21 1.55762 16.5269 1.55762 11.0002C1.55762 5.47341 6.1896 1 11.9125 1C12.181 1 12.4327 1.01624 12.718 1.03245C17.8031 1.40522 21.8645 5.32738 22.2505 10.2382C22.2505 10.4814 22.2673 10.7246 22.2673 11.0002Z" stroke="#B03B16" stroke-width="2" stroke-miterlimit="10" stroke-linecap="round" stroke-linejoin="round"/>
</svg>
