<svg width="42" height="47" viewBox="0 0 42 47" fill="none" xmlns="http://www.w3.org/2000/svg">
<path d="M9.01267 32.5971H4.96201V28.7148H2.64307V34.8192H9.01267V32.5971Z" fill="#CE2ACD"/>
<path d="M36.6595 6.10446H38.9785V0H32.6089V2.22212H36.6595V6.10446Z" fill="#CE2ACD"/>
<path d="M4.96201 2.22149L9.01267 2.22212V0H2.64307V6.10446H4.96201V2.22149Z" fill="#CE2ACD"/>
<path d="M36.6595 32.5971H32.6089V34.8192H38.9785V28.7148H36.6595V32.5971Z" fill="#CE2ACD"/>
<path d="M30.471 39.3943C28.6624 38.7462 26.6031 36.9957 26.6031 35.69C26.6031 34.8257 26.6031 33.7457 26.6031 32.2643C27.7625 31.0302 29.5018 29.2088 30.0815 26.0608C31.4342 25.5978 32.2072 24.8571 33.1735 21.6166C34.2016 18.1655 31.6275 18.2834 31.6275 18.2834C31.6275 18.2834 31.6275 16.4316 31.6275 14.8272C31.6275 12.111 30.308 4.08691 20.6758 4.08691C11.0452 4.08691 9.72573 12.111 9.72573 14.8272C9.72573 16.4316 9.72573 18.2834 9.72573 18.2834C9.72573 18.2834 7.15161 18.1655 8.17973 21.6166C9.14453 24.8571 9.91748 25.5978 11.2702 26.0608C11.85 29.2088 13.5907 31.0302 14.7501 32.2643C14.7501 33.7456 14.7501 34.8257 14.7501 35.69C14.7501 36.9957 12.5263 38.8388 10.8822 39.3943C8.23408 40.2891 1.63055 40.9199 0 46.2972H41.3493C39.7129 40.9351 33.0995 40.3369 30.471 39.3943Z" fill="black"/>
</svg>
