<svg width="42" height="54" viewBox="0 0 42 54" fill="none" xmlns="http://www.w3.org/2000/svg">
<circle cx="21.0785" cy="20.098" r="20.098" fill="white"/>
<path d="M11.57 51L10.29 48.776H9.59403V51H8.68203V45.44H10.602C11.0287 45.44 11.3887 45.5147 11.682 45.664C11.9807 45.8133 12.202 46.0133 12.346 46.264C12.4954 46.5147 12.57 46.7947 12.57 47.104C12.57 47.4667 12.4634 47.7973 12.25 48.096C12.042 48.3893 11.7194 48.5893 11.282 48.696L12.658 51H11.57ZM9.59403 48.048H10.602C10.9434 48.048 11.1994 47.9627 11.37 47.792C11.546 47.6213 11.634 47.392 11.634 47.104C11.634 46.816 11.5487 46.592 11.378 46.432C11.2074 46.2667 10.9487 46.184 10.602 46.184H9.59403V48.048ZM17.7767 48.688C17.7767 48.8533 17.7661 49.0027 17.7447 49.136H14.3767C14.4034 49.488 14.5341 49.7707 14.7687 49.984C15.0034 50.1973 15.2914 50.304 15.6327 50.304C16.1234 50.304 16.4701 50.0987 16.6727 49.688H17.6567C17.5234 50.0933 17.2807 50.4267 16.9287 50.688C16.5821 50.944 16.1501 51.072 15.6327 51.072C15.2114 51.072 14.8327 50.9787 14.4967 50.792C14.1661 50.6 13.9047 50.3333 13.7127 49.992C13.5261 49.6453 13.4327 49.2453 13.4327 48.792C13.4327 48.3387 13.5234 47.9413 13.7047 47.6C13.8914 47.2533 14.1501 46.9867 14.4807 46.8C14.8167 46.6133 15.2007 46.52 15.6327 46.52C16.0487 46.52 16.4194 46.6107 16.7447 46.792C17.0701 46.9733 17.3234 47.2293 17.5047 47.56C17.6861 47.8853 17.7767 48.2613 17.7767 48.688ZM16.8247 48.4C16.8194 48.064 16.6994 47.7947 16.4647 47.592C16.2301 47.3893 15.9394 47.288 15.5927 47.288C15.2781 47.288 15.0087 47.3893 14.7847 47.592C14.5607 47.7893 14.4274 48.0587 14.3847 48.4H16.8247ZM19.5862 47.24C19.7409 47.0373 19.9516 46.8667 20.2182 46.728C20.4849 46.5893 20.7862 46.52 21.1222 46.52C21.5062 46.52 21.8556 46.616 22.1702 46.808C22.4902 46.9947 22.7409 47.2587 22.9222 47.6C23.1036 47.9413 23.1942 48.3333 23.1942 48.776C23.1942 49.2187 23.1036 49.616 22.9222 49.968C22.7409 50.3147 22.4902 50.5867 22.1702 50.784C21.8556 50.976 21.5062 51.072 21.1222 51.072C20.7862 51.072 20.4876 51.0053 20.2262 50.872C19.9649 50.7333 19.7516 50.5627 19.5862 50.36V53.096H18.6742V46.592H19.5862V47.24ZM22.2662 48.776C22.2662 48.472 22.2022 48.2107 22.0742 47.992C21.9516 47.768 21.7862 47.6 21.5782 47.488C21.3756 47.3707 21.1569 47.312 20.9222 47.312C20.6929 47.312 20.4742 47.3707 20.2662 47.488C20.0636 47.6053 19.8982 47.776 19.7702 48C19.6476 48.224 19.5862 48.488 19.5862 48.792C19.5862 49.096 19.6476 49.3627 19.7702 49.592C19.8982 49.816 20.0636 49.9867 20.2662 50.104C20.4742 50.2213 20.6929 50.28 20.9222 50.28C21.1569 50.28 21.3756 50.2213 21.5782 50.104C21.7862 49.9813 21.9516 49.8053 22.0742 49.576C22.2022 49.3467 22.2662 49.08 22.2662 48.776ZM26.0081 51.072C25.5921 51.072 25.2161 50.9787 24.8801 50.792C24.5441 50.6 24.2801 50.3333 24.0881 49.992C23.8961 49.6453 23.8001 49.2453 23.8001 48.792C23.8001 48.344 23.8988 47.9467 24.0961 47.6C24.2934 47.2533 24.5628 46.9867 24.9041 46.8C25.2454 46.6133 25.6268 46.52 26.0481 46.52C26.4694 46.52 26.8508 46.6133 27.1921 46.8C27.5334 46.9867 27.8028 47.2533 28.0001 47.6C28.1974 47.9467 28.2961 48.344 28.2961 48.792C28.2961 49.24 28.1948 49.6373 27.9921 49.984C27.7894 50.3307 27.5121 50.6 27.1601 50.792C26.8134 50.9787 26.4294 51.072 26.0081 51.072ZM26.0081 50.28C26.2428 50.28 26.4614 50.224 26.6641 50.112C26.8721 50 27.0401 49.832 27.1681 49.608C27.2961 49.384 27.3601 49.112 27.3601 48.792C27.3601 48.472 27.2988 48.2027 27.1761 47.984C27.0534 47.76 26.8908 47.592 26.6881 47.48C26.4854 47.368 26.2668 47.312 26.0321 47.312C25.7974 47.312 25.5788 47.368 25.3761 47.48C25.1788 47.592 25.0214 47.76 24.9041 47.984C24.7868 48.2027 24.7281 48.472 24.7281 48.792C24.7281 49.2667 24.8481 49.6347 25.0881 49.896C25.3334 50.152 25.6401 50.28 26.0081 50.28ZM30.1097 47.232C30.243 47.008 30.419 46.8347 30.6377 46.712C30.8617 46.584 31.1257 46.52 31.4297 46.52V47.464H31.1977C30.8403 47.464 30.5683 47.5547 30.3817 47.736C30.2003 47.9173 30.1097 48.232 30.1097 48.68V51H29.1977V46.592H30.1097V47.232ZM33.332 47.336V49.776C33.332 49.9413 33.3693 50.0613 33.444 50.136C33.524 50.2053 33.6573 50.24 33.844 50.24H34.404V51H33.684C33.2733 51 32.9586 50.904 32.74 50.712C32.5213 50.52 32.412 50.208 32.412 49.776V47.336H31.892V46.592H32.412V45.496H33.332V46.592H34.404V47.336H33.332ZM36.8445 51.072C36.4979 51.072 36.1859 51.0107 35.9085 50.888C35.6365 50.76 35.4205 50.5893 35.2605 50.376C35.1005 50.1573 35.0152 49.9147 35.0045 49.648H35.9485C35.9645 49.8347 36.0525 49.992 36.2125 50.12C36.3779 50.2427 36.5832 50.304 36.8285 50.304C37.0845 50.304 37.2819 50.256 37.4205 50.16C37.5645 50.0587 37.6365 49.9307 37.6365 49.776C37.6365 49.6107 37.5565 49.488 37.3965 49.408C37.2419 49.328 36.9939 49.24 36.6525 49.144C36.3219 49.0533 36.0525 48.9653 35.8445 48.88C35.6365 48.7947 35.4552 48.664 35.3005 48.488C35.1512 48.312 35.0765 48.08 35.0765 47.792C35.0765 47.5573 35.1459 47.344 35.2845 47.152C35.4232 46.9547 35.6205 46.8 35.8765 46.688C36.1379 46.576 36.4365 46.52 36.7725 46.52C37.2739 46.52 37.6765 46.648 37.9805 46.904C38.2899 47.1547 38.4552 47.4987 38.4765 47.936H37.5645C37.5485 47.7387 37.4685 47.5813 37.3245 47.464C37.1805 47.3467 36.9859 47.288 36.7405 47.288C36.5005 47.288 36.3165 47.3333 36.1885 47.424C36.0605 47.5147 35.9965 47.6347 35.9965 47.784C35.9965 47.9013 36.0392 48 36.1245 48.08C36.2099 48.16 36.3139 48.224 36.4365 48.272C36.5592 48.3147 36.7405 48.3707 36.9805 48.44C37.3005 48.5253 37.5619 48.6133 37.7645 48.704C37.9725 48.7893 38.1512 48.9173 38.3005 49.088C38.4499 49.2587 38.5272 49.4853 38.5325 49.768C38.5325 50.0187 38.4632 50.2427 38.3245 50.44C38.1859 50.6373 37.9885 50.792 37.7325 50.904C37.4819 51.016 37.1859 51.072 36.8445 51.072Z" fill="white"/>
<mask id="path-3-inside-1_827_29858" fill="white">
<path fill-rule="evenodd" clip-rule="evenodd" d="M17.7407 16.7347C20.0763 14.4024 23.873 14.4272 26.2229 16.7771C28.5738 19.128 28.5976 22.927 26.2623 25.2623C23.9269 27.5976 20.128 27.5738 17.7771 25.2229C16.3839 23.8298 15.8086 21.9292 16.0557 20.1269C16.0903 19.8743 16.3231 19.6977 16.5756 19.7323C16.8282 19.7669 17.0048 19.9997 16.9702 20.2522C16.761 21.7786 17.2479 23.3883 18.4298 24.5702C20.4264 26.5668 23.6409 26.5782 25.6095 24.6095C27.5782 22.6409 27.5668 19.4264 25.5702 17.4298C23.5746 15.4342 20.3624 15.4218 18.3934 17.3874L18.8536 17.3897C19.1085 17.391 19.3141 17.5987 19.3128 17.8536C19.3115 18.1085 19.1038 18.3141 18.8489 18.3128L17.2824 18.3049C17.0293 18.3037 16.8245 18.0988 16.8232 17.8457L16.8154 16.2792C16.8141 16.0243 17.0197 15.8167 17.2746 15.8154C17.5295 15.8141 17.7371 16.0197 17.7384 16.2746L17.7407 16.7347ZM21.9999 18.0769C22.2548 18.0769 22.4615 18.2835 22.4615 18.5384V20.8088L23.8647 22.2121C24.045 22.3923 24.045 22.6846 23.8647 22.8647C23.6845 23.045 23.3922 23.045 23.2121 22.8647L21.5384 21.1911V18.5384C21.5384 18.2835 21.745 18.0769 21.9999 18.0769Z"/>
</mask>
<path fill-rule="evenodd" clip-rule="evenodd" d="M17.7407 16.7347C20.0763 14.4024 23.873 14.4272 26.2229 16.7771C28.5738 19.128 28.5976 22.927 26.2623 25.2623C23.9269 27.5976 20.128 27.5738 17.7771 25.2229C16.3839 23.8298 15.8086 21.9292 16.0557 20.1269C16.0903 19.8743 16.3231 19.6977 16.5756 19.7323C16.8282 19.7669 17.0048 19.9997 16.9702 20.2522C16.761 21.7786 17.2479 23.3883 18.4298 24.5702C20.4264 26.5668 23.6409 26.5782 25.6095 24.6095C27.5782 22.6409 27.5668 19.4264 25.5702 17.4298C23.5746 15.4342 20.3624 15.4218 18.3934 17.3874L18.8536 17.3897C19.1085 17.391 19.3141 17.5987 19.3128 17.8536C19.3115 18.1085 19.1038 18.3141 18.8489 18.3128L17.2824 18.3049C17.0293 18.3037 16.8245 18.0988 16.8232 17.8457L16.8154 16.2792C16.8141 16.0243 17.0197 15.8167 17.2746 15.8154C17.5295 15.8141 17.7371 16.0197 17.7384 16.2746L17.7407 16.7347ZM21.9999 18.0769C22.2548 18.0769 22.4615 18.2835 22.4615 18.5384V20.8088L23.8647 22.2121C24.045 22.3923 24.045 22.6846 23.8647 22.8647C23.6845 23.045 23.3922 23.045 23.2121 22.8647L21.5384 21.1911V18.5384C21.5384 18.2835 21.745 18.0769 21.9999 18.0769Z" fill="#1C274C"/>
<path d="M17.7407 16.7347L15.2408 16.7473L15.2708 22.7342L19.5072 18.5037L17.7407 16.7347ZM26.2229 16.7771L24.4551 18.5449L24.4551 18.5449L26.2229 16.7771ZM26.2623 25.2623L28.03 27.0301L28.03 27.03L26.2623 25.2623ZM17.7771 25.2229L19.5448 23.4551L19.5448 23.4551L17.7771 25.2229ZM16.0557 20.1269L18.5325 20.4664L18.5325 20.4664L16.0557 20.1269ZM16.5756 19.7323L16.2361 22.2092L16.2361 22.2092L16.5756 19.7323ZM16.9702 20.2522L19.447 20.5918L19.4471 20.5917L16.9702 20.2522ZM18.4298 24.5702L16.662 26.338L16.662 26.338L18.4298 24.5702ZM25.5702 17.4298L23.8024 19.1976L23.8024 19.1976L25.5702 17.4298ZM18.3934 17.3874L16.6272 15.6182L12.381 19.8572L18.3809 19.8874L18.3934 17.3874ZM18.8536 17.3897L18.841 19.8897H18.841L18.8536 17.3897ZM18.8489 18.3128L18.8364 20.8128H18.8364L18.8489 18.3128ZM17.2824 18.3049L17.2699 20.8049H17.2699L17.2824 18.3049ZM16.8232 17.8457L14.3233 17.8583L14.3233 17.8583L16.8232 17.8457ZM16.8154 16.2792L19.3153 16.2667L19.3153 16.2666L16.8154 16.2792ZM17.2746 15.8154L17.262 13.3154L17.262 13.3154L17.2746 15.8154ZM17.7384 16.2746L20.2384 16.2621V16.262L17.7384 16.2746ZM22.4615 20.8088H19.9615V21.8443L20.6937 22.5766L22.4615 20.8088ZM23.8647 22.8647L22.0973 21.0967L22.097 21.097L23.8647 22.8647ZM23.2121 22.8647L24.9801 21.0973L24.9798 21.0969L23.2121 22.8647ZM21.5384 21.1911H19.0384V22.2267L19.7707 22.9589L21.5384 21.1911ZM19.5072 18.5037C20.8493 17.1636 23.064 17.1537 24.4551 18.5449L27.9907 15.0093C24.6821 11.7007 19.3033 11.6413 15.9742 14.9657L19.5072 18.5037ZM24.4551 18.5449C25.8469 19.9366 25.8364 22.1526 24.4945 23.4945L28.03 27.03C31.3588 23.7013 31.3007 18.3193 27.9907 15.0093L24.4551 18.5449ZM24.4945 23.4945C23.1525 24.8364 20.9366 24.8469 19.5448 23.4551L16.0093 26.9907C19.3193 30.3007 24.7012 30.3588 28.03 27.0301L24.4945 23.4945ZM19.5448 23.4551C18.724 22.6343 18.3879 21.5216 18.5325 20.4664L13.5788 19.7874C13.2294 22.3368 14.0439 25.0253 16.0093 26.9907L19.5448 23.4551ZM18.5325 20.4664C18.3796 21.5819 17.3513 22.362 16.2361 22.2092L16.9151 17.2555C15.2948 17.0334 13.801 18.1667 13.5788 19.7874L18.5325 20.4664ZM16.2361 22.2092C15.1208 22.0563 14.3405 21.0282 14.4934 19.9128L19.4471 20.5917C19.6691 18.9712 18.5355 17.4776 16.9151 17.2555L16.2361 22.2092ZM14.4934 19.9127C14.1817 22.1866 14.9081 24.5841 16.662 26.338L20.1976 22.8025C19.5876 22.1925 19.3403 21.3706 19.447 20.5918L14.4934 19.9127ZM16.662 26.338C19.6186 29.2946 24.4161 29.3385 27.3773 26.3773L23.8418 22.8418C22.8656 23.8179 21.2341 23.8391 20.1976 22.8025L16.662 26.338ZM27.3773 26.3773C30.3386 23.4161 30.2945 18.6186 27.3379 15.662L23.8024 19.1976C24.839 20.2342 24.8179 21.8657 23.8418 22.8418L27.3773 26.3773ZM27.3379 15.6621C24.3828 12.7069 19.5888 12.6615 16.6272 15.6182L20.1597 19.1567C21.136 18.1821 22.7663 18.1615 23.8024 19.1976L27.3379 15.6621ZM18.3809 19.8874L18.841 19.8897L18.8661 14.8898L18.406 14.8875L18.3809 19.8874ZM18.841 19.8897C17.7152 19.8841 16.8072 18.9668 16.8128 17.841L21.8128 17.8661C21.821 16.2306 20.5018 14.898 18.8661 14.8898L18.841 19.8897ZM16.8128 17.841C16.8185 16.7152 17.7357 15.8072 18.8615 15.8128L18.8364 20.8128C20.4719 20.821 21.8045 19.5018 21.8128 17.8661L16.8128 17.841ZM18.8615 15.8128L17.295 15.805L17.2699 20.8049L18.8364 20.8128L18.8615 15.8128ZM17.295 15.805C18.4128 15.8106 19.3176 16.7154 19.3232 17.8331L14.3233 17.8583C14.3314 19.4822 15.6459 20.7967 17.2699 20.8049L17.295 15.805ZM19.3232 17.8332L19.3153 16.2667L14.3154 16.2918L14.3233 17.8583L19.3232 17.8332ZM19.3153 16.2666C19.321 17.3925 18.4129 18.3097 17.2872 18.3153L17.262 13.3154C15.6265 13.3237 14.3071 14.6562 14.3154 16.2918L19.3153 16.2666ZM17.2871 18.3153C16.1613 18.321 15.2441 17.4129 15.2385 16.2871L20.2384 16.262C20.2302 14.6265 18.8976 13.3072 17.262 13.3154L17.2871 18.3153ZM15.2385 16.2871L15.2408 16.7473L20.2407 16.7222L20.2384 16.2621L15.2385 16.2871ZM21.9999 20.5769C20.8741 20.5769 19.9615 19.6642 19.9615 18.5384H24.9615C24.9615 16.9028 23.6355 15.5769 21.9999 15.5769V20.5769ZM19.9615 18.5384V20.8088H24.9615V18.5384H19.9615ZM20.6937 22.5766L22.097 23.9798L25.6325 20.4443L24.2292 19.041L20.6937 22.5766ZM22.097 23.9798C21.3011 23.1839 21.3006 21.893 22.0973 21.0967L25.6322 24.6328C26.7893 23.4761 26.7889 21.6007 25.6325 20.4443L22.097 23.9798ZM22.097 21.097C22.8929 20.3011 24.1838 20.3006 24.9801 21.0973L21.444 24.6322C22.6007 25.7893 24.4761 25.7889 25.6325 24.6325L22.097 21.097ZM24.9798 21.0969L23.3061 19.4233L19.7707 22.9589L21.4443 24.6325L24.9798 21.0969ZM24.0384 21.1911V18.5384H19.0384V21.1911H24.0384ZM24.0384 18.5384C24.0384 19.6642 23.1257 20.5769 21.9999 20.5769V15.5769C20.3644 15.5769 19.0384 16.9028 19.0384 18.5384H24.0384Z" fill="url(#paint0_linear_827_29858)" mask="url(#path-3-inside-1_827_29858)"/>
<path d="M15.8117 30.2373C16.7765 29.1815 18.2471 29.2655 19.0941 30.4173L20.2824 32.0371C21.2353 33.321 22.7765 33.321 23.7294 32.0371L24.9177 30.4173C25.7647 29.2655 27.2353 29.1815 28.2 30.2373C30.2941 32.5171 32 31.7612 32 28.5696V15.0472C32 10.2118 30.8941 9 26.4471 9H17.5529C13.1059 9 12 10.2118 12 15.0472V28.5576C12.0118 31.7612 13.7294 32.5051 15.8117 30.2373Z" stroke="url(#paint1_linear_827_29858)" stroke-width="2" stroke-linecap="round" stroke-linejoin="round"/>
<defs>
<linearGradient id="paint0_linear_827_29858" x1="22" y1="15" x2="22" y2="27" gradientUnits="userSpaceOnUse">
<stop stop-color="#DA5ED8"/>
<stop offset="0.5" stop-color="#B854B7"/>
<stop offset="1"/>
</linearGradient>
<linearGradient id="paint1_linear_827_29858" x1="22" y1="9" x2="22" y2="33" gradientUnits="userSpaceOnUse">
<stop stop-color="#DA5ED8"/>
<stop offset="0.5" stop-color="#B854B7"/>
<stop offset="1"/>
</linearGradient>
</defs>
</svg>
