<svg width="23" height="23" viewBox="0 0 23 23" fill="none" xmlns="http://www.w3.org/2000/svg">
<path d="M15.7308 9.80769C15.7308 8.17708 15.1512 6.78225 13.9922 5.6232C12.8331 4.46414 11.4383 3.88462 9.80769 3.88462C8.17708 3.88462 6.78225 4.46414 5.6232 5.6232C4.46414 6.78225 3.88462 8.17708 3.88462 9.80769C3.88462 11.4383 4.46414 12.8331 5.6232 13.9922C6.78225 15.1512 8.17708 15.7308 9.80769 15.7308C11.4383 15.7308 12.8331 15.1512 13.9922 13.9922C15.1512 12.8331 15.7308 11.4383 15.7308 9.80769ZM22.5 20.8077C22.5 21.266 22.3325 21.6627 21.9976 21.9976C21.6627 22.3325 21.266 22.5 20.8077 22.5C20.3317 22.5 19.9351 22.3325 19.6178 21.9976L15.0829 17.476C13.5052 18.5689 11.7468 19.1154 9.80769 19.1154C8.54728 19.1154 7.34195 18.8708 6.19171 18.3816C5.04147 17.8924 4.04988 17.2314 3.21695 16.3984C2.38401 15.5655 1.72296 14.5739 1.23377 13.4237C0.744591 12.2734 0.5 11.0681 0.5 9.80769C0.5 8.54728 0.744591 7.34195 1.23377 6.19171C1.72296 5.04147 2.38401 4.04988 3.21695 3.21695C4.04988 2.38401 5.04147 1.72296 6.19171 1.23377C7.34195 0.744591 8.54728 0.5 9.80769 0.5C11.0681 0.5 12.2734 0.744591 13.4237 1.23377C14.5739 1.72296 15.5655 2.38401 16.3984 3.21695C17.2314 4.04988 17.8924 5.04147 18.3816 6.19171C18.8708 7.34195 19.1154 8.54728 19.1154 9.80769C19.1154 11.7468 18.5689 13.5052 17.476 15.0829L22.0108 19.6178C22.3369 19.9439 22.5 20.3405 22.5 20.8077Z" fill="#7B7B7B"/>
</svg>
