<svg width="23" height="24" viewBox="0 0 23 24" fill="none" xmlns="http://www.w3.org/2000/svg">
<path d="M11.6391 15.0739C13.5454 15.0739 15.0907 13.5815 15.0907 11.7406C15.0907 9.89961 13.5454 8.40723 11.6391 8.40723C9.73284 8.40723 8.1875 9.89961 8.1875 11.7406C8.1875 13.5815 9.73284 15.0739 11.6391 15.0739Z" stroke="url(#paint0_linear_827_30067)" stroke-width="2"/>
<path d="M13.5779 1.16352C13.1742 1 12.6625 1 11.639 1C10.6155 1 10.1038 1 9.70012 1.16352C9.16193 1.38154 8.73431 1.79973 8.51137 2.32608C8.4096 2.56637 8.36977 2.8458 8.35419 3.2534C8.33129 3.8524 8.01718 4.40684 7.48636 4.70655C6.95556 5.00625 6.30751 4.99506 5.76562 4.71496C5.39688 4.52436 5.12952 4.41837 4.86585 4.38443C4.28827 4.31006 3.70414 4.46313 3.24196 4.80996C2.89532 5.07007 2.63945 5.50348 2.12772 6.37029C1.61598 7.23712 1.36011 7.67052 1.30308 8.09416C1.22705 8.65901 1.38356 9.23026 1.73821 9.68228C1.90007 9.88861 2.12757 10.062 2.48066 10.2789C2.99972 10.5979 3.3337 11.1413 3.33366 11.7407C3.33363 12.3402 2.99966 12.8834 2.48065 13.2023C2.12752 13.4194 1.89999 13.5929 1.7381 13.7992C1.38345 14.2512 1.22694 14.8224 1.30298 15.3872C1.36001 15.8108 1.61587 16.2443 2.12761 17.1111C2.63935 17.9779 2.89522 18.4114 3.24185 18.6714C3.70403 19.0182 4.28816 19.1713 4.86574 19.097C5.12939 19.063 5.39674 18.957 5.76546 18.7665C6.30738 18.4864 6.95547 18.4752 7.48631 18.7749C8.01716 19.0746 8.33129 19.6291 8.35419 20.2282C8.36978 20.6357 8.4096 20.9152 8.51137 21.1554C8.73431 21.6817 9.16193 22.1 9.70012 22.318C10.1038 22.4815 10.6155 22.4815 11.639 22.4815C12.6625 22.4815 13.1742 22.4815 13.5779 22.318C14.1161 22.1 14.5438 21.6817 14.7666 21.1554C14.8684 20.9152 14.9083 20.6357 14.9239 20.2281C14.9467 19.6291 15.2608 19.0746 15.7916 18.7749C16.3224 18.4751 16.9705 18.4864 17.5125 18.7665C17.8812 18.957 18.1485 19.0629 18.4121 19.0969C18.9897 19.1713 19.5739 19.0182 20.0361 18.6714C20.3827 18.4113 20.6386 17.9779 21.1503 17.111C21.6621 16.2442 21.918 15.8108 21.975 15.3872C22.051 14.8224 21.8945 14.2511 21.5398 13.7991C21.3779 13.5928 21.1504 13.4193 20.7973 13.2023C20.2783 12.8834 19.9443 12.3401 19.9443 11.7406C19.9443 11.1412 20.2783 10.598 20.7973 10.2791C21.1505 10.0621 21.378 9.88871 21.5399 9.68228C21.8946 9.23034 22.0511 8.65908 21.9751 8.09423C21.9181 7.67059 21.6622 7.23718 21.1504 6.37037C20.6387 5.50356 20.3828 5.07015 20.0362 4.81003C19.574 4.4632 18.9898 4.31014 18.4122 4.3845C18.1487 4.41844 17.8813 4.52442 17.5125 4.71501C16.9706 4.99511 16.3225 5.00632 15.7917 4.70659C15.2608 4.40687 14.9467 3.85238 14.9239 3.25334C14.9083 2.84577 14.8684 2.56635 14.7666 2.32608C14.5438 1.79973 14.1161 1.38154 13.5779 1.16352Z" stroke="url(#paint1_linear_827_30067)" stroke-width="2"/>
<defs>
<linearGradient id="paint0_linear_827_30067" x1="11.6391" y1="8.40723" x2="11.6391" y2="15.0739" gradientUnits="userSpaceOnUse">
<stop stop-color="#DA5ED8"/>
<stop offset="0.5" stop-color="#B854B7"/>
<stop offset="1"/>
</linearGradient>
<linearGradient id="paint1_linear_827_30067" x1="11.639" y1="1" x2="11.639" y2="22.4815" gradientUnits="userSpaceOnUse">
<stop stop-color="#DA5ED8"/>
<stop offset="0.5" stop-color="#B854B7"/>
<stop offset="1"/>
</linearGradient>
</defs>
</svg>
