<svg width="56" height="30" viewBox="0 0 56 30" fill="none" xmlns="http://www.w3.org/2000/svg">
<rect width="56" height="30" rx="15" fill="white"/>
<g filter="url(#filter0_d_827_30071)">
<circle cx="15" cy="15" r="10" fill="url(#paint0_linear_827_30071)"/>
</g>
<path d="M15.5 20.834V21.4173V22.0007" stroke="white" stroke-width="2" stroke-linecap="round"/>
<path d="M15.5 8V8.58333V9.16667" stroke="white" stroke-width="2" stroke-linecap="round"/>
<path d="M19 12.0827C19 10.4719 17.433 9.16602 15.5 9.16602C13.5669 9.16602 12 10.4719 12 12.0827C12 13.6935 13.5669 14.9993 15.5 14.9993C17.433 14.9993 19 16.3052 19 17.916C19 19.5268 17.433 20.8327 15.5 20.8327C13.5669 20.8327 12 19.5268 12 17.916" stroke="white" stroke-width="2" stroke-linecap="round"/>
<path d="M28.76 11.576V16.616C28.76 17.12 28.884 17.508 29.132 17.78C29.38 18.052 29.744 18.188 30.224 18.188C30.704 18.188 31.072 18.052 31.328 17.78C31.584 17.508 31.712 17.12 31.712 16.616V11.576H33.764V16.604C33.764 17.356 33.604 17.992 33.284 18.512C32.964 19.032 32.532 19.424 31.988 19.688C31.452 19.952 30.852 20.084 30.188 20.084C29.524 20.084 28.928 19.956 28.4 19.7C27.88 19.436 27.468 19.044 27.164 18.524C26.86 17.996 26.708 17.356 26.708 16.604V11.576H28.76ZM38.2529 20.084C37.6369 20.084 37.0849 19.984 36.5969 19.784C36.1089 19.584 35.7169 19.288 35.4209 18.896C35.1329 18.504 34.9809 18.032 34.9649 17.48H37.1489C37.1809 17.792 37.2889 18.032 37.4729 18.2C37.6569 18.36 37.8969 18.44 38.1929 18.44C38.4969 18.44 38.7369 18.372 38.9129 18.236C39.0889 18.092 39.1769 17.896 39.1769 17.648C39.1769 17.44 39.1049 17.268 38.9609 17.132C38.8249 16.996 38.6529 16.884 38.4449 16.796C38.2449 16.708 37.9569 16.608 37.5809 16.496C37.0369 16.328 36.5929 16.16 36.2489 15.992C35.9049 15.824 35.6089 15.576 35.3609 15.248C35.1129 14.92 34.9889 14.492 34.9889 13.964C34.9889 13.18 35.2729 12.568 35.8409 12.128C36.4089 11.68 37.1489 11.456 38.0609 11.456C38.9889 11.456 39.7369 11.68 40.3049 12.128C40.8729 12.568 41.1769 13.184 41.2169 13.976H38.9969C38.9809 13.704 38.8809 13.492 38.6969 13.34C38.5129 13.18 38.2769 13.1 37.9889 13.1C37.7409 13.1 37.5409 13.168 37.3889 13.304C37.2369 13.432 37.1609 13.62 37.1609 13.868C37.1609 14.14 37.2889 14.352 37.5449 14.504C37.8009 14.656 38.2009 14.82 38.7449 14.996C39.2889 15.18 39.7289 15.356 40.0649 15.524C40.4089 15.692 40.7049 15.936 40.9529 16.256C41.2009 16.576 41.3249 16.988 41.3249 17.492C41.3249 17.972 41.2009 18.408 40.9529 18.8C40.7129 19.192 40.3609 19.504 39.8969 19.736C39.4329 19.968 38.8849 20.084 38.2529 20.084ZM45.7438 11.576C46.6318 11.576 47.4078 11.752 48.0718 12.104C48.7358 12.456 49.2478 12.952 49.6078 13.592C49.9758 14.224 50.1598 14.956 50.1598 15.788C50.1598 16.612 49.9758 17.344 49.6078 17.984C49.2478 18.624 48.7318 19.12 48.0598 19.472C47.3958 19.824 46.6238 20 45.7438 20H42.5878V11.576H45.7438ZM45.6118 18.224C46.3878 18.224 46.9918 18.012 47.4238 17.588C47.8558 17.164 48.0718 16.564 48.0718 15.788C48.0718 15.012 47.8558 14.408 47.4238 13.976C46.9918 13.544 46.3878 13.328 45.6118 13.328H44.6398V18.224H45.6118Z" fill="url(#paint1_linear_827_30071)"/>
<defs>
<filter id="filter0_d_827_30071" x="1" y="2" width="28" height="28" filterUnits="userSpaceOnUse" color-interpolation-filters="sRGB">
<feFlood flood-opacity="0" result="BackgroundImageFix"/>
<feColorMatrix in="SourceAlpha" type="matrix" values="0 0 0 0 0 0 0 0 0 0 0 0 0 0 0 0 0 0 127 0" result="hardAlpha"/>
<feOffset dy="1"/>
<feGaussianBlur stdDeviation="2"/>
<feComposite in2="hardAlpha" operator="out"/>
<feColorMatrix type="matrix" values="0 0 0 0 0 0 0 0 0 0 0 0 0 0 0 0 0 0 0.25 0"/>
<feBlend mode="normal" in2="BackgroundImageFix" result="effect1_dropShadow_827_30071"/>
<feBlend mode="normal" in="SourceGraphic" in2="effect1_dropShadow_827_30071" result="shape"/>
</filter>
<linearGradient id="paint0_linear_827_30071" x1="15" y1="5" x2="15" y2="25" gradientUnits="userSpaceOnUse">
<stop stop-color="#E071DF"/>
<stop offset="1" stop-color="#02E4F0"/>
</linearGradient>
<linearGradient id="paint1_linear_827_30071" x1="38.5" y1="2" x2="38.5" y2="30" gradientUnits="userSpaceOnUse">
<stop stop-color="#DA5ED8"/>
<stop offset="0.5" stop-color="#B854B7"/>
<stop offset="1"/>
</linearGradient>
</defs>
</svg>
