<svg width="45" height="40" viewBox="0 0 45 40" fill="none" xmlns="http://www.w3.org/2000/svg">
<path d="M24.5 24.5018L11 24.5M24.5 24.5018L18.875 18.875M24.5 24.5018L18.875 30.125M42.5 20V18.2C42.5 15.6798 42.5 14.4196 42.0095 13.457C41.5782 12.6103 40.8897 11.9219 40.043 11.4905C39.0805 11 37.8202 11 35.3 11H2M42.5 20V29M42.5 20H38C35.5147 20 33.5 22.0147 33.5 24.5C33.5 26.9853 35.5147 29 38 29H42.5M2 11V30.8C2 33.3202 2 34.5805 2.49048 35.543C2.92189 36.3897 3.6103 37.0782 4.45705 37.5095C5.41964 38 6.67977 38 9.2 38H35.3C37.8202 38 39.0805 38 40.043 37.5095C40.8897 37.0782 41.5782 36.3897 42.0095 35.543C42.5 34.5805 42.5 33.3202 42.5 30.8V29M2 11V9.2C2 6.67977 2 5.41964 2.49048 4.45705C2.92189 3.6103 3.6103 2.92189 4.45705 2.49048C5.41964 2 6.67975 2 9.2 2H28.55C31.0702 2 32.3305 2 33.293 2.49048C34.1397 2.92189 34.8282 3.6103 35.2595 4.45705C35.75 5.41964 35.75 6.67977 35.75 9.2V11" stroke="url(#paint0_linear_1107_11413)" stroke-width="4" stroke-linecap="round" stroke-linejoin="round"/>
<defs>
<linearGradient id="paint0_linear_1107_11413" x1="22.25" y1="2" x2="22.25" y2="38" gradientUnits="userSpaceOnUse">
<stop stop-color="#DA5ED8"/>
<stop offset="0.5" stop-color="#B854B7"/>
<stop offset="1"/>
</linearGradient>
</defs>
</svg>
