<svg width="40" height="37" viewBox="0 0 40 37" fill="none" xmlns="http://www.w3.org/2000/svg">
<ellipse cx="19.5251" cy="31.1461" rx="19.5251" ry="5.2975" fill="#F2F1F9"/>
<path d="M33.2592 33.904L21.2596 33.8511C19.8162 33.8449 18.6518 32.7183 18.6572 31.3347L18.7848 2.49569C18.7913 1.11105 19.9665 -0.00619261 21.4109 2.58327e-05L33.4105 0.0528824C34.8538 0.0591008 36.0182 1.18567 36.0128 2.56928L35.8853 31.4083C35.8799 32.793 34.7036 33.9102 33.2592 33.904Z" fill="#3629B7"/>
<path d="M33.3933 1.04903L31.0667 1.03866C30.7542 1.03763 30.5002 1.28947 30.4991 1.60247L30.4969 2.00667C30.4958 2.31966 30.2418 2.57151 29.9293 2.57047L25.3939 2.55078C25.0815 2.54974 24.8306 2.29479 24.8317 1.98179L24.8339 1.57759C24.835 1.2646 24.5831 1.01068 24.2717 1.00861L23.4533 1.00446L21.4175 0.995134C20.4066 0.990988 19.5828 1.77348 19.5785 2.74252L19.4541 30.8913C19.4498 31.8604 20.265 32.6491 21.2758 32.6532L33.2517 32.7061C34.2625 32.7102 35.0864 31.9277 35.0907 30.9587L35.215 2.80988C35.2204 1.84188 34.4042 1.05317 33.3933 1.04903Z" fill="white"/>
<path d="M33.8436 15.7263L32.4091 13.1853H32.4084C32.2709 12.9098 31.8889 12.7114 31.4381 12.7114C30.9381 12.7114 30.5222 12.9554 30.4313 13.278L30.3335 13.2827V15.9155L30.5606 15.7097L30.8117 15.9371H30.8599L31.111 15.7097L31.362 15.9371H31.4101L31.6611 15.7097L31.9122 15.9371H31.9603L32.2114 15.7097L32.4625 15.9371H32.5106L32.7616 15.7097L33.0127 15.9371H33.0609L33.3119 15.7097L33.563 15.9371H33.6111L33.8436 15.7263Z" fill="#BABCBE"/>
<path d="M30.3904 12.7114H29.9782H25.363C24.8007 12.7114 24.3447 13.0199 24.338 13.402C24.338 13.4048 24.3374 13.4075 24.3374 13.4103C24.3374 13.4131 24.338 13.4158 24.338 13.4186V24.7306H28.3007C28.5248 24.8801 28.8312 24.9726 29.1695 24.9726C29.5079 24.9726 29.8142 24.8801 30.0384 24.7306C30.3677 24.5109 30.3904 24.2652 30.3904 23.9709L30.4122 13.4103C30.4122 13.0243 30.8713 12.7114 31.4378 12.7114H30.3904Z" fill="#FF4267"/>
<path d="M28.006 24.1513C28.006 24.0721 28.0232 23.9956 28.0531 23.9229H28.006L23.4302 24.4067L23.6671 24.6288C23.9148 24.8608 24.3104 24.9981 24.7314 24.9981H29.2485C28.5623 24.9981 28.006 24.619 28.006 24.1513Z" fill="#BABCBE"/>
<path d="M29.8438 15.4951H24.8706V15.6172H29.8438V15.4951Z" fill="#D2CFCA"/>
<path d="M29.8438 16.2114H24.8706V16.3335H29.8438V16.2114Z" fill="#D2CFCA"/>
<path d="M29.8438 16.9268H24.8706V17.0488H29.8438V16.9268Z" fill="#D2CFCA"/>
<path d="M29.8438 17.6455H24.8706V17.7675H29.8438V17.6455Z" fill="#D2CFCA"/>
<path d="M29.8438 18.3594H24.8706V18.4814H29.8438V18.3594Z" fill="#D2CFCA"/>
<path d="M29.8438 19.0762H24.8706V19.1982H29.8438V19.0762Z" fill="#D2CFCA"/>
<path d="M29.8438 19.8872H24.8706V20.0092H29.8438V19.8872Z" fill="#D2CFCA"/>
<path d="M29.8438 20.6997H24.8706V20.8217H29.8438V20.6997Z" fill="#D2CFCA"/>
<path d="M29.8438 21.5107H24.8706V21.6328H29.8438V21.5107Z" fill="#D2CFCA"/>
<path d="M29.8438 14.709H24.8706V14.831H29.8438V14.709Z" fill="#D2CFCA"/>
<rect x="21.6943" y="28.1929" width="11.7859" height="2.96525" rx="1.48262" fill="#FFAF2A"/>
<path d="M27.156 29.036C27.156 29.1107 27.138 29.1807 27.102 29.246C27.0673 29.3113 27.012 29.364 26.936 29.404C26.8613 29.444 26.7667 29.464 26.652 29.464H26.418V30H26.138V28.604H26.652C26.76 28.604 26.852 28.6227 26.928 28.66C27.004 28.6973 27.0607 28.7487 27.098 28.814C27.1367 28.8793 27.156 28.9533 27.156 29.036ZM26.64 29.238C26.7173 29.238 26.7747 29.2207 26.812 29.186C26.8493 29.15 26.868 29.1 26.868 29.036C26.868 28.9 26.792 28.832 26.64 28.832H26.418V29.238H26.64ZM27.2828 29.442C27.2828 29.33 27.3048 29.2307 27.3488 29.144C27.3941 29.0573 27.4548 28.9907 27.5308 28.944C27.6081 28.8973 27.6941 28.874 27.7888 28.874C27.8715 28.874 27.9435 28.8907 28.0048 28.924C28.0675 28.9573 28.1175 28.9993 28.1548 29.05V28.892H28.4368V30H28.1548V29.838C28.1188 29.89 28.0688 29.9333 28.0048 29.968C27.9421 30.0013 27.8695 30.018 27.7868 30.018C27.6935 30.018 27.6081 29.994 27.5308 29.946C27.4548 29.898 27.3941 29.8307 27.3488 29.744C27.3048 29.656 27.2828 29.5553 27.2828 29.442ZM28.1548 29.446C28.1548 29.378 28.1415 29.32 28.1148 29.272C28.0881 29.2227 28.0521 29.1853 28.0068 29.16C27.9615 29.1333 27.9128 29.12 27.8608 29.12C27.8088 29.12 27.7608 29.1327 27.7168 29.158C27.6728 29.1833 27.6368 29.2207 27.6088 29.27C27.5821 29.318 27.5688 29.3753 27.5688 29.442C27.5688 29.5087 27.5821 29.5673 27.6088 29.618C27.6368 29.6673 27.6728 29.7053 27.7168 29.732C27.7621 29.7587 27.8101 29.772 27.8608 29.772C27.9128 29.772 27.9615 29.7593 28.0068 29.734C28.0521 29.7073 28.0881 29.67 28.1148 29.622C28.1415 29.5727 28.1548 29.514 28.1548 29.446ZM29.7703 28.892L29.0843 30.524H28.7863L29.0263 29.972L28.5823 28.892H28.8963L29.1823 29.666L29.4723 28.892H29.7703Z" fill="white"/>
<g opacity="0.75">
<path opacity="0.75" d="M17.7716 29.8587H2.34473V20.2727C2.34473 19.9263 2.63223 19.6455 2.98685 19.6455H17.1295C17.4841 19.6455 17.7716 19.9263 17.7716 20.2727V29.8587Z" fill="#B0BEC5"/>
<path opacity="0.75" d="M17.9661 30.704H2.15042C1.76853 30.704 1.45898 30.4017 1.45898 30.0286V29.8589H18.6576V30.0286C18.6576 30.4016 18.348 30.704 17.9661 30.704Z" fill="#B0BEC5"/>
<path opacity="0.75" d="M17.0378 20.437H2.78906V29.0679H17.0378V20.437Z" fill="#B0BEC5"/>
<path opacity="0.75" d="M11.8029 30.2814H8.31388C8.10171 30.2814 7.92969 30.1134 7.92969 29.9062V29.8589H12.1871V29.9062C12.1871 30.1134 12.015 30.2814 11.8029 30.2814Z" fill="#B0BEC5"/>
</g>
<path d="M17.6144 29.7059H2.1875V20.1199C2.1875 19.7735 2.47501 19.4927 2.82963 19.4927H16.9723C17.3269 19.4927 17.6144 19.7735 17.6144 20.1199V29.7059Z" fill="#3629B7"/>
<path d="M17.8089 30.5512H1.9932C1.6113 30.5512 1.30176 30.2488 1.30176 29.8758V29.7061H18.5003V29.8758C18.5003 30.2488 18.1908 30.5512 17.8089 30.5512Z" fill="#ECEFF1"/>
<path d="M16.8805 20.2842H2.63184V28.9151H16.8805V20.2842Z" fill="white"/>
<path d="M11.6456 30.1286H8.15666C7.94448 30.1286 7.77246 29.9606 7.77246 29.7534V29.7061H12.0298V29.7534C12.0298 29.9606 11.8578 30.1286 11.6456 30.1286Z" fill="#B0BEC5"/>
<path d="M12.9144 25.3899C12.4548 27.2071 10.574 28.3166 8.71297 27.8676C8.45875 27.8062 8.21804 27.719 7.99309 27.6093C7.71018 27.4716 7.4522 27.2984 7.2236 27.0971C7.01949 26.9175 6.83886 26.7153 6.68466 26.4959C6.63751 26.4288 6.59281 26.3602 6.55087 26.2899C6.36597 25.9817 6.23061 25.6451 6.15251 25.2923C6.13719 25.2234 6.124 25.1539 6.11327 25.084C6.04678 24.6566 6.06354 24.2096 6.1763 23.764C6.1866 23.7232 6.19778 23.6827 6.20996 23.6424C6.72064 21.8975 8.55902 20.8474 10.3778 21.2862C10.8253 21.3942 11.2309 21.5826 11.5825 21.8315C11.6503 21.8796 11.7162 21.9299 11.78 21.9825C12.0588 22.2119 12.2972 22.4817 12.4882 22.7803C12.5303 22.8461 12.57 22.9132 12.6075 22.9817C12.7406 23.2252 12.8435 23.4847 12.9128 23.7547C12.9843 24.033 13.02 24.3225 13.0162 24.6168C13.0134 24.8318 12.9894 25.0493 12.9428 25.267C12.9343 25.3083 12.9247 25.3493 12.9144 25.3899Z" fill="#FDD462"/>
<path d="M12.2385 25.2279C12.2282 25.2683 12.2169 25.3084 12.2053 25.348C11.7876 26.7268 10.3239 27.5565 8.88041 27.2082C7.43688 26.8599 6.53725 25.4599 6.82499 24.0497C6.83359 24.0093 6.84269 23.9687 6.85293 23.9283C7.21977 22.4781 8.72615 21.5897 10.211 21.9481C11.6958 22.3063 12.6053 23.7776 12.2385 25.2279Z" fill="#F37E00"/>
<path d="M12.2053 25.3491C11.7875 26.7279 10.3239 27.5576 8.88033 27.2093C8.848 27.2015 8.81629 27.193 8.78459 27.1842C8.46539 27.0954 8.17445 26.9548 7.91892 26.7736C7.66339 26.5924 7.44346 26.3712 7.26666 26.1213C7.2217 26.0579 7.17957 25.9929 7.13996 25.9257C6.96121 25.6205 6.84198 25.2818 6.79496 24.927C6.78334 24.8421 6.77606 24.7558 6.77317 24.6695C6.76576 24.4656 6.78271 24.2583 6.82484 24.0508C7.24261 22.672 8.70629 21.8419 10.1498 22.1902C10.3324 22.2343 10.5063 22.2953 10.6706 22.3712C10.7541 22.4096 10.8354 22.4523 10.9138 22.4984C11.2342 22.6867 11.5079 22.9346 11.7232 23.2229C11.7697 23.2851 11.8136 23.3495 11.8546 23.4158C12.0141 23.6724 12.1305 23.9547 12.1962 24.2513C12.2602 24.5404 12.2763 24.8425 12.2382 25.1476C12.2301 25.2145 12.219 25.2819 12.2053 25.3491Z" fill="#F7A219"/>
<path d="M9.54282 26.1614L9.43232 26.5984L8.864 26.4613L8.96954 26.044C8.57243 25.9231 8.20841 25.7225 8.00342 25.5185L8.48102 24.9152C8.70817 25.1329 9.03797 25.317 9.34831 25.3918C9.61835 25.457 9.72904 25.4253 9.75296 25.3308C9.8406 24.9843 8.2101 24.8875 8.46997 23.8599C8.58247 23.4151 9.00759 23.1209 9.69149 23.1898L9.80005 22.7607L10.3684 22.8979L10.2618 23.3191C10.5531 23.4186 10.8244 23.5634 11.0223 23.7448L10.5658 24.3489C10.3225 24.144 10.0775 24.0139 9.83162 23.9546C9.55349 23.8875 9.44494 23.9448 9.42102 24.0392C9.33739 24.37 10.9669 24.4708 10.71 25.4864C10.6024 25.9117 10.1945 26.2059 9.54282 26.1614Z" fill="#F37E00"/>
<path d="M9.56284 26.0129L9.45234 26.4499L8.88402 26.3128L8.98956 25.8955C8.59245 25.7746 8.22843 25.574 8.02344 25.37L8.50104 24.7667C8.72819 24.9845 9.05799 25.1685 9.36834 25.2433C9.63837 25.3085 9.74906 25.2767 9.77298 25.1823C9.86062 24.8359 8.23012 24.739 8.48999 23.7115C8.60249 23.2667 9.0276 22.9725 9.71151 23.0414L9.82006 22.6123L10.3884 22.7494L10.2818 23.1706C10.5732 23.2702 10.8444 23.415 11.0423 23.5964L10.5858 24.2006C10.3426 23.9957 10.0975 23.8655 9.85165 23.8062C9.57351 23.7391 9.46496 23.7964 9.44104 23.8909C9.35741 24.2216 10.9869 24.3224 10.73 25.3381C10.6224 25.7632 10.2145 26.0574 9.56284 26.0129Z" fill="#FDD462"/>
</svg>
