<svg width="28" height="26" viewBox="0 0 28 26" fill="none" xmlns="http://www.w3.org/2000/svg">
<path d="M15.4444 15.4456L6.77778 15.4444M15.4444 15.4456L11.8333 11.8333M15.4444 15.4456L11.8333 19.0556M27 12.5556V11.4C27 9.78208 27 8.9731 26.6851 8.35514C26.4082 7.81155 25.9662 7.36961 25.4227 7.09265C24.8047 6.77778 23.9957 6.77778 22.3778 6.77778H1M27 12.5556V18.3333M27 12.5556H24.1111C22.5156 12.5556 21.2222 13.8489 21.2222 15.4444C21.2222 17.04 22.5156 18.3333 24.1111 18.3333H27M1 6.77778V19.4889C1 21.1068 1 21.9158 1.31487 22.5338C1.59183 23.0773 2.03377 23.5193 2.57736 23.7962C3.19532 24.1111 4.0043 24.1111 5.62222 24.1111H22.3778C23.9957 24.1111 24.8047 24.1111 25.4227 23.7962C25.9662 23.5193 26.4082 23.0773 26.6851 22.5338C27 21.9158 27 21.1068 27 19.4889V18.3333M1 6.77778V5.62222C1 4.0043 1 3.19532 1.31487 2.57736C1.59183 2.03377 2.03377 1.59183 2.57736 1.31487C3.19532 1 4.00429 1 5.62222 1H18.0444C19.6624 1 20.4714 1 21.0893 1.31487C21.6329 1.59183 22.0749 2.03377 22.3518 2.57736C22.6667 3.19532 22.6667 4.0043 22.6667 5.62222V6.77778" stroke="url(#paint0_linear_933_15576)" stroke-width="2" stroke-linecap="round" stroke-linejoin="round"/>
<defs>
<linearGradient id="paint0_linear_933_15576" x1="14" y1="1" x2="14" y2="24.1111" gradientUnits="userSpaceOnUse">
<stop stop-color="#E071DF"/>
<stop offset="1" stop-color="#02E4F0"/>
</linearGradient>
</defs>
</svg>
