<svg width="33" height="33" viewBox="0 0 33 33" fill="none" xmlns="http://www.w3.org/2000/svg">
<path d="M11.2402 16.4838L14.7334 19.9914L21.7341 12.9761" stroke="url(#paint0_linear_933_15582)" stroke-width="3.75" stroke-linecap="round" stroke-linejoin="round"/>
<path d="M14.6753 2.64137C15.6754 1.78621 17.3132 1.78621 18.3278 2.64137L20.6179 4.6126C21.0528 4.98945 21.8645 5.29383 22.4442 5.29383H24.9083C26.4447 5.29383 27.7057 6.55484 27.7057 8.09123V10.5553C27.7057 11.1205 28.01 11.9467 28.3869 12.3815L30.3581 14.6716C31.2133 15.6717 31.2133 17.3095 30.3581 18.3241L28.3869 20.6142C28.01 21.0491 27.7057 21.8608 27.7057 22.4405V24.9046C27.7057 26.441 26.4447 27.702 24.9083 27.702H22.4442C21.8789 27.702 21.0528 28.0063 20.6179 28.3832L18.3278 30.3544C17.3277 31.2096 15.6899 31.2096 14.6753 30.3544L12.3852 28.3832C11.9503 28.0063 11.1387 27.702 10.5589 27.702H8.05137C6.51498 27.702 5.25397 26.441 5.25397 24.9046V22.426C5.25397 21.8608 4.94959 21.0491 4.58723 20.6142L2.6305 18.3097C1.78983 17.3095 1.78983 15.6862 2.6305 14.6861L4.58723 12.3815C4.94959 11.9467 5.25397 11.135 5.25397 10.5698V8.07674C5.25397 6.54034 6.51498 5.27934 8.05137 5.27934H10.5589C11.1242 5.27934 11.9503 4.97496 12.3852 4.59811L14.6753 2.64137Z" stroke="url(#paint1_linear_933_15582)" stroke-width="3.75" stroke-linecap="round" stroke-linejoin="round"/>
<defs>
<linearGradient id="paint0_linear_933_15582" x1="16.4872" y1="12.9761" x2="16.4872" y2="19.9914" gradientUnits="userSpaceOnUse">
<stop stop-color="#E071DF"/>
<stop offset="1" stop-color="#02E4F0"/>
</linearGradient>
<linearGradient id="paint1_linear_933_15582" x1="16.4997" y1="2" x2="16.4997" y2="30.9958" gradientUnits="userSpaceOnUse">
<stop stop-color="#E071DF"/>
<stop offset="1" stop-color="#02E4F0"/>
</linearGradient>
</defs>
</svg>
