<svg width="67" height="70" viewBox="0 0 67 70" fill="none" xmlns="http://www.w3.org/2000/svg">
<ellipse cx="34.2296" cy="31.7542" rx="16.2296" ry="4.09839" fill="#F2F1F9"/>
<path d="M26.4251 10.3996L26.0879 10.2069C26.088 10.2071 26.0881 10.2073 26.0883 10.2075C25.9895 10.1358 25.8551 10.1343 25.7066 10.2211L20.8436 13.0598C20.5409 13.2365 20.2954 13.7106 20.2954 14.1187V19.5549C20.2954 19.7848 20.3733 19.9447 20.4955 20.0089H20.4954L20.8942 20.2333C20.8942 20.2333 20.8106 20.0926 20.7468 20.0181C20.7783 20.0074 20.8105 19.9932 20.8436 19.9739L25.7066 17.1351C26.0094 16.9584 26.2547 16.4843 26.2547 16.0762V10.64C26.2547 10.5308 26.2367 10.438 26.2051 10.3631C26.3191 10.455 26.4251 10.3996 26.4251 10.3996Z" fill="#E0CBB0"/>
<path d="M20.2949 14.1181V19.5542C20.2949 19.7841 20.3729 19.944 20.495 20.0082H20.4949L20.8937 20.2327C20.8937 20.2327 20.8101 20.092 20.7463 20.0175C20.7778 20.0067 20.81 19.9925 20.8431 19.9732L23.6878 18.3126V16.0029L20.2994 14.0249C20.2967 14.0563 20.2949 14.0874 20.2949 14.1181Z" fill="#C6AE95"/>
<path d="M26.2541 10.6395C26.2541 10.5303 26.2361 10.4376 26.2046 10.3626C26.3186 10.4544 26.4246 10.3991 26.4246 10.3991L26.0874 10.2064C26.0875 10.2066 26.0876 10.2068 26.0878 10.207C25.9891 10.1353 25.8546 10.1338 25.7061 10.2206L20.8431 13.0593C20.822 13.0716 20.8013 13.0857 20.7808 13.1008L24.6007 15.3307L26.2542 13.9598V10.6395H26.2541Z" fill="#F2DCC4"/>
<path d="M26.0669 17.3425L21.2039 20.1812C20.9012 20.3579 20.6558 20.1704 20.6558 19.7623V14.3261C20.6558 13.918 20.9011 13.4439 21.2039 13.2672L26.0669 10.4283C26.3696 10.2516 26.6151 10.4392 26.6151 10.8473V16.2834C26.6151 16.6916 26.3696 17.1658 26.0669 17.3425Z" fill="#F7EED7"/>
<path d="M25.9266 17.2854L21.3932 19.9317C21.077 20.1163 20.8198 19.968 20.8198 19.6011V14.3415C20.8198 13.9746 21.077 13.526 21.3932 13.3414L25.9266 10.6951C26.2428 10.5105 26.5 10.6589 26.5 11.0257V16.2853C26.5 16.6523 26.2428 17.1008 25.9266 17.2854ZM21.3932 13.4002C21.105 13.5685 20.8704 13.9776 20.8704 14.312V19.5716C20.8704 19.9061 21.105 20.0413 21.3932 19.873L25.9266 17.2267C26.2149 17.0584 26.4495 16.6493 26.4495 16.3148V11.0553C26.4495 10.7208 26.2149 10.5856 25.9266 10.7539L21.3932 13.4002Z" fill="#C6AD89"/>
<g opacity="0.6">
<path opacity="0.6" d="M21.0364 19.9166L26.3077 10.7237C26.2123 10.6613 26.077 10.666 25.9268 10.7537L21.3935 13.4C21.1052 13.5683 20.8706 13.9774 20.8706 14.3118V19.5714C20.8706 19.7458 20.9347 19.8653 21.0364 19.9166Z" fill="#F9ECC7"/>
</g>
<path d="M24.8187 15.9979C25.4666 14.8774 25.4731 13.6625 24.8333 13.2843C24.1935 12.9061 23.1496 13.5078 22.5017 14.6284C21.8538 15.7489 21.8473 16.9638 22.4871 17.342C23.1269 17.7202 24.1708 17.1184 24.8187 15.9979Z" fill="#CEBBA1"/>
<path d="M23.6141 15.729L22.71 16.8614L23.4885 17.3159C23.5449 17.2897 23.6021 17.2599 23.6599 17.2261C24.0163 17.0181 24.3459 16.694 24.6156 16.3136L23.6141 15.729Z" fill="#E0CBB0"/>
<path opacity="0.4" d="M23.6602 13.4004C23.5716 13.4521 23.4847 13.5112 23.3999 13.5763V14.4287L25.0948 15.4181C25.2309 15.0605 25.3089 14.6936 25.3089 14.3508C25.3089 13.2943 24.5707 12.8688 23.6602 13.4004Z" fill="#C6AD89"/>
<path opacity="0.4" d="M25.3016 14.1834C25.2315 13.3089 24.6056 12.9443 23.8179 13.3172L25.3016 14.1834Z" fill="#C6AD89"/>
<path d="M23.2063 16.9363C24.0318 16.4544 24.7011 15.2872 24.7011 14.3294C24.7011 13.6836 24.3966 13.2983 23.9453 13.2632C23.8525 13.2985 23.7573 13.3438 23.6599 13.4007C22.7494 13.9321 22.0112 15.2195 22.0112 16.2759C22.0112 16.61 22.0852 16.8808 22.215 17.0783C22.4788 17.1959 22.8259 17.1584 23.2063 16.9363Z" fill="#F2DDC2"/>
<path d="M25.2562 16.7021L22.0635 18.566C21.8408 18.696 21.6597 18.5915 21.6597 18.3332V14.6288C21.6597 14.3705 21.8408 14.0545 22.0635 13.9246L25.2562 12.0608C25.4788 11.9308 25.66 12.0353 25.66 12.2936V15.9978C25.66 16.2562 25.4788 16.5721 25.2562 16.7021ZM22.0635 13.9658C21.8604 14.0844 21.6952 14.3724 21.6952 14.608V18.3123C21.6952 18.5478 21.8604 18.6431 22.0635 18.5245L25.2562 16.6608C25.4592 16.5422 25.6245 16.2541 25.6245 16.0186V12.3143C25.6245 12.0787 25.4592 11.9835 25.2562 12.1021L22.0635 13.9658Z" fill="#C6AD89"/>
<path d="M23.4204 15.2113C23.4204 15.3385 23.3315 15.4935 23.2219 15.5575C23.1122 15.6215 23.0234 15.5703 23.0234 15.4431C23.0234 15.3159 23.1123 15.1609 23.2219 15.0969C23.3315 15.0329 23.4204 15.0841 23.4204 15.2113Z" fill="#5D6D89"/>
<path opacity="0.5" d="M23.3679 15.0874L23.0884 15.5749C23.1237 15.5917 23.1702 15.588 23.2219 15.5578C23.3315 15.4938 23.4203 15.3388 23.4203 15.2116C23.4203 15.1518 23.4001 15.1095 23.3679 15.0874Z" fill="#5D6D89"/>
<path d="M23.3968 15.2252C23.3968 15.3373 23.3185 15.4739 23.2219 15.5304C23.1252 15.5867 23.0469 15.5416 23.0469 15.4295C23.0469 15.3174 23.1252 15.1808 23.2219 15.1244C23.3185 15.068 23.3968 15.1131 23.3968 15.2252Z" fill="#A6B4C9"/>
<path d="M23.0859 15.5339C23.0938 15.5407 23.1027 15.5458 23.1125 15.5492L23.3576 15.1222C23.3497 15.1155 23.3408 15.1104 23.331 15.1069L23.0859 15.5339Z" fill="#5D6D89"/>
<path d="M22.7174 15.6217C22.7174 15.7683 22.615 15.947 22.4886 16.0208C22.3622 16.0945 22.2598 16.0354 22.2598 15.8888C22.2598 15.7422 22.3622 15.5635 22.4886 15.4898C22.615 15.416 22.7174 15.4751 22.7174 15.6217Z" fill="#494238"/>
<path d="M24.1842 14.7652C24.1842 14.9119 24.0818 15.0905 23.9554 15.1643C23.829 15.238 23.7266 15.179 23.7266 15.0323C23.7266 14.8857 23.829 14.7071 23.9554 14.6333C24.0818 14.5596 24.1842 14.6186 24.1842 14.7652Z" fill="#494238"/>
<path d="M23.6601 17.1518C23.044 17.5114 22.5041 17.4487 22.2026 17.0582C22.4793 17.5026 23.0281 17.5952 23.6601 17.2261C24.2923 16.8571 24.841 16.1238 25.1177 15.3564C24.8161 16.0992 24.2763 16.7922 23.6601 17.1518Z" fill="white"/>
<path opacity="0.4" d="M22.061 16.6624C22.061 15.4921 22.8788 14.0659 23.8875 13.477C23.9935 13.4151 24.0972 13.3658 24.1983 13.3269C24.1207 13.2922 24.0362 13.2703 23.9453 13.2632C23.8525 13.2985 23.7573 13.3438 23.6599 13.4007C22.7494 13.9321 22.0112 15.2195 22.0112 16.2759C22.0112 16.4396 22.0292 16.5878 22.0626 16.7199C22.0621 16.7006 22.061 16.682 22.061 16.6624Z" fill="#C6AD89"/>
<path d="M23.1456 16.9052C22.8655 17.0688 22.6022 17.1395 22.3726 17.1281C22.6107 17.1753 22.8976 17.1167 23.2065 16.9364C23.8658 16.5516 24.425 15.7297 24.6237 14.9263C24.3724 15.7303 23.8054 16.5201 23.1456 16.9052Z" fill="#FFFAEE"/>
<path d="M22.5525 15.4639C22.6081 15.4799 22.6441 15.5357 22.6441 15.6225C22.6441 15.7691 22.5417 15.9478 22.4153 16.0215C22.393 16.0345 22.3715 16.0433 22.3511 16.0482C22.3893 16.0593 22.4368 16.0516 22.4883 16.0215C22.6147 15.9478 22.7172 15.7691 22.7172 15.6225C22.7172 15.5017 22.6477 15.4405 22.5525 15.4639Z" fill="#CEBBA1"/>
<path d="M24.0165 14.6082C24.0702 14.6254 24.105 14.6808 24.105 14.7659C24.105 14.9125 24.0026 15.0912 23.8762 15.1649C23.855 15.1773 23.8345 15.1857 23.8149 15.1908C23.8537 15.2032 23.9023 15.1958 23.9553 15.1649C24.0817 15.0912 24.1841 14.9125 24.1841 14.7659C24.1841 14.6439 24.1131 14.5828 24.0165 14.6082Z" fill="#CEBBA1"/>
<path d="M23.7905 26.4429H20.9502C21.1852 28.2233 21.1286 27.7887 21.137 27.878C21.1809 28.3423 21.6047 28.8295 22.3528 28.8295C23.1009 28.8295 23.4507 28.3667 23.5781 27.9815C23.5976 27.9228 23.6165 27.7618 23.7905 26.4429Z" fill="#31343F"/>
<path d="M22.6371 29.4436C22.5077 29.5183 22.2974 29.518 22.1673 29.4432C22.0372 29.3682 22.0366 29.2469 22.166 29.1721C22.2955 29.0974 22.5058 29.0976 22.6359 29.1726C22.7659 29.2475 22.7666 29.3689 22.6371 29.4436Z" fill="#31343F"/>
<path d="M22.7331 29.2995H22.0696L22.0005 28.1406H22.8022L22.7331 29.2995Z" fill="#31343F"/>
<path d="M24.35 33.1467C24.0984 33.1467 23.8445 33.0799 23.6039 32.946C22.6782 32.4307 22.1649 31.1004 22.1956 29.296L22.6063 29.303C22.5786 30.9271 23.0264 32.1552 23.8038 32.588C24.1714 32.7925 24.5801 32.7832 24.9251 32.5621C25.5006 32.1935 25.7951 31.3516 25.7127 30.3099C25.6648 29.7041 25.5207 29.1338 25.3814 28.5823C25.0231 27.1641 24.6846 25.8246 26.3936 24.7329L26.615 25.0782C25.1552 26.0108 25.4171 27.0473 25.7796 28.4821C25.9231 29.05 26.0715 29.6374 26.1222 30.2777C26.2167 31.4726 25.8521 32.4556 25.1469 32.9073C24.8979 33.0666 24.6253 33.1466 24.35 33.1467Z" fill="#31343F"/>
<path d="M22.4646 28.8109C22.3422 28.8234 22.243 28.8272 22.106 28.7988C22.1075 28.8252 22.1293 29.2831 22.1425 29.3059C22.1901 29.388 22.367 29.4186 22.4376 29.3674C22.4862 29.3394 22.4646 28.8109 22.4646 28.8109Z" fill="#3F434F"/>
<path d="M22.9969 27.0581H21.2021C21.3506 28.1832 21.3149 27.9085 21.3202 27.9649C21.3479 28.2582 21.6158 28.5661 22.0884 28.5661C22.5611 28.5661 22.7822 28.2736 22.8627 28.0302C22.875 27.9933 22.8869 27.8915 22.9969 27.0581Z" fill="#3F434F"/>
<path d="M23.8383 26.4556C23.0313 26.9206 21.7188 26.9183 20.9067 26.4503C20.0946 25.9823 20.0905 25.2259 20.8975 24.7608C21.7045 24.2958 23.017 24.2981 23.8291 24.7661C24.6412 25.2341 24.6452 25.9905 23.8383 26.4556Z" fill="#3F434F"/>
<path d="M23.8382 26.358C23.0312 26.8231 21.7187 26.8208 20.9066 26.3527C20.5193 26.1296 20.3163 25.8408 20.2968 25.5493C20.2727 25.8731 20.4761 26.2022 20.9066 26.4503C21.7187 26.9183 23.0312 26.9206 23.8382 26.4556C24.2604 26.2122 24.4601 25.8893 24.4388 25.5696C24.4174 25.8567 24.2174 26.1396 23.8382 26.358Z" fill="#7C8189"/>
<path opacity="0.1" d="M20.8605 26.4225L23.7793 24.7404C22.9643 24.2998 21.6888 24.3053 20.8977 24.7612C20.1066 25.2171 20.0955 25.9528 20.8605 26.4225Z" fill="white"/>
<path d="M21.7533 25.7704C21.6128 25.8513 21.3844 25.8508 21.2432 25.7694C21.1019 25.688 21.1011 25.5563 21.2416 25.4754C21.382 25.3945 21.6104 25.395 21.7517 25.4764C21.893 25.5578 21.8937 25.6895 21.7533 25.7704Z" fill="#343742"/>
<path d="M21.7966 25.578V23.7055C21.7966 23.7048 21.7966 23.704 21.7966 23.7034V23.7011H21.7962C21.7915 23.5836 21.6826 23.4023 21.4965 23.4023C21.3104 23.4023 21.2006 23.5833 21.1985 23.7011H21.1982V23.7023C21.1982 23.7031 21.1982 23.7037 21.1982 23.7044V25.5932H21.1987C21.1966 25.6393 21.2254 25.6859 21.2867 25.7213C21.4047 25.7893 21.5954 25.7896 21.7127 25.722C21.7807 25.6827 21.7911 25.6406 21.7966 25.578Z" fill="#B0B7C9"/>
<path d="M21.7965 25.578V23.7055C21.7965 23.7048 21.7965 23.704 21.7965 23.7034V23.7011H21.7961C21.7914 23.5836 21.6825 23.4023 21.4964 23.4023C21.4767 23.4023 21.458 23.4048 21.4401 23.4086C21.5916 23.4404 21.6794 23.5961 21.6835 23.7012H21.6839V23.7035C21.6839 23.7042 21.6839 23.705 21.6839 23.7056V25.5156C21.6816 25.5819 21.6681 25.6668 21.6 25.706C21.5031 25.7619 21.3722 25.7558 21.2417 25.6872C21.2542 25.6992 21.2685 25.7108 21.2866 25.7213C21.4047 25.7893 21.5953 25.7896 21.7126 25.722C21.7806 25.6827 21.7992 25.6351 21.7965 25.578Z" fill="#868B9B"/>
<path d="M21.2568 23.6216C21.2448 23.5783 21.3517 23.4395 21.4249 23.4395C21.4804 23.4429 21.5257 23.5471 21.5184 23.6214C21.5089 23.7204 21.2856 23.7266 21.2568 23.6216Z" fill="#DAE2F2"/>
<path d="M21.2711 23.7197C21.2711 23.7197 21.271 25.603 21.271 25.6494C21.3542 25.7251 21.5252 25.703 21.5252 25.703V23.763C21.4365 23.7725 21.3418 23.7578 21.2711 23.7197Z" fill="#DAE2F2"/>
<path d="M21.5508 23.6334C21.5508 23.473 21.6519 23.598 21.6519 23.6566C21.6519 23.7244 21.5508 23.698 21.5508 23.6334Z" fill="#DAE2F2"/>
<path d="M23.494 25.7704C23.3535 25.8513 23.1252 25.8508 22.9839 25.7694C22.8426 25.688 22.8419 25.5563 22.9823 25.4754C23.1227 25.3945 23.3511 25.395 23.4924 25.4764C23.6337 25.5578 23.6343 25.6895 23.494 25.7704Z" fill="#343742"/>
<path d="M23.5373 25.578V23.7055C23.5373 23.7048 23.5373 23.704 23.5373 23.7034V23.7011H23.5369C23.5322 23.5836 23.4233 23.4023 23.2372 23.4023C23.0511 23.4023 22.9413 23.5833 22.9392 23.7011H22.939V23.7023C22.939 23.7031 22.939 23.7037 22.939 23.7044V25.5932H22.9394C22.9373 25.6393 22.9661 25.6859 23.0274 25.7213C23.1455 25.7893 23.3361 25.7896 23.4534 25.722C23.5214 25.6827 23.5318 25.6406 23.5373 25.578Z" fill="#B0B7C9"/>
<path d="M23.5371 25.578V23.7055C23.5371 23.7048 23.5371 23.704 23.5371 23.7034V23.7011H23.5367C23.532 23.5836 23.4231 23.4023 23.237 23.4023C23.2173 23.4023 23.1986 23.4048 23.1808 23.4086C23.3323 23.4404 23.4201 23.5961 23.4242 23.7012H23.4247V23.7035C23.4247 23.7042 23.4247 23.705 23.4247 23.7056V25.5156C23.4223 25.5819 23.4088 25.6668 23.3408 25.706C23.2439 25.7619 23.1129 25.7558 22.9824 25.6872C22.9949 25.6992 23.0093 25.7108 23.0273 25.7213C23.1454 25.7893 23.336 25.7896 23.4533 25.722C23.5213 25.6827 23.5399 25.6351 23.5371 25.578Z" fill="#868B9B"/>
<path d="M22.997 23.6216C22.9851 23.5783 23.0919 23.4395 23.1651 23.4395C23.2206 23.4429 23.2659 23.5471 23.2587 23.6214C23.2492 23.7204 23.0259 23.7266 22.997 23.6216Z" fill="#DAE2F2"/>
<path d="M23.0118 23.7197C23.0118 23.7197 23.0117 25.603 23.0117 25.6494C23.0949 25.7251 23.266 25.703 23.266 25.703V23.763C23.1773 23.7725 23.0826 23.7578 23.0118 23.7197Z" fill="#DAE2F2"/>
<path d="M23.291 23.6334C23.291 23.473 23.3921 23.598 23.3921 23.6566C23.3921 23.7244 23.291 23.698 23.291 23.6334Z" fill="#DAE2F2"/>
<path d="M24.4378 25.677C24.4128 25.9607 24.2132 26.2397 23.8382 26.4558C23.0312 26.9209 21.7187 26.9186 20.9066 26.4506C20.5125 26.2235 20.3093 25.9284 20.2961 25.6318V26.1941C20.2952 26.2149 20.2952 26.2357 20.2961 26.2565V26.3021H20.2995C20.3306 26.5832 20.5327 26.8597 20.9065 27.0752C21.7186 27.5432 23.0311 27.5455 23.8381 27.0805C24.2129 26.8646 24.4125 26.5857 24.4377 26.3021H24.4378V26.3016C24.4415 26.2603 24.4416 26.2188 24.4378 26.1775V25.677Z" fill="#343742"/>
<path d="M23.1013 26.7274C22.3647 26.8851 21.5016 26.7933 20.9067 26.4504C20.8946 26.4434 20.8833 26.4363 20.8716 26.4292V27.0539C20.8833 27.061 20.8946 27.0682 20.9067 27.0751C21.5016 27.4181 22.3648 27.5098 23.1013 27.3521V26.7274Z" fill="#454A56"/>
<path d="M24.4377 26.2433V26.2438H24.4376C24.4123 26.5273 24.2128 26.8061 23.838 27.0221C23.0309 27.4872 21.7185 27.4848 20.9064 27.0168C20.5326 26.8014 20.3304 26.5249 20.2994 26.2438H20.296C20.2961 26.2481 20.2958 26.2523 20.296 26.2566V26.3023H20.2994C20.3304 26.5834 20.5326 26.8599 20.9064 27.0754C21.7185 27.5434 23.0309 27.5457 23.838 27.0806C24.2127 26.8647 24.4123 26.5858 24.4376 26.3023H24.4377V26.3018C24.4403 26.2714 24.4404 26.2409 24.4392 26.2104C24.4386 26.2213 24.4386 26.2323 24.4377 26.2433Z" fill="#2C2F38"/>
<path d="M22.2603 29.7959C22.2603 29.7959 22.3777 29.8252 22.4559 29.8252C22.4559 29.8252 22.4168 30.3913 22.6025 31.0454C22.8812 32.0263 23.4583 32.6657 23.4436 32.6951C23.3898 32.7341 22.3434 31.7775 22.2603 29.7959Z" fill="#454A56"/>
<path d="M25.2281 27.6289C25.2281 27.6289 25.0472 26.9261 25.189 26.3062C25.3309 25.6864 25.7612 25.2911 25.7807 25.2959C25.8003 25.3008 25.3895 25.8035 25.2966 26.3404C25.1617 27.1201 25.2909 27.6207 25.2281 27.6289Z" fill="#4E5460"/>
<path d="M39.4284 33.2297L30.5825 33.1888C29.5185 33.184 28.6601 32.3124 28.6641 31.242L28.7581 8.93078C28.7629 7.85956 29.6293 6.99521 30.6941 7.00002L39.54 7.04091C40.604 7.04572 41.4624 7.91729 41.4584 8.98771L41.3644 31.2989C41.3604 32.3702 40.4932 33.2345 39.4284 33.2297Z" fill="#3629B7"/>
<path d="M39.5273 7.81124L37.8121 7.80322C37.5818 7.80242 37.3945 7.99726 37.3937 8.23941L37.3921 8.55211C37.3913 8.79426 37.204 8.9891 36.9737 8.9883L33.6302 8.97306C33.3999 8.97226 33.215 8.77502 33.2158 8.53287L33.2174 8.22016C33.2182 7.97802 33.0325 7.78157 32.8029 7.77997L32.1996 7.77676L30.6988 7.76954C29.9536 7.76634 29.3463 8.37171 29.3431 9.1214L29.2515 30.8986C29.2483 31.6483 29.8492 32.2585 30.5944 32.2617L39.4229 32.3026C40.1681 32.3058 40.7754 31.7004 40.7786 30.9507L40.8702 9.17352C40.8742 8.42462 40.2725 7.81445 39.5273 7.81124Z" fill="white"/>
<rect x="30.0918" y="12.6777" width="10.1127" height="1.26173" rx="0.630865" fill="#5655B9"/>
<rect x="31.04" y="12.9932" width="8.53256" height="0.630865" rx="0.315432" fill="#3629B7"/>
<path d="M37.9754 13.3086H37.4877H32.027C31.3616 13.3086 30.8221 13.6468 30.8142 14.0658C30.8142 14.0689 30.8135 14.0718 30.8135 14.0749C30.8135 14.078 30.8142 14.0809 30.8142 14.084V26.4875H35.5028C35.768 26.6514 36.1305 26.7528 36.5308 26.7528C36.9311 26.7528 37.2935 26.6514 37.5588 26.4875C37.9484 26.2466 37.9754 25.9772 37.9754 25.6545L38.0011 14.0749C38.0011 13.6517 38.5443 13.3086 39.2145 13.3086H37.9754Z" fill="#FFAF2A"/>
<path d="M37.3291 16.3608H31.4448V16.4951H37.3291V16.3608Z" fill="#D2CFCA"/>
<path d="M37.3291 17.147H31.4448V17.2812H37.3291V17.147Z" fill="#D2CFCA"/>
<path d="M37.3291 17.9326H31.4448V18.0668H37.3291V17.9326Z" fill="#D2CFCA"/>
<path d="M37.3291 18.7173H31.4448V18.8515H37.3291V18.7173Z" fill="#D2CFCA"/>
<path d="M37.3291 19.5029H31.4448V19.6371H37.3291V19.5029Z" fill="#D2CFCA"/>
<path d="M37.3291 20.2886H31.4448V20.4228H37.3291V20.2886Z" fill="#D2CFCA"/>
<path d="M37.3291 21.1777H31.4448V21.3119H37.3291V21.1777Z" fill="#D2CFCA"/>
<path d="M37.3291 22.0674H31.4448V22.2016H37.3291V22.0674Z" fill="#D2CFCA"/>
<path d="M37.3291 22.9565H31.4448V23.0908H37.3291V22.9565Z" fill="#D2CFCA"/>
<path d="M37.3291 15.498H31.4448V15.6323H37.3291V15.498Z" fill="#D2CFCA"/>
<g filter="url(#filter0_d_895_10224)">
<path d="M35.376 25.6272C35.376 25.5191 35.3959 25.4147 35.4304 25.3154H35.376L30.0923 25.9758L30.3659 26.2788C30.6519 26.5954 31.1087 26.7828 31.5949 26.7828H36.8108C36.0184 26.7828 35.376 26.2655 35.376 25.6272Z" fill="#3629B7"/>
</g>
<rect x="30.0918" y="28.7646" width="9.79664" height="2.52346" rx="1.26173" fill="#FFAF2A"/>
<path d="M35.8799 34.5295C35.8799 34.6789 35.8439 34.8189 35.7719 34.9495C35.7025 35.0802 35.5919 35.1855 35.4399 35.2655C35.2905 35.3455 35.1012 35.3855 34.8719 35.3855H34.4039V36.4575H33.8439V33.6655H34.8719C35.0879 33.6655 35.2719 33.7029 35.4239 33.7775C35.5759 33.8522 35.6892 33.9549 35.7639 34.0855C35.8412 34.2162 35.8799 34.3642 35.8799 34.5295ZM34.8479 34.9335C35.0025 34.9335 35.1172 34.8989 35.1919 34.8295C35.2665 34.7575 35.3039 34.6575 35.3039 34.5295C35.3039 34.2575 35.1519 34.1215 34.8479 34.1215H34.4039V34.9335H34.8479ZM33.6999 51.3415C33.6999 51.1175 33.7439 50.9189 33.8319 50.7455C33.9225 50.5722 34.0439 50.4389 34.1959 50.3455C34.3505 50.2522 34.5225 50.2055 34.7119 50.2055C34.8772 50.2055 35.0212 50.2389 35.1439 50.3055C35.2692 50.3722 35.3692 50.4562 35.4439 50.5575V50.2415H36.0079V52.4575H35.4439V52.1335C35.3719 52.2375 35.2719 52.3242 35.1439 52.3935C35.0185 52.4602 34.8732 52.4935 34.7079 52.4935C34.5212 52.4935 34.3505 52.4455 34.1959 52.3495C34.0439 52.2535 33.9225 52.1189 33.8319 51.9455C33.7439 51.7695 33.6999 51.5682 33.6999 51.3415ZM35.4439 51.3495C35.4439 51.2135 35.4172 51.0975 35.3639 51.0015C35.3105 50.9029 35.2385 50.8282 35.1479 50.7775C35.0572 50.7242 34.9599 50.6975 34.8559 50.6975C34.7519 50.6975 34.6559 50.7229 34.5679 50.7735C34.4799 50.8242 34.4079 50.8989 34.3519 50.9975C34.2985 51.0935 34.2719 51.2082 34.2719 51.3415C34.2719 51.4749 34.2985 51.5922 34.3519 51.6935C34.4079 51.7922 34.4799 51.8682 34.5679 51.9215C34.6585 51.9749 34.7545 52.0015 34.8559 52.0015C34.9599 52.0015 35.0572 51.9762 35.1479 51.9255C35.2385 51.8722 35.3105 51.7975 35.3639 51.7015C35.4172 51.6029 35.4439 51.4855 35.4439 51.3495ZM35.9639 66.2415L34.5919 69.5055H33.9959L34.4759 68.4015L33.5879 66.2415H34.2159L34.7879 67.7895L35.3679 66.2415H35.9639Z" fill="white"/>
<g clip-path="url(#clip0_895_10224)">
<path d="M46.525 24.6896C46.525 22.9337 45.1097 21.5103 43.365 21.5103C41.6196 21.5103 40.2046 22.9337 40.2046 24.6896C40.2046 25.2073 40.3286 25.6952 40.5467 26.1274H40.5456C40.5456 26.1274 40.5475 26.1301 40.55 26.1339C40.6052 26.242 40.6654 26.347 40.7321 26.4476C40.9468 26.8481 41.2713 27.5618 41.2713 28.2265C41.2713 29.2199 42.476 30.4321 42.476 30.4321H43.365H44.2538C44.2538 30.4321 45.4581 29.2199 45.4581 28.2265C45.4581 27.5618 45.7828 26.8481 45.9973 26.4476C46.0643 26.347 46.1245 26.242 46.1793 26.1339C46.1822 26.1301 46.1839 26.1274 46.1839 26.1274H46.183C46.401 25.6952 46.525 25.2072 46.525 24.6896Z" fill="#F2A320"/>
<path d="M40.3896 24.69C40.3896 25.1652 40.4979 25.6205 40.7116 26.0435C40.7147 26.0493 40.8864 26.3448 40.8864 26.3448L40.8953 26.3593C41.1512 26.8367 41.4566 27.5478 41.4566 28.227C41.4566 29.0185 42.3302 30.0055 42.5549 30.2457C42.6859 30.2457 44.0433 30.2457 44.1746 30.2457C44.399 30.0055 45.2729 29.0185 45.2729 28.227C45.2729 27.5478 45.5782 26.8367 45.8343 26.3593L45.8431 26.3448L46.0146 26.0494C46.2313 25.6206 46.3393 25.1652 46.3393 24.6901C46.3393 23.0398 45.0051 21.6973 43.3649 21.6973C41.7244 21.6971 40.3896 23.0397 40.3896 24.69Z" fill="url(#paint0_radial_895_10224)"/>
<path d="M44.6253 26.8935L44.5442 27.139L44.5398 27.1515C44.4176 27.5485 44.2727 28.139 44.2727 28.7033C44.2727 29.3619 43.8567 30.1824 43.7498 30.3818C43.6872 30.3818 43.0416 30.3818 42.9796 30.3818C42.8724 30.1825 42.4566 29.3619 42.4566 28.7033C42.4566 28.139 42.3116 27.5485 42.1896 27.1515L42.1851 27.139C42.1851 27.139 42.1039 26.8935 42.1022 26.8887C42.0244 26.6192 41.9765 26.3338 41.958 26.0374C41.9523 26.1269 41.9492 26.2181 41.9492 26.31C41.9492 26.7053 42.0008 27.0836 42.1022 27.4354C42.1039 27.4405 42.1851 27.6864 42.1851 27.6864L42.1896 27.6983C42.3115 28.0952 42.4566 28.6864 42.4566 29.2507C42.4566 29.9092 42.8724 30.7292 42.9796 30.9292C43.0415 30.9292 43.6872 30.9292 43.7498 30.9292C43.8567 30.7292 44.2727 29.9092 44.2727 29.2507C44.2727 28.6864 44.4176 28.0952 44.5398 27.6983L44.5442 27.6864L44.6253 27.4405C44.7283 27.0837 44.7798 26.7054 44.7798 26.3101C44.7798 26.2181 44.7769 26.127 44.7711 26.0371C44.7529 26.3337 44.7044 26.62 44.6253 26.8935Z" fill="url(#paint1_linear_895_10224)"/>
<path d="M41.7381 22.6955C41.6511 22.608 41.4662 22.6517 41.3257 22.7931C41.1849 22.9344 41.1413 23.1205 41.2287 23.2082C41.3158 23.2957 41.5002 23.2519 41.6411 23.1104C41.7817 22.9687 41.8252 22.7829 41.7381 22.6955Z" fill="url(#paint2_radial_895_10224)"/>
<path d="M40.9735 23.465C40.9206 23.4117 40.8088 23.4382 40.7231 23.524C40.638 23.6102 40.6116 23.7228 40.6645 23.7763C40.7176 23.8292 40.8294 23.8026 40.9146 23.7169C40.9995 23.6309 41.0263 23.5182 40.9735 23.465Z" fill="url(#paint3_radial_895_10224)"/>
<path d="M41.8835 29.4665L44.9374 29.8476C45.0246 29.8589 45.0884 29.9449 45.0884 30.0458C45.0884 30.0559 45.088 30.0656 45.0867 30.0752L45.0735 30.1843C45.0661 30.2449 45.0374 30.2988 44.9941 30.3332C44.9587 30.3612 44.9163 30.3736 44.8741 30.3685L41.8206 29.9873C41.7245 29.9755 41.6572 29.8731 41.6707 29.7595L41.6836 29.6507C41.6911 29.5905 41.7201 29.5364 41.7631 29.5021C41.7986 29.4738 41.8413 29.4613 41.8835 29.4665Z" fill="#808184"/>
<path d="M41.8719 30.0827L44.9258 30.4643C45.0135 30.4753 45.0768 30.561 45.0768 30.6623C45.0768 30.6723 45.0764 30.6817 45.0751 30.6916L45.0619 30.8009C45.0545 30.8608 45.0258 30.9153 44.9825 30.9496C44.9471 30.9777 44.9048 30.9897 44.8628 30.9849L41.809 30.6035C41.7128 30.5913 41.6456 30.4892 41.6589 30.3759L41.6726 30.2667C41.6861 30.1536 41.7757 30.0708 41.8719 30.0827Z" fill="#808184"/>
<path d="M41.8534 30.719L44.9075 31.1002C44.9952 31.111 45.059 31.1971 45.059 31.2983C45.059 31.3078 45.0585 31.3176 45.0573 31.3278L45.0438 31.4369C45.0367 31.497 45.008 31.5509 44.9647 31.5853C44.9293 31.6135 44.8864 31.6264 44.8446 31.621L41.7912 31.2398C41.6946 31.2277 41.6278 31.1258 41.6414 31.0122L41.6545 30.9028C41.6619 30.8426 41.6906 30.7885 41.734 30.7542C41.7694 30.726 41.8116 30.7136 41.8534 30.719Z" fill="#808184"/>
<path d="M43.8653 32.1404C43.8653 32.2915 43.6407 32.4139 43.365 32.4139C43.0889 32.4139 42.8643 32.2915 42.8643 32.1404C42.8643 31.9898 43.0889 31.8672 43.365 31.8672C43.6407 31.8673 43.8653 31.9898 43.8653 32.1404Z" fill="#808184"/>
<path d="M42.8911 32.1407C42.8911 32.2793 43.1035 32.3913 43.3651 32.3913C43.6264 32.3913 43.8383 32.2793 43.8383 32.1407C43.8383 32.0024 43.6264 31.8901 43.3651 31.8901C43.1035 31.8902 42.8911 32.0025 42.8911 32.1407Z" fill="#6D6E70"/>
<path d="M44.7079 31.3452C44.7079 31.8341 44.1054 32.232 43.365 32.232C42.624 32.232 42.0215 31.8341 42.0215 31.3452C42.0215 30.856 42.6239 30.458 43.365 30.458C44.1054 30.4581 44.7079 30.856 44.7079 31.3452Z" fill="#808184"/>
<path d="M44.7205 29.3823C44.8175 29.3823 44.8965 29.4626 44.8965 29.5612V31.5395C44.8965 31.6379 44.8176 31.7183 44.7205 31.7183H42.0088C41.9118 31.7183 41.8325 31.638 41.8325 31.5395V29.5612C41.8325 29.4626 41.9118 29.3823 42.0088 29.3823H44.7205Z" fill="#808184"/>
<path d="M41.9051 29.3823H44.8965V30.0963H41.8325V29.3823H41.9051Z" fill="#808184"/>
<path d="M42.0942 31.3451C42.0942 31.7941 42.663 32.1587 43.3651 32.1587C44.0668 32.1587 44.6356 31.7941 44.6356 31.3451C44.6356 30.8958 44.0668 30.5317 43.3651 30.5317C42.663 30.5318 42.0942 30.8958 42.0942 31.3451Z" fill="url(#paint4_radial_895_10224)"/>
<path d="M41.9053 31.5392C41.9053 31.5969 41.952 31.6444 42.0088 31.6444H44.7206C44.7774 31.6444 44.824 31.597 44.824 31.5392V29.5609C44.824 29.5031 44.7773 29.4556 44.7206 29.4556H42.0089C41.952 29.4556 41.9054 29.503 41.9054 29.5609V31.5392H41.9053Z" fill="url(#paint5_linear_895_10224)"/>
<path d="M44.8241 29.4556H41.9053V30.0226H44.8241V29.4556Z" fill="url(#paint6_linear_895_10224)"/>
<path d="M41.7557 29.706C41.7645 29.6332 41.8175 29.5791 41.8747 29.586L44.928 29.9672C44.9844 29.9741 45.0237 30.0397 45.0149 30.1127L45.0014 30.2221C44.9926 30.2952 44.9393 30.3491 44.8829 30.3419L41.8292 29.9608C41.7727 29.9535 41.7335 29.8882 41.7425 29.8152L41.7557 29.706Z" fill="#898B8D"/>
<path d="M41.744 30.3221C41.7529 30.2495 41.8064 30.1953 41.8629 30.2023L44.9168 30.5838C44.9729 30.5908 45.012 30.6561 45.0026 30.7293L44.9901 30.8382C44.9809 30.9112 44.9275 30.9654 44.8711 30.9582L41.8174 30.577C41.7609 30.5697 41.722 30.5044 41.7307 30.4317L41.744 30.3221Z" fill="#898B8D"/>
<path d="M41.7262 30.9585C41.735 30.8856 41.7883 30.8316 41.8444 30.8385L44.8983 31.2201C44.9548 31.2271 44.9935 31.2926 44.9848 31.3657L44.9718 31.4751C44.963 31.5482 44.9097 31.6015 44.853 31.5945L41.7995 31.2134C41.7426 31.2065 41.7039 31.1409 41.7127 31.068L41.7262 30.9585Z" fill="#898B8D"/>
<path d="M41.7075 29.6591C41.716 29.5862 41.7695 29.5323 41.8259 29.5392L44.8799 29.9203C44.9364 29.9276 44.975 29.9933 44.9663 30.0662L44.9532 30.1753C44.9444 30.2482 44.8907 30.3022 44.8344 30.2952L41.7805 29.9141C41.7241 29.9067 41.6853 29.8414 41.6941 29.7684L41.7075 29.6591Z" fill="url(#paint7_linear_895_10224)"/>
<path d="M41.6955 30.2754C41.7044 30.2024 41.7575 30.1483 41.814 30.1554L44.8679 30.537C44.9244 30.5438 44.9636 30.6094 44.9543 30.6824L44.9413 30.7916C44.9325 30.8646 44.8791 30.9183 44.8228 30.9112L41.7691 30.5302C41.7127 30.5229 41.6733 30.4576 41.6825 30.3845L41.6955 30.2754Z" fill="url(#paint8_linear_895_10224)"/>
<path d="M41.6774 30.9115C41.6861 30.8381 41.7398 30.7845 41.7961 30.7917L44.8495 31.1728C44.9059 31.1797 44.9452 31.2453 44.9362 31.3181L44.9234 31.4278C44.9142 31.5006 44.861 31.5545 44.8046 31.5477L41.7506 31.1663C41.6943 31.1591 41.6555 31.0935 41.6644 31.0205L41.6774 30.9115Z" fill="url(#paint9_linear_895_10224)"/>
<path d="M43.7685 25.4254C43.7685 25.4254 43.6929 25.5015 43.6176 25.577C43.6176 25.5467 43.6176 25.4963 43.6176 25.4963L43.4276 25.4563C43.4229 25.4671 43.3106 25.7183 43.0616 25.7183C43.0442 25.7183 43.0342 25.7164 43.025 25.7151C43.0392 25.6785 43.0839 25.6153 43.1319 25.5664L42.9914 25.4253C42.9914 25.4253 42.8466 25.5716 42.7645 25.6539C42.7205 25.6092 42.6045 25.4931 42.6045 25.4931C42.6045 25.4931 42.4262 25.6725 42.3534 25.7457C42.3093 25.7014 42.0943 25.4852 42.0943 25.4852C42.0943 25.4852 42.0943 25.8345 42.0943 25.9158C42.0248 25.9263 41.9212 25.9423 41.9212 25.9423L41.6819 26.1025C41.6529 26.1214 41.6372 26.1532 41.6372 26.1857C41.6372 26.2045 41.6429 26.2236 41.654 26.2406C41.6845 26.2863 41.7461 26.2991 41.7915 26.2683C41.7915 26.2683 41.9636 26.1532 41.9944 26.1325C42.03 26.1273 42.2926 26.0874 42.2926 26.0874C42.2926 26.0874 42.2926 25.9744 42.2926 25.9664C42.3067 25.9806 42.3535 26.0275 42.3535 26.0275C42.3535 26.0275 42.532 25.8482 42.6046 25.7749C42.6492 25.8193 42.7646 25.9357 42.7646 25.9357C42.7646 25.9357 42.8546 25.8457 42.8575 25.8423C42.89 25.882 42.9503 25.9174 43.0617 25.9174C43.2164 25.9174 43.3332 25.8565 43.4195 25.7837C43.4195 25.7902 43.4195 26.0583 43.4195 26.0583C43.4195 26.0583 43.6647 25.8121 43.7393 25.7366C43.7393 25.8209 43.7393 26.1502 43.7393 26.1502C43.7393 26.1502 43.9814 25.9071 44.0474 25.8409C44.083 25.9007 44.1845 26.0708 44.1845 26.0708C44.1845 26.0708 44.2859 25.9683 44.2877 25.9666C44.2877 25.9827 44.2877 26.0365 44.2877 26.0365C44.2877 26.0365 44.5767 26.0981 44.6747 26.1187C44.6772 26.1985 44.6842 26.41 44.6842 26.41H44.9809C45.0355 26.41 45.0802 26.3657 45.0802 26.3102C45.0802 26.2552 45.0356 26.2106 44.9809 26.2106C44.9809 26.2106 44.9286 26.2106 44.8759 26.2106C44.8734 26.1301 44.8677 25.956 44.8677 25.956C44.8677 25.956 44.5853 25.8963 44.4858 25.8749C44.4858 25.8071 44.4858 25.4853 44.4858 25.4853C44.4858 25.4853 44.2701 25.7023 44.2237 25.749C44.1877 25.6891 44.0864 25.5191 44.0864 25.5191C44.0864 25.5191 43.9602 25.646 43.9375 25.669C43.9375 25.5851 43.9375 25.2554 43.9375 25.2554L43.7685 25.4254Z" fill="#FFFACF"/>
<path d="M45.3506 23.5562C45.0923 24.0056 44.5083 23.9894 43.9587 23.6704C43.4096 23.3512 43.1033 22.8501 43.3613 22.4005C43.6196 21.9503 44.2176 21.9428 44.7674 22.2615C45.3165 22.5807 45.6088 23.1062 45.3506 23.5562Z" fill="url(#paint10_radial_895_10224)"/>
</g>
<defs>
<filter id="filter0_d_895_10224" x="0.0922852" y="0.31543" width="66.7183" height="61.4673" filterUnits="userSpaceOnUse" color-interpolation-filters="sRGB">
<feFlood flood-opacity="0" result="BackgroundImageFix"/>
<feColorMatrix in="SourceAlpha" type="matrix" values="0 0 0 0 0 0 0 0 0 0 0 0 0 0 0 0 0 0 127 0" result="hardAlpha"/>
<feOffset dy="5"/>
<feGaussianBlur stdDeviation="15"/>
<feColorMatrix type="matrix" values="0 0 0 0 0 0 0 0 0 0 0 0 0 0 0 0 0 0 0.05 0"/>
<feBlend mode="normal" in2="BackgroundImageFix" result="effect1_dropShadow_895_10224"/>
<feBlend mode="normal" in="SourceGraphic" in2="effect1_dropShadow_895_10224" result="shape"/>
</filter>
<radialGradient id="paint0_radial_895_10224" cx="0" cy="0" r="1" gradientUnits="userSpaceOnUse" gradientTransform="translate(43.4938 25.8184) scale(4.30489 4.33085)">
<stop stop-color="#F4E589"/>
<stop offset="0.1637" stop-color="#F5E181"/>
<stop offset="0.4153" stop-color="#F6D76C"/>
<stop offset="0.7216" stop-color="#F9C749"/>
<stop offset="1" stop-color="#FCB623"/>
</radialGradient>
<linearGradient id="paint1_linear_895_10224" x1="43.3645" y1="26.0915" x2="43.3645" y2="29.5399" gradientUnits="userSpaceOnUse">
<stop stop-color="#FFF696"/>
<stop offset="0.0338" stop-color="#FDF290"/>
<stop offset="0.346" stop-color="#EDCF61"/>
<stop offset="0.6223" stop-color="#E1B53F"/>
<stop offset="0.8497" stop-color="#DAA62B"/>
<stop offset="1" stop-color="#D7A023"/>
</linearGradient>
<radialGradient id="paint2_radial_895_10224" cx="0" cy="0" r="1" gradientUnits="userSpaceOnUse" gradientTransform="translate(41.5784 23.041) scale(0.29177 0.29353)">
<stop stop-color="#F4E589"/>
<stop offset="0.2013" stop-color="#F5E791"/>
<stop offset="0.5107" stop-color="#F8EBA6"/>
<stop offset="0.8878" stop-color="#FDF3C9"/>
<stop offset="1" stop-color="#FFF5D5"/>
</radialGradient>
<radialGradient id="paint3_radial_895_10224" cx="0" cy="0" r="1" gradientUnits="userSpaceOnUse" gradientTransform="translate(40.9139 23.7098) scale(0.176812 0.178077)">
<stop stop-color="#F4E589"/>
<stop offset="0.2013" stop-color="#F5E791"/>
<stop offset="0.5107" stop-color="#F8EBA6"/>
<stop offset="0.8878" stop-color="#FDF3C9"/>
<stop offset="1" stop-color="#FFF5D5"/>
</radialGradient>
<radialGradient id="paint4_radial_895_10224" cx="0" cy="0" r="1" gradientUnits="userSpaceOnUse" gradientTransform="translate(43.3515 31.426) rotate(180) scale(1.27101 0.813704)">
<stop stop-color="white"/>
<stop offset="0.9718" stop-color="#838587"/>
</radialGradient>
<linearGradient id="paint5_linear_895_10224" x1="41.7863" y1="30.55" x2="44.7051" y2="30.55" gradientUnits="userSpaceOnUse">
<stop offset="0.0057" stop-color="#48484A"/>
<stop offset="0.2768" stop-color="white"/>
<stop offset="0.3245" stop-color="#EFEFF0"/>
<stop offset="0.4864" stop-color="#BFBFC1"/>
<stop offset="0.64" stop-color="#99999B"/>
<stop offset="0.7812" stop-color="#7D7E81"/>
<stop offset="0.9056" stop-color="#6D6E71"/>
<stop offset="1" stop-color="#67686B"/>
</linearGradient>
<linearGradient id="paint6_linear_895_10224" x1="41.7863" y1="29.7391" x2="44.7051" y2="29.7391" gradientUnits="userSpaceOnUse">
<stop offset="0.0057" stop-color="#48484A"/>
<stop offset="0.2768" stop-color="white"/>
<stop offset="0.3245" stop-color="#EFEFF0"/>
<stop offset="0.4864" stop-color="#BFBFC1"/>
<stop offset="0.64" stop-color="#99999B"/>
<stop offset="0.7812" stop-color="#7D7E81"/>
<stop offset="0.9056" stop-color="#6D6E71"/>
<stop offset="1" stop-color="#67686B"/>
</linearGradient>
<linearGradient id="paint7_linear_895_10224" x1="45.0698" y1="29.9172" x2="41.6343" y2="29.9172" gradientUnits="userSpaceOnUse">
<stop offset="0.096" stop-color="white"/>
<stop offset="0.1808" stop-color="#A6A8AB"/>
<stop offset="0.3107" stop-color="white"/>
<stop offset="0.3729" stop-color="#9C9EA1"/>
<stop offset="0.6949" stop-color="#DBDCDD"/>
<stop offset="0.9831" stop-color="#9C9EA1"/>
</linearGradient>
<linearGradient id="paint8_linear_895_10224" x1="45.0581" y1="30.5333" x2="41.6227" y2="30.5333" gradientUnits="userSpaceOnUse">
<stop offset="0.096" stop-color="white"/>
<stop offset="0.1808" stop-color="#A6A8AB"/>
<stop offset="0.3107" stop-color="white"/>
<stop offset="0.3729" stop-color="#9C9EA1"/>
<stop offset="0.6949" stop-color="#DBDCDD"/>
<stop offset="0.9831" stop-color="#9C9EA1"/>
</linearGradient>
<linearGradient id="paint9_linear_895_10224" x1="45.0401" y1="31.1697" x2="41.6046" y2="31.1697" gradientUnits="userSpaceOnUse">
<stop offset="0.096" stop-color="white"/>
<stop offset="0.1808" stop-color="#A6A8AB"/>
<stop offset="0.3107" stop-color="white"/>
<stop offset="0.3729" stop-color="#9C9EA1"/>
<stop offset="0.6949" stop-color="#DBDCDD"/>
<stop offset="0.9831" stop-color="#9C9EA1"/>
</linearGradient>
<radialGradient id="paint10_radial_895_10224" cx="0" cy="0" r="1" gradientUnits="userSpaceOnUse" gradientTransform="translate(43.645 23.4561) scale(1.75342 1.76399)">
<stop stop-color="#F4E589"/>
<stop offset="0.2013" stop-color="#F5E791"/>
<stop offset="0.5107" stop-color="#F8EBA6"/>
<stop offset="0.8878" stop-color="#FDF3C9"/>
<stop offset="1" stop-color="#FFF5D5"/>
</radialGradient>
<clipPath id="clip0_895_10224">
<rect width="6.32042" height="11.5534" fill="white" transform="translate(40.2046 21.5103)"/>
</clipPath>
</defs>
</svg>
