<svg width="28" height="24" viewBox="0 0 28 24" fill="none" xmlns="http://www.w3.org/2000/svg">
<path d="M18.6635 4H5.33647C4.94118 4 4.57412 4.01318 4.23529 4.02637C0.889412 4.21092 0 5.35781 0 8.91715V9.68174C0 10.4068 0.635294 11 1.41176 11H22.5882C23.3647 11 24 10.4068 24 9.68174V8.91715C24 4.9887 22.9271 4 18.6635 4Z" fill="url(#paint0_linear_933_15542)"/>
<path d="M1.41176 14C0.635294 14 0 14.589 0 15.3089V19.1178C0 23.0183 1.07294 24 5.33647 24H18.6635C22.8565 24 23.9576 23.0576 24 19.3272V15.3089C24 14.589 23.3647 14 22.5882 14H1.41176ZM7.00235 20.8063H4.58824C4.00941 20.8063 3.52941 20.3613 3.52941 19.8246C3.52941 19.288 4.00941 18.8429 4.58824 18.8429H7.01647C7.59529 18.8429 8.07529 19.288 8.07529 19.8246C8.07529 20.3613 7.59529 20.8063 7.00235 20.8063ZM14.8941 20.8063H10.0376C9.45882 20.8063 8.97882 20.3613 8.97882 19.8246C8.97882 19.288 9.45882 18.8429 10.0376 18.8429H14.8941C15.4729 18.8429 15.9529 19.288 15.9529 19.8246C15.9529 20.3613 15.4871 20.8063 14.8941 20.8063Z" fill="url(#paint1_linear_933_15542)"/>
<path d="M28 13.3987V6.18294C28 1.87278 25.5452 0 21.8424 0H9.59572C8.55345 0 7.6209 0.151475 6.79805 0.468196C6.15349 0.702294 5.5775 1.04656 5.11123 1.50098C4.86437 1.73508 5.05637 2.12065 5.41294 2.12065H20.3201C23.4058 2.12065 25.9018 4.62688 25.9018 7.72523V17.5987C25.9018 17.943 26.272 18.1358 26.5189 17.8879C27.4652 16.8827 28 15.4092 28 13.3987Z" fill="url(#paint2_linear_933_15542)"/>
<defs>
<linearGradient id="paint0_linear_933_15542" x1="12" y1="4" x2="12" y2="11" gradientUnits="userSpaceOnUse">
<stop stop-color="#E071DF"/>
<stop offset="1" stop-color="#02E4F0"/>
</linearGradient>
<linearGradient id="paint1_linear_933_15542" x1="12" y1="14" x2="12" y2="24" gradientUnits="userSpaceOnUse">
<stop stop-color="#E071DF"/>
<stop offset="1" stop-color="#02E4F0"/>
</linearGradient>
<linearGradient id="paint2_linear_933_15542" x1="16.5" y1="0" x2="16.5" y2="18" gradientUnits="userSpaceOnUse">
<stop stop-color="#E071DF"/>
<stop offset="1" stop-color="#02E4F0"/>
</linearGradient>
</defs>
</svg>
