<svg width="40" height="42" viewBox="0 0 40 42" fill="none" xmlns="http://www.w3.org/2000/svg">
<path d="M37.4999 36.7498H32.4999V18.3743H37.4999C38.5862 18.3743 39.548 17.636 39.8805 16.5518C40.2124 15.465 39.8368 14.2752 38.953 13.6137L21.4531 0.488265C20.5837 -0.162755 19.4168 -0.162755 18.5481 0.488265L1.04812 13.6137C0.164375 14.2752 -0.211875 15.4644 0.120625 16.5518C0.451874 17.636 1.41375 18.3743 2.49999 18.3743H7.49998V36.7498H2.49999C1.11812 36.7498 0 37.9239 0 39.3749V42H39.9999V39.3749C39.9999 37.9239 38.8818 36.7498 37.4999 36.7498ZM17.5 36.7498H12.5V18.3743H17.5V36.7498ZM27.4999 36.7498H22.4999V18.3743H27.4999V36.7498Z" fill="url(#paint0_linear_728_9578)"/>
<defs>
<linearGradient id="paint0_linear_728_9578" x1="20" y1="0" x2="20" y2="42" gradientUnits="userSpaceOnUse">
<stop stop-color="#DA5ED8"/>
<stop offset="0.5" stop-color="#B854B7"/>
<stop offset="1"/>
</linearGradient>
</defs>
</svg>
