<svg width="40" height="40" viewBox="0 0 40 40" fill="none" xmlns="http://www.w3.org/2000/svg">
<rect x="0.5" y="0.5" width="39" height="39" rx="19.5" stroke="#EDEDED"/>
<path d="M17 16.25H15.5C14.9033 16.25 14.331 16.4871 13.909 16.909C13.4871 17.331 13.25 17.9033 13.25 18.5V27.5C13.25 28.0967 13.4871 28.669 13.909 29.091C14.331 29.5129 14.9033 29.75 15.5 29.75H24.5C25.0967 29.75 25.669 29.5129 26.091 29.091C26.5129 28.669 26.75 28.0967 26.75 27.5V18.5C26.75 17.9033 26.5129 17.331 26.091 16.909C25.669 16.4871 25.0967 16.25 24.5 16.25H23M23 13.25L20 10.25M20 10.25L17 13.25M20 10.25V23" stroke="#1F1F1F" stroke-width="1.5" stroke-linecap="round" stroke-linejoin="round"/>
</svg>
