<svg width="20" height="20" viewBox="0 0 20 20" fill="none" xmlns="http://www.w3.org/2000/svg">
<path fill-rule="evenodd" clip-rule="evenodd" d="M15.7207 4.26977C16.0848 4.39727 16.3282 4.7406 16.3282 5.12643V10.7706C16.3282 12.3481 15.7548 13.8539 14.7423 15.0206C14.2332 15.6081 13.589 16.0656 12.9048 16.4356L9.93984 18.0373L6.96984 16.4348C6.28484 16.0648 5.63984 15.6081 5.12984 15.0198C4.1165 13.8531 3.5415 12.3464 3.5415 10.7673V5.12643C3.5415 4.7406 3.78484 4.39727 4.149 4.26977L9.634 2.34227C9.829 2.27393 10.0415 2.27393 10.2357 2.34227L15.7207 4.26977Z" stroke="#0601B4" stroke-linecap="round" stroke-linejoin="round"/>
<path opacity="0.4" d="M7.76855 9.93158L9.34522 11.5091L12.5936 8.26074" stroke="#0601B4" stroke-linecap="round" stroke-linejoin="round"/>
</svg>
