<svg width="28" height="27" viewBox="0 0 28 27" fill="none" xmlns="http://www.w3.org/2000/svg">
<g filter="url(#filter0_d_271_6325)">
<path d="M22.6935 12.4948C22.6935 13.439 21.8816 14.1849 21.6172 15.0157C21.3528 15.8466 21.5228 16.9796 21.0035 17.6877C20.4842 18.3958 19.3701 18.5752 18.6431 19.0945C17.9161 19.6138 17.4346 20.624 16.5848 20.9073C15.7351 21.1905 14.7909 20.6618 13.8468 20.6618C12.9026 20.6618 11.9584 21.1811 11.1087 20.9167C10.259 20.6523 9.75856 19.6232 9.05044 19.1039C8.34232 18.5846 7.23766 18.4241 6.69004 17.6971C6.14243 16.9701 6.35959 15.8843 6.07634 15.0252C5.79309 14.166 5 13.439 5 12.4948C5 11.5507 5.81198 10.7953 6.07634 9.96448C6.34071 9.13362 6.17076 8.00063 6.69004 7.29251C7.20933 6.58439 8.32344 6.41444 9.05044 5.88571C9.77744 5.35698 10.259 4.36562 11.1087 4.08237C11.9584 3.79912 12.9309 4.33729 13.8468 4.33729C14.7626 4.33729 15.7351 3.818 16.5848 4.08237C17.4346 4.34673 17.935 5.37587 18.6431 5.88571C19.3512 6.39556 20.4748 6.5655 21.0035 7.29251C21.5322 8.01951 21.3339 9.10529 21.6172 9.96448C21.9004 10.8237 22.6935 11.5507 22.6935 12.4948Z" fill="#3CCD09"/>
<path d="M10.0703 12.4948L12.9028 15.3272L17.6236 10.6064" stroke="white" stroke-width="2" stroke-linecap="round" stroke-linejoin="round"/>
<path d="M22.6935 12.4948C22.6935 13.439 21.8816 14.1849 21.6172 15.0157C21.3528 15.8466 21.5228 16.9796 21.0035 17.6877C20.4842 18.3958 19.3701 18.5752 18.6431 19.0945C17.9161 19.6138 17.4346 20.624 16.5848 20.9073C15.7351 21.1905 14.7909 20.6618 13.8468 20.6618C12.9026 20.6618 11.9584 21.1811 11.1087 20.9167C10.259 20.6524 9.75856 19.6232 9.05044 19.1039C8.34232 18.5846 7.23766 18.4241 6.69004 17.6971C6.14243 16.9701 6.35959 15.8843 6.07634 15.0252C5.79309 14.166 5 13.439 5 12.4948C5 11.5507 5.81198 10.7953 6.07634 9.96448C6.34071 9.13362 6.17076 8.00063 6.69004 7.29251C7.20933 6.58439 8.32344 6.41444 9.05044 5.88571C9.77744 5.35698 10.259 4.36562 11.1087 4.08237C11.9584 3.79912 12.9309 4.33729 13.8468 4.33729C14.7626 4.33729 15.7351 3.818 16.5848 4.08237C17.4346 4.34673 17.935 5.37587 18.6431 5.88571C19.3512 6.39556 20.4748 6.5655 21.0035 7.29251C21.5322 8.01951 21.3339 9.10529 21.6172 9.96448C21.9004 10.8237 22.6935 11.5507 22.6935 12.4948Z" stroke="white" stroke-width="2" stroke-linecap="round" stroke-linejoin="round"/>
</g>
<defs>
<filter id="filter0_d_271_6325" x="0" y="0" width="27.6934" height="26.9917" filterUnits="userSpaceOnUse" color-interpolation-filters="sRGB">
<feFlood flood-opacity="0" result="BackgroundImageFix"/>
<feColorMatrix in="SourceAlpha" type="matrix" values="0 0 0 0 0 0 0 0 0 0 0 0 0 0 0 0 0 0 127 0" result="hardAlpha"/>
<feOffset dy="1"/>
<feGaussianBlur stdDeviation="2"/>
<feComposite in2="hardAlpha" operator="out"/>
<feColorMatrix type="matrix" values="0 0 0 0 0 0 0 0 0 0 0 0 0 0 0 0 0 0 0.25 0"/>
<feBlend mode="normal" in2="BackgroundImageFix" result="effect1_dropShadow_271_6325"/>
<feBlend mode="normal" in="SourceGraphic" in2="effect1_dropShadow_271_6325" result="shape"/>
</filter>
</defs>
</svg>
